{
  "title": "富士山下 / Under Mount Fuji",
  "subtitle": "Imported from MIDI",
  "sourceFile": "D:\\Download\\fu-shi-shan-xia-under-mount-fuji.mid",
  "bpm": 110.0,
  "ticksPerBeat": 480,
  "durationSeconds": 223.638,
  "minMidi": 36,
  "maxMidi": 101,
  "rightHandCount": 646,
  "leftHandCount": 513,
  "noteCount": 1159,
  "notes": [
    {
      "id": "note-0",
      "midi": 89,
      "start": 1.0,
      "duration": 0.947917,
      "end": 1.947917,
      "velocity": 80,
      "hand": "right",
      "interactive": true,
      "label": "89"
    },
    {
      "id": "note-1",
      "midi": 101,
      "start": 2.0,
      "duration": 0.947917,
      "end": 2.947917,
      "velocity": 80,
      "hand": "right",
      "interactive": true,
      "label": "101"
    },
    {
      "id": "note-2",
      "midi": 100,
      "start": 3.0,
      "duration": 0.947917,
      "end": 3.947917,
      "velocity": 80,
      "hand": "right",
      "interactive": true,
      "label": "100"
    },
    {
      "id": "note-3",
      "midi": 38,
      "start": 4.0,
      "duration": 4.0,
      "end": 8.0,
      "velocity": 80,
      "hand": "left",
      "interactive": false,
      "label": "38"
    },
    {
      "id": "note-4",
      "midi": 62,
      "start": 4.0,
      "duration": 4.0,
      "end": 8.0,
      "velocity": 80,
      "hand": "left",
      "interactive": false,
      "label": "62"
    },
    {
      "id": "note-5",
      "midi": 65,
      "start": 4.0,
      "duration": 4.0,
      "end": 8.0,
      "velocity": 80,
      "hand": "left",
      "interactive": false,
      "label": "65"
    },
    {
      "id": "note-6",
      "midi": 69,
      "start": 4.0,
      "duration": 4.0,
      "end": 8.0,
      "velocity": 80,
      "hand": "left",
      "interactive": false,
      "label": "69"
    },
    {
      "id": "note-7",
      "midi": 101,
      "start": 4.0,
      "duration": 0.472917,
      "end": 4.472917,
      "velocity": 80,
      "hand": "right",
      "interactive": true,
      "label": "101"
    },
    {
      "id": "note-8",
      "midi": 100,
      "start": 4.5,
      "duration": 0.472917,
      "end": 4.972917,
      "velocity": 80,
      "hand": "right",
      "interactive": true,
      "label": "100"
    },
    {
      "id": "note-9",
      "midi": 98,
      "start": 5.0,
      "duration": 0.472917,
      "end": 5.472917,
      "velocity": 80,
      "hand": "right",
      "interactive": true,
      "label": "98"
    },
    {
      "id": "note-10",
      "midi": 96,
      "start": 5.5,
      "duration": 0.472917,
      "end": 5.972917,
      "velocity": 80,
      "hand": "right",
      "interactive": true,
      "label": "96"
    },
    {
      "id": "note-11",
      "midi": 98,
      "start": 6.0,
      "duration": 0.472917,
      "end": 6.472917,
      "velocity": 80,
      "hand": "right",
      "interactive": true,
      "label": "98"
    },
    {
      "id": "note-12",
      "midi": 96,
      "start": 6.5,
      "duration": 0.472917,
      "end": 6.972917,
      "velocity": 80,
      "hand": "right",
      "interactive": true,
      "label": "96"
    },
    {
      "id": "note-13",
      "midi": 93,
      "start": 7.0,
      "duration": 0.472917,
      "end": 7.472917,
      "velocity": 80,
      "hand": "right",
      "interactive": true,
      "label": "93"
    },
    {
      "id": "note-14",
      "midi": 91,
      "start": 7.5,
      "duration": 0.472917,
      "end": 7.972917,
      "velocity": 80,
      "hand": "right",
      "interactive": true,
      "label": "91"
    },
    {
      "id": "note-15",
      "midi": 45,
      "start": 8.0,
      "duration": 4.0,
      "end": 12.0,
      "velocity": 80,
      "hand": "left",
      "interactive": false,
      "label": "45"
    },
    {
      "id": "note-16",
      "midi": 60,
      "start": 8.0,
      "duration": 4.0,
      "end": 12.0,
      "velocity": 80,
      "hand": "left",
      "interactive": false,
      "label": "60"
    },
    {
      "id": "note-17",
      "midi": 64,
      "start": 8.0,
      "duration": 4.0,
      "end": 12.0,
      "velocity": 80,
      "hand": "left",
      "interactive": false,
      "label": "64"
    },
    {
      "id": "note-18",
      "midi": 69,
      "start": 8.0,
      "duration": 4.0,
      "end": 12.0,
      "velocity": 80,
      "hand": "left",
      "interactive": false,
      "label": "69"
    },
    {
      "id": "note-19",
      "midi": 93,
      "start": 8.0,
      "duration": 0.472917,
      "end": 8.472917,
      "velocity": 80,
      "hand": "right",
      "interactive": true,
      "label": "93"
    },
    {
      "id": "note-20",
      "midi": 91,
      "start": 8.5,
      "duration": 0.472917,
      "end": 8.972917,
      "velocity": 80,
      "hand": "right",
      "interactive": true,
      "label": "91"
    },
    {
      "id": "note-21",
      "midi": 89,
      "start": 9.0,
      "duration": 0.472917,
      "end": 9.472917,
      "velocity": 80,
      "hand": "right",
      "interactive": true,
      "label": "89"
    },
    {
      "id": "note-22",
      "midi": 88,
      "start": 9.5,
      "duration": 0.472917,
      "end": 9.972917,
      "velocity": 80,
      "hand": "right",
      "interactive": true,
      "label": "88"
    },
    {
      "id": "note-23",
      "midi": 89,
      "start": 10.0,
      "duration": 0.472917,
      "end": 10.472917,
      "velocity": 80,
      "hand": "right",
      "interactive": true,
      "label": "89"
    },
    {
      "id": "note-24",
      "midi": 88,
      "start": 10.5,
      "duration": 0.472917,
      "end": 10.972917,
      "velocity": 80,
      "hand": "right",
      "interactive": true,
      "label": "88"
    },
    {
      "id": "note-25",
      "midi": 86,
      "start": 11.0,
      "duration": 0.472917,
      "end": 11.472917,
      "velocity": 80,
      "hand": "right",
      "interactive": true,
      "label": "86"
    },
    {
      "id": "note-26",
      "midi": 84,
      "start": 11.5,
      "duration": 0.472917,
      "end": 11.972917,
      "velocity": 80,
      "hand": "right",
      "interactive": true,
      "label": "84"
    },
    {
      "id": "note-27",
      "midi": 46,
      "start": 12.0,
      "duration": 2.0,
      "end": 14.0,
      "velocity": 80,
      "hand": "left",
      "interactive": false,
      "label": "46"
    },
    {
      "id": "note-28",
      "midi": 62,
      "start": 12.0,
      "duration": 2.0,
      "end": 14.0,
      "velocity": 80,
      "hand": "left",
      "interactive": false,
      "label": "62"
    },
    {
      "id": "note-29",
      "midi": 65,
      "start": 12.0,
      "duration": 2.0,
      "end": 14.0,
      "velocity": 80,
      "hand": "left",
      "interactive": false,
      "label": "65"
    },
    {
      "id": "note-30",
      "midi": 70,
      "start": 12.0,
      "duration": 2.0,
      "end": 14.0,
      "velocity": 80,
      "hand": "left",
      "interactive": false,
      "label": "70"
    },
    {
      "id": "note-31",
      "midi": 86,
      "start": 12.0,
      "duration": 0.947917,
      "end": 12.947917,
      "velocity": 80,
      "hand": "right",
      "interactive": true,
      "label": "86"
    },
    {
      "id": "note-32",
      "midi": 88,
      "start": 13.0,
      "duration": 0.472917,
      "end": 13.472917,
      "velocity": 80,
      "hand": "right",
      "interactive": true,
      "label": "88"
    },
    {
      "id": "note-33",
      "midi": 89,
      "start": 13.5,
      "duration": 0.472917,
      "end": 13.972917,
      "velocity": 80,
      "hand": "right",
      "interactive": true,
      "label": "89"
    },
    {
      "id": "note-34",
      "midi": 36,
      "start": 14.0,
      "duration": 2.0,
      "end": 16.0,
      "velocity": 80,
      "hand": "left",
      "interactive": false,
      "label": "36"
    },
    {
      "id": "note-35",
      "midi": 60,
      "start": 14.0,
      "duration": 2.0,
      "end": 16.0,
      "velocity": 80,
      "hand": "left",
      "interactive": false,
      "label": "60"
    },
    {
      "id": "note-36",
      "midi": 64,
      "start": 14.0,
      "duration": 2.0,
      "end": 16.0,
      "velocity": 80,
      "hand": "left",
      "interactive": false,
      "label": "64"
    },
    {
      "id": "note-37",
      "midi": 67,
      "start": 14.0,
      "duration": 2.0,
      "end": 16.0,
      "velocity": 80,
      "hand": "left",
      "interactive": false,
      "label": "67"
    },
    {
      "id": "note-38",
      "midi": 91,
      "start": 14.0,
      "duration": 0.947917,
      "end": 14.947917,
      "velocity": 80,
      "hand": "right",
      "interactive": true,
      "label": "91"
    },
    {
      "id": "note-39",
      "midi": 93,
      "start": 15.0,
      "duration": 0.472917,
      "end": 15.472917,
      "velocity": 80,
      "hand": "right",
      "interactive": true,
      "label": "93"
    },
    {
      "id": "note-40",
      "midi": 98,
      "start": 15.5,
      "duration": 0.472917,
      "end": 15.972917,
      "velocity": 80,
      "hand": "right",
      "interactive": true,
      "label": "98"
    },
    {
      "id": "note-41",
      "midi": 41,
      "start": 16.0,
      "duration": 3.0,
      "end": 19.0,
      "velocity": 80,
      "hand": "left",
      "interactive": false,
      "label": "41"
    },
    {
      "id": "note-42",
      "midi": 60,
      "start": 16.0,
      "duration": 3.0,
      "end": 19.0,
      "velocity": 80,
      "hand": "left",
      "interactive": false,
      "label": "60"
    },
    {
      "id": "note-43",
      "midi": 65,
      "start": 16.0,
      "duration": 3.0,
      "end": 19.0,
      "velocity": 80,
      "hand": "left",
      "interactive": false,
      "label": "65"
    },
    {
      "id": "note-44",
      "midi": 69,
      "start": 16.0,
      "duration": 3.0,
      "end": 19.0,
      "velocity": 80,
      "hand": "left",
      "interactive": false,
      "label": "69"
    },
    {
      "id": "note-45",
      "midi": 96,
      "start": 16.0,
      "duration": 0.472917,
      "end": 16.472917,
      "velocity": 80,
      "hand": "right",
      "interactive": true,
      "label": "96"
    },
    {
      "id": "note-46",
      "midi": 93,
      "start": 16.5,
      "duration": 1.422917,
      "end": 17.922917,
      "velocity": 80,
      "hand": "right",
      "interactive": true,
      "label": "93"
    },
    {
      "id": "note-47",
      "midi": 96,
      "start": 18.5,
      "duration": 0.947917,
      "end": 19.447917,
      "velocity": 80,
      "hand": "right",
      "interactive": true,
      "label": "96"
    },
    {
      "id": "note-48",
      "midi": 40,
      "start": 19.0,
      "duration": 1.0,
      "end": 20.0,
      "velocity": 80,
      "hand": "left",
      "interactive": false,
      "label": "40"
    },
    {
      "id": "note-49",
      "midi": 60,
      "start": 19.0,
      "duration": 1.0,
      "end": 20.0,
      "velocity": 80,
      "hand": "left",
      "interactive": false,
      "label": "60"
    },
    {
      "id": "note-50",
      "midi": 64,
      "start": 19.0,
      "duration": 1.0,
      "end": 20.0,
      "velocity": 80,
      "hand": "left",
      "interactive": false,
      "label": "64"
    },
    {
      "id": "note-51",
      "midi": 69,
      "start": 19.0,
      "duration": 1.0,
      "end": 20.0,
      "velocity": 80,
      "hand": "left",
      "interactive": false,
      "label": "69"
    },
    {
      "id": "note-52",
      "midi": 91,
      "start": 19.5,
      "duration": 0.472917,
      "end": 19.972917,
      "velocity": 80,
      "hand": "right",
      "interactive": true,
      "label": "91"
    },
    {
      "id": "note-53",
      "midi": 38,
      "start": 20.0,
      "duration": 4.0,
      "end": 24.0,
      "velocity": 80,
      "hand": "left",
      "interactive": false,
      "label": "38"
    },
    {
      "id": "note-54",
      "midi": 62,
      "start": 20.0,
      "duration": 4.0,
      "end": 24.0,
      "velocity": 80,
      "hand": "left",
      "interactive": false,
      "label": "62"
    },
    {
      "id": "note-55",
      "midi": 65,
      "start": 20.0,
      "duration": 4.0,
      "end": 24.0,
      "velocity": 80,
      "hand": "left",
      "interactive": false,
      "label": "65"
    },
    {
      "id": "note-56",
      "midi": 69,
      "start": 20.0,
      "duration": 4.0,
      "end": 24.0,
      "velocity": 80,
      "hand": "left",
      "interactive": false,
      "label": "69"
    },
    {
      "id": "note-57",
      "midi": 77,
      "start": 20.0,
      "duration": 1.897917,
      "end": 21.897917,
      "velocity": 80,
      "hand": "right",
      "interactive": true,
      "label": "77"
    },
    {
      "id": "note-58",
      "midi": 93,
      "start": 20.0,
      "duration": 0.235417,
      "end": 20.235417,
      "velocity": 80,
      "hand": "right",
      "interactive": true,
      "label": "93"
    },
    {
      "id": "note-59",
      "midi": 89,
      "start": 20.25,
      "duration": 0.235417,
      "end": 20.485417,
      "velocity": 80,
      "hand": "right",
      "interactive": true,
      "label": "89"
    },
    {
      "id": "note-60",
      "midi": 86,
      "start": 20.5,
      "duration": 0.235417,
      "end": 20.735417,
      "velocity": 80,
      "hand": "right",
      "interactive": true,
      "label": "86"
    },
    {
      "id": "note-61",
      "midi": 81,
      "start": 20.75,
      "duration": 0.235417,
      "end": 20.985417,
      "velocity": 80,
      "hand": "right",
      "interactive": true,
      "label": "81"
    },
    {
      "id": "note-62",
      "midi": 93,
      "start": 21.0,
      "duration": 0.235417,
      "end": 21.235417,
      "velocity": 80,
      "hand": "right",
      "interactive": true,
      "label": "93"
    },
    {
      "id": "note-63",
      "midi": 89,
      "start": 21.25,
      "duration": 0.235417,
      "end": 21.485417,
      "velocity": 80,
      "hand": "right",
      "interactive": true,
      "label": "89"
    },
    {
      "id": "note-64",
      "midi": 86,
      "start": 21.5,
      "duration": 0.235417,
      "end": 21.735417,
      "velocity": 80,
      "hand": "right",
      "interactive": true,
      "label": "86"
    },
    {
      "id": "note-65",
      "midi": 81,
      "start": 21.75,
      "duration": 0.235417,
      "end": 21.985417,
      "velocity": 80,
      "hand": "right",
      "interactive": true,
      "label": "81"
    },
    {
      "id": "note-66",
      "midi": 79,
      "start": 22.0,
      "duration": 0.947917,
      "end": 22.947917,
      "velocity": 80,
      "hand": "right",
      "interactive": true,
      "label": "79"
    },
    {
      "id": "note-67",
      "midi": 93,
      "start": 22.0,
      "duration": 0.235417,
      "end": 22.235417,
      "velocity": 80,
      "hand": "right",
      "interactive": true,
      "label": "93"
    },
    {
      "id": "note-68",
      "midi": 89,
      "start": 22.25,
      "duration": 0.235417,
      "end": 22.485417,
      "velocity": 80,
      "hand": "right",
      "interactive": true,
      "label": "89"
    },
    {
      "id": "note-69",
      "midi": 86,
      "start": 22.5,
      "duration": 0.235417,
      "end": 22.735417,
      "velocity": 80,
      "hand": "right",
      "interactive": true,
      "label": "86"
    },
    {
      "id": "note-70",
      "midi": 81,
      "start": 22.75,
      "duration": 0.235417,
      "end": 22.985417,
      "velocity": 80,
      "hand": "right",
      "interactive": true,
      "label": "81"
    },
    {
      "id": "note-71",
      "midi": 81,
      "start": 23.0,
      "duration": 0.75,
      "end": 23.75,
      "velocity": 80,
      "hand": "right",
      "interactive": true,
      "label": "81"
    },
    {
      "id": "note-72",
      "midi": 93,
      "start": 23.0,
      "duration": 0.235417,
      "end": 23.235417,
      "velocity": 80,
      "hand": "right",
      "interactive": true,
      "label": "93"
    },
    {
      "id": "note-73",
      "midi": 89,
      "start": 23.25,
      "duration": 0.235417,
      "end": 23.485417,
      "velocity": 80,
      "hand": "right",
      "interactive": true,
      "label": "89"
    },
    {
      "id": "note-74",
      "midi": 86,
      "start": 23.5,
      "duration": 0.235417,
      "end": 23.735417,
      "velocity": 80,
      "hand": "right",
      "interactive": true,
      "label": "86"
    },
    {
      "id": "note-75",
      "midi": 81,
      "start": 23.75,
      "duration": 0.235417,
      "end": 23.985417,
      "velocity": 80,
      "hand": "right",
      "interactive": true,
      "label": "81"
    },
    {
      "id": "note-76",
      "midi": 36,
      "start": 24.0,
      "duration": 4.0,
      "end": 28.0,
      "velocity": 80,
      "hand": "left",
      "interactive": false,
      "label": "36"
    },
    {
      "id": "note-77",
      "midi": 60,
      "start": 24.0,
      "duration": 4.0,
      "end": 28.0,
      "velocity": 80,
      "hand": "left",
      "interactive": false,
      "label": "60"
    },
    {
      "id": "note-78",
      "midi": 64,
      "start": 24.0,
      "duration": 4.0,
      "end": 28.0,
      "velocity": 80,
      "hand": "left",
      "interactive": false,
      "label": "64"
    },
    {
      "id": "note-79",
      "midi": 67,
      "start": 24.0,
      "duration": 4.0,
      "end": 28.0,
      "velocity": 80,
      "hand": "left",
      "interactive": false,
      "label": "67"
    },
    {
      "id": "note-80",
      "midi": 84,
      "start": 24.0,
      "duration": 0.5,
      "end": 24.5,
      "velocity": 80,
      "hand": "right",
      "interactive": true,
      "label": "84"
    },
    {
      "id": "note-81",
      "midi": 91,
      "start": 24.0,
      "duration": 0.235417,
      "end": 24.235417,
      "velocity": 80,
      "hand": "right",
      "interactive": true,
      "label": "91"
    },
    {
      "id": "note-82",
      "midi": 88,
      "start": 24.25,
      "duration": 0.235417,
      "end": 24.485417,
      "velocity": 80,
      "hand": "right",
      "interactive": true,
      "label": "88"
    },
    {
      "id": "note-83",
      "midi": 84,
      "start": 24.5,
      "duration": 1.0,
      "end": 25.5,
      "velocity": 80,
      "hand": "right",
      "interactive": true,
      "label": "84"
    },
    {
      "id": "note-84",
      "midi": 79,
      "start": 24.75,
      "duration": 0.235417,
      "end": 24.985417,
      "velocity": 80,
      "hand": "right",
      "interactive": true,
      "label": "79"
    },
    {
      "id": "note-85",
      "midi": 91,
      "start": 25.0,
      "duration": 0.235417,
      "end": 25.235417,
      "velocity": 80,
      "hand": "right",
      "interactive": true,
      "label": "91"
    },
    {
      "id": "note-86",
      "midi": 88,
      "start": 25.25,
      "duration": 0.235417,
      "end": 25.485417,
      "velocity": 80,
      "hand": "right",
      "interactive": true,
      "label": "88"
    },
    {
      "id": "note-87",
      "midi": 84,
      "start": 25.5,
      "duration": 0.397917,
      "end": 25.897917,
      "velocity": 80,
      "hand": "right",
      "interactive": true,
      "label": "84"
    },
    {
      "id": "note-88",
      "midi": 79,
      "start": 25.75,
      "duration": 0.235417,
      "end": 25.985417,
      "velocity": 80,
      "hand": "right",
      "interactive": true,
      "label": "79"
    },
    {
      "id": "note-89",
      "midi": 79,
      "start": 26.0,
      "duration": 0.75,
      "end": 26.75,
      "velocity": 80,
      "hand": "right",
      "interactive": true,
      "label": "79"
    },
    {
      "id": "note-90",
      "midi": 91,
      "start": 26.0,
      "duration": 0.235417,
      "end": 26.235417,
      "velocity": 80,
      "hand": "right",
      "interactive": true,
      "label": "91"
    },
    {
      "id": "note-91",
      "midi": 88,
      "start": 26.25,
      "duration": 0.235417,
      "end": 26.485417,
      "velocity": 80,
      "hand": "right",
      "interactive": true,
      "label": "88"
    },
    {
      "id": "note-92",
      "midi": 84,
      "start": 26.5,
      "duration": 0.235417,
      "end": 26.735417,
      "velocity": 80,
      "hand": "right",
      "interactive": true,
      "label": "84"
    },
    {
      "id": "note-93",
      "midi": 79,
      "start": 26.75,
      "duration": 0.235417,
      "end": 26.985417,
      "velocity": 80,
      "hand": "right",
      "interactive": true,
      "label": "79"
    },
    {
      "id": "note-94",
      "midi": 76,
      "start": 27.0,
      "duration": 0.947917,
      "end": 27.947917,
      "velocity": 80,
      "hand": "right",
      "interactive": true,
      "label": "76"
    },
    {
      "id": "note-95",
      "midi": 91,
      "start": 27.0,
      "duration": 0.235417,
      "end": 27.235417,
      "velocity": 80,
      "hand": "right",
      "interactive": true,
      "label": "91"
    },
    {
      "id": "note-96",
      "midi": 88,
      "start": 27.25,
      "duration": 0.235417,
      "end": 27.485417,
      "velocity": 80,
      "hand": "right",
      "interactive": true,
      "label": "88"
    },
    {
      "id": "note-97",
      "midi": 84,
      "start": 27.5,
      "duration": 0.235417,
      "end": 27.735417,
      "velocity": 80,
      "hand": "right",
      "interactive": true,
      "label": "84"
    },
    {
      "id": "note-98",
      "midi": 79,
      "start": 27.75,
      "duration": 0.235417,
      "end": 27.985417,
      "velocity": 80,
      "hand": "right",
      "interactive": true,
      "label": "79"
    },
    {
      "id": "note-99",
      "midi": 46,
      "start": 28.0,
      "duration": 2.0,
      "end": 30.0,
      "velocity": 80,
      "hand": "left",
      "interactive": false,
      "label": "46"
    },
    {
      "id": "note-100",
      "midi": 62,
      "start": 28.0,
      "duration": 2.0,
      "end": 30.0,
      "velocity": 80,
      "hand": "left",
      "interactive": false,
      "label": "62"
    },
    {
      "id": "note-101",
      "midi": 65,
      "start": 28.0,
      "duration": 2.0,
      "end": 30.0,
      "velocity": 80,
      "hand": "left",
      "interactive": false,
      "label": "65"
    },
    {
      "id": "note-102",
      "midi": 70,
      "start": 28.0,
      "duration": 2.0,
      "end": 30.0,
      "velocity": 80,
      "hand": "left",
      "interactive": false,
      "label": "70"
    },
    {
      "id": "note-103",
      "midi": 77,
      "start": 28.0,
      "duration": 0.75,
      "end": 28.75,
      "velocity": 80,
      "hand": "right",
      "interactive": true,
      "label": "77"
    },
    {
      "id": "note-104",
      "midi": 89,
      "start": 28.0,
      "duration": 0.235417,
      "end": 28.235417,
      "velocity": 80,
      "hand": "right",
      "interactive": true,
      "label": "89"
    },
    {
      "id": "note-105",
      "midi": 86,
      "start": 28.25,
      "duration": 0.235417,
      "end": 28.485417,
      "velocity": 80,
      "hand": "right",
      "interactive": true,
      "label": "86"
    },
    {
      "id": "note-106",
      "midi": 82,
      "start": 28.5,
      "duration": 0.235417,
      "end": 28.735417,
      "velocity": 80,
      "hand": "right",
      "interactive": true,
      "label": "82"
    },
    {
      "id": "note-107",
      "midi": 77,
      "start": 28.75,
      "duration": 0.75,
      "end": 29.5,
      "velocity": 80,
      "hand": "right",
      "interactive": true,
      "label": "77"
    },
    {
      "id": "note-108",
      "midi": 86,
      "start": 29.0,
      "duration": 0.235417,
      "end": 29.235417,
      "velocity": 80,
      "hand": "right",
      "interactive": true,
      "label": "86"
    },
    {
      "id": "note-109",
      "midi": 82,
      "start": 29.25,
      "duration": 0.235417,
      "end": 29.485417,
      "velocity": 80,
      "hand": "right",
      "interactive": true,
      "label": "82"
    },
    {
      "id": "note-110",
      "midi": 77,
      "start": 29.5,
      "duration": 0.397917,
      "end": 29.897917,
      "velocity": 80,
      "hand": "right",
      "interactive": true,
      "label": "77"
    },
    {
      "id": "note-111",
      "midi": 74,
      "start": 29.75,
      "duration": 0.235417,
      "end": 29.985417,
      "velocity": 80,
      "hand": "right",
      "interactive": true,
      "label": "74"
    },
    {
      "id": "note-112",
      "midi": 36,
      "start": 30.0,
      "duration": 2.0,
      "end": 32.0,
      "velocity": 80,
      "hand": "left",
      "interactive": false,
      "label": "36"
    },
    {
      "id": "note-113",
      "midi": 60,
      "start": 30.0,
      "duration": 2.0,
      "end": 32.0,
      "velocity": 80,
      "hand": "left",
      "interactive": false,
      "label": "60"
    },
    {
      "id": "note-114",
      "midi": 64,
      "start": 30.0,
      "duration": 2.0,
      "end": 32.0,
      "velocity": 80,
      "hand": "left",
      "interactive": false,
      "label": "64"
    },
    {
      "id": "note-115",
      "midi": 67,
      "start": 30.0,
      "duration": 2.0,
      "end": 32.0,
      "velocity": 80,
      "hand": "left",
      "interactive": false,
      "label": "67"
    },
    {
      "id": "note-116",
      "midi": 76,
      "start": 30.0,
      "duration": 0.5,
      "end": 30.5,
      "velocity": 80,
      "hand": "right",
      "interactive": true,
      "label": "76"
    },
    {
      "id": "note-117",
      "midi": 84,
      "start": 30.0,
      "duration": 0.235417,
      "end": 30.235417,
      "velocity": 80,
      "hand": "right",
      "interactive": true,
      "label": "84"
    },
    {
      "id": "note-118",
      "midi": 79,
      "start": 30.25,
      "duration": 0.235417,
      "end": 30.485417,
      "velocity": 80,
      "hand": "right",
      "interactive": true,
      "label": "79"
    },
    {
      "id": "note-119",
      "midi": 76,
      "start": 30.5,
      "duration": 0.75,
      "end": 31.25,
      "velocity": 80,
      "hand": "right",
      "interactive": true,
      "label": "76"
    },
    {
      "id": "note-120",
      "midi": 72,
      "start": 30.75,
      "duration": 0.235417,
      "end": 30.985417,
      "velocity": 80,
      "hand": "right",
      "interactive": true,
      "label": "72"
    },
    {
      "id": "note-121",
      "midi": 79,
      "start": 31.0,
      "duration": 0.235417,
      "end": 31.235417,
      "velocity": 80,
      "hand": "right",
      "interactive": true,
      "label": "79"
    },
    {
      "id": "note-122",
      "midi": 76,
      "start": 31.25,
      "duration": 0.647917,
      "end": 31.897917,
      "velocity": 80,
      "hand": "right",
      "interactive": true,
      "label": "76"
    },
    {
      "id": "note-123",
      "midi": 72,
      "start": 31.5,
      "duration": 0.472917,
      "end": 31.972917,
      "velocity": 80,
      "hand": "right",
      "interactive": true,
      "label": "72"
    },
    {
      "id": "note-124",
      "midi": 41,
      "start": 32.0,
      "duration": 8.0,
      "end": 40.0,
      "velocity": 80,
      "hand": "left",
      "interactive": false,
      "label": "41"
    },
    {
      "id": "note-125",
      "midi": 60,
      "start": 32.0,
      "duration": 8.0,
      "end": 40.0,
      "velocity": 80,
      "hand": "left",
      "interactive": false,
      "label": "60"
    },
    {
      "id": "note-126",
      "midi": 65,
      "start": 32.0,
      "duration": 8.0,
      "end": 40.0,
      "velocity": 80,
      "hand": "left",
      "interactive": false,
      "label": "65"
    },
    {
      "id": "note-127",
      "midi": 69,
      "start": 32.0,
      "duration": 8.0,
      "end": 40.0,
      "velocity": 80,
      "hand": "left",
      "interactive": false,
      "label": "69"
    },
    {
      "id": "note-128",
      "midi": 77,
      "start": 32.0,
      "duration": 3.797917,
      "end": 35.797917,
      "velocity": 80,
      "hand": "right",
      "interactive": true,
      "label": "77"
    },
    {
      "id": "note-129",
      "midi": 60,
      "start": 37.5,
      "duration": 0.472917,
      "end": 37.972917,
      "velocity": 80,
      "hand": "right",
      "interactive": true,
      "label": "60"
    },
    {
      "id": "note-130",
      "midi": 62,
      "start": 38.0,
      "duration": 0.472917,
      "end": 38.472917,
      "velocity": 80,
      "hand": "right",
      "interactive": true,
      "label": "62"
    },
    {
      "id": "note-131",
      "midi": 65,
      "start": 38.5,
      "duration": 0.472917,
      "end": 38.972917,
      "velocity": 80,
      "hand": "right",
      "interactive": true,
      "label": "65"
    },
    {
      "id": "note-132",
      "midi": 67,
      "start": 39.0,
      "duration": 0.472917,
      "end": 39.472917,
      "velocity": 80,
      "hand": "right",
      "interactive": true,
      "label": "67"
    },
    {
      "id": "note-133",
      "midi": 65,
      "start": 39.5,
      "duration": 0.472917,
      "end": 39.972917,
      "velocity": 80,
      "hand": "right",
      "interactive": true,
      "label": "65"
    },
    {
      "id": "note-134",
      "midi": 41,
      "start": 40.0,
      "duration": 4.0,
      "end": 44.0,
      "velocity": 80,
      "hand": "left",
      "interactive": false,
      "label": "41"
    },
    {
      "id": "note-135",
      "midi": 60,
      "start": 40.0,
      "duration": 4.0,
      "end": 44.0,
      "velocity": 80,
      "hand": "left",
      "interactive": false,
      "label": "60"
    },
    {
      "id": "note-136",
      "midi": 65,
      "start": 40.0,
      "duration": 4.0,
      "end": 44.0,
      "velocity": 80,
      "hand": "left",
      "interactive": false,
      "label": "65"
    },
    {
      "id": "note-137",
      "midi": 67,
      "start": 40.0,
      "duration": 0.472917,
      "end": 40.472917,
      "velocity": 80,
      "hand": "right",
      "interactive": true,
      "label": "67"
    },
    {
      "id": "note-138",
      "midi": 69,
      "start": 40.0,
      "duration": 4.0,
      "end": 44.0,
      "velocity": 80,
      "hand": "left",
      "interactive": false,
      "label": "69"
    },
    {
      "id": "note-139",
      "midi": 69,
      "start": 40.5,
      "duration": 0.947917,
      "end": 41.447917,
      "velocity": 80,
      "hand": "right",
      "interactive": true,
      "label": "69"
    },
    {
      "id": "note-140",
      "midi": 69,
      "start": 41.5,
      "duration": 0.947917,
      "end": 42.447917,
      "velocity": 80,
      "hand": "right",
      "interactive": true,
      "label": "69"
    },
    {
      "id": "note-141",
      "midi": 69,
      "start": 42.5,
      "duration": 0.472917,
      "end": 42.972917,
      "velocity": 80,
      "hand": "right",
      "interactive": true,
      "label": "69"
    },
    {
      "id": "note-142",
      "midi": 67,
      "start": 43.0,
      "duration": 0.472917,
      "end": 43.472917,
      "velocity": 80,
      "hand": "right",
      "interactive": true,
      "label": "67"
    },
    {
      "id": "note-143",
      "midi": 65,
      "start": 43.5,
      "duration": 0.472917,
      "end": 43.972917,
      "velocity": 80,
      "hand": "right",
      "interactive": true,
      "label": "65"
    },
    {
      "id": "note-144",
      "midi": 40,
      "start": 44.0,
      "duration": 4.0,
      "end": 48.0,
      "velocity": 80,
      "hand": "left",
      "interactive": false,
      "label": "40"
    },
    {
      "id": "note-145",
      "midi": 60,
      "start": 44.0,
      "duration": 4.0,
      "end": 48.0,
      "velocity": 80,
      "hand": "left",
      "interactive": false,
      "label": "60"
    },
    {
      "id": "note-146",
      "midi": 64,
      "start": 44.0,
      "duration": 4.0,
      "end": 48.0,
      "velocity": 80,
      "hand": "left",
      "interactive": false,
      "label": "64"
    },
    {
      "id": "note-147",
      "midi": 67,
      "start": 44.0,
      "duration": 0.472917,
      "end": 44.472917,
      "velocity": 80,
      "hand": "right",
      "interactive": true,
      "label": "67"
    },
    {
      "id": "note-148",
      "midi": 67,
      "start": 44.0,
      "duration": 4.0,
      "end": 48.0,
      "velocity": 80,
      "hand": "left",
      "interactive": false,
      "label": "67"
    },
    {
      "id": "note-149",
      "midi": 69,
      "start": 44.5,
      "duration": 0.947917,
      "end": 45.447917,
      "velocity": 80,
      "hand": "right",
      "interactive": true,
      "label": "69"
    },
    {
      "id": "note-150",
      "midi": 69,
      "start": 45.5,
      "duration": 0.947917,
      "end": 46.447917,
      "velocity": 80,
      "hand": "right",
      "interactive": true,
      "label": "69"
    },
    {
      "id": "note-151",
      "midi": 69,
      "start": 46.5,
      "duration": 0.472917,
      "end": 46.972917,
      "velocity": 80,
      "hand": "right",
      "interactive": true,
      "label": "69"
    },
    {
      "id": "note-152",
      "midi": 67,
      "start": 47.0,
      "duration": 0.472917,
      "end": 47.472917,
      "velocity": 80,
      "hand": "right",
      "interactive": true,
      "label": "67"
    },
    {
      "id": "note-153",
      "midi": 65,
      "start": 47.5,
      "duration": 0.472917,
      "end": 47.972917,
      "velocity": 80,
      "hand": "right",
      "interactive": true,
      "label": "65"
    },
    {
      "id": "note-154",
      "midi": 38,
      "start": 48.0,
      "duration": 4.0,
      "end": 52.0,
      "velocity": 80,
      "hand": "left",
      "interactive": false,
      "label": "38"
    },
    {
      "id": "note-155",
      "midi": 62,
      "start": 48.0,
      "duration": 4.0,
      "end": 52.0,
      "velocity": 80,
      "hand": "left",
      "interactive": false,
      "label": "62"
    },
    {
      "id": "note-156",
      "midi": 65,
      "start": 48.0,
      "duration": 4.0,
      "end": 52.0,
      "velocity": 80,
      "hand": "left",
      "interactive": false,
      "label": "65"
    },
    {
      "id": "note-157",
      "midi": 67,
      "start": 48.0,
      "duration": 0.710417,
      "end": 48.710417,
      "velocity": 80,
      "hand": "right",
      "interactive": true,
      "label": "67"
    },
    {
      "id": "note-158",
      "midi": 69,
      "start": 48.0,
      "duration": 4.0,
      "end": 52.0,
      "velocity": 80,
      "hand": "left",
      "interactive": false,
      "label": "69"
    },
    {
      "id": "note-159",
      "midi": 65,
      "start": 48.75,
      "duration": 0.710417,
      "end": 49.460417,
      "velocity": 80,
      "hand": "right",
      "interactive": true,
      "label": "65"
    },
    {
      "id": "note-160",
      "midi": 62,
      "start": 49.5,
      "duration": 0.472917,
      "end": 49.972917,
      "velocity": 80,
      "hand": "right",
      "interactive": true,
      "label": "62"
    },
    {
      "id": "note-161",
      "midi": 65,
      "start": 50.0,
      "duration": 0.710417,
      "end": 50.710417,
      "velocity": 80,
      "hand": "right",
      "interactive": true,
      "label": "65"
    },
    {
      "id": "note-162",
      "midi": 67,
      "start": 50.75,
      "duration": 0.710417,
      "end": 51.460417,
      "velocity": 80,
      "hand": "right",
      "interactive": true,
      "label": "67"
    },
    {
      "id": "note-163",
      "midi": 69,
      "start": 51.5,
      "duration": 0.472917,
      "end": 51.972917,
      "velocity": 80,
      "hand": "right",
      "interactive": true,
      "label": "69"
    },
    {
      "id": "note-164",
      "midi": 36,
      "start": 52.0,
      "duration": 4.0,
      "end": 56.0,
      "velocity": 80,
      "hand": "left",
      "interactive": false,
      "label": "36"
    },
    {
      "id": "note-165",
      "midi": 60,
      "start": 52.0,
      "duration": 4.0,
      "end": 56.0,
      "velocity": 80,
      "hand": "left",
      "interactive": false,
      "label": "60"
    },
    {
      "id": "note-166",
      "midi": 65,
      "start": 52.0,
      "duration": 4.0,
      "end": 56.0,
      "velocity": 80,
      "hand": "left",
      "interactive": false,
      "label": "65"
    },
    {
      "id": "note-167",
      "midi": 69,
      "start": 52.0,
      "duration": 0.947917,
      "end": 52.947917,
      "velocity": 80,
      "hand": "right",
      "interactive": true,
      "label": "69"
    },
    {
      "id": "note-168",
      "midi": 69,
      "start": 52.0,
      "duration": 4.0,
      "end": 56.0,
      "velocity": 80,
      "hand": "left",
      "interactive": false,
      "label": "69"
    },
    {
      "id": "note-169",
      "midi": 60,
      "start": 53.5,
      "duration": 0.472917,
      "end": 53.972917,
      "velocity": 80,
      "hand": "right",
      "interactive": true,
      "label": "60"
    },
    {
      "id": "note-170",
      "midi": 62,
      "start": 54.0,
      "duration": 0.472917,
      "end": 54.472917,
      "velocity": 80,
      "hand": "right",
      "interactive": true,
      "label": "62"
    },
    {
      "id": "note-171",
      "midi": 65,
      "start": 54.5,
      "duration": 0.472917,
      "end": 54.972917,
      "velocity": 80,
      "hand": "right",
      "interactive": true,
      "label": "65"
    },
    {
      "id": "note-172",
      "midi": 67,
      "start": 55.0,
      "duration": 0.472917,
      "end": 55.472917,
      "velocity": 80,
      "hand": "right",
      "interactive": true,
      "label": "67"
    },
    {
      "id": "note-173",
      "midi": 65,
      "start": 55.5,
      "duration": 0.472917,
      "end": 55.972917,
      "velocity": 80,
      "hand": "right",
      "interactive": true,
      "label": "65"
    },
    {
      "id": "note-174",
      "midi": 46,
      "start": 56.0,
      "duration": 4.0,
      "end": 60.0,
      "velocity": 80,
      "hand": "left",
      "interactive": false,
      "label": "46"
    },
    {
      "id": "note-175",
      "midi": 62,
      "start": 56.0,
      "duration": 4.0,
      "end": 60.0,
      "velocity": 80,
      "hand": "left",
      "interactive": false,
      "label": "62"
    },
    {
      "id": "note-176",
      "midi": 65,
      "start": 56.0,
      "duration": 4.0,
      "end": 60.0,
      "velocity": 80,
      "hand": "left",
      "interactive": false,
      "label": "65"
    },
    {
      "id": "note-177",
      "midi": 67,
      "start": 56.0,
      "duration": 0.472917,
      "end": 56.472917,
      "velocity": 80,
      "hand": "right",
      "interactive": true,
      "label": "67"
    },
    {
      "id": "note-178",
      "midi": 70,
      "start": 56.0,
      "duration": 4.0,
      "end": 60.0,
      "velocity": 80,
      "hand": "left",
      "interactive": false,
      "label": "70"
    },
    {
      "id": "note-179",
      "midi": 65,
      "start": 56.5,
      "duration": 0.947917,
      "end": 57.447917,
      "velocity": 80,
      "hand": "right",
      "interactive": true,
      "label": "65"
    },
    {
      "id": "note-180",
      "midi": 74,
      "start": 57.5,
      "duration": 0.947917,
      "end": 58.447917,
      "velocity": 80,
      "hand": "right",
      "interactive": true,
      "label": "74"
    },
    {
      "id": "note-181",
      "midi": 72,
      "start": 58.5,
      "duration": 0.472917,
      "end": 58.972917,
      "velocity": 80,
      "hand": "right",
      "interactive": true,
      "label": "72"
    },
    {
      "id": "note-182",
      "midi": 69,
      "start": 59.0,
      "duration": 0.472917,
      "end": 59.472917,
      "velocity": 80,
      "hand": "right",
      "interactive": true,
      "label": "69"
    },
    {
      "id": "note-183",
      "midi": 67,
      "start": 59.5,
      "duration": 0.472917,
      "end": 59.972917,
      "velocity": 80,
      "hand": "right",
      "interactive": true,
      "label": "67"
    },
    {
      "id": "note-184",
      "midi": 45,
      "start": 60.0,
      "duration": 4.0,
      "end": 64.0,
      "velocity": 80,
      "hand": "left",
      "interactive": false,
      "label": "45"
    },
    {
      "id": "note-185",
      "midi": 60,
      "start": 60.0,
      "duration": 4.0,
      "end": 64.0,
      "velocity": 80,
      "hand": "left",
      "interactive": false,
      "label": "60"
    },
    {
      "id": "note-186",
      "midi": 65,
      "start": 60.0,
      "duration": 4.0,
      "end": 64.0,
      "velocity": 80,
      "hand": "left",
      "interactive": false,
      "label": "65"
    },
    {
      "id": "note-187",
      "midi": 67,
      "start": 60.0,
      "duration": 0.472917,
      "end": 60.472917,
      "velocity": 80,
      "hand": "right",
      "interactive": true,
      "label": "67"
    },
    {
      "id": "note-188",
      "midi": 69,
      "start": 60.0,
      "duration": 4.0,
      "end": 64.0,
      "velocity": 80,
      "hand": "left",
      "interactive": false,
      "label": "69"
    },
    {
      "id": "note-189",
      "midi": 65,
      "start": 60.5,
      "duration": 0.947917,
      "end": 61.447917,
      "velocity": 80,
      "hand": "right",
      "interactive": true,
      "label": "65"
    },
    {
      "id": "note-190",
      "midi": 69,
      "start": 61.5,
      "duration": 0.947917,
      "end": 62.447917,
      "velocity": 80,
      "hand": "right",
      "interactive": true,
      "label": "69"
    },
    {
      "id": "note-191",
      "midi": 69,
      "start": 62.5,
      "duration": 0.472917,
      "end": 62.972917,
      "velocity": 80,
      "hand": "right",
      "interactive": true,
      "label": "69"
    },
    {
      "id": "note-192",
      "midi": 67,
      "start": 63.0,
      "duration": 0.472917,
      "end": 63.472917,
      "velocity": 80,
      "hand": "right",
      "interactive": true,
      "label": "67"
    },
    {
      "id": "note-193",
      "midi": 65,
      "start": 63.5,
      "duration": 0.472917,
      "end": 63.972917,
      "velocity": 80,
      "hand": "right",
      "interactive": true,
      "label": "65"
    },
    {
      "id": "note-194",
      "midi": 43,
      "start": 64.0,
      "duration": 4.0,
      "end": 68.0,
      "velocity": 80,
      "hand": "left",
      "interactive": false,
      "label": "43"
    },
    {
      "id": "note-195",
      "midi": 62,
      "start": 64.0,
      "duration": 4.0,
      "end": 68.0,
      "velocity": 80,
      "hand": "left",
      "interactive": false,
      "label": "62"
    },
    {
      "id": "note-196",
      "midi": 65,
      "start": 64.0,
      "duration": 4.0,
      "end": 68.0,
      "velocity": 80,
      "hand": "left",
      "interactive": false,
      "label": "65"
    },
    {
      "id": "note-197",
      "midi": 67,
      "start": 64.0,
      "duration": 0.710417,
      "end": 64.710417,
      "velocity": 80,
      "hand": "right",
      "interactive": true,
      "label": "67"
    },
    {
      "id": "note-198",
      "midi": 67,
      "start": 64.0,
      "duration": 4.0,
      "end": 68.0,
      "velocity": 80,
      "hand": "left",
      "interactive": false,
      "label": "67"
    },
    {
      "id": "note-199",
      "midi": 70,
      "start": 64.0,
      "duration": 4.0,
      "end": 68.0,
      "velocity": 80,
      "hand": "left",
      "interactive": false,
      "label": "70"
    },
    {
      "id": "note-200",
      "midi": 67,
      "start": 64.75,
      "duration": 0.710417,
      "end": 65.460417,
      "velocity": 80,
      "hand": "right",
      "interactive": true,
      "label": "67"
    },
    {
      "id": "note-201",
      "midi": 67,
      "start": 65.5,
      "duration": 0.472917,
      "end": 65.972917,
      "velocity": 80,
      "hand": "right",
      "interactive": true,
      "label": "67"
    },
    {
      "id": "note-202",
      "midi": 67,
      "start": 66.0,
      "duration": 0.710417,
      "end": 66.710417,
      "velocity": 80,
      "hand": "right",
      "interactive": true,
      "label": "67"
    },
    {
      "id": "note-203",
      "midi": 65,
      "start": 66.75,
      "duration": 0.710417,
      "end": 67.460417,
      "velocity": 80,
      "hand": "right",
      "interactive": true,
      "label": "65"
    },
    {
      "id": "note-204",
      "midi": 62,
      "start": 67.5,
      "duration": 0.472917,
      "end": 67.972917,
      "velocity": 80,
      "hand": "right",
      "interactive": true,
      "label": "62"
    },
    {
      "id": "note-205",
      "midi": 36,
      "start": 68.0,
      "duration": 4.0,
      "end": 72.0,
      "velocity": 80,
      "hand": "left",
      "interactive": false,
      "label": "36"
    },
    {
      "id": "note-206",
      "midi": 60,
      "start": 68.0,
      "duration": 4.0,
      "end": 72.0,
      "velocity": 80,
      "hand": "left",
      "interactive": false,
      "label": "60"
    },
    {
      "id": "note-207",
      "midi": 64,
      "start": 68.0,
      "duration": 4.0,
      "end": 72.0,
      "velocity": 80,
      "hand": "left",
      "interactive": false,
      "label": "64"
    },
    {
      "id": "note-208",
      "midi": 67,
      "start": 68.0,
      "duration": 0.947917,
      "end": 68.947917,
      "velocity": 80,
      "hand": "right",
      "interactive": true,
      "label": "67"
    },
    {
      "id": "note-209",
      "midi": 67,
      "start": 68.0,
      "duration": 4.0,
      "end": 72.0,
      "velocity": 80,
      "hand": "left",
      "interactive": false,
      "label": "67"
    },
    {
      "id": "note-210",
      "midi": 60,
      "start": 69.5,
      "duration": 0.472917,
      "end": 69.972917,
      "velocity": 80,
      "hand": "right",
      "interactive": true,
      "label": "60"
    },
    {
      "id": "note-211",
      "midi": 62,
      "start": 70.0,
      "duration": 0.472917,
      "end": 70.472917,
      "velocity": 80,
      "hand": "right",
      "interactive": true,
      "label": "62"
    },
    {
      "id": "note-212",
      "midi": 65,
      "start": 70.5,
      "duration": 0.472917,
      "end": 70.972917,
      "velocity": 80,
      "hand": "right",
      "interactive": true,
      "label": "65"
    },
    {
      "id": "note-213",
      "midi": 67,
      "start": 71.0,
      "duration": 0.472917,
      "end": 71.472917,
      "velocity": 80,
      "hand": "right",
      "interactive": true,
      "label": "67"
    },
    {
      "id": "note-214",
      "midi": 65,
      "start": 71.5,
      "duration": 0.472917,
      "end": 71.972917,
      "velocity": 80,
      "hand": "right",
      "interactive": true,
      "label": "65"
    },
    {
      "id": "note-215",
      "midi": 41,
      "start": 72.0,
      "duration": 4.0,
      "end": 76.0,
      "velocity": 80,
      "hand": "left",
      "interactive": false,
      "label": "41"
    },
    {
      "id": "note-216",
      "midi": 60,
      "start": 72.0,
      "duration": 4.0,
      "end": 76.0,
      "velocity": 80,
      "hand": "left",
      "interactive": false,
      "label": "60"
    },
    {
      "id": "note-217",
      "midi": 65,
      "start": 72.0,
      "duration": 4.0,
      "end": 76.0,
      "velocity": 80,
      "hand": "left",
      "interactive": false,
      "label": "65"
    },
    {
      "id": "note-218",
      "midi": 67,
      "start": 72.0,
      "duration": 0.472917,
      "end": 72.472917,
      "velocity": 80,
      "hand": "right",
      "interactive": true,
      "label": "67"
    },
    {
      "id": "note-219",
      "midi": 69,
      "start": 72.0,
      "duration": 4.0,
      "end": 76.0,
      "velocity": 80,
      "hand": "left",
      "interactive": false,
      "label": "69"
    },
    {
      "id": "note-220",
      "midi": 69,
      "start": 72.5,
      "duration": 0.947917,
      "end": 73.447917,
      "velocity": 80,
      "hand": "right",
      "interactive": true,
      "label": "69"
    },
    {
      "id": "note-221",
      "midi": 72,
      "start": 73.5,
      "duration": 0.947917,
      "end": 74.447917,
      "velocity": 80,
      "hand": "right",
      "interactive": true,
      "label": "72"
    },
    {
      "id": "note-222",
      "midi": 69,
      "start": 74.5,
      "duration": 0.472917,
      "end": 74.972917,
      "velocity": 80,
      "hand": "right",
      "interactive": true,
      "label": "69"
    },
    {
      "id": "note-223",
      "midi": 67,
      "start": 75.0,
      "duration": 0.472917,
      "end": 75.472917,
      "velocity": 80,
      "hand": "right",
      "interactive": true,
      "label": "67"
    },
    {
      "id": "note-224",
      "midi": 65,
      "start": 75.5,
      "duration": 0.472917,
      "end": 75.972917,
      "velocity": 80,
      "hand": "right",
      "interactive": true,
      "label": "65"
    },
    {
      "id": "note-225",
      "midi": 40,
      "start": 76.0,
      "duration": 4.0,
      "end": 80.0,
      "velocity": 80,
      "hand": "left",
      "interactive": false,
      "label": "40"
    },
    {
      "id": "note-226",
      "midi": 60,
      "start": 76.0,
      "duration": 4.0,
      "end": 80.0,
      "velocity": 80,
      "hand": "left",
      "interactive": false,
      "label": "60"
    },
    {
      "id": "note-227",
      "midi": 64,
      "start": 76.0,
      "duration": 4.0,
      "end": 80.0,
      "velocity": 80,
      "hand": "left",
      "interactive": false,
      "label": "64"
    },
    {
      "id": "note-228",
      "midi": 67,
      "start": 76.0,
      "duration": 0.472917,
      "end": 76.472917,
      "velocity": 80,
      "hand": "right",
      "interactive": true,
      "label": "67"
    },
    {
      "id": "note-229",
      "midi": 67,
      "start": 76.0,
      "duration": 4.0,
      "end": 80.0,
      "velocity": 80,
      "hand": "left",
      "interactive": false,
      "label": "67"
    },
    {
      "id": "note-230",
      "midi": 69,
      "start": 76.5,
      "duration": 0.947917,
      "end": 77.447917,
      "velocity": 80,
      "hand": "right",
      "interactive": true,
      "label": "69"
    },
    {
      "id": "note-231",
      "midi": 74,
      "start": 77.5,
      "duration": 0.947917,
      "end": 78.447917,
      "velocity": 80,
      "hand": "right",
      "interactive": true,
      "label": "74"
    },
    {
      "id": "note-232",
      "midi": 69,
      "start": 78.5,
      "duration": 0.472917,
      "end": 78.972917,
      "velocity": 80,
      "hand": "right",
      "interactive": true,
      "label": "69"
    },
    {
      "id": "note-233",
      "midi": 67,
      "start": 79.0,
      "duration": 0.472917,
      "end": 79.472917,
      "velocity": 80,
      "hand": "right",
      "interactive": true,
      "label": "67"
    },
    {
      "id": "note-234",
      "midi": 65,
      "start": 79.5,
      "duration": 0.472917,
      "end": 79.972917,
      "velocity": 80,
      "hand": "right",
      "interactive": true,
      "label": "65"
    },
    {
      "id": "note-235",
      "midi": 38,
      "start": 80.0,
      "duration": 4.0,
      "end": 84.0,
      "velocity": 80,
      "hand": "left",
      "interactive": false,
      "label": "38"
    },
    {
      "id": "note-236",
      "midi": 62,
      "start": 80.0,
      "duration": 4.0,
      "end": 84.0,
      "velocity": 80,
      "hand": "left",
      "interactive": false,
      "label": "62"
    },
    {
      "id": "note-237",
      "midi": 65,
      "start": 80.0,
      "duration": 4.0,
      "end": 84.0,
      "velocity": 80,
      "hand": "left",
      "interactive": false,
      "label": "65"
    },
    {
      "id": "note-238",
      "midi": 67,
      "start": 80.0,
      "duration": 0.710417,
      "end": 80.710417,
      "velocity": 80,
      "hand": "right",
      "interactive": true,
      "label": "67"
    },
    {
      "id": "note-239",
      "midi": 69,
      "start": 80.0,
      "duration": 4.0,
      "end": 84.0,
      "velocity": 80,
      "hand": "left",
      "interactive": false,
      "label": "69"
    },
    {
      "id": "note-240",
      "midi": 65,
      "start": 80.75,
      "duration": 0.710417,
      "end": 81.460417,
      "velocity": 80,
      "hand": "right",
      "interactive": true,
      "label": "65"
    },
    {
      "id": "note-241",
      "midi": 62,
      "start": 81.5,
      "duration": 0.472917,
      "end": 81.972917,
      "velocity": 80,
      "hand": "right",
      "interactive": true,
      "label": "62"
    },
    {
      "id": "note-242",
      "midi": 65,
      "start": 82.0,
      "duration": 0.710417,
      "end": 82.710417,
      "velocity": 80,
      "hand": "right",
      "interactive": true,
      "label": "65"
    },
    {
      "id": "note-243",
      "midi": 67,
      "start": 82.75,
      "duration": 0.710417,
      "end": 83.460417,
      "velocity": 80,
      "hand": "right",
      "interactive": true,
      "label": "67"
    },
    {
      "id": "note-244",
      "midi": 69,
      "start": 83.5,
      "duration": 0.472917,
      "end": 83.972917,
      "velocity": 80,
      "hand": "right",
      "interactive": true,
      "label": "69"
    },
    {
      "id": "note-245",
      "midi": 45,
      "start": 84.0,
      "duration": 4.0,
      "end": 88.0,
      "velocity": 80,
      "hand": "left",
      "interactive": false,
      "label": "45"
    },
    {
      "id": "note-246",
      "midi": 60,
      "start": 84.0,
      "duration": 4.0,
      "end": 88.0,
      "velocity": 80,
      "hand": "left",
      "interactive": false,
      "label": "60"
    },
    {
      "id": "note-247",
      "midi": 64,
      "start": 84.0,
      "duration": 4.0,
      "end": 88.0,
      "velocity": 80,
      "hand": "left",
      "interactive": false,
      "label": "64"
    },
    {
      "id": "note-248",
      "midi": 69,
      "start": 84.0,
      "duration": 4.0,
      "end": 88.0,
      "velocity": 80,
      "hand": "left",
      "interactive": false,
      "label": "69"
    },
    {
      "id": "note-249",
      "midi": 72,
      "start": 84.0,
      "duration": 0.947917,
      "end": 84.947917,
      "velocity": 80,
      "hand": "right",
      "interactive": true,
      "label": "72"
    },
    {
      "id": "note-250",
      "midi": 60,
      "start": 85.5,
      "duration": 0.472917,
      "end": 85.972917,
      "velocity": 80,
      "hand": "right",
      "interactive": true,
      "label": "60"
    },
    {
      "id": "note-251",
      "midi": 62,
      "start": 86.0,
      "duration": 0.472917,
      "end": 86.472917,
      "velocity": 80,
      "hand": "right",
      "interactive": true,
      "label": "62"
    },
    {
      "id": "note-252",
      "midi": 65,
      "start": 86.5,
      "duration": 0.472917,
      "end": 86.972917,
      "velocity": 80,
      "hand": "right",
      "interactive": true,
      "label": "65"
    },
    {
      "id": "note-253",
      "midi": 67,
      "start": 87.0,
      "duration": 0.472917,
      "end": 87.472917,
      "velocity": 80,
      "hand": "right",
      "interactive": true,
      "label": "67"
    },
    {
      "id": "note-254",
      "midi": 65,
      "start": 87.5,
      "duration": 0.472917,
      "end": 87.972917,
      "velocity": 80,
      "hand": "right",
      "interactive": true,
      "label": "65"
    },
    {
      "id": "note-255",
      "midi": 46,
      "start": 88.0,
      "duration": 4.0,
      "end": 92.0,
      "velocity": 80,
      "hand": "left",
      "interactive": false,
      "label": "46"
    },
    {
      "id": "note-256",
      "midi": 62,
      "start": 88.0,
      "duration": 4.0,
      "end": 92.0,
      "velocity": 80,
      "hand": "left",
      "interactive": false,
      "label": "62"
    },
    {
      "id": "note-257",
      "midi": 65,
      "start": 88.0,
      "duration": 4.0,
      "end": 92.0,
      "velocity": 80,
      "hand": "left",
      "interactive": false,
      "label": "65"
    },
    {
      "id": "note-258",
      "midi": 67,
      "start": 88.0,
      "duration": 0.472917,
      "end": 88.472917,
      "velocity": 80,
      "hand": "right",
      "interactive": true,
      "label": "67"
    },
    {
      "id": "note-259",
      "midi": 70,
      "start": 88.0,
      "duration": 4.0,
      "end": 92.0,
      "velocity": 80,
      "hand": "left",
      "interactive": false,
      "label": "70"
    },
    {
      "id": "note-260",
      "midi": 65,
      "start": 88.5,
      "duration": 0.947917,
      "end": 89.447917,
      "velocity": 80,
      "hand": "right",
      "interactive": true,
      "label": "65"
    },
    {
      "id": "note-261",
      "midi": 74,
      "start": 89.5,
      "duration": 0.947917,
      "end": 90.447917,
      "velocity": 80,
      "hand": "right",
      "interactive": true,
      "label": "74"
    },
    {
      "id": "note-262",
      "midi": 72,
      "start": 90.5,
      "duration": 0.472917,
      "end": 90.972917,
      "velocity": 80,
      "hand": "right",
      "interactive": true,
      "label": "72"
    },
    {
      "id": "note-263",
      "midi": 69,
      "start": 91.0,
      "duration": 0.472917,
      "end": 91.472917,
      "velocity": 80,
      "hand": "right",
      "interactive": true,
      "label": "69"
    },
    {
      "id": "note-264",
      "midi": 67,
      "start": 91.5,
      "duration": 0.472917,
      "end": 91.972917,
      "velocity": 80,
      "hand": "right",
      "interactive": true,
      "label": "67"
    },
    {
      "id": "note-265",
      "midi": 41,
      "start": 92.0,
      "duration": 4.0,
      "end": 96.0,
      "velocity": 80,
      "hand": "left",
      "interactive": false,
      "label": "41"
    },
    {
      "id": "note-266",
      "midi": 60,
      "start": 92.0,
      "duration": 4.0,
      "end": 96.0,
      "velocity": 80,
      "hand": "left",
      "interactive": false,
      "label": "60"
    },
    {
      "id": "note-267",
      "midi": 65,
      "start": 92.0,
      "duration": 4.0,
      "end": 96.0,
      "velocity": 80,
      "hand": "left",
      "interactive": false,
      "label": "65"
    },
    {
      "id": "note-268",
      "midi": 67,
      "start": 92.0,
      "duration": 0.472917,
      "end": 92.472917,
      "velocity": 80,
      "hand": "right",
      "interactive": true,
      "label": "67"
    },
    {
      "id": "note-269",
      "midi": 69,
      "start": 92.0,
      "duration": 4.0,
      "end": 96.0,
      "velocity": 80,
      "hand": "left",
      "interactive": false,
      "label": "69"
    },
    {
      "id": "note-270",
      "midi": 65,
      "start": 92.5,
      "duration": 0.947917,
      "end": 93.447917,
      "velocity": 80,
      "hand": "right",
      "interactive": true,
      "label": "65"
    },
    {
      "id": "note-271",
      "midi": 69,
      "start": 93.5,
      "duration": 0.947917,
      "end": 94.447917,
      "velocity": 80,
      "hand": "right",
      "interactive": true,
      "label": "69"
    },
    {
      "id": "note-272",
      "midi": 69,
      "start": 94.5,
      "duration": 0.472917,
      "end": 94.972917,
      "velocity": 80,
      "hand": "right",
      "interactive": true,
      "label": "69"
    },
    {
      "id": "note-273",
      "midi": 67,
      "start": 95.0,
      "duration": 0.472917,
      "end": 95.472917,
      "velocity": 80,
      "hand": "right",
      "interactive": true,
      "label": "67"
    },
    {
      "id": "note-274",
      "midi": 65,
      "start": 95.5,
      "duration": 0.472917,
      "end": 95.972917,
      "velocity": 80,
      "hand": "right",
      "interactive": true,
      "label": "65"
    },
    {
      "id": "note-275",
      "midi": 43,
      "start": 96.0,
      "duration": 2.0,
      "end": 98.0,
      "velocity": 80,
      "hand": "left",
      "interactive": false,
      "label": "43"
    },
    {
      "id": "note-276",
      "midi": 62,
      "start": 96.0,
      "duration": 2.0,
      "end": 98.0,
      "velocity": 80,
      "hand": "left",
      "interactive": false,
      "label": "62"
    },
    {
      "id": "note-277",
      "midi": 65,
      "start": 96.0,
      "duration": 2.0,
      "end": 98.0,
      "velocity": 80,
      "hand": "left",
      "interactive": false,
      "label": "65"
    },
    {
      "id": "note-278",
      "midi": 67,
      "start": 96.0,
      "duration": 0.710417,
      "end": 96.710417,
      "velocity": 80,
      "hand": "right",
      "interactive": true,
      "label": "67"
    },
    {
      "id": "note-279",
      "midi": 67,
      "start": 96.0,
      "duration": 2.0,
      "end": 98.0,
      "velocity": 80,
      "hand": "left",
      "interactive": false,
      "label": "67"
    },
    {
      "id": "note-280",
      "midi": 71,
      "start": 96.0,
      "duration": 2.0,
      "end": 98.0,
      "velocity": 80,
      "hand": "left",
      "interactive": false,
      "label": "71"
    },
    {
      "id": "note-281",
      "midi": 67,
      "start": 96.75,
      "duration": 0.710417,
      "end": 97.460417,
      "velocity": 80,
      "hand": "right",
      "interactive": true,
      "label": "67"
    },
    {
      "id": "note-282",
      "midi": 67,
      "start": 97.5,
      "duration": 0.472917,
      "end": 97.972917,
      "velocity": 80,
      "hand": "right",
      "interactive": true,
      "label": "67"
    },
    {
      "id": "note-283",
      "midi": 36,
      "start": 98.0,
      "duration": 2.0,
      "end": 100.0,
      "velocity": 80,
      "hand": "left",
      "interactive": false,
      "label": "36"
    },
    {
      "id": "note-284",
      "midi": 60,
      "start": 98.0,
      "duration": 2.0,
      "end": 100.0,
      "velocity": 80,
      "hand": "left",
      "interactive": false,
      "label": "60"
    },
    {
      "id": "note-285",
      "midi": 64,
      "start": 98.0,
      "duration": 2.0,
      "end": 100.0,
      "velocity": 80,
      "hand": "left",
      "interactive": false,
      "label": "64"
    },
    {
      "id": "note-286",
      "midi": 67,
      "start": 98.0,
      "duration": 0.710417,
      "end": 98.710417,
      "velocity": 80,
      "hand": "right",
      "interactive": true,
      "label": "67"
    },
    {
      "id": "note-287",
      "midi": 67,
      "start": 98.0,
      "duration": 2.0,
      "end": 100.0,
      "velocity": 80,
      "hand": "left",
      "interactive": false,
      "label": "67"
    },
    {
      "id": "note-288",
      "midi": 65,
      "start": 98.75,
      "duration": 0.710417,
      "end": 99.460417,
      "velocity": 80,
      "hand": "right",
      "interactive": true,
      "label": "65"
    },
    {
      "id": "note-289",
      "midi": 62,
      "start": 99.5,
      "duration": 0.472917,
      "end": 99.972917,
      "velocity": 80,
      "hand": "right",
      "interactive": true,
      "label": "62"
    },
    {
      "id": "note-290",
      "midi": 41,
      "start": 100.0,
      "duration": 3.0,
      "end": 103.0,
      "velocity": 80,
      "hand": "left",
      "interactive": false,
      "label": "41"
    },
    {
      "id": "note-291",
      "midi": 60,
      "start": 100.0,
      "duration": 3.0,
      "end": 103.0,
      "velocity": 80,
      "hand": "left",
      "interactive": false,
      "label": "60"
    },
    {
      "id": "note-292",
      "midi": 65,
      "start": 100.0,
      "duration": 0.947917,
      "end": 100.947917,
      "velocity": 80,
      "hand": "right",
      "interactive": true,
      "label": "65"
    },
    {
      "id": "note-293",
      "midi": 65,
      "start": 100.0,
      "duration": 3.0,
      "end": 103.0,
      "velocity": 80,
      "hand": "left",
      "interactive": false,
      "label": "65"
    },
    {
      "id": "note-294",
      "midi": 69,
      "start": 100.0,
      "duration": 3.0,
      "end": 103.0,
      "velocity": 80,
      "hand": "left",
      "interactive": false,
      "label": "69"
    },
    {
      "id": "note-295",
      "midi": 65,
      "start": 101.5,
      "duration": 0.472917,
      "end": 101.972917,
      "velocity": 80,
      "hand": "right",
      "interactive": true,
      "label": "65"
    },
    {
      "id": "note-296",
      "midi": 77,
      "start": 102.0,
      "duration": 0.472917,
      "end": 102.472917,
      "velocity": 80,
      "hand": "right",
      "interactive": true,
      "label": "77"
    },
    {
      "id": "note-297",
      "midi": 76,
      "start": 102.5,
      "duration": 0.472917,
      "end": 102.972917,
      "velocity": 80,
      "hand": "right",
      "interactive": true,
      "label": "76"
    },
    {
      "id": "note-298",
      "midi": 40,
      "start": 103.0,
      "duration": 1.0,
      "end": 104.0,
      "velocity": 80,
      "hand": "left",
      "interactive": false,
      "label": "40"
    },
    {
      "id": "note-299",
      "midi": 60,
      "start": 103.0,
      "duration": 1.0,
      "end": 104.0,
      "velocity": 80,
      "hand": "left",
      "interactive": false,
      "label": "60"
    },
    {
      "id": "note-300",
      "midi": 65,
      "start": 103.0,
      "duration": 1.0,
      "end": 104.0,
      "velocity": 80,
      "hand": "left",
      "interactive": false,
      "label": "65"
    },
    {
      "id": "note-301",
      "midi": 69,
      "start": 103.0,
      "duration": 1.0,
      "end": 104.0,
      "velocity": 80,
      "hand": "left",
      "interactive": false,
      "label": "69"
    },
    {
      "id": "note-302",
      "midi": 76,
      "start": 103.0,
      "duration": 0.472917,
      "end": 103.472917,
      "velocity": 80,
      "hand": "right",
      "interactive": true,
      "label": "76"
    },
    {
      "id": "note-303",
      "midi": 74,
      "start": 103.5,
      "duration": 0.472917,
      "end": 103.972917,
      "velocity": 80,
      "hand": "right",
      "interactive": true,
      "label": "74"
    },
    {
      "id": "note-304",
      "midi": 38,
      "start": 104.0,
      "duration": 4.0,
      "end": 108.0,
      "velocity": 80,
      "hand": "left",
      "interactive": false,
      "label": "38"
    },
    {
      "id": "note-305",
      "midi": 62,
      "start": 104.0,
      "duration": 4.0,
      "end": 108.0,
      "velocity": 80,
      "hand": "left",
      "interactive": false,
      "label": "62"
    },
    {
      "id": "note-306",
      "midi": 65,
      "start": 104.0,
      "duration": 4.0,
      "end": 108.0,
      "velocity": 80,
      "hand": "left",
      "interactive": false,
      "label": "65"
    },
    {
      "id": "note-307",
      "midi": 69,
      "start": 104.0,
      "duration": 4.0,
      "end": 108.0,
      "velocity": 80,
      "hand": "left",
      "interactive": false,
      "label": "69"
    },
    {
      "id": "note-308",
      "midi": 76,
      "start": 104.0,
      "duration": 0.710417,
      "end": 104.710417,
      "velocity": 80,
      "hand": "right",
      "interactive": true,
      "label": "76"
    },
    {
      "id": "note-309",
      "midi": 74,
      "start": 104.75,
      "duration": 0.710417,
      "end": 105.460417,
      "velocity": 80,
      "hand": "right",
      "interactive": true,
      "label": "74"
    },
    {
      "id": "note-310",
      "midi": 72,
      "start": 105.5,
      "duration": 0.472917,
      "end": 105.972917,
      "velocity": 80,
      "hand": "right",
      "interactive": true,
      "label": "72"
    },
    {
      "id": "note-311",
      "midi": 74,
      "start": 106.0,
      "duration": 0.472917,
      "end": 106.472917,
      "velocity": 80,
      "hand": "right",
      "interactive": true,
      "label": "74"
    },
    {
      "id": "note-312",
      "midi": 72,
      "start": 106.5,
      "duration": 0.472917,
      "end": 106.972917,
      "velocity": 80,
      "hand": "right",
      "interactive": true,
      "label": "72"
    },
    {
      "id": "note-313",
      "midi": 69,
      "start": 107.0,
      "duration": 0.472917,
      "end": 107.472917,
      "velocity": 80,
      "hand": "right",
      "interactive": true,
      "label": "69"
    },
    {
      "id": "note-314",
      "midi": 67,
      "start": 107.5,
      "duration": 0.472917,
      "end": 107.972917,
      "velocity": 80,
      "hand": "right",
      "interactive": true,
      "label": "67"
    },
    {
      "id": "note-315",
      "midi": 45,
      "start": 108.0,
      "duration": 4.0,
      "end": 112.0,
      "velocity": 80,
      "hand": "left",
      "interactive": false,
      "label": "45"
    },
    {
      "id": "note-316",
      "midi": 60,
      "start": 108.0,
      "duration": 4.0,
      "end": 112.0,
      "velocity": 80,
      "hand": "left",
      "interactive": false,
      "label": "60"
    },
    {
      "id": "note-317",
      "midi": 64,
      "start": 108.0,
      "duration": 4.0,
      "end": 112.0,
      "velocity": 80,
      "hand": "left",
      "interactive": false,
      "label": "64"
    },
    {
      "id": "note-318",
      "midi": 67,
      "start": 108.0,
      "duration": 4.0,
      "end": 112.0,
      "velocity": 80,
      "hand": "left",
      "interactive": false,
      "label": "67"
    },
    {
      "id": "note-319",
      "midi": 69,
      "start": 108.0,
      "duration": 0.472917,
      "end": 108.472917,
      "velocity": 80,
      "hand": "right",
      "interactive": true,
      "label": "69"
    },
    {
      "id": "note-320",
      "midi": 69,
      "start": 108.0,
      "duration": 4.0,
      "end": 112.0,
      "velocity": 80,
      "hand": "left",
      "interactive": false,
      "label": "69"
    },
    {
      "id": "note-321",
      "midi": 72,
      "start": 108.5,
      "duration": 0.472917,
      "end": 108.972917,
      "velocity": 80,
      "hand": "right",
      "interactive": true,
      "label": "72"
    },
    {
      "id": "note-322",
      "midi": 74,
      "start": 109.0,
      "duration": 0.472917,
      "end": 109.472917,
      "velocity": 80,
      "hand": "right",
      "interactive": true,
      "label": "74"
    },
    {
      "id": "note-323",
      "midi": 72,
      "start": 109.5,
      "duration": 0.947917,
      "end": 110.447917,
      "velocity": 80,
      "hand": "right",
      "interactive": true,
      "label": "72"
    },
    {
      "id": "note-324",
      "midi": 72,
      "start": 110.5,
      "duration": 0.472917,
      "end": 110.972917,
      "velocity": 80,
      "hand": "right",
      "interactive": true,
      "label": "72"
    },
    {
      "id": "note-325",
      "midi": 74,
      "start": 111.0,
      "duration": 0.472917,
      "end": 111.472917,
      "velocity": 80,
      "hand": "right",
      "interactive": true,
      "label": "74"
    },
    {
      "id": "note-326",
      "midi": 72,
      "start": 111.5,
      "duration": 0.472917,
      "end": 111.972917,
      "velocity": 80,
      "hand": "right",
      "interactive": true,
      "label": "72"
    },
    {
      "id": "note-327",
      "midi": 46,
      "start": 112.0,
      "duration": 2.0,
      "end": 114.0,
      "velocity": 80,
      "hand": "left",
      "interactive": false,
      "label": "46"
    },
    {
      "id": "note-328",
      "midi": 62,
      "start": 112.0,
      "duration": 2.0,
      "end": 114.0,
      "velocity": 80,
      "hand": "left",
      "interactive": false,
      "label": "62"
    },
    {
      "id": "note-329",
      "midi": 65,
      "start": 112.0,
      "duration": 2.0,
      "end": 114.0,
      "velocity": 80,
      "hand": "left",
      "interactive": false,
      "label": "65"
    },
    {
      "id": "note-330",
      "midi": 70,
      "start": 112.0,
      "duration": 2.0,
      "end": 114.0,
      "velocity": 80,
      "hand": "left",
      "interactive": false,
      "label": "70"
    },
    {
      "id": "note-331",
      "midi": 74,
      "start": 112.0,
      "duration": 0.710417,
      "end": 112.710417,
      "velocity": 80,
      "hand": "right",
      "interactive": true,
      "label": "74"
    },
    {
      "id": "note-332",
      "midi": 74,
      "start": 112.75,
      "duration": 0.710417,
      "end": 113.460417,
      "velocity": 80,
      "hand": "right",
      "interactive": true,
      "label": "74"
    },
    {
      "id": "note-333",
      "midi": 74,
      "start": 113.5,
      "duration": 0.472917,
      "end": 113.972917,
      "velocity": 80,
      "hand": "right",
      "interactive": true,
      "label": "74"
    },
    {
      "id": "note-334",
      "midi": 36,
      "start": 114.0,
      "duration": 2.0,
      "end": 116.0,
      "velocity": 80,
      "hand": "left",
      "interactive": false,
      "label": "36"
    },
    {
      "id": "note-335",
      "midi": 60,
      "start": 114.0,
      "duration": 2.0,
      "end": 116.0,
      "velocity": 80,
      "hand": "left",
      "interactive": false,
      "label": "60"
    },
    {
      "id": "note-336",
      "midi": 64,
      "start": 114.0,
      "duration": 2.0,
      "end": 116.0,
      "velocity": 80,
      "hand": "left",
      "interactive": false,
      "label": "64"
    },
    {
      "id": "note-337",
      "midi": 67,
      "start": 114.0,
      "duration": 2.0,
      "end": 116.0,
      "velocity": 80,
      "hand": "left",
      "interactive": false,
      "label": "67"
    },
    {
      "id": "note-338",
      "midi": 74,
      "start": 114.0,
      "duration": 0.710417,
      "end": 114.710417,
      "velocity": 80,
      "hand": "right",
      "interactive": true,
      "label": "74"
    },
    {
      "id": "note-339",
      "midi": 72,
      "start": 114.75,
      "duration": 0.710417,
      "end": 115.460417,
      "velocity": 80,
      "hand": "right",
      "interactive": true,
      "label": "72"
    },
    {
      "id": "note-340",
      "midi": 74,
      "start": 115.5,
      "duration": 0.472917,
      "end": 115.972917,
      "velocity": 80,
      "hand": "right",
      "interactive": true,
      "label": "74"
    },
    {
      "id": "note-341",
      "midi": 41,
      "start": 116.0,
      "duration": 3.0,
      "end": 119.0,
      "velocity": 80,
      "hand": "left",
      "interactive": false,
      "label": "41"
    },
    {
      "id": "note-342",
      "midi": 60,
      "start": 116.0,
      "duration": 3.0,
      "end": 119.0,
      "velocity": 80,
      "hand": "left",
      "interactive": false,
      "label": "60"
    },
    {
      "id": "note-343",
      "midi": 65,
      "start": 116.0,
      "duration": 3.0,
      "end": 119.0,
      "velocity": 80,
      "hand": "left",
      "interactive": false,
      "label": "65"
    },
    {
      "id": "note-344",
      "midi": 69,
      "start": 116.0,
      "duration": 3.0,
      "end": 119.0,
      "velocity": 80,
      "hand": "left",
      "interactive": false,
      "label": "69"
    },
    {
      "id": "note-345",
      "midi": 72,
      "start": 116.0,
      "duration": 0.472917,
      "end": 116.472917,
      "velocity": 80,
      "hand": "right",
      "interactive": true,
      "label": "72"
    },
    {
      "id": "note-346",
      "midi": 69,
      "start": 116.5,
      "duration": 1.422917,
      "end": 117.922917,
      "velocity": 80,
      "hand": "right",
      "interactive": true,
      "label": "69"
    },
    {
      "id": "note-347",
      "midi": 65,
      "start": 118.5,
      "duration": 0.472917,
      "end": 118.972917,
      "velocity": 80,
      "hand": "right",
      "interactive": true,
      "label": "65"
    },
    {
      "id": "note-348",
      "midi": 40,
      "start": 119.0,
      "duration": 1.0,
      "end": 120.0,
      "velocity": 80,
      "hand": "left",
      "interactive": false,
      "label": "40"
    },
    {
      "id": "note-349",
      "midi": 60,
      "start": 119.0,
      "duration": 1.0,
      "end": 120.0,
      "velocity": 80,
      "hand": "left",
      "interactive": false,
      "label": "60"
    },
    {
      "id": "note-350",
      "midi": 64,
      "start": 119.0,
      "duration": 1.0,
      "end": 120.0,
      "velocity": 80,
      "hand": "left",
      "interactive": false,
      "label": "64"
    },
    {
      "id": "note-351",
      "midi": 67,
      "start": 119.0,
      "duration": 0.472917,
      "end": 119.472917,
      "velocity": 80,
      "hand": "right",
      "interactive": true,
      "label": "67"
    },
    {
      "id": "note-352",
      "midi": 69,
      "start": 119.0,
      "duration": 1.0,
      "end": 120.0,
      "velocity": 80,
      "hand": "left",
      "interactive": false,
      "label": "69"
    },
    {
      "id": "note-353",
      "midi": 69,
      "start": 119.5,
      "duration": 0.472917,
      "end": 119.972917,
      "velocity": 80,
      "hand": "right",
      "interactive": true,
      "label": "69"
    },
    {
      "id": "note-354",
      "midi": 38,
      "start": 120.0,
      "duration": 4.0,
      "end": 124.0,
      "velocity": 80,
      "hand": "left",
      "interactive": false,
      "label": "38"
    },
    {
      "id": "note-355",
      "midi": 62,
      "start": 120.0,
      "duration": 4.0,
      "end": 124.0,
      "velocity": 80,
      "hand": "left",
      "interactive": false,
      "label": "62"
    },
    {
      "id": "note-356",
      "midi": 65,
      "start": 120.0,
      "duration": 4.0,
      "end": 124.0,
      "velocity": 80,
      "hand": "left",
      "interactive": false,
      "label": "65"
    },
    {
      "id": "note-357",
      "midi": 69,
      "start": 120.0,
      "duration": 4.0,
      "end": 124.0,
      "velocity": 80,
      "hand": "left",
      "interactive": false,
      "label": "69"
    },
    {
      "id": "note-358",
      "midi": 72,
      "start": 120.0,
      "duration": 0.472917,
      "end": 120.472917,
      "velocity": 80,
      "hand": "right",
      "interactive": true,
      "label": "72"
    },
    {
      "id": "note-359",
      "midi": 69,
      "start": 120.5,
      "duration": 0.472917,
      "end": 120.972917,
      "velocity": 80,
      "hand": "right",
      "interactive": true,
      "label": "69"
    },
    {
      "id": "note-360",
      "midi": 67,
      "start": 121.0,
      "duration": 0.472917,
      "end": 121.472917,
      "velocity": 80,
      "hand": "right",
      "interactive": true,
      "label": "67"
    },
    {
      "id": "note-361",
      "midi": 65,
      "start": 121.5,
      "duration": 0.947917,
      "end": 122.447917,
      "velocity": 80,
      "hand": "right",
      "interactive": true,
      "label": "65"
    },
    {
      "id": "note-362",
      "midi": 65,
      "start": 122.5,
      "duration": 0.472917,
      "end": 122.972917,
      "velocity": 80,
      "hand": "right",
      "interactive": true,
      "label": "65"
    },
    {
      "id": "note-363",
      "midi": 67,
      "start": 123.0,
      "duration": 0.472917,
      "end": 123.472917,
      "velocity": 80,
      "hand": "right",
      "interactive": true,
      "label": "67"
    },
    {
      "id": "note-364",
      "midi": 69,
      "start": 123.5,
      "duration": 0.472917,
      "end": 123.972917,
      "velocity": 80,
      "hand": "right",
      "interactive": true,
      "label": "69"
    },
    {
      "id": "note-365",
      "midi": 43,
      "start": 124.0,
      "duration": 4.0,
      "end": 128.0,
      "velocity": 80,
      "hand": "left",
      "interactive": false,
      "label": "43"
    },
    {
      "id": "note-366",
      "midi": 62,
      "start": 124.0,
      "duration": 4.0,
      "end": 128.0,
      "velocity": 80,
      "hand": "left",
      "interactive": false,
      "label": "62"
    },
    {
      "id": "note-367",
      "midi": 65,
      "start": 124.0,
      "duration": 4.0,
      "end": 128.0,
      "velocity": 80,
      "hand": "left",
      "interactive": false,
      "label": "65"
    },
    {
      "id": "note-368",
      "midi": 67,
      "start": 124.0,
      "duration": 4.0,
      "end": 128.0,
      "velocity": 80,
      "hand": "left",
      "interactive": false,
      "label": "67"
    },
    {
      "id": "note-369",
      "midi": 70,
      "start": 124.0,
      "duration": 4.0,
      "end": 128.0,
      "velocity": 80,
      "hand": "left",
      "interactive": false,
      "label": "70"
    },
    {
      "id": "note-370",
      "midi": 74,
      "start": 124.0,
      "duration": 0.472917,
      "end": 124.472917,
      "velocity": 80,
      "hand": "right",
      "interactive": true,
      "label": "74"
    },
    {
      "id": "note-371",
      "midi": 69,
      "start": 124.5,
      "duration": 0.472917,
      "end": 124.972917,
      "velocity": 80,
      "hand": "right",
      "interactive": true,
      "label": "69"
    },
    {
      "id": "note-372",
      "midi": 67,
      "start": 125.0,
      "duration": 0.472917,
      "end": 125.472917,
      "velocity": 80,
      "hand": "right",
      "interactive": true,
      "label": "67"
    },
    {
      "id": "note-373",
      "midi": 65,
      "start": 125.5,
      "duration": 0.947917,
      "end": 126.447917,
      "velocity": 80,
      "hand": "right",
      "interactive": true,
      "label": "65"
    },
    {
      "id": "note-374",
      "midi": 65,
      "start": 126.5,
      "duration": 0.472917,
      "end": 126.972917,
      "velocity": 80,
      "hand": "right",
      "interactive": true,
      "label": "65"
    },
    {
      "id": "note-375",
      "midi": 65,
      "start": 127.0,
      "duration": 0.472917,
      "end": 127.472917,
      "velocity": 80,
      "hand": "right",
      "interactive": true,
      "label": "65"
    },
    {
      "id": "note-376",
      "midi": 65,
      "start": 127.5,
      "duration": 0.472917,
      "end": 127.972917,
      "velocity": 80,
      "hand": "right",
      "interactive": true,
      "label": "65"
    },
    {
      "id": "note-377",
      "midi": 47,
      "start": 128.0,
      "duration": 4.0,
      "end": 132.0,
      "velocity": 80,
      "hand": "left",
      "interactive": false,
      "label": "47"
    },
    {
      "id": "note-378",
      "midi": 62,
      "start": 128.0,
      "duration": 4.0,
      "end": 132.0,
      "velocity": 80,
      "hand": "left",
      "interactive": false,
      "label": "62"
    },
    {
      "id": "note-379",
      "midi": 65,
      "start": 128.0,
      "duration": 4.0,
      "end": 132.0,
      "velocity": 80,
      "hand": "left",
      "interactive": false,
      "label": "65"
    },
    {
      "id": "note-380",
      "midi": 69,
      "start": 128.0,
      "duration": 4.0,
      "end": 132.0,
      "velocity": 80,
      "hand": "left",
      "interactive": false,
      "label": "69"
    },
    {
      "id": "note-381",
      "midi": 71,
      "start": 128.0,
      "duration": 4.0,
      "end": 132.0,
      "velocity": 80,
      "hand": "left",
      "interactive": false,
      "label": "71"
    },
    {
      "id": "note-382",
      "midi": 77,
      "start": 128.0,
      "duration": 0.710417,
      "end": 128.710417,
      "velocity": 80,
      "hand": "right",
      "interactive": true,
      "label": "77"
    },
    {
      "id": "note-383",
      "midi": 77,
      "start": 128.75,
      "duration": 0.710417,
      "end": 129.460417,
      "velocity": 80,
      "hand": "right",
      "interactive": true,
      "label": "77"
    },
    {
      "id": "note-384",
      "midi": 77,
      "start": 129.5,
      "duration": 0.472917,
      "end": 129.972917,
      "velocity": 80,
      "hand": "right",
      "interactive": true,
      "label": "77"
    },
    {
      "id": "note-385",
      "midi": 77,
      "start": 130.0,
      "duration": 0.710417,
      "end": 130.710417,
      "velocity": 80,
      "hand": "right",
      "interactive": true,
      "label": "77"
    },
    {
      "id": "note-386",
      "midi": 74,
      "start": 130.75,
      "duration": 0.710417,
      "end": 131.460417,
      "velocity": 80,
      "hand": "right",
      "interactive": true,
      "label": "74"
    },
    {
      "id": "note-387",
      "midi": 77,
      "start": 131.5,
      "duration": 0.472917,
      "end": 131.972917,
      "velocity": 80,
      "hand": "right",
      "interactive": true,
      "label": "77"
    },
    {
      "id": "note-388",
      "midi": 36,
      "start": 132.0,
      "duration": 4.0,
      "end": 136.0,
      "velocity": 80,
      "hand": "left",
      "interactive": false,
      "label": "36"
    },
    {
      "id": "note-389",
      "midi": 60,
      "start": 132.0,
      "duration": 4.0,
      "end": 136.0,
      "velocity": 80,
      "hand": "left",
      "interactive": false,
      "label": "60"
    },
    {
      "id": "note-390",
      "midi": 64,
      "start": 132.0,
      "duration": 4.0,
      "end": 136.0,
      "velocity": 80,
      "hand": "left",
      "interactive": false,
      "label": "64"
    },
    {
      "id": "note-391",
      "midi": 67,
      "start": 132.0,
      "duration": 4.0,
      "end": 136.0,
      "velocity": 80,
      "hand": "left",
      "interactive": false,
      "label": "67"
    },
    {
      "id": "note-392",
      "midi": 74,
      "start": 132.0,
      "duration": 1.422917,
      "end": 133.422917,
      "velocity": 80,
      "hand": "right",
      "interactive": true,
      "label": "74"
    },
    {
      "id": "note-393",
      "midi": 72,
      "start": 133.5,
      "duration": 0.947917,
      "end": 134.447917,
      "velocity": 80,
      "hand": "right",
      "interactive": true,
      "label": "72"
    },
    {
      "id": "note-394",
      "midi": 65,
      "start": 134.5,
      "duration": 0.472917,
      "end": 134.972917,
      "velocity": 80,
      "hand": "right",
      "interactive": true,
      "label": "65"
    },
    {
      "id": "note-395",
      "midi": 77,
      "start": 135.0,
      "duration": 0.472917,
      "end": 135.472917,
      "velocity": 80,
      "hand": "right",
      "interactive": true,
      "label": "77"
    },
    {
      "id": "note-396",
      "midi": 76,
      "start": 135.5,
      "duration": 0.472917,
      "end": 135.972917,
      "velocity": 80,
      "hand": "right",
      "interactive": true,
      "label": "76"
    },
    {
      "id": "note-397",
      "midi": 38,
      "start": 136.0,
      "duration": 4.0,
      "end": 140.0,
      "velocity": 80,
      "hand": "left",
      "interactive": false,
      "label": "38"
    },
    {
      "id": "note-398",
      "midi": 62,
      "start": 136.0,
      "duration": 4.0,
      "end": 140.0,
      "velocity": 80,
      "hand": "left",
      "interactive": false,
      "label": "62"
    },
    {
      "id": "note-399",
      "midi": 65,
      "start": 136.0,
      "duration": 4.0,
      "end": 140.0,
      "velocity": 80,
      "hand": "left",
      "interactive": false,
      "label": "65"
    },
    {
      "id": "note-400",
      "midi": 69,
      "start": 136.0,
      "duration": 4.0,
      "end": 140.0,
      "velocity": 80,
      "hand": "left",
      "interactive": false,
      "label": "69"
    },
    {
      "id": "note-401",
      "midi": 77,
      "start": 136.0,
      "duration": 0.472917,
      "end": 136.472917,
      "velocity": 80,
      "hand": "right",
      "interactive": true,
      "label": "77"
    },
    {
      "id": "note-402",
      "midi": 76,
      "start": 136.5,
      "duration": 0.472917,
      "end": 136.972917,
      "velocity": 80,
      "hand": "right",
      "interactive": true,
      "label": "76"
    },
    {
      "id": "note-403",
      "midi": 74,
      "start": 137.0,
      "duration": 0.472917,
      "end": 137.472917,
      "velocity": 80,
      "hand": "right",
      "interactive": true,
      "label": "74"
    },
    {
      "id": "note-404",
      "midi": 72,
      "start": 137.5,
      "duration": 0.472917,
      "end": 137.972917,
      "velocity": 80,
      "hand": "right",
      "interactive": true,
      "label": "72"
    },
    {
      "id": "note-405",
      "midi": 74,
      "start": 138.0,
      "duration": 0.472917,
      "end": 138.472917,
      "velocity": 80,
      "hand": "right",
      "interactive": true,
      "label": "74"
    },
    {
      "id": "note-406",
      "midi": 72,
      "start": 138.5,
      "duration": 0.472917,
      "end": 138.972917,
      "velocity": 80,
      "hand": "right",
      "interactive": true,
      "label": "72"
    },
    {
      "id": "note-407",
      "midi": 69,
      "start": 139.0,
      "duration": 0.472917,
      "end": 139.472917,
      "velocity": 80,
      "hand": "right",
      "interactive": true,
      "label": "69"
    },
    {
      "id": "note-408",
      "midi": 67,
      "start": 139.5,
      "duration": 0.472917,
      "end": 139.972917,
      "velocity": 80,
      "hand": "right",
      "interactive": true,
      "label": "67"
    },
    {
      "id": "note-409",
      "midi": 45,
      "start": 140.0,
      "duration": 4.0,
      "end": 144.0,
      "velocity": 80,
      "hand": "left",
      "interactive": false,
      "label": "45"
    },
    {
      "id": "note-410",
      "midi": 60,
      "start": 140.0,
      "duration": 4.0,
      "end": 144.0,
      "velocity": 80,
      "hand": "left",
      "interactive": false,
      "label": "60"
    },
    {
      "id": "note-411",
      "midi": 64,
      "start": 140.0,
      "duration": 4.0,
      "end": 144.0,
      "velocity": 80,
      "hand": "left",
      "interactive": false,
      "label": "64"
    },
    {
      "id": "note-412",
      "midi": 67,
      "start": 140.0,
      "duration": 4.0,
      "end": 144.0,
      "velocity": 80,
      "hand": "left",
      "interactive": false,
      "label": "67"
    },
    {
      "id": "note-413",
      "midi": 69,
      "start": 140.0,
      "duration": 0.472917,
      "end": 140.472917,
      "velocity": 80,
      "hand": "right",
      "interactive": true,
      "label": "69"
    },
    {
      "id": "note-414",
      "midi": 69,
      "start": 140.0,
      "duration": 4.0,
      "end": 144.0,
      "velocity": 80,
      "hand": "left",
      "interactive": false,
      "label": "69"
    },
    {
      "id": "note-415",
      "midi": 72,
      "start": 140.5,
      "duration": 0.472917,
      "end": 140.972917,
      "velocity": 80,
      "hand": "right",
      "interactive": true,
      "label": "72"
    },
    {
      "id": "note-416",
      "midi": 74,
      "start": 141.0,
      "duration": 0.472917,
      "end": 141.472917,
      "velocity": 80,
      "hand": "right",
      "interactive": true,
      "label": "74"
    },
    {
      "id": "note-417",
      "midi": 72,
      "start": 141.5,
      "duration": 0.947917,
      "end": 142.447917,
      "velocity": 80,
      "hand": "right",
      "interactive": true,
      "label": "72"
    },
    {
      "id": "note-418",
      "midi": 72,
      "start": 142.5,
      "duration": 0.472917,
      "end": 142.972917,
      "velocity": 80,
      "hand": "right",
      "interactive": true,
      "label": "72"
    },
    {
      "id": "note-419",
      "midi": 74,
      "start": 143.0,
      "duration": 0.472917,
      "end": 143.472917,
      "velocity": 80,
      "hand": "right",
      "interactive": true,
      "label": "74"
    },
    {
      "id": "note-420",
      "midi": 72,
      "start": 143.5,
      "duration": 0.472917,
      "end": 143.972917,
      "velocity": 80,
      "hand": "right",
      "interactive": true,
      "label": "72"
    },
    {
      "id": "note-421",
      "midi": 46,
      "start": 144.0,
      "duration": 2.0,
      "end": 146.0,
      "velocity": 80,
      "hand": "left",
      "interactive": false,
      "label": "46"
    },
    {
      "id": "note-422",
      "midi": 62,
      "start": 144.0,
      "duration": 2.0,
      "end": 146.0,
      "velocity": 80,
      "hand": "left",
      "interactive": false,
      "label": "62"
    },
    {
      "id": "note-423",
      "midi": 65,
      "start": 144.0,
      "duration": 2.0,
      "end": 146.0,
      "velocity": 80,
      "hand": "left",
      "interactive": false,
      "label": "65"
    },
    {
      "id": "note-424",
      "midi": 70,
      "start": 144.0,
      "duration": 2.0,
      "end": 146.0,
      "velocity": 80,
      "hand": "left",
      "interactive": false,
      "label": "70"
    },
    {
      "id": "note-425",
      "midi": 74,
      "start": 144.0,
      "duration": 0.710417,
      "end": 144.710417,
      "velocity": 80,
      "hand": "right",
      "interactive": true,
      "label": "74"
    },
    {
      "id": "note-426",
      "midi": 74,
      "start": 144.75,
      "duration": 0.710417,
      "end": 145.460417,
      "velocity": 80,
      "hand": "right",
      "interactive": true,
      "label": "74"
    },
    {
      "id": "note-427",
      "midi": 74,
      "start": 145.5,
      "duration": 0.472917,
      "end": 145.972917,
      "velocity": 80,
      "hand": "right",
      "interactive": true,
      "label": "74"
    },
    {
      "id": "note-428",
      "midi": 36,
      "start": 146.0,
      "duration": 2.0,
      "end": 148.0,
      "velocity": 80,
      "hand": "left",
      "interactive": false,
      "label": "36"
    },
    {
      "id": "note-429",
      "midi": 60,
      "start": 146.0,
      "duration": 2.0,
      "end": 148.0,
      "velocity": 80,
      "hand": "left",
      "interactive": false,
      "label": "60"
    },
    {
      "id": "note-430",
      "midi": 64,
      "start": 146.0,
      "duration": 2.0,
      "end": 148.0,
      "velocity": 80,
      "hand": "left",
      "interactive": false,
      "label": "64"
    },
    {
      "id": "note-431",
      "midi": 67,
      "start": 146.0,
      "duration": 2.0,
      "end": 148.0,
      "velocity": 80,
      "hand": "left",
      "interactive": false,
      "label": "67"
    },
    {
      "id": "note-432",
      "midi": 74,
      "start": 146.0,
      "duration": 0.710417,
      "end": 146.710417,
      "velocity": 80,
      "hand": "right",
      "interactive": true,
      "label": "74"
    },
    {
      "id": "note-433",
      "midi": 72,
      "start": 146.75,
      "duration": 0.710417,
      "end": 147.460417,
      "velocity": 80,
      "hand": "right",
      "interactive": true,
      "label": "72"
    },
    {
      "id": "note-434",
      "midi": 74,
      "start": 147.5,
      "duration": 0.472917,
      "end": 147.972917,
      "velocity": 80,
      "hand": "right",
      "interactive": true,
      "label": "74"
    },
    {
      "id": "note-435",
      "midi": 41,
      "start": 148.0,
      "duration": 3.0,
      "end": 151.0,
      "velocity": 80,
      "hand": "left",
      "interactive": false,
      "label": "41"
    },
    {
      "id": "note-436",
      "midi": 60,
      "start": 148.0,
      "duration": 3.0,
      "end": 151.0,
      "velocity": 80,
      "hand": "left",
      "interactive": false,
      "label": "60"
    },
    {
      "id": "note-437",
      "midi": 65,
      "start": 148.0,
      "duration": 3.0,
      "end": 151.0,
      "velocity": 80,
      "hand": "left",
      "interactive": false,
      "label": "65"
    },
    {
      "id": "note-438",
      "midi": 69,
      "start": 148.0,
      "duration": 3.0,
      "end": 151.0,
      "velocity": 80,
      "hand": "left",
      "interactive": false,
      "label": "69"
    },
    {
      "id": "note-439",
      "midi": 72,
      "start": 148.0,
      "duration": 0.472917,
      "end": 148.472917,
      "velocity": 80,
      "hand": "right",
      "interactive": true,
      "label": "72"
    },
    {
      "id": "note-440",
      "midi": 69,
      "start": 148.5,
      "duration": 1.422917,
      "end": 149.922917,
      "velocity": 80,
      "hand": "right",
      "interactive": true,
      "label": "69"
    },
    {
      "id": "note-441",
      "midi": 65,
      "start": 150.5,
      "duration": 0.472917,
      "end": 150.972917,
      "velocity": 80,
      "hand": "right",
      "interactive": true,
      "label": "65"
    },
    {
      "id": "note-442",
      "midi": 40,
      "start": 151.0,
      "duration": 1.0,
      "end": 152.0,
      "velocity": 80,
      "hand": "left",
      "interactive": false,
      "label": "40"
    },
    {
      "id": "note-443",
      "midi": 60,
      "start": 151.0,
      "duration": 1.0,
      "end": 152.0,
      "velocity": 80,
      "hand": "left",
      "interactive": false,
      "label": "60"
    },
    {
      "id": "note-444",
      "midi": 64,
      "start": 151.0,
      "duration": 1.0,
      "end": 152.0,
      "velocity": 80,
      "hand": "left",
      "interactive": false,
      "label": "64"
    },
    {
      "id": "note-445",
      "midi": 67,
      "start": 151.0,
      "duration": 0.472917,
      "end": 151.472917,
      "velocity": 80,
      "hand": "right",
      "interactive": true,
      "label": "67"
    },
    {
      "id": "note-446",
      "midi": 69,
      "start": 151.0,
      "duration": 1.0,
      "end": 152.0,
      "velocity": 80,
      "hand": "left",
      "interactive": false,
      "label": "69"
    },
    {
      "id": "note-447",
      "midi": 69,
      "start": 151.5,
      "duration": 0.472917,
      "end": 151.972917,
      "velocity": 80,
      "hand": "right",
      "interactive": true,
      "label": "69"
    },
    {
      "id": "note-448",
      "midi": 38,
      "start": 152.0,
      "duration": 4.0,
      "end": 156.0,
      "velocity": 80,
      "hand": "left",
      "interactive": false,
      "label": "38"
    },
    {
      "id": "note-449",
      "midi": 62,
      "start": 152.0,
      "duration": 4.0,
      "end": 156.0,
      "velocity": 80,
      "hand": "left",
      "interactive": false,
      "label": "62"
    },
    {
      "id": "note-450",
      "midi": 65,
      "start": 152.0,
      "duration": 4.0,
      "end": 156.0,
      "velocity": 80,
      "hand": "left",
      "interactive": false,
      "label": "65"
    },
    {
      "id": "note-451",
      "midi": 69,
      "start": 152.0,
      "duration": 4.0,
      "end": 156.0,
      "velocity": 80,
      "hand": "left",
      "interactive": false,
      "label": "69"
    },
    {
      "id": "note-452",
      "midi": 72,
      "start": 152.0,
      "duration": 0.472917,
      "end": 152.472917,
      "velocity": 80,
      "hand": "right",
      "interactive": true,
      "label": "72"
    },
    {
      "id": "note-453",
      "midi": 69,
      "start": 152.5,
      "duration": 0.472917,
      "end": 152.972917,
      "velocity": 80,
      "hand": "right",
      "interactive": true,
      "label": "69"
    },
    {
      "id": "note-454",
      "midi": 67,
      "start": 153.0,
      "duration": 0.472917,
      "end": 153.472917,
      "velocity": 80,
      "hand": "right",
      "interactive": true,
      "label": "67"
    },
    {
      "id": "note-455",
      "midi": 65,
      "start": 153.5,
      "duration": 0.947917,
      "end": 154.447917,
      "velocity": 80,
      "hand": "right",
      "interactive": true,
      "label": "65"
    },
    {
      "id": "note-456",
      "midi": 65,
      "start": 154.5,
      "duration": 0.472917,
      "end": 154.972917,
      "velocity": 80,
      "hand": "right",
      "interactive": true,
      "label": "65"
    },
    {
      "id": "note-457",
      "midi": 67,
      "start": 155.0,
      "duration": 0.472917,
      "end": 155.472917,
      "velocity": 80,
      "hand": "right",
      "interactive": true,
      "label": "67"
    },
    {
      "id": "note-458",
      "midi": 69,
      "start": 155.5,
      "duration": 0.472917,
      "end": 155.972917,
      "velocity": 80,
      "hand": "right",
      "interactive": true,
      "label": "69"
    },
    {
      "id": "note-459",
      "midi": 43,
      "start": 156.0,
      "duration": 2.0,
      "end": 158.0,
      "velocity": 80,
      "hand": "left",
      "interactive": false,
      "label": "43"
    },
    {
      "id": "note-460",
      "midi": 62,
      "start": 156.0,
      "duration": 2.0,
      "end": 158.0,
      "velocity": 80,
      "hand": "left",
      "interactive": false,
      "label": "62"
    },
    {
      "id": "note-461",
      "midi": 65,
      "start": 156.0,
      "duration": 2.0,
      "end": 158.0,
      "velocity": 80,
      "hand": "left",
      "interactive": false,
      "label": "65"
    },
    {
      "id": "note-462",
      "midi": 67,
      "start": 156.0,
      "duration": 2.0,
      "end": 158.0,
      "velocity": 80,
      "hand": "left",
      "interactive": false,
      "label": "67"
    },
    {
      "id": "note-463",
      "midi": 71,
      "start": 156.0,
      "duration": 2.0,
      "end": 158.0,
      "velocity": 80,
      "hand": "left",
      "interactive": false,
      "label": "71"
    },
    {
      "id": "note-464",
      "midi": 74,
      "start": 156.0,
      "duration": 0.472917,
      "end": 156.472917,
      "velocity": 80,
      "hand": "right",
      "interactive": true,
      "label": "74"
    },
    {
      "id": "note-465",
      "midi": 69,
      "start": 156.5,
      "duration": 0.472917,
      "end": 156.972917,
      "velocity": 80,
      "hand": "right",
      "interactive": true,
      "label": "69"
    },
    {
      "id": "note-466",
      "midi": 67,
      "start": 157.0,
      "duration": 0.472917,
      "end": 157.472917,
      "velocity": 80,
      "hand": "right",
      "interactive": true,
      "label": "67"
    },
    {
      "id": "note-467",
      "midi": 65,
      "start": 157.5,
      "duration": 0.472917,
      "end": 157.972917,
      "velocity": 80,
      "hand": "right",
      "interactive": true,
      "label": "65"
    },
    {
      "id": "note-468",
      "midi": 47,
      "start": 158.0,
      "duration": 4.0,
      "end": 162.0,
      "velocity": 80,
      "hand": "left",
      "interactive": false,
      "label": "47"
    },
    {
      "id": "note-469",
      "midi": 62,
      "start": 158.0,
      "duration": 4.0,
      "end": 162.0,
      "velocity": 80,
      "hand": "left",
      "interactive": false,
      "label": "62"
    },
    {
      "id": "note-470",
      "midi": 65,
      "start": 158.0,
      "duration": 4.0,
      "end": 162.0,
      "velocity": 80,
      "hand": "left",
      "interactive": false,
      "label": "65"
    },
    {
      "id": "note-471",
      "midi": 69,
      "start": 158.0,
      "duration": 4.0,
      "end": 162.0,
      "velocity": 80,
      "hand": "left",
      "interactive": false,
      "label": "69"
    },
    {
      "id": "note-472",
      "midi": 71,
      "start": 158.0,
      "duration": 4.0,
      "end": 162.0,
      "velocity": 80,
      "hand": "left",
      "interactive": false,
      "label": "71"
    },
    {
      "id": "note-473",
      "midi": 77,
      "start": 158.0,
      "duration": 1.897917,
      "end": 159.897917,
      "velocity": 80,
      "hand": "right",
      "interactive": true,
      "label": "77"
    },
    {
      "id": "note-474",
      "midi": 77,
      "start": 160.5,
      "duration": 0.472917,
      "end": 160.972917,
      "velocity": 80,
      "hand": "right",
      "interactive": true,
      "label": "77"
    },
    {
      "id": "note-475",
      "midi": 74,
      "start": 161.0,
      "duration": 0.472917,
      "end": 161.472917,
      "velocity": 80,
      "hand": "right",
      "interactive": true,
      "label": "74"
    },
    {
      "id": "note-476",
      "midi": 77,
      "start": 161.5,
      "duration": 0.472917,
      "end": 161.972917,
      "velocity": 80,
      "hand": "right",
      "interactive": true,
      "label": "77"
    },
    {
      "id": "note-477",
      "midi": 46,
      "start": 162.0,
      "duration": 4.0,
      "end": 166.0,
      "velocity": 80,
      "hand": "left",
      "interactive": false,
      "label": "46"
    },
    {
      "id": "note-478",
      "midi": 62,
      "start": 162.0,
      "duration": 4.0,
      "end": 166.0,
      "velocity": 80,
      "hand": "left",
      "interactive": false,
      "label": "62"
    },
    {
      "id": "note-479",
      "midi": 65,
      "start": 162.0,
      "duration": 4.0,
      "end": 166.0,
      "velocity": 80,
      "hand": "left",
      "interactive": false,
      "label": "65"
    },
    {
      "id": "note-480",
      "midi": 69,
      "start": 162.0,
      "duration": 4.0,
      "end": 166.0,
      "velocity": 80,
      "hand": "left",
      "interactive": false,
      "label": "69"
    },
    {
      "id": "note-481",
      "midi": 70,
      "start": 162.0,
      "duration": 4.0,
      "end": 166.0,
      "velocity": 80,
      "hand": "left",
      "interactive": false,
      "label": "70"
    },
    {
      "id": "note-482",
      "midi": 74,
      "start": 162.0,
      "duration": 0.472917,
      "end": 162.472917,
      "velocity": 80,
      "hand": "right",
      "interactive": true,
      "label": "74"
    },
    {
      "id": "note-483",
      "midi": 72,
      "start": 162.5,
      "duration": 0.947917,
      "end": 163.447917,
      "velocity": 80,
      "hand": "right",
      "interactive": true,
      "label": "72"
    },
    {
      "id": "note-484",
      "midi": 72,
      "start": 163.5,
      "duration": 0.472917,
      "end": 163.972917,
      "velocity": 80,
      "hand": "right",
      "interactive": true,
      "label": "72"
    },
    {
      "id": "note-485",
      "midi": 74,
      "start": 164.0,
      "duration": 0.472917,
      "end": 164.472917,
      "velocity": 80,
      "hand": "right",
      "interactive": true,
      "label": "74"
    },
    {
      "id": "note-486",
      "midi": 72,
      "start": 164.5,
      "duration": 0.472917,
      "end": 164.972917,
      "velocity": 80,
      "hand": "right",
      "interactive": true,
      "label": "72"
    },
    {
      "id": "note-487",
      "midi": 69,
      "start": 165.0,
      "duration": 0.472917,
      "end": 165.472917,
      "velocity": 80,
      "hand": "right",
      "interactive": true,
      "label": "69"
    },
    {
      "id": "note-488",
      "midi": 67,
      "start": 165.5,
      "duration": 0.472917,
      "end": 165.972917,
      "velocity": 80,
      "hand": "right",
      "interactive": true,
      "label": "67"
    },
    {
      "id": "note-489",
      "midi": 36,
      "start": 166.0,
      "duration": 4.0,
      "end": 170.0,
      "velocity": 80,
      "hand": "left",
      "interactive": false,
      "label": "36"
    },
    {
      "id": "note-490",
      "midi": 62,
      "start": 166.0,
      "duration": 4.0,
      "end": 170.0,
      "velocity": 80,
      "hand": "left",
      "interactive": false,
      "label": "62"
    },
    {
      "id": "note-491",
      "midi": 65,
      "start": 166.0,
      "duration": 4.0,
      "end": 170.0,
      "velocity": 80,
      "hand": "left",
      "interactive": false,
      "label": "65"
    },
    {
      "id": "note-492",
      "midi": 69,
      "start": 166.0,
      "duration": 0.472917,
      "end": 166.472917,
      "velocity": 80,
      "hand": "right",
      "interactive": true,
      "label": "69"
    },
    {
      "id": "note-493",
      "midi": 70,
      "start": 166.0,
      "duration": 4.0,
      "end": 170.0,
      "velocity": 80,
      "hand": "left",
      "interactive": false,
      "label": "70"
    },
    {
      "id": "note-494",
      "midi": 67,
      "start": 166.5,
      "duration": 0.947917,
      "end": 167.447917,
      "velocity": 80,
      "hand": "right",
      "interactive": true,
      "label": "67"
    },
    {
      "id": "note-495",
      "midi": 65,
      "start": 167.5,
      "duration": 0.472917,
      "end": 167.972917,
      "velocity": 80,
      "hand": "right",
      "interactive": true,
      "label": "65"
    },
    {
      "id": "note-496",
      "midi": 62,
      "start": 168.0,
      "duration": 0.472917,
      "end": 168.472917,
      "velocity": 80,
      "hand": "right",
      "interactive": true,
      "label": "62"
    },
    {
      "id": "note-497",
      "midi": 65,
      "start": 168.5,
      "duration": 0.947917,
      "end": 169.447917,
      "velocity": 80,
      "hand": "right",
      "interactive": true,
      "label": "65"
    },
    {
      "id": "note-498",
      "midi": 67,
      "start": 169.5,
      "duration": 0.472917,
      "end": 169.972917,
      "velocity": 80,
      "hand": "right",
      "interactive": true,
      "label": "67"
    },
    {
      "id": "note-499",
      "midi": 41,
      "start": 170.0,
      "duration": 4.0,
      "end": 174.0,
      "velocity": 80,
      "hand": "left",
      "interactive": false,
      "label": "41"
    },
    {
      "id": "note-500",
      "midi": 60,
      "start": 170.0,
      "duration": 4.0,
      "end": 174.0,
      "velocity": 80,
      "hand": "left",
      "interactive": false,
      "label": "60"
    },
    {
      "id": "note-501",
      "midi": 65,
      "start": 170.0,
      "duration": 3.797917,
      "end": 173.797917,
      "velocity": 80,
      "hand": "right",
      "interactive": true,
      "label": "65"
    },
    {
      "id": "note-502",
      "midi": 65,
      "start": 170.0,
      "duration": 4.0,
      "end": 174.0,
      "velocity": 80,
      "hand": "left",
      "interactive": false,
      "label": "65"
    },
    {
      "id": "note-503",
      "midi": 69,
      "start": 170.0,
      "duration": 4.0,
      "end": 174.0,
      "velocity": 80,
      "hand": "left",
      "interactive": false,
      "label": "69"
    },
    {
      "id": "note-504",
      "midi": 36,
      "start": 174.0,
      "duration": 4.0,
      "end": 178.0,
      "velocity": 80,
      "hand": "left",
      "interactive": false,
      "label": "36"
    },
    {
      "id": "note-505",
      "midi": 60,
      "start": 174.0,
      "duration": 4.0,
      "end": 178.0,
      "velocity": 80,
      "hand": "left",
      "interactive": false,
      "label": "60"
    },
    {
      "id": "note-506",
      "midi": 64,
      "start": 174.0,
      "duration": 4.0,
      "end": 178.0,
      "velocity": 80,
      "hand": "left",
      "interactive": false,
      "label": "64"
    },
    {
      "id": "note-507",
      "midi": 67,
      "start": 174.0,
      "duration": 4.0,
      "end": 178.0,
      "velocity": 80,
      "hand": "left",
      "interactive": false,
      "label": "67"
    },
    {
      "id": "note-508",
      "midi": 70,
      "start": 174.0,
      "duration": 4.0,
      "end": 178.0,
      "velocity": 80,
      "hand": "left",
      "interactive": false,
      "label": "70"
    },
    {
      "id": "note-509",
      "midi": 60,
      "start": 175.5,
      "duration": 0.472917,
      "end": 175.972917,
      "velocity": 80,
      "hand": "right",
      "interactive": true,
      "label": "60"
    },
    {
      "id": "note-510",
      "midi": 62,
      "start": 176.0,
      "duration": 0.472917,
      "end": 176.472917,
      "velocity": 80,
      "hand": "right",
      "interactive": true,
      "label": "62"
    },
    {
      "id": "note-511",
      "midi": 65,
      "start": 176.5,
      "duration": 0.472917,
      "end": 176.972917,
      "velocity": 80,
      "hand": "right",
      "interactive": true,
      "label": "65"
    },
    {
      "id": "note-512",
      "midi": 67,
      "start": 177.0,
      "duration": 0.472917,
      "end": 177.472917,
      "velocity": 80,
      "hand": "right",
      "interactive": true,
      "label": "67"
    },
    {
      "id": "note-513",
      "midi": 65,
      "start": 177.5,
      "duration": 0.472917,
      "end": 177.972917,
      "velocity": 80,
      "hand": "right",
      "interactive": true,
      "label": "65"
    },
    {
      "id": "note-514",
      "midi": 41,
      "start": 178.0,
      "duration": 4.0,
      "end": 182.0,
      "velocity": 80,
      "hand": "left",
      "interactive": false,
      "label": "41"
    },
    {
      "id": "note-515",
      "midi": 60,
      "start": 178.0,
      "duration": 4.0,
      "end": 182.0,
      "velocity": 80,
      "hand": "left",
      "interactive": false,
      "label": "60"
    },
    {
      "id": "note-516",
      "midi": 65,
      "start": 178.0,
      "duration": 4.0,
      "end": 182.0,
      "velocity": 80,
      "hand": "left",
      "interactive": false,
      "label": "65"
    },
    {
      "id": "note-517",
      "midi": 67,
      "start": 178.0,
      "duration": 0.472917,
      "end": 178.472917,
      "velocity": 80,
      "hand": "right",
      "interactive": true,
      "label": "67"
    },
    {
      "id": "note-518",
      "midi": 69,
      "start": 178.0,
      "duration": 4.0,
      "end": 182.0,
      "velocity": 80,
      "hand": "left",
      "interactive": false,
      "label": "69"
    },
    {
      "id": "note-519",
      "midi": 69,
      "start": 178.5,
      "duration": 0.947917,
      "end": 179.447917,
      "velocity": 80,
      "hand": "right",
      "interactive": true,
      "label": "69"
    },
    {
      "id": "note-520",
      "midi": 69,
      "start": 179.5,
      "duration": 0.947917,
      "end": 180.447917,
      "velocity": 80,
      "hand": "right",
      "interactive": true,
      "label": "69"
    },
    {
      "id": "note-521",
      "midi": 69,
      "start": 180.5,
      "duration": 0.472917,
      "end": 180.972917,
      "velocity": 80,
      "hand": "right",
      "interactive": true,
      "label": "69"
    },
    {
      "id": "note-522",
      "midi": 67,
      "start": 181.0,
      "duration": 0.472917,
      "end": 181.472917,
      "velocity": 80,
      "hand": "right",
      "interactive": true,
      "label": "67"
    },
    {
      "id": "note-523",
      "midi": 65,
      "start": 181.5,
      "duration": 0.472917,
      "end": 181.972917,
      "velocity": 80,
      "hand": "right",
      "interactive": true,
      "label": "65"
    },
    {
      "id": "note-524",
      "midi": 40,
      "start": 182.0,
      "duration": 4.0,
      "end": 186.0,
      "velocity": 80,
      "hand": "left",
      "interactive": false,
      "label": "40"
    },
    {
      "id": "note-525",
      "midi": 60,
      "start": 182.0,
      "duration": 4.0,
      "end": 186.0,
      "velocity": 80,
      "hand": "left",
      "interactive": false,
      "label": "60"
    },
    {
      "id": "note-526",
      "midi": 64,
      "start": 182.0,
      "duration": 4.0,
      "end": 186.0,
      "velocity": 80,
      "hand": "left",
      "interactive": false,
      "label": "64"
    },
    {
      "id": "note-527",
      "midi": 67,
      "start": 182.0,
      "duration": 0.472917,
      "end": 182.472917,
      "velocity": 80,
      "hand": "right",
      "interactive": true,
      "label": "67"
    },
    {
      "id": "note-528",
      "midi": 67,
      "start": 182.0,
      "duration": 4.0,
      "end": 186.0,
      "velocity": 80,
      "hand": "left",
      "interactive": false,
      "label": "67"
    },
    {
      "id": "note-529",
      "midi": 69,
      "start": 182.5,
      "duration": 0.947917,
      "end": 183.447917,
      "velocity": 80,
      "hand": "right",
      "interactive": true,
      "label": "69"
    },
    {
      "id": "note-530",
      "midi": 69,
      "start": 183.5,
      "duration": 0.947917,
      "end": 184.447917,
      "velocity": 80,
      "hand": "right",
      "interactive": true,
      "label": "69"
    },
    {
      "id": "note-531",
      "midi": 69,
      "start": 184.5,
      "duration": 0.472917,
      "end": 184.972917,
      "velocity": 80,
      "hand": "right",
      "interactive": true,
      "label": "69"
    },
    {
      "id": "note-532",
      "midi": 67,
      "start": 185.0,
      "duration": 0.472917,
      "end": 185.472917,
      "velocity": 80,
      "hand": "right",
      "interactive": true,
      "label": "67"
    },
    {
      "id": "note-533",
      "midi": 65,
      "start": 185.5,
      "duration": 0.472917,
      "end": 185.972917,
      "velocity": 80,
      "hand": "right",
      "interactive": true,
      "label": "65"
    },
    {
      "id": "note-534",
      "midi": 38,
      "start": 186.0,
      "duration": 4.0,
      "end": 190.0,
      "velocity": 80,
      "hand": "left",
      "interactive": false,
      "label": "38"
    },
    {
      "id": "note-535",
      "midi": 62,
      "start": 186.0,
      "duration": 4.0,
      "end": 190.0,
      "velocity": 80,
      "hand": "left",
      "interactive": false,
      "label": "62"
    },
    {
      "id": "note-536",
      "midi": 65,
      "start": 186.0,
      "duration": 4.0,
      "end": 190.0,
      "velocity": 80,
      "hand": "left",
      "interactive": false,
      "label": "65"
    },
    {
      "id": "note-537",
      "midi": 67,
      "start": 186.0,
      "duration": 0.710417,
      "end": 186.710417,
      "velocity": 80,
      "hand": "right",
      "interactive": true,
      "label": "67"
    },
    {
      "id": "note-538",
      "midi": 69,
      "start": 186.0,
      "duration": 4.0,
      "end": 190.0,
      "velocity": 80,
      "hand": "left",
      "interactive": false,
      "label": "69"
    },
    {
      "id": "note-539",
      "midi": 65,
      "start": 186.75,
      "duration": 0.710417,
      "end": 187.460417,
      "velocity": 80,
      "hand": "right",
      "interactive": true,
      "label": "65"
    },
    {
      "id": "note-540",
      "midi": 62,
      "start": 187.5,
      "duration": 0.472917,
      "end": 187.972917,
      "velocity": 80,
      "hand": "right",
      "interactive": true,
      "label": "62"
    },
    {
      "id": "note-541",
      "midi": 65,
      "start": 188.0,
      "duration": 0.710417,
      "end": 188.710417,
      "velocity": 80,
      "hand": "right",
      "interactive": true,
      "label": "65"
    },
    {
      "id": "note-542",
      "midi": 67,
      "start": 188.75,
      "duration": 0.710417,
      "end": 189.460417,
      "velocity": 80,
      "hand": "right",
      "interactive": true,
      "label": "67"
    },
    {
      "id": "note-543",
      "midi": 69,
      "start": 189.5,
      "duration": 0.472917,
      "end": 189.972917,
      "velocity": 80,
      "hand": "right",
      "interactive": true,
      "label": "69"
    },
    {
      "id": "note-544",
      "midi": 36,
      "start": 190.0,
      "duration": 4.0,
      "end": 194.0,
      "velocity": 80,
      "hand": "left",
      "interactive": false,
      "label": "36"
    },
    {
      "id": "note-545",
      "midi": 60,
      "start": 190.0,
      "duration": 4.0,
      "end": 194.0,
      "velocity": 80,
      "hand": "left",
      "interactive": false,
      "label": "60"
    },
    {
      "id": "note-546",
      "midi": 65,
      "start": 190.0,
      "duration": 4.0,
      "end": 194.0,
      "velocity": 80,
      "hand": "left",
      "interactive": false,
      "label": "65"
    },
    {
      "id": "note-547",
      "midi": 69,
      "start": 190.0,
      "duration": 0.947917,
      "end": 190.947917,
      "velocity": 80,
      "hand": "right",
      "interactive": true,
      "label": "69"
    },
    {
      "id": "note-548",
      "midi": 69,
      "start": 190.0,
      "duration": 4.0,
      "end": 194.0,
      "velocity": 80,
      "hand": "left",
      "interactive": false,
      "label": "69"
    },
    {
      "id": "note-549",
      "midi": 60,
      "start": 191.5,
      "duration": 0.472917,
      "end": 191.972917,
      "velocity": 80,
      "hand": "right",
      "interactive": true,
      "label": "60"
    },
    {
      "id": "note-550",
      "midi": 62,
      "start": 192.0,
      "duration": 0.472917,
      "end": 192.472917,
      "velocity": 80,
      "hand": "right",
      "interactive": true,
      "label": "62"
    },
    {
      "id": "note-551",
      "midi": 65,
      "start": 192.5,
      "duration": 0.472917,
      "end": 192.972917,
      "velocity": 80,
      "hand": "right",
      "interactive": true,
      "label": "65"
    },
    {
      "id": "note-552",
      "midi": 67,
      "start": 193.0,
      "duration": 0.472917,
      "end": 193.472917,
      "velocity": 80,
      "hand": "right",
      "interactive": true,
      "label": "67"
    },
    {
      "id": "note-553",
      "midi": 65,
      "start": 193.5,
      "duration": 0.472917,
      "end": 193.972917,
      "velocity": 80,
      "hand": "right",
      "interactive": true,
      "label": "65"
    },
    {
      "id": "note-554",
      "midi": 46,
      "start": 194.0,
      "duration": 4.0,
      "end": 198.0,
      "velocity": 80,
      "hand": "left",
      "interactive": false,
      "label": "46"
    },
    {
      "id": "note-555",
      "midi": 62,
      "start": 194.0,
      "duration": 4.0,
      "end": 198.0,
      "velocity": 80,
      "hand": "left",
      "interactive": false,
      "label": "62"
    },
    {
      "id": "note-556",
      "midi": 65,
      "start": 194.0,
      "duration": 4.0,
      "end": 198.0,
      "velocity": 80,
      "hand": "left",
      "interactive": false,
      "label": "65"
    },
    {
      "id": "note-557",
      "midi": 67,
      "start": 194.0,
      "duration": 0.472917,
      "end": 194.472917,
      "velocity": 80,
      "hand": "right",
      "interactive": true,
      "label": "67"
    },
    {
      "id": "note-558",
      "midi": 70,
      "start": 194.0,
      "duration": 4.0,
      "end": 198.0,
      "velocity": 80,
      "hand": "left",
      "interactive": false,
      "label": "70"
    },
    {
      "id": "note-559",
      "midi": 65,
      "start": 194.5,
      "duration": 0.947917,
      "end": 195.447917,
      "velocity": 80,
      "hand": "right",
      "interactive": true,
      "label": "65"
    },
    {
      "id": "note-560",
      "midi": 74,
      "start": 195.5,
      "duration": 0.947917,
      "end": 196.447917,
      "velocity": 80,
      "hand": "right",
      "interactive": true,
      "label": "74"
    },
    {
      "id": "note-561",
      "midi": 72,
      "start": 196.5,
      "duration": 0.472917,
      "end": 196.972917,
      "velocity": 80,
      "hand": "right",
      "interactive": true,
      "label": "72"
    },
    {
      "id": "note-562",
      "midi": 69,
      "start": 197.0,
      "duration": 0.472917,
      "end": 197.472917,
      "velocity": 80,
      "hand": "right",
      "interactive": true,
      "label": "69"
    },
    {
      "id": "note-563",
      "midi": 67,
      "start": 197.5,
      "duration": 0.472917,
      "end": 197.972917,
      "velocity": 80,
      "hand": "right",
      "interactive": true,
      "label": "67"
    },
    {
      "id": "note-564",
      "midi": 45,
      "start": 198.0,
      "duration": 4.0,
      "end": 202.0,
      "velocity": 80,
      "hand": "left",
      "interactive": false,
      "label": "45"
    },
    {
      "id": "note-565",
      "midi": 60,
      "start": 198.0,
      "duration": 4.0,
      "end": 202.0,
      "velocity": 80,
      "hand": "left",
      "interactive": false,
      "label": "60"
    },
    {
      "id": "note-566",
      "midi": 65,
      "start": 198.0,
      "duration": 4.0,
      "end": 202.0,
      "velocity": 80,
      "hand": "left",
      "interactive": false,
      "label": "65"
    },
    {
      "id": "note-567",
      "midi": 67,
      "start": 198.0,
      "duration": 0.472917,
      "end": 198.472917,
      "velocity": 80,
      "hand": "right",
      "interactive": true,
      "label": "67"
    },
    {
      "id": "note-568",
      "midi": 69,
      "start": 198.0,
      "duration": 4.0,
      "end": 202.0,
      "velocity": 80,
      "hand": "left",
      "interactive": false,
      "label": "69"
    },
    {
      "id": "note-569",
      "midi": 65,
      "start": 198.5,
      "duration": 0.947917,
      "end": 199.447917,
      "velocity": 80,
      "hand": "right",
      "interactive": true,
      "label": "65"
    },
    {
      "id": "note-570",
      "midi": 69,
      "start": 199.5,
      "duration": 0.947917,
      "end": 200.447917,
      "velocity": 80,
      "hand": "right",
      "interactive": true,
      "label": "69"
    },
    {
      "id": "note-571",
      "midi": 69,
      "start": 200.5,
      "duration": 0.472917,
      "end": 200.972917,
      "velocity": 80,
      "hand": "right",
      "interactive": true,
      "label": "69"
    },
    {
      "id": "note-572",
      "midi": 67,
      "start": 201.0,
      "duration": 0.472917,
      "end": 201.472917,
      "velocity": 80,
      "hand": "right",
      "interactive": true,
      "label": "67"
    },
    {
      "id": "note-573",
      "midi": 65,
      "start": 201.5,
      "duration": 0.472917,
      "end": 201.972917,
      "velocity": 80,
      "hand": "right",
      "interactive": true,
      "label": "65"
    },
    {
      "id": "note-574",
      "midi": 43,
      "start": 202.0,
      "duration": 4.0,
      "end": 206.0,
      "velocity": 80,
      "hand": "left",
      "interactive": false,
      "label": "43"
    },
    {
      "id": "note-575",
      "midi": 62,
      "start": 202.0,
      "duration": 4.0,
      "end": 206.0,
      "velocity": 80,
      "hand": "left",
      "interactive": false,
      "label": "62"
    },
    {
      "id": "note-576",
      "midi": 65,
      "start": 202.0,
      "duration": 4.0,
      "end": 206.0,
      "velocity": 80,
      "hand": "left",
      "interactive": false,
      "label": "65"
    },
    {
      "id": "note-577",
      "midi": 67,
      "start": 202.0,
      "duration": 0.710417,
      "end": 202.710417,
      "velocity": 80,
      "hand": "right",
      "interactive": true,
      "label": "67"
    },
    {
      "id": "note-578",
      "midi": 67,
      "start": 202.0,
      "duration": 4.0,
      "end": 206.0,
      "velocity": 80,
      "hand": "left",
      "interactive": false,
      "label": "67"
    },
    {
      "id": "note-579",
      "midi": 70,
      "start": 202.0,
      "duration": 4.0,
      "end": 206.0,
      "velocity": 80,
      "hand": "left",
      "interactive": false,
      "label": "70"
    },
    {
      "id": "note-580",
      "midi": 67,
      "start": 202.75,
      "duration": 0.710417,
      "end": 203.460417,
      "velocity": 80,
      "hand": "right",
      "interactive": true,
      "label": "67"
    },
    {
      "id": "note-581",
      "midi": 67,
      "start": 203.5,
      "duration": 0.472917,
      "end": 203.972917,
      "velocity": 80,
      "hand": "right",
      "interactive": true,
      "label": "67"
    },
    {
      "id": "note-582",
      "midi": 67,
      "start": 204.0,
      "duration": 0.710417,
      "end": 204.710417,
      "velocity": 80,
      "hand": "right",
      "interactive": true,
      "label": "67"
    },
    {
      "id": "note-583",
      "midi": 65,
      "start": 204.75,
      "duration": 0.710417,
      "end": 205.460417,
      "velocity": 80,
      "hand": "right",
      "interactive": true,
      "label": "65"
    },
    {
      "id": "note-584",
      "midi": 62,
      "start": 205.5,
      "duration": 0.472917,
      "end": 205.972917,
      "velocity": 80,
      "hand": "right",
      "interactive": true,
      "label": "62"
    },
    {
      "id": "note-585",
      "midi": 36,
      "start": 206.0,
      "duration": 4.0,
      "end": 210.0,
      "velocity": 80,
      "hand": "left",
      "interactive": false,
      "label": "36"
    },
    {
      "id": "note-586",
      "midi": 60,
      "start": 206.0,
      "duration": 4.0,
      "end": 210.0,
      "velocity": 80,
      "hand": "left",
      "interactive": false,
      "label": "60"
    },
    {
      "id": "note-587",
      "midi": 64,
      "start": 206.0,
      "duration": 4.0,
      "end": 210.0,
      "velocity": 80,
      "hand": "left",
      "interactive": false,
      "label": "64"
    },
    {
      "id": "note-588",
      "midi": 67,
      "start": 206.0,
      "duration": 0.947917,
      "end": 206.947917,
      "velocity": 80,
      "hand": "right",
      "interactive": true,
      "label": "67"
    },
    {
      "id": "note-589",
      "midi": 67,
      "start": 206.0,
      "duration": 4.0,
      "end": 210.0,
      "velocity": 80,
      "hand": "left",
      "interactive": false,
      "label": "67"
    },
    {
      "id": "note-590",
      "midi": 60,
      "start": 207.5,
      "duration": 0.472917,
      "end": 207.972917,
      "velocity": 80,
      "hand": "right",
      "interactive": true,
      "label": "60"
    },
    {
      "id": "note-591",
      "midi": 62,
      "start": 208.0,
      "duration": 0.472917,
      "end": 208.472917,
      "velocity": 80,
      "hand": "right",
      "interactive": true,
      "label": "62"
    },
    {
      "id": "note-592",
      "midi": 65,
      "start": 208.5,
      "duration": 0.472917,
      "end": 208.972917,
      "velocity": 80,
      "hand": "right",
      "interactive": true,
      "label": "65"
    },
    {
      "id": "note-593",
      "midi": 67,
      "start": 209.0,
      "duration": 0.472917,
      "end": 209.472917,
      "velocity": 80,
      "hand": "right",
      "interactive": true,
      "label": "67"
    },
    {
      "id": "note-594",
      "midi": 65,
      "start": 209.5,
      "duration": 0.472917,
      "end": 209.972917,
      "velocity": 80,
      "hand": "right",
      "interactive": true,
      "label": "65"
    },
    {
      "id": "note-595",
      "midi": 41,
      "start": 210.0,
      "duration": 4.0,
      "end": 214.0,
      "velocity": 80,
      "hand": "left",
      "interactive": false,
      "label": "41"
    },
    {
      "id": "note-596",
      "midi": 60,
      "start": 210.0,
      "duration": 4.0,
      "end": 214.0,
      "velocity": 80,
      "hand": "left",
      "interactive": false,
      "label": "60"
    },
    {
      "id": "note-597",
      "midi": 65,
      "start": 210.0,
      "duration": 4.0,
      "end": 214.0,
      "velocity": 80,
      "hand": "left",
      "interactive": false,
      "label": "65"
    },
    {
      "id": "note-598",
      "midi": 67,
      "start": 210.0,
      "duration": 0.472917,
      "end": 210.472917,
      "velocity": 80,
      "hand": "right",
      "interactive": true,
      "label": "67"
    },
    {
      "id": "note-599",
      "midi": 69,
      "start": 210.0,
      "duration": 4.0,
      "end": 214.0,
      "velocity": 80,
      "hand": "left",
      "interactive": false,
      "label": "69"
    },
    {
      "id": "note-600",
      "midi": 69,
      "start": 210.5,
      "duration": 0.947917,
      "end": 211.447917,
      "velocity": 80,
      "hand": "right",
      "interactive": true,
      "label": "69"
    },
    {
      "id": "note-601",
      "midi": 72,
      "start": 211.5,
      "duration": 0.947917,
      "end": 212.447917,
      "velocity": 80,
      "hand": "right",
      "interactive": true,
      "label": "72"
    },
    {
      "id": "note-602",
      "midi": 69,
      "start": 212.5,
      "duration": 0.472917,
      "end": 212.972917,
      "velocity": 80,
      "hand": "right",
      "interactive": true,
      "label": "69"
    },
    {
      "id": "note-603",
      "midi": 67,
      "start": 213.0,
      "duration": 0.472917,
      "end": 213.472917,
      "velocity": 80,
      "hand": "right",
      "interactive": true,
      "label": "67"
    },
    {
      "id": "note-604",
      "midi": 65,
      "start": 213.5,
      "duration": 0.472917,
      "end": 213.972917,
      "velocity": 80,
      "hand": "right",
      "interactive": true,
      "label": "65"
    },
    {
      "id": "note-605",
      "midi": 40,
      "start": 214.0,
      "duration": 4.0,
      "end": 218.0,
      "velocity": 80,
      "hand": "left",
      "interactive": false,
      "label": "40"
    },
    {
      "id": "note-606",
      "midi": 60,
      "start": 214.0,
      "duration": 4.0,
      "end": 218.0,
      "velocity": 80,
      "hand": "left",
      "interactive": false,
      "label": "60"
    },
    {
      "id": "note-607",
      "midi": 64,
      "start": 214.0,
      "duration": 4.0,
      "end": 218.0,
      "velocity": 80,
      "hand": "left",
      "interactive": false,
      "label": "64"
    },
    {
      "id": "note-608",
      "midi": 67,
      "start": 214.0,
      "duration": 0.472917,
      "end": 214.472917,
      "velocity": 80,
      "hand": "right",
      "interactive": true,
      "label": "67"
    },
    {
      "id": "note-609",
      "midi": 67,
      "start": 214.0,
      "duration": 4.0,
      "end": 218.0,
      "velocity": 80,
      "hand": "left",
      "interactive": false,
      "label": "67"
    },
    {
      "id": "note-610",
      "midi": 69,
      "start": 214.5,
      "duration": 0.947917,
      "end": 215.447917,
      "velocity": 80,
      "hand": "right",
      "interactive": true,
      "label": "69"
    },
    {
      "id": "note-611",
      "midi": 74,
      "start": 215.5,
      "duration": 0.947917,
      "end": 216.447917,
      "velocity": 80,
      "hand": "right",
      "interactive": true,
      "label": "74"
    },
    {
      "id": "note-612",
      "midi": 69,
      "start": 216.5,
      "duration": 0.472917,
      "end": 216.972917,
      "velocity": 80,
      "hand": "right",
      "interactive": true,
      "label": "69"
    },
    {
      "id": "note-613",
      "midi": 67,
      "start": 217.0,
      "duration": 0.472917,
      "end": 217.472917,
      "velocity": 80,
      "hand": "right",
      "interactive": true,
      "label": "67"
    },
    {
      "id": "note-614",
      "midi": 65,
      "start": 217.5,
      "duration": 0.472917,
      "end": 217.972917,
      "velocity": 80,
      "hand": "right",
      "interactive": true,
      "label": "65"
    },
    {
      "id": "note-615",
      "midi": 38,
      "start": 218.0,
      "duration": 4.0,
      "end": 222.0,
      "velocity": 80,
      "hand": "left",
      "interactive": false,
      "label": "38"
    },
    {
      "id": "note-616",
      "midi": 62,
      "start": 218.0,
      "duration": 4.0,
      "end": 222.0,
      "velocity": 80,
      "hand": "left",
      "interactive": false,
      "label": "62"
    },
    {
      "id": "note-617",
      "midi": 65,
      "start": 218.0,
      "duration": 4.0,
      "end": 222.0,
      "velocity": 80,
      "hand": "left",
      "interactive": false,
      "label": "65"
    },
    {
      "id": "note-618",
      "midi": 67,
      "start": 218.0,
      "duration": 0.710417,
      "end": 218.710417,
      "velocity": 80,
      "hand": "right",
      "interactive": true,
      "label": "67"
    },
    {
      "id": "note-619",
      "midi": 69,
      "start": 218.0,
      "duration": 4.0,
      "end": 222.0,
      "velocity": 80,
      "hand": "left",
      "interactive": false,
      "label": "69"
    },
    {
      "id": "note-620",
      "midi": 65,
      "start": 218.75,
      "duration": 0.710417,
      "end": 219.460417,
      "velocity": 80,
      "hand": "right",
      "interactive": true,
      "label": "65"
    },
    {
      "id": "note-621",
      "midi": 62,
      "start": 219.5,
      "duration": 0.472917,
      "end": 219.972917,
      "velocity": 80,
      "hand": "right",
      "interactive": true,
      "label": "62"
    },
    {
      "id": "note-622",
      "midi": 65,
      "start": 220.0,
      "duration": 0.710417,
      "end": 220.710417,
      "velocity": 80,
      "hand": "right",
      "interactive": true,
      "label": "65"
    },
    {
      "id": "note-623",
      "midi": 67,
      "start": 220.75,
      "duration": 0.710417,
      "end": 221.460417,
      "velocity": 80,
      "hand": "right",
      "interactive": true,
      "label": "67"
    },
    {
      "id": "note-624",
      "midi": 69,
      "start": 221.5,
      "duration": 0.472917,
      "end": 221.972917,
      "velocity": 80,
      "hand": "right",
      "interactive": true,
      "label": "69"
    },
    {
      "id": "note-625",
      "midi": 45,
      "start": 222.0,
      "duration": 4.0,
      "end": 226.0,
      "velocity": 80,
      "hand": "left",
      "interactive": false,
      "label": "45"
    },
    {
      "id": "note-626",
      "midi": 60,
      "start": 222.0,
      "duration": 4.0,
      "end": 226.0,
      "velocity": 80,
      "hand": "left",
      "interactive": false,
      "label": "60"
    },
    {
      "id": "note-627",
      "midi": 64,
      "start": 222.0,
      "duration": 4.0,
      "end": 226.0,
      "velocity": 80,
      "hand": "left",
      "interactive": false,
      "label": "64"
    },
    {
      "id": "note-628",
      "midi": 69,
      "start": 222.0,
      "duration": 4.0,
      "end": 226.0,
      "velocity": 80,
      "hand": "left",
      "interactive": false,
      "label": "69"
    },
    {
      "id": "note-629",
      "midi": 72,
      "start": 222.0,
      "duration": 0.947917,
      "end": 222.947917,
      "velocity": 80,
      "hand": "right",
      "interactive": true,
      "label": "72"
    },
    {
      "id": "note-630",
      "midi": 60,
      "start": 223.5,
      "duration": 0.472917,
      "end": 223.972917,
      "velocity": 80,
      "hand": "right",
      "interactive": true,
      "label": "60"
    },
    {
      "id": "note-631",
      "midi": 62,
      "start": 224.0,
      "duration": 0.472917,
      "end": 224.472917,
      "velocity": 80,
      "hand": "right",
      "interactive": true,
      "label": "62"
    },
    {
      "id": "note-632",
      "midi": 65,
      "start": 224.5,
      "duration": 0.472917,
      "end": 224.972917,
      "velocity": 80,
      "hand": "right",
      "interactive": true,
      "label": "65"
    },
    {
      "id": "note-633",
      "midi": 67,
      "start": 225.0,
      "duration": 0.472917,
      "end": 225.472917,
      "velocity": 80,
      "hand": "right",
      "interactive": true,
      "label": "67"
    },
    {
      "id": "note-634",
      "midi": 65,
      "start": 225.5,
      "duration": 0.472917,
      "end": 225.972917,
      "velocity": 80,
      "hand": "right",
      "interactive": true,
      "label": "65"
    },
    {
      "id": "note-635",
      "midi": 46,
      "start": 226.0,
      "duration": 4.0,
      "end": 230.0,
      "velocity": 80,
      "hand": "left",
      "interactive": false,
      "label": "46"
    },
    {
      "id": "note-636",
      "midi": 62,
      "start": 226.0,
      "duration": 4.0,
      "end": 230.0,
      "velocity": 80,
      "hand": "left",
      "interactive": false,
      "label": "62"
    },
    {
      "id": "note-637",
      "midi": 65,
      "start": 226.0,
      "duration": 4.0,
      "end": 230.0,
      "velocity": 80,
      "hand": "left",
      "interactive": false,
      "label": "65"
    },
    {
      "id": "note-638",
      "midi": 67,
      "start": 226.0,
      "duration": 0.472917,
      "end": 226.472917,
      "velocity": 80,
      "hand": "right",
      "interactive": true,
      "label": "67"
    },
    {
      "id": "note-639",
      "midi": 70,
      "start": 226.0,
      "duration": 4.0,
      "end": 230.0,
      "velocity": 80,
      "hand": "left",
      "interactive": false,
      "label": "70"
    },
    {
      "id": "note-640",
      "midi": 65,
      "start": 226.5,
      "duration": 0.947917,
      "end": 227.447917,
      "velocity": 80,
      "hand": "right",
      "interactive": true,
      "label": "65"
    },
    {
      "id": "note-641",
      "midi": 74,
      "start": 227.5,
      "duration": 0.947917,
      "end": 228.447917,
      "velocity": 80,
      "hand": "right",
      "interactive": true,
      "label": "74"
    },
    {
      "id": "note-642",
      "midi": 72,
      "start": 228.5,
      "duration": 0.472917,
      "end": 228.972917,
      "velocity": 80,
      "hand": "right",
      "interactive": true,
      "label": "72"
    },
    {
      "id": "note-643",
      "midi": 69,
      "start": 229.0,
      "duration": 0.472917,
      "end": 229.472917,
      "velocity": 80,
      "hand": "right",
      "interactive": true,
      "label": "69"
    },
    {
      "id": "note-644",
      "midi": 67,
      "start": 229.5,
      "duration": 0.472917,
      "end": 229.972917,
      "velocity": 80,
      "hand": "right",
      "interactive": true,
      "label": "67"
    },
    {
      "id": "note-645",
      "midi": 41,
      "start": 230.0,
      "duration": 4.0,
      "end": 234.0,
      "velocity": 80,
      "hand": "left",
      "interactive": false,
      "label": "41"
    },
    {
      "id": "note-646",
      "midi": 60,
      "start": 230.0,
      "duration": 4.0,
      "end": 234.0,
      "velocity": 80,
      "hand": "left",
      "interactive": false,
      "label": "60"
    },
    {
      "id": "note-647",
      "midi": 65,
      "start": 230.0,
      "duration": 4.0,
      "end": 234.0,
      "velocity": 80,
      "hand": "left",
      "interactive": false,
      "label": "65"
    },
    {
      "id": "note-648",
      "midi": 67,
      "start": 230.0,
      "duration": 0.472917,
      "end": 230.472917,
      "velocity": 80,
      "hand": "right",
      "interactive": true,
      "label": "67"
    },
    {
      "id": "note-649",
      "midi": 69,
      "start": 230.0,
      "duration": 4.0,
      "end": 234.0,
      "velocity": 80,
      "hand": "left",
      "interactive": false,
      "label": "69"
    },
    {
      "id": "note-650",
      "midi": 65,
      "start": 230.5,
      "duration": 0.947917,
      "end": 231.447917,
      "velocity": 80,
      "hand": "right",
      "interactive": true,
      "label": "65"
    },
    {
      "id": "note-651",
      "midi": 69,
      "start": 231.5,
      "duration": 0.947917,
      "end": 232.447917,
      "velocity": 80,
      "hand": "right",
      "interactive": true,
      "label": "69"
    },
    {
      "id": "note-652",
      "midi": 69,
      "start": 232.5,
      "duration": 0.472917,
      "end": 232.972917,
      "velocity": 80,
      "hand": "right",
      "interactive": true,
      "label": "69"
    },
    {
      "id": "note-653",
      "midi": 67,
      "start": 233.0,
      "duration": 0.472917,
      "end": 233.472917,
      "velocity": 80,
      "hand": "right",
      "interactive": true,
      "label": "67"
    },
    {
      "id": "note-654",
      "midi": 65,
      "start": 233.5,
      "duration": 0.472917,
      "end": 233.972917,
      "velocity": 80,
      "hand": "right",
      "interactive": true,
      "label": "65"
    },
    {
      "id": "note-655",
      "midi": 43,
      "start": 234.0,
      "duration": 2.0,
      "end": 236.0,
      "velocity": 80,
      "hand": "left",
      "interactive": false,
      "label": "43"
    },
    {
      "id": "note-656",
      "midi": 62,
      "start": 234.0,
      "duration": 2.0,
      "end": 236.0,
      "velocity": 80,
      "hand": "left",
      "interactive": false,
      "label": "62"
    },
    {
      "id": "note-657",
      "midi": 65,
      "start": 234.0,
      "duration": 2.0,
      "end": 236.0,
      "velocity": 80,
      "hand": "left",
      "interactive": false,
      "label": "65"
    },
    {
      "id": "note-658",
      "midi": 67,
      "start": 234.0,
      "duration": 0.710417,
      "end": 234.710417,
      "velocity": 80,
      "hand": "right",
      "interactive": true,
      "label": "67"
    },
    {
      "id": "note-659",
      "midi": 67,
      "start": 234.0,
      "duration": 2.0,
      "end": 236.0,
      "velocity": 80,
      "hand": "left",
      "interactive": false,
      "label": "67"
    },
    {
      "id": "note-660",
      "midi": 71,
      "start": 234.0,
      "duration": 2.0,
      "end": 236.0,
      "velocity": 80,
      "hand": "left",
      "interactive": false,
      "label": "71"
    },
    {
      "id": "note-661",
      "midi": 67,
      "start": 234.75,
      "duration": 0.710417,
      "end": 235.460417,
      "velocity": 80,
      "hand": "right",
      "interactive": true,
      "label": "67"
    },
    {
      "id": "note-662",
      "midi": 67,
      "start": 235.5,
      "duration": 0.472917,
      "end": 235.972917,
      "velocity": 80,
      "hand": "right",
      "interactive": true,
      "label": "67"
    },
    {
      "id": "note-663",
      "midi": 36,
      "start": 236.0,
      "duration": 2.0,
      "end": 238.0,
      "velocity": 80,
      "hand": "left",
      "interactive": false,
      "label": "36"
    },
    {
      "id": "note-664",
      "midi": 60,
      "start": 236.0,
      "duration": 2.0,
      "end": 238.0,
      "velocity": 80,
      "hand": "left",
      "interactive": false,
      "label": "60"
    },
    {
      "id": "note-665",
      "midi": 64,
      "start": 236.0,
      "duration": 2.0,
      "end": 238.0,
      "velocity": 80,
      "hand": "left",
      "interactive": false,
      "label": "64"
    },
    {
      "id": "note-666",
      "midi": 67,
      "start": 236.0,
      "duration": 0.710417,
      "end": 236.710417,
      "velocity": 80,
      "hand": "right",
      "interactive": true,
      "label": "67"
    },
    {
      "id": "note-667",
      "midi": 67,
      "start": 236.0,
      "duration": 2.0,
      "end": 238.0,
      "velocity": 80,
      "hand": "left",
      "interactive": false,
      "label": "67"
    },
    {
      "id": "note-668",
      "midi": 65,
      "start": 236.75,
      "duration": 0.710417,
      "end": 237.460417,
      "velocity": 80,
      "hand": "right",
      "interactive": true,
      "label": "65"
    },
    {
      "id": "note-669",
      "midi": 62,
      "start": 237.5,
      "duration": 0.472917,
      "end": 237.972917,
      "velocity": 80,
      "hand": "right",
      "interactive": true,
      "label": "62"
    },
    {
      "id": "note-670",
      "midi": 41,
      "start": 238.0,
      "duration": 3.0,
      "end": 241.0,
      "velocity": 80,
      "hand": "left",
      "interactive": false,
      "label": "41"
    },
    {
      "id": "note-671",
      "midi": 60,
      "start": 238.0,
      "duration": 3.0,
      "end": 241.0,
      "velocity": 80,
      "hand": "left",
      "interactive": false,
      "label": "60"
    },
    {
      "id": "note-672",
      "midi": 65,
      "start": 238.0,
      "duration": 0.947917,
      "end": 238.947917,
      "velocity": 80,
      "hand": "right",
      "interactive": true,
      "label": "65"
    },
    {
      "id": "note-673",
      "midi": 65,
      "start": 238.0,
      "duration": 3.0,
      "end": 241.0,
      "velocity": 80,
      "hand": "left",
      "interactive": false,
      "label": "65"
    },
    {
      "id": "note-674",
      "midi": 69,
      "start": 238.0,
      "duration": 3.0,
      "end": 241.0,
      "velocity": 80,
      "hand": "left",
      "interactive": false,
      "label": "69"
    },
    {
      "id": "note-675",
      "midi": 65,
      "start": 239.5,
      "duration": 0.472917,
      "end": 239.972917,
      "velocity": 80,
      "hand": "right",
      "interactive": true,
      "label": "65"
    },
    {
      "id": "note-676",
      "midi": 77,
      "start": 240.0,
      "duration": 0.472917,
      "end": 240.472917,
      "velocity": 80,
      "hand": "right",
      "interactive": true,
      "label": "77"
    },
    {
      "id": "note-677",
      "midi": 76,
      "start": 240.5,
      "duration": 0.472917,
      "end": 240.972917,
      "velocity": 80,
      "hand": "right",
      "interactive": true,
      "label": "76"
    },
    {
      "id": "note-678",
      "midi": 40,
      "start": 241.0,
      "duration": 1.0,
      "end": 242.0,
      "velocity": 80,
      "hand": "left",
      "interactive": false,
      "label": "40"
    },
    {
      "id": "note-679",
      "midi": 60,
      "start": 241.0,
      "duration": 1.0,
      "end": 242.0,
      "velocity": 80,
      "hand": "left",
      "interactive": false,
      "label": "60"
    },
    {
      "id": "note-680",
      "midi": 65,
      "start": 241.0,
      "duration": 1.0,
      "end": 242.0,
      "velocity": 80,
      "hand": "left",
      "interactive": false,
      "label": "65"
    },
    {
      "id": "note-681",
      "midi": 69,
      "start": 241.0,
      "duration": 1.0,
      "end": 242.0,
      "velocity": 80,
      "hand": "left",
      "interactive": false,
      "label": "69"
    },
    {
      "id": "note-682",
      "midi": 76,
      "start": 241.0,
      "duration": 0.472917,
      "end": 241.472917,
      "velocity": 80,
      "hand": "right",
      "interactive": true,
      "label": "76"
    },
    {
      "id": "note-683",
      "midi": 74,
      "start": 241.5,
      "duration": 0.472917,
      "end": 241.972917,
      "velocity": 80,
      "hand": "right",
      "interactive": true,
      "label": "74"
    },
    {
      "id": "note-684",
      "midi": 38,
      "start": 242.0,
      "duration": 4.0,
      "end": 246.0,
      "velocity": 80,
      "hand": "left",
      "interactive": false,
      "label": "38"
    },
    {
      "id": "note-685",
      "midi": 62,
      "start": 242.0,
      "duration": 4.0,
      "end": 246.0,
      "velocity": 80,
      "hand": "left",
      "interactive": false,
      "label": "62"
    },
    {
      "id": "note-686",
      "midi": 65,
      "start": 242.0,
      "duration": 4.0,
      "end": 246.0,
      "velocity": 80,
      "hand": "left",
      "interactive": false,
      "label": "65"
    },
    {
      "id": "note-687",
      "midi": 69,
      "start": 242.0,
      "duration": 4.0,
      "end": 246.0,
      "velocity": 80,
      "hand": "left",
      "interactive": false,
      "label": "69"
    },
    {
      "id": "note-688",
      "midi": 76,
      "start": 242.0,
      "duration": 0.710417,
      "end": 242.710417,
      "velocity": 80,
      "hand": "right",
      "interactive": true,
      "label": "76"
    },
    {
      "id": "note-689",
      "midi": 74,
      "start": 242.75,
      "duration": 0.710417,
      "end": 243.460417,
      "velocity": 80,
      "hand": "right",
      "interactive": true,
      "label": "74"
    },
    {
      "id": "note-690",
      "midi": 72,
      "start": 243.5,
      "duration": 0.472917,
      "end": 243.972917,
      "velocity": 80,
      "hand": "right",
      "interactive": true,
      "label": "72"
    },
    {
      "id": "note-691",
      "midi": 74,
      "start": 244.0,
      "duration": 0.472917,
      "end": 244.472917,
      "velocity": 80,
      "hand": "right",
      "interactive": true,
      "label": "74"
    },
    {
      "id": "note-692",
      "midi": 72,
      "start": 244.5,
      "duration": 0.472917,
      "end": 244.972917,
      "velocity": 80,
      "hand": "right",
      "interactive": true,
      "label": "72"
    },
    {
      "id": "note-693",
      "midi": 69,
      "start": 245.0,
      "duration": 0.472917,
      "end": 245.472917,
      "velocity": 80,
      "hand": "right",
      "interactive": true,
      "label": "69"
    },
    {
      "id": "note-694",
      "midi": 67,
      "start": 245.5,
      "duration": 0.472917,
      "end": 245.972917,
      "velocity": 80,
      "hand": "right",
      "interactive": true,
      "label": "67"
    },
    {
      "id": "note-695",
      "midi": 45,
      "start": 246.0,
      "duration": 4.0,
      "end": 250.0,
      "velocity": 80,
      "hand": "left",
      "interactive": false,
      "label": "45"
    },
    {
      "id": "note-696",
      "midi": 60,
      "start": 246.0,
      "duration": 4.0,
      "end": 250.0,
      "velocity": 80,
      "hand": "left",
      "interactive": false,
      "label": "60"
    },
    {
      "id": "note-697",
      "midi": 64,
      "start": 246.0,
      "duration": 4.0,
      "end": 250.0,
      "velocity": 80,
      "hand": "left",
      "interactive": false,
      "label": "64"
    },
    {
      "id": "note-698",
      "midi": 67,
      "start": 246.0,
      "duration": 4.0,
      "end": 250.0,
      "velocity": 80,
      "hand": "left",
      "interactive": false,
      "label": "67"
    },
    {
      "id": "note-699",
      "midi": 69,
      "start": 246.0,
      "duration": 0.472917,
      "end": 246.472917,
      "velocity": 80,
      "hand": "right",
      "interactive": true,
      "label": "69"
    },
    {
      "id": "note-700",
      "midi": 69,
      "start": 246.0,
      "duration": 4.0,
      "end": 250.0,
      "velocity": 80,
      "hand": "left",
      "interactive": false,
      "label": "69"
    },
    {
      "id": "note-701",
      "midi": 72,
      "start": 246.5,
      "duration": 0.472917,
      "end": 246.972917,
      "velocity": 80,
      "hand": "right",
      "interactive": true,
      "label": "72"
    },
    {
      "id": "note-702",
      "midi": 74,
      "start": 247.0,
      "duration": 0.472917,
      "end": 247.472917,
      "velocity": 80,
      "hand": "right",
      "interactive": true,
      "label": "74"
    },
    {
      "id": "note-703",
      "midi": 72,
      "start": 247.5,
      "duration": 0.947917,
      "end": 248.447917,
      "velocity": 80,
      "hand": "right",
      "interactive": true,
      "label": "72"
    },
    {
      "id": "note-704",
      "midi": 72,
      "start": 248.5,
      "duration": 0.472917,
      "end": 248.972917,
      "velocity": 80,
      "hand": "right",
      "interactive": true,
      "label": "72"
    },
    {
      "id": "note-705",
      "midi": 74,
      "start": 249.0,
      "duration": 0.472917,
      "end": 249.472917,
      "velocity": 80,
      "hand": "right",
      "interactive": true,
      "label": "74"
    },
    {
      "id": "note-706",
      "midi": 72,
      "start": 249.5,
      "duration": 0.472917,
      "end": 249.972917,
      "velocity": 80,
      "hand": "right",
      "interactive": true,
      "label": "72"
    },
    {
      "id": "note-707",
      "midi": 46,
      "start": 250.0,
      "duration": 2.0,
      "end": 252.0,
      "velocity": 80,
      "hand": "left",
      "interactive": false,
      "label": "46"
    },
    {
      "id": "note-708",
      "midi": 62,
      "start": 250.0,
      "duration": 2.0,
      "end": 252.0,
      "velocity": 80,
      "hand": "left",
      "interactive": false,
      "label": "62"
    },
    {
      "id": "note-709",
      "midi": 65,
      "start": 250.0,
      "duration": 2.0,
      "end": 252.0,
      "velocity": 80,
      "hand": "left",
      "interactive": false,
      "label": "65"
    },
    {
      "id": "note-710",
      "midi": 70,
      "start": 250.0,
      "duration": 2.0,
      "end": 252.0,
      "velocity": 80,
      "hand": "left",
      "interactive": false,
      "label": "70"
    },
    {
      "id": "note-711",
      "midi": 74,
      "start": 250.0,
      "duration": 0.710417,
      "end": 250.710417,
      "velocity": 80,
      "hand": "right",
      "interactive": true,
      "label": "74"
    },
    {
      "id": "note-712",
      "midi": 74,
      "start": 250.75,
      "duration": 0.710417,
      "end": 251.460417,
      "velocity": 80,
      "hand": "right",
      "interactive": true,
      "label": "74"
    },
    {
      "id": "note-713",
      "midi": 74,
      "start": 251.5,
      "duration": 0.472917,
      "end": 251.972917,
      "velocity": 80,
      "hand": "right",
      "interactive": true,
      "label": "74"
    },
    {
      "id": "note-714",
      "midi": 36,
      "start": 252.0,
      "duration": 2.0,
      "end": 254.0,
      "velocity": 80,
      "hand": "left",
      "interactive": false,
      "label": "36"
    },
    {
      "id": "note-715",
      "midi": 60,
      "start": 252.0,
      "duration": 2.0,
      "end": 254.0,
      "velocity": 80,
      "hand": "left",
      "interactive": false,
      "label": "60"
    },
    {
      "id": "note-716",
      "midi": 64,
      "start": 252.0,
      "duration": 2.0,
      "end": 254.0,
      "velocity": 80,
      "hand": "left",
      "interactive": false,
      "label": "64"
    },
    {
      "id": "note-717",
      "midi": 67,
      "start": 252.0,
      "duration": 2.0,
      "end": 254.0,
      "velocity": 80,
      "hand": "left",
      "interactive": false,
      "label": "67"
    },
    {
      "id": "note-718",
      "midi": 74,
      "start": 252.0,
      "duration": 0.710417,
      "end": 252.710417,
      "velocity": 80,
      "hand": "right",
      "interactive": true,
      "label": "74"
    },
    {
      "id": "note-719",
      "midi": 72,
      "start": 252.75,
      "duration": 0.710417,
      "end": 253.460417,
      "velocity": 80,
      "hand": "right",
      "interactive": true,
      "label": "72"
    },
    {
      "id": "note-720",
      "midi": 74,
      "start": 253.5,
      "duration": 0.472917,
      "end": 253.972917,
      "velocity": 80,
      "hand": "right",
      "interactive": true,
      "label": "74"
    },
    {
      "id": "note-721",
      "midi": 41,
      "start": 254.0,
      "duration": 3.0,
      "end": 257.0,
      "velocity": 80,
      "hand": "left",
      "interactive": false,
      "label": "41"
    },
    {
      "id": "note-722",
      "midi": 60,
      "start": 254.0,
      "duration": 3.0,
      "end": 257.0,
      "velocity": 80,
      "hand": "left",
      "interactive": false,
      "label": "60"
    },
    {
      "id": "note-723",
      "midi": 65,
      "start": 254.0,
      "duration": 3.0,
      "end": 257.0,
      "velocity": 80,
      "hand": "left",
      "interactive": false,
      "label": "65"
    },
    {
      "id": "note-724",
      "midi": 69,
      "start": 254.0,
      "duration": 3.0,
      "end": 257.0,
      "velocity": 80,
      "hand": "left",
      "interactive": false,
      "label": "69"
    },
    {
      "id": "note-725",
      "midi": 72,
      "start": 254.0,
      "duration": 0.472917,
      "end": 254.472917,
      "velocity": 80,
      "hand": "right",
      "interactive": true,
      "label": "72"
    },
    {
      "id": "note-726",
      "midi": 69,
      "start": 254.5,
      "duration": 1.422917,
      "end": 255.922917,
      "velocity": 80,
      "hand": "right",
      "interactive": true,
      "label": "69"
    },
    {
      "id": "note-727",
      "midi": 65,
      "start": 256.5,
      "duration": 0.472917,
      "end": 256.972917,
      "velocity": 80,
      "hand": "right",
      "interactive": true,
      "label": "65"
    },
    {
      "id": "note-728",
      "midi": 40,
      "start": 257.0,
      "duration": 1.0,
      "end": 258.0,
      "velocity": 80,
      "hand": "left",
      "interactive": false,
      "label": "40"
    },
    {
      "id": "note-729",
      "midi": 60,
      "start": 257.0,
      "duration": 1.0,
      "end": 258.0,
      "velocity": 80,
      "hand": "left",
      "interactive": false,
      "label": "60"
    },
    {
      "id": "note-730",
      "midi": 64,
      "start": 257.0,
      "duration": 1.0,
      "end": 258.0,
      "velocity": 80,
      "hand": "left",
      "interactive": false,
      "label": "64"
    },
    {
      "id": "note-731",
      "midi": 67,
      "start": 257.0,
      "duration": 0.472917,
      "end": 257.472917,
      "velocity": 80,
      "hand": "right",
      "interactive": true,
      "label": "67"
    },
    {
      "id": "note-732",
      "midi": 69,
      "start": 257.0,
      "duration": 1.0,
      "end": 258.0,
      "velocity": 80,
      "hand": "left",
      "interactive": false,
      "label": "69"
    },
    {
      "id": "note-733",
      "midi": 69,
      "start": 257.5,
      "duration": 0.472917,
      "end": 257.972917,
      "velocity": 80,
      "hand": "right",
      "interactive": true,
      "label": "69"
    },
    {
      "id": "note-734",
      "midi": 38,
      "start": 258.0,
      "duration": 4.0,
      "end": 262.0,
      "velocity": 80,
      "hand": "left",
      "interactive": false,
      "label": "38"
    },
    {
      "id": "note-735",
      "midi": 62,
      "start": 258.0,
      "duration": 4.0,
      "end": 262.0,
      "velocity": 80,
      "hand": "left",
      "interactive": false,
      "label": "62"
    },
    {
      "id": "note-736",
      "midi": 65,
      "start": 258.0,
      "duration": 4.0,
      "end": 262.0,
      "velocity": 80,
      "hand": "left",
      "interactive": false,
      "label": "65"
    },
    {
      "id": "note-737",
      "midi": 69,
      "start": 258.0,
      "duration": 4.0,
      "end": 262.0,
      "velocity": 80,
      "hand": "left",
      "interactive": false,
      "label": "69"
    },
    {
      "id": "note-738",
      "midi": 72,
      "start": 258.0,
      "duration": 0.472917,
      "end": 258.472917,
      "velocity": 80,
      "hand": "right",
      "interactive": true,
      "label": "72"
    },
    {
      "id": "note-739",
      "midi": 69,
      "start": 258.5,
      "duration": 0.472917,
      "end": 258.972917,
      "velocity": 80,
      "hand": "right",
      "interactive": true,
      "label": "69"
    },
    {
      "id": "note-740",
      "midi": 67,
      "start": 259.0,
      "duration": 0.472917,
      "end": 259.472917,
      "velocity": 80,
      "hand": "right",
      "interactive": true,
      "label": "67"
    },
    {
      "id": "note-741",
      "midi": 65,
      "start": 259.5,
      "duration": 0.947917,
      "end": 260.447917,
      "velocity": 80,
      "hand": "right",
      "interactive": true,
      "label": "65"
    },
    {
      "id": "note-742",
      "midi": 65,
      "start": 260.5,
      "duration": 0.472917,
      "end": 260.972917,
      "velocity": 80,
      "hand": "right",
      "interactive": true,
      "label": "65"
    },
    {
      "id": "note-743",
      "midi": 67,
      "start": 261.0,
      "duration": 0.472917,
      "end": 261.472917,
      "velocity": 80,
      "hand": "right",
      "interactive": true,
      "label": "67"
    },
    {
      "id": "note-744",
      "midi": 69,
      "start": 261.5,
      "duration": 0.472917,
      "end": 261.972917,
      "velocity": 80,
      "hand": "right",
      "interactive": true,
      "label": "69"
    },
    {
      "id": "note-745",
      "midi": 43,
      "start": 262.0,
      "duration": 4.0,
      "end": 266.0,
      "velocity": 80,
      "hand": "left",
      "interactive": false,
      "label": "43"
    },
    {
      "id": "note-746",
      "midi": 62,
      "start": 262.0,
      "duration": 4.0,
      "end": 266.0,
      "velocity": 80,
      "hand": "left",
      "interactive": false,
      "label": "62"
    },
    {
      "id": "note-747",
      "midi": 65,
      "start": 262.0,
      "duration": 4.0,
      "end": 266.0,
      "velocity": 80,
      "hand": "left",
      "interactive": false,
      "label": "65"
    },
    {
      "id": "note-748",
      "midi": 67,
      "start": 262.0,
      "duration": 4.0,
      "end": 266.0,
      "velocity": 80,
      "hand": "left",
      "interactive": false,
      "label": "67"
    },
    {
      "id": "note-749",
      "midi": 70,
      "start": 262.0,
      "duration": 4.0,
      "end": 266.0,
      "velocity": 80,
      "hand": "left",
      "interactive": false,
      "label": "70"
    },
    {
      "id": "note-750",
      "midi": 74,
      "start": 262.0,
      "duration": 0.472917,
      "end": 262.472917,
      "velocity": 80,
      "hand": "right",
      "interactive": true,
      "label": "74"
    },
    {
      "id": "note-751",
      "midi": 69,
      "start": 262.5,
      "duration": 0.472917,
      "end": 262.972917,
      "velocity": 80,
      "hand": "right",
      "interactive": true,
      "label": "69"
    },
    {
      "id": "note-752",
      "midi": 67,
      "start": 263.0,
      "duration": 0.472917,
      "end": 263.472917,
      "velocity": 80,
      "hand": "right",
      "interactive": true,
      "label": "67"
    },
    {
      "id": "note-753",
      "midi": 65,
      "start": 263.5,
      "duration": 0.947917,
      "end": 264.447917,
      "velocity": 80,
      "hand": "right",
      "interactive": true,
      "label": "65"
    },
    {
      "id": "note-754",
      "midi": 65,
      "start": 264.5,
      "duration": 0.472917,
      "end": 264.972917,
      "velocity": 80,
      "hand": "right",
      "interactive": true,
      "label": "65"
    },
    {
      "id": "note-755",
      "midi": 65,
      "start": 265.0,
      "duration": 0.472917,
      "end": 265.472917,
      "velocity": 80,
      "hand": "right",
      "interactive": true,
      "label": "65"
    },
    {
      "id": "note-756",
      "midi": 65,
      "start": 265.5,
      "duration": 0.472917,
      "end": 265.972917,
      "velocity": 80,
      "hand": "right",
      "interactive": true,
      "label": "65"
    },
    {
      "id": "note-757",
      "midi": 47,
      "start": 266.0,
      "duration": 4.0,
      "end": 270.0,
      "velocity": 80,
      "hand": "left",
      "interactive": false,
      "label": "47"
    },
    {
      "id": "note-758",
      "midi": 62,
      "start": 266.0,
      "duration": 4.0,
      "end": 270.0,
      "velocity": 80,
      "hand": "left",
      "interactive": false,
      "label": "62"
    },
    {
      "id": "note-759",
      "midi": 65,
      "start": 266.0,
      "duration": 4.0,
      "end": 270.0,
      "velocity": 80,
      "hand": "left",
      "interactive": false,
      "label": "65"
    },
    {
      "id": "note-760",
      "midi": 69,
      "start": 266.0,
      "duration": 4.0,
      "end": 270.0,
      "velocity": 80,
      "hand": "left",
      "interactive": false,
      "label": "69"
    },
    {
      "id": "note-761",
      "midi": 71,
      "start": 266.0,
      "duration": 4.0,
      "end": 270.0,
      "velocity": 80,
      "hand": "left",
      "interactive": false,
      "label": "71"
    },
    {
      "id": "note-762",
      "midi": 77,
      "start": 266.0,
      "duration": 0.710417,
      "end": 266.710417,
      "velocity": 80,
      "hand": "right",
      "interactive": true,
      "label": "77"
    },
    {
      "id": "note-763",
      "midi": 77,
      "start": 266.75,
      "duration": 0.710417,
      "end": 267.460417,
      "velocity": 80,
      "hand": "right",
      "interactive": true,
      "label": "77"
    },
    {
      "id": "note-764",
      "midi": 77,
      "start": 267.5,
      "duration": 0.472917,
      "end": 267.972917,
      "velocity": 80,
      "hand": "right",
      "interactive": true,
      "label": "77"
    },
    {
      "id": "note-765",
      "midi": 77,
      "start": 268.0,
      "duration": 0.710417,
      "end": 268.710417,
      "velocity": 80,
      "hand": "right",
      "interactive": true,
      "label": "77"
    },
    {
      "id": "note-766",
      "midi": 74,
      "start": 268.75,
      "duration": 0.710417,
      "end": 269.460417,
      "velocity": 80,
      "hand": "right",
      "interactive": true,
      "label": "74"
    },
    {
      "id": "note-767",
      "midi": 77,
      "start": 269.5,
      "duration": 0.472917,
      "end": 269.972917,
      "velocity": 80,
      "hand": "right",
      "interactive": true,
      "label": "77"
    },
    {
      "id": "note-768",
      "midi": 36,
      "start": 270.0,
      "duration": 4.0,
      "end": 274.0,
      "velocity": 80,
      "hand": "left",
      "interactive": false,
      "label": "36"
    },
    {
      "id": "note-769",
      "midi": 60,
      "start": 270.0,
      "duration": 4.0,
      "end": 274.0,
      "velocity": 80,
      "hand": "left",
      "interactive": false,
      "label": "60"
    },
    {
      "id": "note-770",
      "midi": 64,
      "start": 270.0,
      "duration": 4.0,
      "end": 274.0,
      "velocity": 80,
      "hand": "left",
      "interactive": false,
      "label": "64"
    },
    {
      "id": "note-771",
      "midi": 67,
      "start": 270.0,
      "duration": 4.0,
      "end": 274.0,
      "velocity": 80,
      "hand": "left",
      "interactive": false,
      "label": "67"
    },
    {
      "id": "note-772",
      "midi": 74,
      "start": 270.0,
      "duration": 1.422917,
      "end": 271.422917,
      "velocity": 80,
      "hand": "right",
      "interactive": true,
      "label": "74"
    },
    {
      "id": "note-773",
      "midi": 72,
      "start": 271.5,
      "duration": 0.947917,
      "end": 272.447917,
      "velocity": 80,
      "hand": "right",
      "interactive": true,
      "label": "72"
    },
    {
      "id": "note-774",
      "midi": 65,
      "start": 272.5,
      "duration": 0.472917,
      "end": 272.972917,
      "velocity": 80,
      "hand": "right",
      "interactive": true,
      "label": "65"
    },
    {
      "id": "note-775",
      "midi": 77,
      "start": 273.0,
      "duration": 0.472917,
      "end": 273.472917,
      "velocity": 80,
      "hand": "right",
      "interactive": true,
      "label": "77"
    },
    {
      "id": "note-776",
      "midi": 76,
      "start": 273.5,
      "duration": 0.472917,
      "end": 273.972917,
      "velocity": 80,
      "hand": "right",
      "interactive": true,
      "label": "76"
    },
    {
      "id": "note-777",
      "midi": 38,
      "start": 274.0,
      "duration": 4.0,
      "end": 278.0,
      "velocity": 80,
      "hand": "left",
      "interactive": false,
      "label": "38"
    },
    {
      "id": "note-778",
      "midi": 62,
      "start": 274.0,
      "duration": 4.0,
      "end": 278.0,
      "velocity": 80,
      "hand": "left",
      "interactive": false,
      "label": "62"
    },
    {
      "id": "note-779",
      "midi": 65,
      "start": 274.0,
      "duration": 4.0,
      "end": 278.0,
      "velocity": 80,
      "hand": "left",
      "interactive": false,
      "label": "65"
    },
    {
      "id": "note-780",
      "midi": 69,
      "start": 274.0,
      "duration": 4.0,
      "end": 278.0,
      "velocity": 80,
      "hand": "left",
      "interactive": false,
      "label": "69"
    },
    {
      "id": "note-781",
      "midi": 77,
      "start": 274.0,
      "duration": 0.472917,
      "end": 274.472917,
      "velocity": 80,
      "hand": "right",
      "interactive": true,
      "label": "77"
    },
    {
      "id": "note-782",
      "midi": 76,
      "start": 274.5,
      "duration": 0.472917,
      "end": 274.972917,
      "velocity": 80,
      "hand": "right",
      "interactive": true,
      "label": "76"
    },
    {
      "id": "note-783",
      "midi": 74,
      "start": 275.0,
      "duration": 0.472917,
      "end": 275.472917,
      "velocity": 80,
      "hand": "right",
      "interactive": true,
      "label": "74"
    },
    {
      "id": "note-784",
      "midi": 72,
      "start": 275.5,
      "duration": 0.472917,
      "end": 275.972917,
      "velocity": 80,
      "hand": "right",
      "interactive": true,
      "label": "72"
    },
    {
      "id": "note-785",
      "midi": 74,
      "start": 276.0,
      "duration": 0.472917,
      "end": 276.472917,
      "velocity": 80,
      "hand": "right",
      "interactive": true,
      "label": "74"
    },
    {
      "id": "note-786",
      "midi": 72,
      "start": 276.5,
      "duration": 0.472917,
      "end": 276.972917,
      "velocity": 80,
      "hand": "right",
      "interactive": true,
      "label": "72"
    },
    {
      "id": "note-787",
      "midi": 69,
      "start": 277.0,
      "duration": 0.472917,
      "end": 277.472917,
      "velocity": 80,
      "hand": "right",
      "interactive": true,
      "label": "69"
    },
    {
      "id": "note-788",
      "midi": 67,
      "start": 277.5,
      "duration": 0.472917,
      "end": 277.972917,
      "velocity": 80,
      "hand": "right",
      "interactive": true,
      "label": "67"
    },
    {
      "id": "note-789",
      "midi": 45,
      "start": 278.0,
      "duration": 4.0,
      "end": 282.0,
      "velocity": 80,
      "hand": "left",
      "interactive": false,
      "label": "45"
    },
    {
      "id": "note-790",
      "midi": 60,
      "start": 278.0,
      "duration": 4.0,
      "end": 282.0,
      "velocity": 80,
      "hand": "left",
      "interactive": false,
      "label": "60"
    },
    {
      "id": "note-791",
      "midi": 64,
      "start": 278.0,
      "duration": 4.0,
      "end": 282.0,
      "velocity": 80,
      "hand": "left",
      "interactive": false,
      "label": "64"
    },
    {
      "id": "note-792",
      "midi": 67,
      "start": 278.0,
      "duration": 4.0,
      "end": 282.0,
      "velocity": 80,
      "hand": "left",
      "interactive": false,
      "label": "67"
    },
    {
      "id": "note-793",
      "midi": 69,
      "start": 278.0,
      "duration": 0.472917,
      "end": 278.472917,
      "velocity": 80,
      "hand": "right",
      "interactive": true,
      "label": "69"
    },
    {
      "id": "note-794",
      "midi": 69,
      "start": 278.0,
      "duration": 4.0,
      "end": 282.0,
      "velocity": 80,
      "hand": "left",
      "interactive": false,
      "label": "69"
    },
    {
      "id": "note-795",
      "midi": 72,
      "start": 278.5,
      "duration": 0.472917,
      "end": 278.972917,
      "velocity": 80,
      "hand": "right",
      "interactive": true,
      "label": "72"
    },
    {
      "id": "note-796",
      "midi": 74,
      "start": 279.0,
      "duration": 0.472917,
      "end": 279.472917,
      "velocity": 80,
      "hand": "right",
      "interactive": true,
      "label": "74"
    },
    {
      "id": "note-797",
      "midi": 72,
      "start": 279.5,
      "duration": 0.947917,
      "end": 280.447917,
      "velocity": 80,
      "hand": "right",
      "interactive": true,
      "label": "72"
    },
    {
      "id": "note-798",
      "midi": 72,
      "start": 280.5,
      "duration": 0.472917,
      "end": 280.972917,
      "velocity": 80,
      "hand": "right",
      "interactive": true,
      "label": "72"
    },
    {
      "id": "note-799",
      "midi": 74,
      "start": 281.0,
      "duration": 0.472917,
      "end": 281.472917,
      "velocity": 80,
      "hand": "right",
      "interactive": true,
      "label": "74"
    },
    {
      "id": "note-800",
      "midi": 72,
      "start": 281.5,
      "duration": 0.472917,
      "end": 281.972917,
      "velocity": 80,
      "hand": "right",
      "interactive": true,
      "label": "72"
    },
    {
      "id": "note-801",
      "midi": 46,
      "start": 282.0,
      "duration": 2.0,
      "end": 284.0,
      "velocity": 80,
      "hand": "left",
      "interactive": false,
      "label": "46"
    },
    {
      "id": "note-802",
      "midi": 62,
      "start": 282.0,
      "duration": 2.0,
      "end": 284.0,
      "velocity": 80,
      "hand": "left",
      "interactive": false,
      "label": "62"
    },
    {
      "id": "note-803",
      "midi": 65,
      "start": 282.0,
      "duration": 2.0,
      "end": 284.0,
      "velocity": 80,
      "hand": "left",
      "interactive": false,
      "label": "65"
    },
    {
      "id": "note-804",
      "midi": 70,
      "start": 282.0,
      "duration": 2.0,
      "end": 284.0,
      "velocity": 80,
      "hand": "left",
      "interactive": false,
      "label": "70"
    },
    {
      "id": "note-805",
      "midi": 74,
      "start": 282.0,
      "duration": 0.710417,
      "end": 282.710417,
      "velocity": 80,
      "hand": "right",
      "interactive": true,
      "label": "74"
    },
    {
      "id": "note-806",
      "midi": 74,
      "start": 282.75,
      "duration": 0.710417,
      "end": 283.460417,
      "velocity": 80,
      "hand": "right",
      "interactive": true,
      "label": "74"
    },
    {
      "id": "note-807",
      "midi": 74,
      "start": 283.5,
      "duration": 0.472917,
      "end": 283.972917,
      "velocity": 80,
      "hand": "right",
      "interactive": true,
      "label": "74"
    },
    {
      "id": "note-808",
      "midi": 36,
      "start": 284.0,
      "duration": 2.0,
      "end": 286.0,
      "velocity": 80,
      "hand": "left",
      "interactive": false,
      "label": "36"
    },
    {
      "id": "note-809",
      "midi": 60,
      "start": 284.0,
      "duration": 2.0,
      "end": 286.0,
      "velocity": 80,
      "hand": "left",
      "interactive": false,
      "label": "60"
    },
    {
      "id": "note-810",
      "midi": 64,
      "start": 284.0,
      "duration": 2.0,
      "end": 286.0,
      "velocity": 80,
      "hand": "left",
      "interactive": false,
      "label": "64"
    },
    {
      "id": "note-811",
      "midi": 67,
      "start": 284.0,
      "duration": 2.0,
      "end": 286.0,
      "velocity": 80,
      "hand": "left",
      "interactive": false,
      "label": "67"
    },
    {
      "id": "note-812",
      "midi": 74,
      "start": 284.0,
      "duration": 0.710417,
      "end": 284.710417,
      "velocity": 80,
      "hand": "right",
      "interactive": true,
      "label": "74"
    },
    {
      "id": "note-813",
      "midi": 72,
      "start": 284.75,
      "duration": 0.710417,
      "end": 285.460417,
      "velocity": 80,
      "hand": "right",
      "interactive": true,
      "label": "72"
    },
    {
      "id": "note-814",
      "midi": 74,
      "start": 285.5,
      "duration": 0.472917,
      "end": 285.972917,
      "velocity": 80,
      "hand": "right",
      "interactive": true,
      "label": "74"
    },
    {
      "id": "note-815",
      "midi": 41,
      "start": 286.0,
      "duration": 3.0,
      "end": 289.0,
      "velocity": 80,
      "hand": "left",
      "interactive": false,
      "label": "41"
    },
    {
      "id": "note-816",
      "midi": 60,
      "start": 286.0,
      "duration": 3.0,
      "end": 289.0,
      "velocity": 80,
      "hand": "left",
      "interactive": false,
      "label": "60"
    },
    {
      "id": "note-817",
      "midi": 65,
      "start": 286.0,
      "duration": 3.0,
      "end": 289.0,
      "velocity": 80,
      "hand": "left",
      "interactive": false,
      "label": "65"
    },
    {
      "id": "note-818",
      "midi": 69,
      "start": 286.0,
      "duration": 3.0,
      "end": 289.0,
      "velocity": 80,
      "hand": "left",
      "interactive": false,
      "label": "69"
    },
    {
      "id": "note-819",
      "midi": 72,
      "start": 286.0,
      "duration": 0.472917,
      "end": 286.472917,
      "velocity": 80,
      "hand": "right",
      "interactive": true,
      "label": "72"
    },
    {
      "id": "note-820",
      "midi": 69,
      "start": 286.5,
      "duration": 1.422917,
      "end": 287.922917,
      "velocity": 80,
      "hand": "right",
      "interactive": true,
      "label": "69"
    },
    {
      "id": "note-821",
      "midi": 65,
      "start": 288.5,
      "duration": 0.472917,
      "end": 288.972917,
      "velocity": 80,
      "hand": "right",
      "interactive": true,
      "label": "65"
    },
    {
      "id": "note-822",
      "midi": 40,
      "start": 289.0,
      "duration": 1.0,
      "end": 290.0,
      "velocity": 80,
      "hand": "left",
      "interactive": false,
      "label": "40"
    },
    {
      "id": "note-823",
      "midi": 60,
      "start": 289.0,
      "duration": 1.0,
      "end": 290.0,
      "velocity": 80,
      "hand": "left",
      "interactive": false,
      "label": "60"
    },
    {
      "id": "note-824",
      "midi": 64,
      "start": 289.0,
      "duration": 1.0,
      "end": 290.0,
      "velocity": 80,
      "hand": "left",
      "interactive": false,
      "label": "64"
    },
    {
      "id": "note-825",
      "midi": 67,
      "start": 289.0,
      "duration": 0.472917,
      "end": 289.472917,
      "velocity": 80,
      "hand": "right",
      "interactive": true,
      "label": "67"
    },
    {
      "id": "note-826",
      "midi": 69,
      "start": 289.0,
      "duration": 1.0,
      "end": 290.0,
      "velocity": 80,
      "hand": "left",
      "interactive": false,
      "label": "69"
    },
    {
      "id": "note-827",
      "midi": 69,
      "start": 289.5,
      "duration": 0.472917,
      "end": 289.972917,
      "velocity": 80,
      "hand": "right",
      "interactive": true,
      "label": "69"
    },
    {
      "id": "note-828",
      "midi": 38,
      "start": 290.0,
      "duration": 4.0,
      "end": 294.0,
      "velocity": 80,
      "hand": "left",
      "interactive": false,
      "label": "38"
    },
    {
      "id": "note-829",
      "midi": 62,
      "start": 290.0,
      "duration": 4.0,
      "end": 294.0,
      "velocity": 80,
      "hand": "left",
      "interactive": false,
      "label": "62"
    },
    {
      "id": "note-830",
      "midi": 65,
      "start": 290.0,
      "duration": 4.0,
      "end": 294.0,
      "velocity": 80,
      "hand": "left",
      "interactive": false,
      "label": "65"
    },
    {
      "id": "note-831",
      "midi": 69,
      "start": 290.0,
      "duration": 4.0,
      "end": 294.0,
      "velocity": 80,
      "hand": "left",
      "interactive": false,
      "label": "69"
    },
    {
      "id": "note-832",
      "midi": 72,
      "start": 290.0,
      "duration": 0.472917,
      "end": 290.472917,
      "velocity": 80,
      "hand": "right",
      "interactive": true,
      "label": "72"
    },
    {
      "id": "note-833",
      "midi": 69,
      "start": 290.5,
      "duration": 0.472917,
      "end": 290.972917,
      "velocity": 80,
      "hand": "right",
      "interactive": true,
      "label": "69"
    },
    {
      "id": "note-834",
      "midi": 67,
      "start": 291.0,
      "duration": 0.472917,
      "end": 291.472917,
      "velocity": 80,
      "hand": "right",
      "interactive": true,
      "label": "67"
    },
    {
      "id": "note-835",
      "midi": 65,
      "start": 291.5,
      "duration": 0.947917,
      "end": 292.447917,
      "velocity": 80,
      "hand": "right",
      "interactive": true,
      "label": "65"
    },
    {
      "id": "note-836",
      "midi": 65,
      "start": 292.5,
      "duration": 0.472917,
      "end": 292.972917,
      "velocity": 80,
      "hand": "right",
      "interactive": true,
      "label": "65"
    },
    {
      "id": "note-837",
      "midi": 67,
      "start": 293.0,
      "duration": 0.472917,
      "end": 293.472917,
      "velocity": 80,
      "hand": "right",
      "interactive": true,
      "label": "67"
    },
    {
      "id": "note-838",
      "midi": 69,
      "start": 293.5,
      "duration": 0.472917,
      "end": 293.972917,
      "velocity": 80,
      "hand": "right",
      "interactive": true,
      "label": "69"
    },
    {
      "id": "note-839",
      "midi": 43,
      "start": 294.0,
      "duration": 2.0,
      "end": 296.0,
      "velocity": 80,
      "hand": "left",
      "interactive": false,
      "label": "43"
    },
    {
      "id": "note-840",
      "midi": 62,
      "start": 294.0,
      "duration": 2.0,
      "end": 296.0,
      "velocity": 80,
      "hand": "left",
      "interactive": false,
      "label": "62"
    },
    {
      "id": "note-841",
      "midi": 65,
      "start": 294.0,
      "duration": 2.0,
      "end": 296.0,
      "velocity": 80,
      "hand": "left",
      "interactive": false,
      "label": "65"
    },
    {
      "id": "note-842",
      "midi": 67,
      "start": 294.0,
      "duration": 2.0,
      "end": 296.0,
      "velocity": 80,
      "hand": "left",
      "interactive": false,
      "label": "67"
    },
    {
      "id": "note-843",
      "midi": 71,
      "start": 294.0,
      "duration": 2.0,
      "end": 296.0,
      "velocity": 80,
      "hand": "left",
      "interactive": false,
      "label": "71"
    },
    {
      "id": "note-844",
      "midi": 74,
      "start": 294.0,
      "duration": 0.472917,
      "end": 294.472917,
      "velocity": 80,
      "hand": "right",
      "interactive": true,
      "label": "74"
    },
    {
      "id": "note-845",
      "midi": 69,
      "start": 294.5,
      "duration": 0.472917,
      "end": 294.972917,
      "velocity": 80,
      "hand": "right",
      "interactive": true,
      "label": "69"
    },
    {
      "id": "note-846",
      "midi": 67,
      "start": 295.0,
      "duration": 0.472917,
      "end": 295.472917,
      "velocity": 80,
      "hand": "right",
      "interactive": true,
      "label": "67"
    },
    {
      "id": "note-847",
      "midi": 65,
      "start": 295.5,
      "duration": 0.472917,
      "end": 295.972917,
      "velocity": 80,
      "hand": "right",
      "interactive": true,
      "label": "65"
    },
    {
      "id": "note-848",
      "midi": 47,
      "start": 296.0,
      "duration": 4.0,
      "end": 300.0,
      "velocity": 80,
      "hand": "left",
      "interactive": false,
      "label": "47"
    },
    {
      "id": "note-849",
      "midi": 62,
      "start": 296.0,
      "duration": 4.0,
      "end": 300.0,
      "velocity": 80,
      "hand": "left",
      "interactive": false,
      "label": "62"
    },
    {
      "id": "note-850",
      "midi": 65,
      "start": 296.0,
      "duration": 4.0,
      "end": 300.0,
      "velocity": 80,
      "hand": "left",
      "interactive": false,
      "label": "65"
    },
    {
      "id": "note-851",
      "midi": 69,
      "start": 296.0,
      "duration": 4.0,
      "end": 300.0,
      "velocity": 80,
      "hand": "left",
      "interactive": false,
      "label": "69"
    },
    {
      "id": "note-852",
      "midi": 71,
      "start": 296.0,
      "duration": 4.0,
      "end": 300.0,
      "velocity": 80,
      "hand": "left",
      "interactive": false,
      "label": "71"
    },
    {
      "id": "note-853",
      "midi": 77,
      "start": 296.0,
      "duration": 1.897917,
      "end": 297.897917,
      "velocity": 80,
      "hand": "right",
      "interactive": true,
      "label": "77"
    },
    {
      "id": "note-854",
      "midi": 77,
      "start": 298.5,
      "duration": 0.472917,
      "end": 298.972917,
      "velocity": 80,
      "hand": "right",
      "interactive": true,
      "label": "77"
    },
    {
      "id": "note-855",
      "midi": 74,
      "start": 299.0,
      "duration": 0.472917,
      "end": 299.472917,
      "velocity": 80,
      "hand": "right",
      "interactive": true,
      "label": "74"
    },
    {
      "id": "note-856",
      "midi": 77,
      "start": 299.5,
      "duration": 0.472917,
      "end": 299.972917,
      "velocity": 80,
      "hand": "right",
      "interactive": true,
      "label": "77"
    },
    {
      "id": "note-857",
      "midi": 46,
      "start": 300.0,
      "duration": 4.0,
      "end": 304.0,
      "velocity": 80,
      "hand": "left",
      "interactive": false,
      "label": "46"
    },
    {
      "id": "note-858",
      "midi": 62,
      "start": 300.0,
      "duration": 4.0,
      "end": 304.0,
      "velocity": 80,
      "hand": "left",
      "interactive": false,
      "label": "62"
    },
    {
      "id": "note-859",
      "midi": 65,
      "start": 300.0,
      "duration": 4.0,
      "end": 304.0,
      "velocity": 80,
      "hand": "left",
      "interactive": false,
      "label": "65"
    },
    {
      "id": "note-860",
      "midi": 69,
      "start": 300.0,
      "duration": 4.0,
      "end": 304.0,
      "velocity": 80,
      "hand": "left",
      "interactive": false,
      "label": "69"
    },
    {
      "id": "note-861",
      "midi": 70,
      "start": 300.0,
      "duration": 4.0,
      "end": 304.0,
      "velocity": 80,
      "hand": "left",
      "interactive": false,
      "label": "70"
    },
    {
      "id": "note-862",
      "midi": 74,
      "start": 300.0,
      "duration": 0.472917,
      "end": 300.472917,
      "velocity": 80,
      "hand": "right",
      "interactive": true,
      "label": "74"
    },
    {
      "id": "note-863",
      "midi": 72,
      "start": 300.5,
      "duration": 0.947917,
      "end": 301.447917,
      "velocity": 80,
      "hand": "right",
      "interactive": true,
      "label": "72"
    },
    {
      "id": "note-864",
      "midi": 72,
      "start": 301.5,
      "duration": 0.472917,
      "end": 301.972917,
      "velocity": 80,
      "hand": "right",
      "interactive": true,
      "label": "72"
    },
    {
      "id": "note-865",
      "midi": 74,
      "start": 302.0,
      "duration": 0.472917,
      "end": 302.472917,
      "velocity": 80,
      "hand": "right",
      "interactive": true,
      "label": "74"
    },
    {
      "id": "note-866",
      "midi": 72,
      "start": 302.5,
      "duration": 0.472917,
      "end": 302.972917,
      "velocity": 80,
      "hand": "right",
      "interactive": true,
      "label": "72"
    },
    {
      "id": "note-867",
      "midi": 69,
      "start": 303.0,
      "duration": 0.472917,
      "end": 303.472917,
      "velocity": 80,
      "hand": "right",
      "interactive": true,
      "label": "69"
    },
    {
      "id": "note-868",
      "midi": 67,
      "start": 303.5,
      "duration": 0.472917,
      "end": 303.972917,
      "velocity": 80,
      "hand": "right",
      "interactive": true,
      "label": "67"
    },
    {
      "id": "note-869",
      "midi": 36,
      "start": 304.0,
      "duration": 4.0,
      "end": 308.0,
      "velocity": 80,
      "hand": "left",
      "interactive": false,
      "label": "36"
    },
    {
      "id": "note-870",
      "midi": 62,
      "start": 304.0,
      "duration": 4.0,
      "end": 308.0,
      "velocity": 80,
      "hand": "left",
      "interactive": false,
      "label": "62"
    },
    {
      "id": "note-871",
      "midi": 65,
      "start": 304.0,
      "duration": 4.0,
      "end": 308.0,
      "velocity": 80,
      "hand": "left",
      "interactive": false,
      "label": "65"
    },
    {
      "id": "note-872",
      "midi": 69,
      "start": 304.0,
      "duration": 0.472917,
      "end": 304.472917,
      "velocity": 80,
      "hand": "right",
      "interactive": true,
      "label": "69"
    },
    {
      "id": "note-873",
      "midi": 70,
      "start": 304.0,
      "duration": 4.0,
      "end": 308.0,
      "velocity": 80,
      "hand": "left",
      "interactive": false,
      "label": "70"
    },
    {
      "id": "note-874",
      "midi": 67,
      "start": 304.5,
      "duration": 0.947917,
      "end": 305.447917,
      "velocity": 80,
      "hand": "right",
      "interactive": true,
      "label": "67"
    },
    {
      "id": "note-875",
      "midi": 65,
      "start": 305.5,
      "duration": 0.472917,
      "end": 305.972917,
      "velocity": 80,
      "hand": "right",
      "interactive": true,
      "label": "65"
    },
    {
      "id": "note-876",
      "midi": 62,
      "start": 306.0,
      "duration": 0.472917,
      "end": 306.472917,
      "velocity": 80,
      "hand": "right",
      "interactive": true,
      "label": "62"
    },
    {
      "id": "note-877",
      "midi": 65,
      "start": 306.5,
      "duration": 0.947917,
      "end": 307.447917,
      "velocity": 80,
      "hand": "right",
      "interactive": true,
      "label": "65"
    },
    {
      "id": "note-878",
      "midi": 67,
      "start": 307.5,
      "duration": 0.472917,
      "end": 307.972917,
      "velocity": 80,
      "hand": "right",
      "interactive": true,
      "label": "67"
    },
    {
      "id": "note-879",
      "midi": 41,
      "start": 308.0,
      "duration": 4.0,
      "end": 312.0,
      "velocity": 80,
      "hand": "left",
      "interactive": false,
      "label": "41"
    },
    {
      "id": "note-880",
      "midi": 60,
      "start": 308.0,
      "duration": 4.0,
      "end": 312.0,
      "velocity": 80,
      "hand": "left",
      "interactive": false,
      "label": "60"
    },
    {
      "id": "note-881",
      "midi": 65,
      "start": 308.0,
      "duration": 3.797917,
      "end": 311.797917,
      "velocity": 80,
      "hand": "right",
      "interactive": true,
      "label": "65"
    },
    {
      "id": "note-882",
      "midi": 65,
      "start": 308.0,
      "duration": 4.0,
      "end": 312.0,
      "velocity": 80,
      "hand": "left",
      "interactive": false,
      "label": "65"
    },
    {
      "id": "note-883",
      "midi": 69,
      "start": 308.0,
      "duration": 4.0,
      "end": 312.0,
      "velocity": 80,
      "hand": "left",
      "interactive": false,
      "label": "69"
    },
    {
      "id": "note-884",
      "midi": 41,
      "start": 312.0,
      "duration": 3.0,
      "end": 315.0,
      "velocity": 80,
      "hand": "left",
      "interactive": false,
      "label": "41"
    },
    {
      "id": "note-885",
      "midi": 60,
      "start": 312.0,
      "duration": 3.0,
      "end": 315.0,
      "velocity": 80,
      "hand": "left",
      "interactive": false,
      "label": "60"
    },
    {
      "id": "note-886",
      "midi": 65,
      "start": 312.0,
      "duration": 3.0,
      "end": 315.0,
      "velocity": 80,
      "hand": "left",
      "interactive": false,
      "label": "65"
    },
    {
      "id": "note-887",
      "midi": 69,
      "start": 312.0,
      "duration": 3.0,
      "end": 315.0,
      "velocity": 80,
      "hand": "left",
      "interactive": false,
      "label": "69"
    },
    {
      "id": "note-888",
      "midi": 65,
      "start": 313.5,
      "duration": 0.472917,
      "end": 313.972917,
      "velocity": 80,
      "hand": "right",
      "interactive": true,
      "label": "65"
    },
    {
      "id": "note-889",
      "midi": 77,
      "start": 314.0,
      "duration": 0.472917,
      "end": 314.472917,
      "velocity": 80,
      "hand": "right",
      "interactive": true,
      "label": "77"
    },
    {
      "id": "note-890",
      "midi": 76,
      "start": 314.5,
      "duration": 0.472917,
      "end": 314.972917,
      "velocity": 80,
      "hand": "right",
      "interactive": true,
      "label": "76"
    },
    {
      "id": "note-891",
      "midi": 40,
      "start": 315.0,
      "duration": 1.0,
      "end": 316.0,
      "velocity": 80,
      "hand": "left",
      "interactive": false,
      "label": "40"
    },
    {
      "id": "note-892",
      "midi": 60,
      "start": 315.0,
      "duration": 1.0,
      "end": 316.0,
      "velocity": 80,
      "hand": "left",
      "interactive": false,
      "label": "60"
    },
    {
      "id": "note-893",
      "midi": 65,
      "start": 315.0,
      "duration": 1.0,
      "end": 316.0,
      "velocity": 80,
      "hand": "left",
      "interactive": false,
      "label": "65"
    },
    {
      "id": "note-894",
      "midi": 69,
      "start": 315.0,
      "duration": 1.0,
      "end": 316.0,
      "velocity": 80,
      "hand": "left",
      "interactive": false,
      "label": "69"
    },
    {
      "id": "note-895",
      "midi": 76,
      "start": 315.0,
      "duration": 0.472917,
      "end": 315.472917,
      "velocity": 80,
      "hand": "right",
      "interactive": true,
      "label": "76"
    },
    {
      "id": "note-896",
      "midi": 74,
      "start": 315.5,
      "duration": 0.472917,
      "end": 315.972917,
      "velocity": 80,
      "hand": "right",
      "interactive": true,
      "label": "74"
    },
    {
      "id": "note-897",
      "midi": 38,
      "start": 316.0,
      "duration": 4.0,
      "end": 320.0,
      "velocity": 80,
      "hand": "left",
      "interactive": false,
      "label": "38"
    },
    {
      "id": "note-898",
      "midi": 62,
      "start": 316.0,
      "duration": 4.0,
      "end": 320.0,
      "velocity": 80,
      "hand": "left",
      "interactive": false,
      "label": "62"
    },
    {
      "id": "note-899",
      "midi": 65,
      "start": 316.0,
      "duration": 4.0,
      "end": 320.0,
      "velocity": 80,
      "hand": "left",
      "interactive": false,
      "label": "65"
    },
    {
      "id": "note-900",
      "midi": 69,
      "start": 316.0,
      "duration": 4.0,
      "end": 320.0,
      "velocity": 80,
      "hand": "left",
      "interactive": false,
      "label": "69"
    },
    {
      "id": "note-901",
      "midi": 76,
      "start": 316.0,
      "duration": 0.710417,
      "end": 316.710417,
      "velocity": 80,
      "hand": "right",
      "interactive": true,
      "label": "76"
    },
    {
      "id": "note-902",
      "midi": 74,
      "start": 316.75,
      "duration": 0.710417,
      "end": 317.460417,
      "velocity": 80,
      "hand": "right",
      "interactive": true,
      "label": "74"
    },
    {
      "id": "note-903",
      "midi": 72,
      "start": 317.5,
      "duration": 0.472917,
      "end": 317.972917,
      "velocity": 80,
      "hand": "right",
      "interactive": true,
      "label": "72"
    },
    {
      "id": "note-904",
      "midi": 74,
      "start": 318.0,
      "duration": 0.472917,
      "end": 318.472917,
      "velocity": 80,
      "hand": "right",
      "interactive": true,
      "label": "74"
    },
    {
      "id": "note-905",
      "midi": 72,
      "start": 318.5,
      "duration": 0.472917,
      "end": 318.972917,
      "velocity": 80,
      "hand": "right",
      "interactive": true,
      "label": "72"
    },
    {
      "id": "note-906",
      "midi": 69,
      "start": 319.0,
      "duration": 0.472917,
      "end": 319.472917,
      "velocity": 80,
      "hand": "right",
      "interactive": true,
      "label": "69"
    },
    {
      "id": "note-907",
      "midi": 67,
      "start": 319.5,
      "duration": 0.472917,
      "end": 319.972917,
      "velocity": 80,
      "hand": "right",
      "interactive": true,
      "label": "67"
    },
    {
      "id": "note-908",
      "midi": 45,
      "start": 320.0,
      "duration": 4.0,
      "end": 324.0,
      "velocity": 80,
      "hand": "left",
      "interactive": false,
      "label": "45"
    },
    {
      "id": "note-909",
      "midi": 60,
      "start": 320.0,
      "duration": 4.0,
      "end": 324.0,
      "velocity": 80,
      "hand": "left",
      "interactive": false,
      "label": "60"
    },
    {
      "id": "note-910",
      "midi": 64,
      "start": 320.0,
      "duration": 4.0,
      "end": 324.0,
      "velocity": 80,
      "hand": "left",
      "interactive": false,
      "label": "64"
    },
    {
      "id": "note-911",
      "midi": 67,
      "start": 320.0,
      "duration": 4.0,
      "end": 324.0,
      "velocity": 80,
      "hand": "left",
      "interactive": false,
      "label": "67"
    },
    {
      "id": "note-912",
      "midi": 69,
      "start": 320.0,
      "duration": 0.472917,
      "end": 320.472917,
      "velocity": 80,
      "hand": "right",
      "interactive": true,
      "label": "69"
    },
    {
      "id": "note-913",
      "midi": 69,
      "start": 320.0,
      "duration": 4.0,
      "end": 324.0,
      "velocity": 80,
      "hand": "left",
      "interactive": false,
      "label": "69"
    },
    {
      "id": "note-914",
      "midi": 72,
      "start": 320.5,
      "duration": 0.472917,
      "end": 320.972917,
      "velocity": 80,
      "hand": "right",
      "interactive": true,
      "label": "72"
    },
    {
      "id": "note-915",
      "midi": 74,
      "start": 321.0,
      "duration": 0.472917,
      "end": 321.472917,
      "velocity": 80,
      "hand": "right",
      "interactive": true,
      "label": "74"
    },
    {
      "id": "note-916",
      "midi": 72,
      "start": 321.5,
      "duration": 0.947917,
      "end": 322.447917,
      "velocity": 80,
      "hand": "right",
      "interactive": true,
      "label": "72"
    },
    {
      "id": "note-917",
      "midi": 72,
      "start": 322.5,
      "duration": 0.472917,
      "end": 322.972917,
      "velocity": 80,
      "hand": "right",
      "interactive": true,
      "label": "72"
    },
    {
      "id": "note-918",
      "midi": 74,
      "start": 323.0,
      "duration": 0.472917,
      "end": 323.472917,
      "velocity": 80,
      "hand": "right",
      "interactive": true,
      "label": "74"
    },
    {
      "id": "note-919",
      "midi": 72,
      "start": 323.5,
      "duration": 0.472917,
      "end": 323.972917,
      "velocity": 80,
      "hand": "right",
      "interactive": true,
      "label": "72"
    },
    {
      "id": "note-920",
      "midi": 46,
      "start": 324.0,
      "duration": 2.0,
      "end": 326.0,
      "velocity": 80,
      "hand": "left",
      "interactive": false,
      "label": "46"
    },
    {
      "id": "note-921",
      "midi": 62,
      "start": 324.0,
      "duration": 2.0,
      "end": 326.0,
      "velocity": 80,
      "hand": "left",
      "interactive": false,
      "label": "62"
    },
    {
      "id": "note-922",
      "midi": 65,
      "start": 324.0,
      "duration": 2.0,
      "end": 326.0,
      "velocity": 80,
      "hand": "left",
      "interactive": false,
      "label": "65"
    },
    {
      "id": "note-923",
      "midi": 70,
      "start": 324.0,
      "duration": 2.0,
      "end": 326.0,
      "velocity": 80,
      "hand": "left",
      "interactive": false,
      "label": "70"
    },
    {
      "id": "note-924",
      "midi": 74,
      "start": 324.0,
      "duration": 0.710417,
      "end": 324.710417,
      "velocity": 80,
      "hand": "right",
      "interactive": true,
      "label": "74"
    },
    {
      "id": "note-925",
      "midi": 74,
      "start": 324.75,
      "duration": 0.710417,
      "end": 325.460417,
      "velocity": 80,
      "hand": "right",
      "interactive": true,
      "label": "74"
    },
    {
      "id": "note-926",
      "midi": 74,
      "start": 325.5,
      "duration": 0.472917,
      "end": 325.972917,
      "velocity": 80,
      "hand": "right",
      "interactive": true,
      "label": "74"
    },
    {
      "id": "note-927",
      "midi": 36,
      "start": 326.0,
      "duration": 2.0,
      "end": 328.0,
      "velocity": 80,
      "hand": "left",
      "interactive": false,
      "label": "36"
    },
    {
      "id": "note-928",
      "midi": 60,
      "start": 326.0,
      "duration": 2.0,
      "end": 328.0,
      "velocity": 80,
      "hand": "left",
      "interactive": false,
      "label": "60"
    },
    {
      "id": "note-929",
      "midi": 64,
      "start": 326.0,
      "duration": 2.0,
      "end": 328.0,
      "velocity": 80,
      "hand": "left",
      "interactive": false,
      "label": "64"
    },
    {
      "id": "note-930",
      "midi": 67,
      "start": 326.0,
      "duration": 2.0,
      "end": 328.0,
      "velocity": 80,
      "hand": "left",
      "interactive": false,
      "label": "67"
    },
    {
      "id": "note-931",
      "midi": 74,
      "start": 326.0,
      "duration": 0.710417,
      "end": 326.710417,
      "velocity": 80,
      "hand": "right",
      "interactive": true,
      "label": "74"
    },
    {
      "id": "note-932",
      "midi": 72,
      "start": 326.75,
      "duration": 0.710417,
      "end": 327.460417,
      "velocity": 80,
      "hand": "right",
      "interactive": true,
      "label": "72"
    },
    {
      "id": "note-933",
      "midi": 74,
      "start": 327.5,
      "duration": 0.472917,
      "end": 327.972917,
      "velocity": 80,
      "hand": "right",
      "interactive": true,
      "label": "74"
    },
    {
      "id": "note-934",
      "midi": 41,
      "start": 328.0,
      "duration": 3.0,
      "end": 331.0,
      "velocity": 80,
      "hand": "left",
      "interactive": false,
      "label": "41"
    },
    {
      "id": "note-935",
      "midi": 60,
      "start": 328.0,
      "duration": 3.0,
      "end": 331.0,
      "velocity": 80,
      "hand": "left",
      "interactive": false,
      "label": "60"
    },
    {
      "id": "note-936",
      "midi": 65,
      "start": 328.0,
      "duration": 3.0,
      "end": 331.0,
      "velocity": 80,
      "hand": "left",
      "interactive": false,
      "label": "65"
    },
    {
      "id": "note-937",
      "midi": 69,
      "start": 328.0,
      "duration": 3.0,
      "end": 331.0,
      "velocity": 80,
      "hand": "left",
      "interactive": false,
      "label": "69"
    },
    {
      "id": "note-938",
      "midi": 72,
      "start": 328.0,
      "duration": 0.472917,
      "end": 328.472917,
      "velocity": 80,
      "hand": "right",
      "interactive": true,
      "label": "72"
    },
    {
      "id": "note-939",
      "midi": 69,
      "start": 328.5,
      "duration": 1.422917,
      "end": 329.922917,
      "velocity": 80,
      "hand": "right",
      "interactive": true,
      "label": "69"
    },
    {
      "id": "note-940",
      "midi": 65,
      "start": 330.5,
      "duration": 0.472917,
      "end": 330.972917,
      "velocity": 80,
      "hand": "right",
      "interactive": true,
      "label": "65"
    },
    {
      "id": "note-941",
      "midi": 40,
      "start": 331.0,
      "duration": 1.0,
      "end": 332.0,
      "velocity": 80,
      "hand": "left",
      "interactive": false,
      "label": "40"
    },
    {
      "id": "note-942",
      "midi": 60,
      "start": 331.0,
      "duration": 1.0,
      "end": 332.0,
      "velocity": 80,
      "hand": "left",
      "interactive": false,
      "label": "60"
    },
    {
      "id": "note-943",
      "midi": 64,
      "start": 331.0,
      "duration": 1.0,
      "end": 332.0,
      "velocity": 80,
      "hand": "left",
      "interactive": false,
      "label": "64"
    },
    {
      "id": "note-944",
      "midi": 67,
      "start": 331.0,
      "duration": 0.472917,
      "end": 331.472917,
      "velocity": 80,
      "hand": "right",
      "interactive": true,
      "label": "67"
    },
    {
      "id": "note-945",
      "midi": 69,
      "start": 331.0,
      "duration": 1.0,
      "end": 332.0,
      "velocity": 80,
      "hand": "left",
      "interactive": false,
      "label": "69"
    },
    {
      "id": "note-946",
      "midi": 69,
      "start": 331.5,
      "duration": 0.472917,
      "end": 331.972917,
      "velocity": 80,
      "hand": "right",
      "interactive": true,
      "label": "69"
    },
    {
      "id": "note-947",
      "midi": 38,
      "start": 332.0,
      "duration": 4.0,
      "end": 336.0,
      "velocity": 80,
      "hand": "left",
      "interactive": false,
      "label": "38"
    },
    {
      "id": "note-948",
      "midi": 62,
      "start": 332.0,
      "duration": 4.0,
      "end": 336.0,
      "velocity": 80,
      "hand": "left",
      "interactive": false,
      "label": "62"
    },
    {
      "id": "note-949",
      "midi": 65,
      "start": 332.0,
      "duration": 4.0,
      "end": 336.0,
      "velocity": 80,
      "hand": "left",
      "interactive": false,
      "label": "65"
    },
    {
      "id": "note-950",
      "midi": 69,
      "start": 332.0,
      "duration": 4.0,
      "end": 336.0,
      "velocity": 80,
      "hand": "left",
      "interactive": false,
      "label": "69"
    },
    {
      "id": "note-951",
      "midi": 72,
      "start": 332.0,
      "duration": 0.472917,
      "end": 332.472917,
      "velocity": 80,
      "hand": "right",
      "interactive": true,
      "label": "72"
    },
    {
      "id": "note-952",
      "midi": 69,
      "start": 332.5,
      "duration": 0.472917,
      "end": 332.972917,
      "velocity": 80,
      "hand": "right",
      "interactive": true,
      "label": "69"
    },
    {
      "id": "note-953",
      "midi": 67,
      "start": 333.0,
      "duration": 0.472917,
      "end": 333.472917,
      "velocity": 80,
      "hand": "right",
      "interactive": true,
      "label": "67"
    },
    {
      "id": "note-954",
      "midi": 65,
      "start": 333.5,
      "duration": 0.947917,
      "end": 334.447917,
      "velocity": 80,
      "hand": "right",
      "interactive": true,
      "label": "65"
    },
    {
      "id": "note-955",
      "midi": 65,
      "start": 334.5,
      "duration": 0.472917,
      "end": 334.972917,
      "velocity": 80,
      "hand": "right",
      "interactive": true,
      "label": "65"
    },
    {
      "id": "note-956",
      "midi": 67,
      "start": 335.0,
      "duration": 0.472917,
      "end": 335.472917,
      "velocity": 80,
      "hand": "right",
      "interactive": true,
      "label": "67"
    },
    {
      "id": "note-957",
      "midi": 69,
      "start": 335.5,
      "duration": 0.472917,
      "end": 335.972917,
      "velocity": 80,
      "hand": "right",
      "interactive": true,
      "label": "69"
    },
    {
      "id": "note-958",
      "midi": 43,
      "start": 336.0,
      "duration": 4.0,
      "end": 340.0,
      "velocity": 80,
      "hand": "left",
      "interactive": false,
      "label": "43"
    },
    {
      "id": "note-959",
      "midi": 62,
      "start": 336.0,
      "duration": 4.0,
      "end": 340.0,
      "velocity": 80,
      "hand": "left",
      "interactive": false,
      "label": "62"
    },
    {
      "id": "note-960",
      "midi": 65,
      "start": 336.0,
      "duration": 4.0,
      "end": 340.0,
      "velocity": 80,
      "hand": "left",
      "interactive": false,
      "label": "65"
    },
    {
      "id": "note-961",
      "midi": 67,
      "start": 336.0,
      "duration": 4.0,
      "end": 340.0,
      "velocity": 80,
      "hand": "left",
      "interactive": false,
      "label": "67"
    },
    {
      "id": "note-962",
      "midi": 70,
      "start": 336.0,
      "duration": 4.0,
      "end": 340.0,
      "velocity": 80,
      "hand": "left",
      "interactive": false,
      "label": "70"
    },
    {
      "id": "note-963",
      "midi": 74,
      "start": 336.0,
      "duration": 0.472917,
      "end": 336.472917,
      "velocity": 80,
      "hand": "right",
      "interactive": true,
      "label": "74"
    },
    {
      "id": "note-964",
      "midi": 69,
      "start": 336.5,
      "duration": 0.472917,
      "end": 336.972917,
      "velocity": 80,
      "hand": "right",
      "interactive": true,
      "label": "69"
    },
    {
      "id": "note-965",
      "midi": 67,
      "start": 337.0,
      "duration": 0.472917,
      "end": 337.472917,
      "velocity": 80,
      "hand": "right",
      "interactive": true,
      "label": "67"
    },
    {
      "id": "note-966",
      "midi": 65,
      "start": 337.5,
      "duration": 0.947917,
      "end": 338.447917,
      "velocity": 80,
      "hand": "right",
      "interactive": true,
      "label": "65"
    },
    {
      "id": "note-967",
      "midi": 65,
      "start": 338.5,
      "duration": 0.472917,
      "end": 338.972917,
      "velocity": 80,
      "hand": "right",
      "interactive": true,
      "label": "65"
    },
    {
      "id": "note-968",
      "midi": 65,
      "start": 339.0,
      "duration": 0.472917,
      "end": 339.472917,
      "velocity": 80,
      "hand": "right",
      "interactive": true,
      "label": "65"
    },
    {
      "id": "note-969",
      "midi": 65,
      "start": 339.5,
      "duration": 0.472917,
      "end": 339.972917,
      "velocity": 80,
      "hand": "right",
      "interactive": true,
      "label": "65"
    },
    {
      "id": "note-970",
      "midi": 47,
      "start": 340.0,
      "duration": 4.0,
      "end": 344.0,
      "velocity": 80,
      "hand": "left",
      "interactive": false,
      "label": "47"
    },
    {
      "id": "note-971",
      "midi": 62,
      "start": 340.0,
      "duration": 4.0,
      "end": 344.0,
      "velocity": 80,
      "hand": "left",
      "interactive": false,
      "label": "62"
    },
    {
      "id": "note-972",
      "midi": 65,
      "start": 340.0,
      "duration": 4.0,
      "end": 344.0,
      "velocity": 80,
      "hand": "left",
      "interactive": false,
      "label": "65"
    },
    {
      "id": "note-973",
      "midi": 69,
      "start": 340.0,
      "duration": 4.0,
      "end": 344.0,
      "velocity": 80,
      "hand": "left",
      "interactive": false,
      "label": "69"
    },
    {
      "id": "note-974",
      "midi": 71,
      "start": 340.0,
      "duration": 4.0,
      "end": 344.0,
      "velocity": 80,
      "hand": "left",
      "interactive": false,
      "label": "71"
    },
    {
      "id": "note-975",
      "midi": 77,
      "start": 340.0,
      "duration": 0.710417,
      "end": 340.710417,
      "velocity": 80,
      "hand": "right",
      "interactive": true,
      "label": "77"
    },
    {
      "id": "note-976",
      "midi": 77,
      "start": 340.75,
      "duration": 0.710417,
      "end": 341.460417,
      "velocity": 80,
      "hand": "right",
      "interactive": true,
      "label": "77"
    },
    {
      "id": "note-977",
      "midi": 77,
      "start": 341.5,
      "duration": 0.472917,
      "end": 341.972917,
      "velocity": 80,
      "hand": "right",
      "interactive": true,
      "label": "77"
    },
    {
      "id": "note-978",
      "midi": 77,
      "start": 342.0,
      "duration": 0.710417,
      "end": 342.710417,
      "velocity": 80,
      "hand": "right",
      "interactive": true,
      "label": "77"
    },
    {
      "id": "note-979",
      "midi": 74,
      "start": 342.75,
      "duration": 0.710417,
      "end": 343.460417,
      "velocity": 80,
      "hand": "right",
      "interactive": true,
      "label": "74"
    },
    {
      "id": "note-980",
      "midi": 77,
      "start": 343.5,
      "duration": 0.472917,
      "end": 343.972917,
      "velocity": 80,
      "hand": "right",
      "interactive": true,
      "label": "77"
    },
    {
      "id": "note-981",
      "midi": 36,
      "start": 344.0,
      "duration": 4.0,
      "end": 348.0,
      "velocity": 80,
      "hand": "left",
      "interactive": false,
      "label": "36"
    },
    {
      "id": "note-982",
      "midi": 60,
      "start": 344.0,
      "duration": 4.0,
      "end": 348.0,
      "velocity": 80,
      "hand": "left",
      "interactive": false,
      "label": "60"
    },
    {
      "id": "note-983",
      "midi": 64,
      "start": 344.0,
      "duration": 4.0,
      "end": 348.0,
      "velocity": 80,
      "hand": "left",
      "interactive": false,
      "label": "64"
    },
    {
      "id": "note-984",
      "midi": 67,
      "start": 344.0,
      "duration": 4.0,
      "end": 348.0,
      "velocity": 80,
      "hand": "left",
      "interactive": false,
      "label": "67"
    },
    {
      "id": "note-985",
      "midi": 74,
      "start": 344.0,
      "duration": 1.422917,
      "end": 345.422917,
      "velocity": 80,
      "hand": "right",
      "interactive": true,
      "label": "74"
    },
    {
      "id": "note-986",
      "midi": 72,
      "start": 345.5,
      "duration": 0.947917,
      "end": 346.447917,
      "velocity": 80,
      "hand": "right",
      "interactive": true,
      "label": "72"
    },
    {
      "id": "note-987",
      "midi": 65,
      "start": 346.5,
      "duration": 0.472917,
      "end": 346.972917,
      "velocity": 80,
      "hand": "right",
      "interactive": true,
      "label": "65"
    },
    {
      "id": "note-988",
      "midi": 77,
      "start": 347.0,
      "duration": 0.472917,
      "end": 347.472917,
      "velocity": 80,
      "hand": "right",
      "interactive": true,
      "label": "77"
    },
    {
      "id": "note-989",
      "midi": 76,
      "start": 347.5,
      "duration": 0.472917,
      "end": 347.972917,
      "velocity": 80,
      "hand": "right",
      "interactive": true,
      "label": "76"
    },
    {
      "id": "note-990",
      "midi": 38,
      "start": 348.0,
      "duration": 4.0,
      "end": 352.0,
      "velocity": 80,
      "hand": "left",
      "interactive": false,
      "label": "38"
    },
    {
      "id": "note-991",
      "midi": 62,
      "start": 348.0,
      "duration": 4.0,
      "end": 352.0,
      "velocity": 80,
      "hand": "left",
      "interactive": false,
      "label": "62"
    },
    {
      "id": "note-992",
      "midi": 65,
      "start": 348.0,
      "duration": 4.0,
      "end": 352.0,
      "velocity": 80,
      "hand": "left",
      "interactive": false,
      "label": "65"
    },
    {
      "id": "note-993",
      "midi": 69,
      "start": 348.0,
      "duration": 4.0,
      "end": 352.0,
      "velocity": 80,
      "hand": "left",
      "interactive": false,
      "label": "69"
    },
    {
      "id": "note-994",
      "midi": 77,
      "start": 348.0,
      "duration": 0.472917,
      "end": 348.472917,
      "velocity": 80,
      "hand": "right",
      "interactive": true,
      "label": "77"
    },
    {
      "id": "note-995",
      "midi": 76,
      "start": 348.5,
      "duration": 0.472917,
      "end": 348.972917,
      "velocity": 80,
      "hand": "right",
      "interactive": true,
      "label": "76"
    },
    {
      "id": "note-996",
      "midi": 74,
      "start": 349.0,
      "duration": 0.472917,
      "end": 349.472917,
      "velocity": 80,
      "hand": "right",
      "interactive": true,
      "label": "74"
    },
    {
      "id": "note-997",
      "midi": 72,
      "start": 349.5,
      "duration": 0.472917,
      "end": 349.972917,
      "velocity": 80,
      "hand": "right",
      "interactive": true,
      "label": "72"
    },
    {
      "id": "note-998",
      "midi": 74,
      "start": 350.0,
      "duration": 0.472917,
      "end": 350.472917,
      "velocity": 80,
      "hand": "right",
      "interactive": true,
      "label": "74"
    },
    {
      "id": "note-999",
      "midi": 72,
      "start": 350.5,
      "duration": 0.472917,
      "end": 350.972917,
      "velocity": 80,
      "hand": "right",
      "interactive": true,
      "label": "72"
    },
    {
      "id": "note-1000",
      "midi": 69,
      "start": 351.0,
      "duration": 0.472917,
      "end": 351.472917,
      "velocity": 80,
      "hand": "right",
      "interactive": true,
      "label": "69"
    },
    {
      "id": "note-1001",
      "midi": 67,
      "start": 351.5,
      "duration": 0.472917,
      "end": 351.972917,
      "velocity": 80,
      "hand": "right",
      "interactive": true,
      "label": "67"
    },
    {
      "id": "note-1002",
      "midi": 45,
      "start": 352.0,
      "duration": 4.0,
      "end": 356.0,
      "velocity": 80,
      "hand": "left",
      "interactive": false,
      "label": "45"
    },
    {
      "id": "note-1003",
      "midi": 60,
      "start": 352.0,
      "duration": 4.0,
      "end": 356.0,
      "velocity": 80,
      "hand": "left",
      "interactive": false,
      "label": "60"
    },
    {
      "id": "note-1004",
      "midi": 64,
      "start": 352.0,
      "duration": 4.0,
      "end": 356.0,
      "velocity": 80,
      "hand": "left",
      "interactive": false,
      "label": "64"
    },
    {
      "id": "note-1005",
      "midi": 67,
      "start": 352.0,
      "duration": 4.0,
      "end": 356.0,
      "velocity": 80,
      "hand": "left",
      "interactive": false,
      "label": "67"
    },
    {
      "id": "note-1006",
      "midi": 69,
      "start": 352.0,
      "duration": 0.472917,
      "end": 352.472917,
      "velocity": 80,
      "hand": "right",
      "interactive": true,
      "label": "69"
    },
    {
      "id": "note-1007",
      "midi": 69,
      "start": 352.0,
      "duration": 4.0,
      "end": 356.0,
      "velocity": 80,
      "hand": "left",
      "interactive": false,
      "label": "69"
    },
    {
      "id": "note-1008",
      "midi": 72,
      "start": 352.5,
      "duration": 0.472917,
      "end": 352.972917,
      "velocity": 80,
      "hand": "right",
      "interactive": true,
      "label": "72"
    },
    {
      "id": "note-1009",
      "midi": 74,
      "start": 353.0,
      "duration": 0.472917,
      "end": 353.472917,
      "velocity": 80,
      "hand": "right",
      "interactive": true,
      "label": "74"
    },
    {
      "id": "note-1010",
      "midi": 72,
      "start": 353.5,
      "duration": 0.947917,
      "end": 354.447917,
      "velocity": 80,
      "hand": "right",
      "interactive": true,
      "label": "72"
    },
    {
      "id": "note-1011",
      "midi": 72,
      "start": 354.5,
      "duration": 0.472917,
      "end": 354.972917,
      "velocity": 80,
      "hand": "right",
      "interactive": true,
      "label": "72"
    },
    {
      "id": "note-1012",
      "midi": 74,
      "start": 355.0,
      "duration": 0.472917,
      "end": 355.472917,
      "velocity": 80,
      "hand": "right",
      "interactive": true,
      "label": "74"
    },
    {
      "id": "note-1013",
      "midi": 72,
      "start": 355.5,
      "duration": 0.472917,
      "end": 355.972917,
      "velocity": 80,
      "hand": "right",
      "interactive": true,
      "label": "72"
    },
    {
      "id": "note-1014",
      "midi": 46,
      "start": 356.0,
      "duration": 2.0,
      "end": 358.0,
      "velocity": 80,
      "hand": "left",
      "interactive": false,
      "label": "46"
    },
    {
      "id": "note-1015",
      "midi": 62,
      "start": 356.0,
      "duration": 2.0,
      "end": 358.0,
      "velocity": 80,
      "hand": "left",
      "interactive": false,
      "label": "62"
    },
    {
      "id": "note-1016",
      "midi": 65,
      "start": 356.0,
      "duration": 2.0,
      "end": 358.0,
      "velocity": 80,
      "hand": "left",
      "interactive": false,
      "label": "65"
    },
    {
      "id": "note-1017",
      "midi": 70,
      "start": 356.0,
      "duration": 2.0,
      "end": 358.0,
      "velocity": 80,
      "hand": "left",
      "interactive": false,
      "label": "70"
    },
    {
      "id": "note-1018",
      "midi": 74,
      "start": 356.0,
      "duration": 0.710417,
      "end": 356.710417,
      "velocity": 80,
      "hand": "right",
      "interactive": true,
      "label": "74"
    },
    {
      "id": "note-1019",
      "midi": 74,
      "start": 356.75,
      "duration": 0.710417,
      "end": 357.460417,
      "velocity": 80,
      "hand": "right",
      "interactive": true,
      "label": "74"
    },
    {
      "id": "note-1020",
      "midi": 74,
      "start": 357.5,
      "duration": 0.472917,
      "end": 357.972917,
      "velocity": 80,
      "hand": "right",
      "interactive": true,
      "label": "74"
    },
    {
      "id": "note-1021",
      "midi": 36,
      "start": 358.0,
      "duration": 2.0,
      "end": 360.0,
      "velocity": 80,
      "hand": "left",
      "interactive": false,
      "label": "36"
    },
    {
      "id": "note-1022",
      "midi": 60,
      "start": 358.0,
      "duration": 2.0,
      "end": 360.0,
      "velocity": 80,
      "hand": "left",
      "interactive": false,
      "label": "60"
    },
    {
      "id": "note-1023",
      "midi": 64,
      "start": 358.0,
      "duration": 2.0,
      "end": 360.0,
      "velocity": 80,
      "hand": "left",
      "interactive": false,
      "label": "64"
    },
    {
      "id": "note-1024",
      "midi": 67,
      "start": 358.0,
      "duration": 2.0,
      "end": 360.0,
      "velocity": 80,
      "hand": "left",
      "interactive": false,
      "label": "67"
    },
    {
      "id": "note-1025",
      "midi": 74,
      "start": 358.0,
      "duration": 0.710417,
      "end": 358.710417,
      "velocity": 80,
      "hand": "right",
      "interactive": true,
      "label": "74"
    },
    {
      "id": "note-1026",
      "midi": 72,
      "start": 358.75,
      "duration": 0.710417,
      "end": 359.460417,
      "velocity": 80,
      "hand": "right",
      "interactive": true,
      "label": "72"
    },
    {
      "id": "note-1027",
      "midi": 74,
      "start": 359.5,
      "duration": 0.472917,
      "end": 359.972917,
      "velocity": 80,
      "hand": "right",
      "interactive": true,
      "label": "74"
    },
    {
      "id": "note-1028",
      "midi": 41,
      "start": 360.0,
      "duration": 3.0,
      "end": 363.0,
      "velocity": 80,
      "hand": "left",
      "interactive": false,
      "label": "41"
    },
    {
      "id": "note-1029",
      "midi": 60,
      "start": 360.0,
      "duration": 3.0,
      "end": 363.0,
      "velocity": 80,
      "hand": "left",
      "interactive": false,
      "label": "60"
    },
    {
      "id": "note-1030",
      "midi": 65,
      "start": 360.0,
      "duration": 3.0,
      "end": 363.0,
      "velocity": 80,
      "hand": "left",
      "interactive": false,
      "label": "65"
    },
    {
      "id": "note-1031",
      "midi": 69,
      "start": 360.0,
      "duration": 3.0,
      "end": 363.0,
      "velocity": 80,
      "hand": "left",
      "interactive": false,
      "label": "69"
    },
    {
      "id": "note-1032",
      "midi": 72,
      "start": 360.0,
      "duration": 0.472917,
      "end": 360.472917,
      "velocity": 80,
      "hand": "right",
      "interactive": true,
      "label": "72"
    },
    {
      "id": "note-1033",
      "midi": 69,
      "start": 360.5,
      "duration": 1.422917,
      "end": 361.922917,
      "velocity": 80,
      "hand": "right",
      "interactive": true,
      "label": "69"
    },
    {
      "id": "note-1034",
      "midi": 65,
      "start": 362.5,
      "duration": 0.472917,
      "end": 362.972917,
      "velocity": 80,
      "hand": "right",
      "interactive": true,
      "label": "65"
    },
    {
      "id": "note-1035",
      "midi": 40,
      "start": 363.0,
      "duration": 1.0,
      "end": 364.0,
      "velocity": 80,
      "hand": "left",
      "interactive": false,
      "label": "40"
    },
    {
      "id": "note-1036",
      "midi": 60,
      "start": 363.0,
      "duration": 1.0,
      "end": 364.0,
      "velocity": 80,
      "hand": "left",
      "interactive": false,
      "label": "60"
    },
    {
      "id": "note-1037",
      "midi": 64,
      "start": 363.0,
      "duration": 1.0,
      "end": 364.0,
      "velocity": 80,
      "hand": "left",
      "interactive": false,
      "label": "64"
    },
    {
      "id": "note-1038",
      "midi": 67,
      "start": 363.0,
      "duration": 0.472917,
      "end": 363.472917,
      "velocity": 80,
      "hand": "right",
      "interactive": true,
      "label": "67"
    },
    {
      "id": "note-1039",
      "midi": 69,
      "start": 363.0,
      "duration": 1.0,
      "end": 364.0,
      "velocity": 80,
      "hand": "left",
      "interactive": false,
      "label": "69"
    },
    {
      "id": "note-1040",
      "midi": 69,
      "start": 363.5,
      "duration": 0.472917,
      "end": 363.972917,
      "velocity": 80,
      "hand": "right",
      "interactive": true,
      "label": "69"
    },
    {
      "id": "note-1041",
      "midi": 38,
      "start": 364.0,
      "duration": 4.0,
      "end": 368.0,
      "velocity": 80,
      "hand": "left",
      "interactive": false,
      "label": "38"
    },
    {
      "id": "note-1042",
      "midi": 62,
      "start": 364.0,
      "duration": 4.0,
      "end": 368.0,
      "velocity": 80,
      "hand": "left",
      "interactive": false,
      "label": "62"
    },
    {
      "id": "note-1043",
      "midi": 65,
      "start": 364.0,
      "duration": 4.0,
      "end": 368.0,
      "velocity": 80,
      "hand": "left",
      "interactive": false,
      "label": "65"
    },
    {
      "id": "note-1044",
      "midi": 69,
      "start": 364.0,
      "duration": 4.0,
      "end": 368.0,
      "velocity": 80,
      "hand": "left",
      "interactive": false,
      "label": "69"
    },
    {
      "id": "note-1045",
      "midi": 72,
      "start": 364.0,
      "duration": 0.472917,
      "end": 364.472917,
      "velocity": 80,
      "hand": "right",
      "interactive": true,
      "label": "72"
    },
    {
      "id": "note-1046",
      "midi": 69,
      "start": 364.5,
      "duration": 0.472917,
      "end": 364.972917,
      "velocity": 80,
      "hand": "right",
      "interactive": true,
      "label": "69"
    },
    {
      "id": "note-1047",
      "midi": 67,
      "start": 365.0,
      "duration": 0.472917,
      "end": 365.472917,
      "velocity": 80,
      "hand": "right",
      "interactive": true,
      "label": "67"
    },
    {
      "id": "note-1048",
      "midi": 65,
      "start": 365.5,
      "duration": 0.947917,
      "end": 366.447917,
      "velocity": 80,
      "hand": "right",
      "interactive": true,
      "label": "65"
    },
    {
      "id": "note-1049",
      "midi": 65,
      "start": 366.5,
      "duration": 0.472917,
      "end": 366.972917,
      "velocity": 80,
      "hand": "right",
      "interactive": true,
      "label": "65"
    },
    {
      "id": "note-1050",
      "midi": 67,
      "start": 367.0,
      "duration": 0.472917,
      "end": 367.472917,
      "velocity": 80,
      "hand": "right",
      "interactive": true,
      "label": "67"
    },
    {
      "id": "note-1051",
      "midi": 69,
      "start": 367.5,
      "duration": 0.472917,
      "end": 367.972917,
      "velocity": 80,
      "hand": "right",
      "interactive": true,
      "label": "69"
    },
    {
      "id": "note-1052",
      "midi": 43,
      "start": 368.0,
      "duration": 2.0,
      "end": 370.0,
      "velocity": 80,
      "hand": "left",
      "interactive": false,
      "label": "43"
    },
    {
      "id": "note-1053",
      "midi": 62,
      "start": 368.0,
      "duration": 2.0,
      "end": 370.0,
      "velocity": 80,
      "hand": "left",
      "interactive": false,
      "label": "62"
    },
    {
      "id": "note-1054",
      "midi": 65,
      "start": 368.0,
      "duration": 2.0,
      "end": 370.0,
      "velocity": 80,
      "hand": "left",
      "interactive": false,
      "label": "65"
    },
    {
      "id": "note-1055",
      "midi": 67,
      "start": 368.0,
      "duration": 2.0,
      "end": 370.0,
      "velocity": 80,
      "hand": "left",
      "interactive": false,
      "label": "67"
    },
    {
      "id": "note-1056",
      "midi": 71,
      "start": 368.0,
      "duration": 2.0,
      "end": 370.0,
      "velocity": 80,
      "hand": "left",
      "interactive": false,
      "label": "71"
    },
    {
      "id": "note-1057",
      "midi": 74,
      "start": 368.0,
      "duration": 0.472917,
      "end": 368.472917,
      "velocity": 80,
      "hand": "right",
      "interactive": true,
      "label": "74"
    },
    {
      "id": "note-1058",
      "midi": 69,
      "start": 368.5,
      "duration": 0.472917,
      "end": 368.972917,
      "velocity": 80,
      "hand": "right",
      "interactive": true,
      "label": "69"
    },
    {
      "id": "note-1059",
      "midi": 67,
      "start": 369.0,
      "duration": 0.472917,
      "end": 369.472917,
      "velocity": 80,
      "hand": "right",
      "interactive": true,
      "label": "67"
    },
    {
      "id": "note-1060",
      "midi": 65,
      "start": 369.5,
      "duration": 0.472917,
      "end": 369.972917,
      "velocity": 80,
      "hand": "right",
      "interactive": true,
      "label": "65"
    },
    {
      "id": "note-1061",
      "midi": 47,
      "start": 370.0,
      "duration": 4.0,
      "end": 374.0,
      "velocity": 80,
      "hand": "left",
      "interactive": false,
      "label": "47"
    },
    {
      "id": "note-1062",
      "midi": 62,
      "start": 370.0,
      "duration": 4.0,
      "end": 374.0,
      "velocity": 80,
      "hand": "left",
      "interactive": false,
      "label": "62"
    },
    {
      "id": "note-1063",
      "midi": 65,
      "start": 370.0,
      "duration": 4.0,
      "end": 374.0,
      "velocity": 80,
      "hand": "left",
      "interactive": false,
      "label": "65"
    },
    {
      "id": "note-1064",
      "midi": 69,
      "start": 370.0,
      "duration": 4.0,
      "end": 374.0,
      "velocity": 80,
      "hand": "left",
      "interactive": false,
      "label": "69"
    },
    {
      "id": "note-1065",
      "midi": 71,
      "start": 370.0,
      "duration": 4.0,
      "end": 374.0,
      "velocity": 80,
      "hand": "left",
      "interactive": false,
      "label": "71"
    },
    {
      "id": "note-1066",
      "midi": 77,
      "start": 370.0,
      "duration": 1.897917,
      "end": 371.897917,
      "velocity": 80,
      "hand": "right",
      "interactive": true,
      "label": "77"
    },
    {
      "id": "note-1067",
      "midi": 77,
      "start": 372.5,
      "duration": 0.472917,
      "end": 372.972917,
      "velocity": 80,
      "hand": "right",
      "interactive": true,
      "label": "77"
    },
    {
      "id": "note-1068",
      "midi": 74,
      "start": 373.0,
      "duration": 0.472917,
      "end": 373.472917,
      "velocity": 80,
      "hand": "right",
      "interactive": true,
      "label": "74"
    },
    {
      "id": "note-1069",
      "midi": 77,
      "start": 373.5,
      "duration": 0.472917,
      "end": 373.972917,
      "velocity": 80,
      "hand": "right",
      "interactive": true,
      "label": "77"
    },
    {
      "id": "note-1070",
      "midi": 46,
      "start": 374.0,
      "duration": 4.0,
      "end": 378.0,
      "velocity": 80,
      "hand": "left",
      "interactive": false,
      "label": "46"
    },
    {
      "id": "note-1071",
      "midi": 62,
      "start": 374.0,
      "duration": 4.0,
      "end": 378.0,
      "velocity": 80,
      "hand": "left",
      "interactive": false,
      "label": "62"
    },
    {
      "id": "note-1072",
      "midi": 65,
      "start": 374.0,
      "duration": 4.0,
      "end": 378.0,
      "velocity": 80,
      "hand": "left",
      "interactive": false,
      "label": "65"
    },
    {
      "id": "note-1073",
      "midi": 69,
      "start": 374.0,
      "duration": 4.0,
      "end": 378.0,
      "velocity": 80,
      "hand": "left",
      "interactive": false,
      "label": "69"
    },
    {
      "id": "note-1074",
      "midi": 70,
      "start": 374.0,
      "duration": 4.0,
      "end": 378.0,
      "velocity": 80,
      "hand": "left",
      "interactive": false,
      "label": "70"
    },
    {
      "id": "note-1075",
      "midi": 74,
      "start": 374.0,
      "duration": 0.472917,
      "end": 374.472917,
      "velocity": 80,
      "hand": "right",
      "interactive": true,
      "label": "74"
    },
    {
      "id": "note-1076",
      "midi": 72,
      "start": 374.5,
      "duration": 0.947917,
      "end": 375.447917,
      "velocity": 80,
      "hand": "right",
      "interactive": true,
      "label": "72"
    },
    {
      "id": "note-1077",
      "midi": 72,
      "start": 375.5,
      "duration": 0.472917,
      "end": 375.972917,
      "velocity": 80,
      "hand": "right",
      "interactive": true,
      "label": "72"
    },
    {
      "id": "note-1078",
      "midi": 74,
      "start": 376.0,
      "duration": 0.472917,
      "end": 376.472917,
      "velocity": 80,
      "hand": "right",
      "interactive": true,
      "label": "74"
    },
    {
      "id": "note-1079",
      "midi": 72,
      "start": 376.5,
      "duration": 0.472917,
      "end": 376.972917,
      "velocity": 80,
      "hand": "right",
      "interactive": true,
      "label": "72"
    },
    {
      "id": "note-1080",
      "midi": 69,
      "start": 377.0,
      "duration": 0.472917,
      "end": 377.472917,
      "velocity": 80,
      "hand": "right",
      "interactive": true,
      "label": "69"
    },
    {
      "id": "note-1081",
      "midi": 67,
      "start": 377.5,
      "duration": 0.472917,
      "end": 377.972917,
      "velocity": 80,
      "hand": "right",
      "interactive": true,
      "label": "67"
    },
    {
      "id": "note-1082",
      "midi": 36,
      "start": 378.0,
      "duration": 4.0,
      "end": 382.0,
      "velocity": 80,
      "hand": "left",
      "interactive": false,
      "label": "36"
    },
    {
      "id": "note-1083",
      "midi": 62,
      "start": 378.0,
      "duration": 4.0,
      "end": 382.0,
      "velocity": 80,
      "hand": "left",
      "interactive": false,
      "label": "62"
    },
    {
      "id": "note-1084",
      "midi": 65,
      "start": 378.0,
      "duration": 4.0,
      "end": 382.0,
      "velocity": 80,
      "hand": "left",
      "interactive": false,
      "label": "65"
    },
    {
      "id": "note-1085",
      "midi": 69,
      "start": 378.0,
      "duration": 0.472917,
      "end": 378.472917,
      "velocity": 80,
      "hand": "right",
      "interactive": true,
      "label": "69"
    },
    {
      "id": "note-1086",
      "midi": 70,
      "start": 378.0,
      "duration": 4.0,
      "end": 382.0,
      "velocity": 80,
      "hand": "left",
      "interactive": false,
      "label": "70"
    },
    {
      "id": "note-1087",
      "midi": 67,
      "start": 378.5,
      "duration": 0.947917,
      "end": 379.447917,
      "velocity": 80,
      "hand": "right",
      "interactive": true,
      "label": "67"
    },
    {
      "id": "note-1088",
      "midi": 65,
      "start": 379.5,
      "duration": 0.472917,
      "end": 379.972917,
      "velocity": 80,
      "hand": "right",
      "interactive": true,
      "label": "65"
    },
    {
      "id": "note-1089",
      "midi": 62,
      "start": 380.0,
      "duration": 0.472917,
      "end": 380.472917,
      "velocity": 80,
      "hand": "right",
      "interactive": true,
      "label": "62"
    },
    {
      "id": "note-1090",
      "midi": 65,
      "start": 380.5,
      "duration": 0.947917,
      "end": 381.447917,
      "velocity": 80,
      "hand": "right",
      "interactive": true,
      "label": "65"
    },
    {
      "id": "note-1091",
      "midi": 67,
      "start": 381.5,
      "duration": 0.472917,
      "end": 381.972917,
      "velocity": 80,
      "hand": "right",
      "interactive": true,
      "label": "67"
    },
    {
      "id": "note-1092",
      "midi": 41,
      "start": 382.0,
      "duration": 8.0,
      "end": 390.0,
      "velocity": 80,
      "hand": "left",
      "interactive": false,
      "label": "41"
    },
    {
      "id": "note-1093",
      "midi": 60,
      "start": 382.0,
      "duration": 8.0,
      "end": 390.0,
      "velocity": 80,
      "hand": "left",
      "interactive": false,
      "label": "60"
    },
    {
      "id": "note-1094",
      "midi": 65,
      "start": 382.0,
      "duration": 3.797917,
      "end": 385.797917,
      "velocity": 80,
      "hand": "right",
      "interactive": true,
      "label": "65"
    },
    {
      "id": "note-1095",
      "midi": 65,
      "start": 382.0,
      "duration": 8.0,
      "end": 390.0,
      "velocity": 80,
      "hand": "left",
      "interactive": false,
      "label": "65"
    },
    {
      "id": "note-1096",
      "midi": 69,
      "start": 382.0,
      "duration": 8.0,
      "end": 390.0,
      "velocity": 80,
      "hand": "left",
      "interactive": false,
      "label": "69"
    },
    {
      "id": "note-1097",
      "midi": 65,
      "start": 388.5,
      "duration": 0.472917,
      "end": 388.972917,
      "velocity": 80,
      "hand": "right",
      "interactive": true,
      "label": "65"
    },
    {
      "id": "note-1098",
      "midi": 62,
      "start": 389.0,
      "duration": 0.472917,
      "end": 389.472917,
      "velocity": 80,
      "hand": "right",
      "interactive": true,
      "label": "62"
    },
    {
      "id": "note-1099",
      "midi": 65,
      "start": 389.5,
      "duration": 0.472917,
      "end": 389.972917,
      "velocity": 80,
      "hand": "right",
      "interactive": true,
      "label": "65"
    },
    {
      "id": "note-1100",
      "midi": 46,
      "start": 390.0,
      "duration": 4.0,
      "end": 394.0,
      "velocity": 80,
      "hand": "left",
      "interactive": false,
      "label": "46"
    },
    {
      "id": "note-1101",
      "midi": 62,
      "start": 390.0,
      "duration": 4.0,
      "end": 394.0,
      "velocity": 80,
      "hand": "left",
      "interactive": false,
      "label": "62"
    },
    {
      "id": "note-1102",
      "midi": 65,
      "start": 390.0,
      "duration": 4.0,
      "end": 394.0,
      "velocity": 80,
      "hand": "left",
      "interactive": false,
      "label": "65"
    },
    {
      "id": "note-1103",
      "midi": 69,
      "start": 390.0,
      "duration": 4.0,
      "end": 394.0,
      "velocity": 80,
      "hand": "left",
      "interactive": false,
      "label": "69"
    },
    {
      "id": "note-1104",
      "midi": 70,
      "start": 390.0,
      "duration": 4.0,
      "end": 394.0,
      "velocity": 80,
      "hand": "left",
      "interactive": false,
      "label": "70"
    },
    {
      "id": "note-1105",
      "midi": 74,
      "start": 390.0,
      "duration": 0.472917,
      "end": 390.472917,
      "velocity": 80,
      "hand": "right",
      "interactive": true,
      "label": "74"
    },
    {
      "id": "note-1106",
      "midi": 72,
      "start": 390.5,
      "duration": 0.947917,
      "end": 391.447917,
      "velocity": 80,
      "hand": "right",
      "interactive": true,
      "label": "72"
    },
    {
      "id": "note-1107",
      "midi": 72,
      "start": 391.5,
      "duration": 0.472917,
      "end": 391.972917,
      "velocity": 80,
      "hand": "right",
      "interactive": true,
      "label": "72"
    },
    {
      "id": "note-1108",
      "midi": 74,
      "start": 392.0,
      "duration": 0.472917,
      "end": 392.472917,
      "velocity": 80,
      "hand": "right",
      "interactive": true,
      "label": "74"
    },
    {
      "id": "note-1109",
      "midi": 72,
      "start": 392.5,
      "duration": 0.472917,
      "end": 392.972917,
      "velocity": 80,
      "hand": "right",
      "interactive": true,
      "label": "72"
    },
    {
      "id": "note-1110",
      "midi": 69,
      "start": 393.0,
      "duration": 0.472917,
      "end": 393.472917,
      "velocity": 80,
      "hand": "right",
      "interactive": true,
      "label": "69"
    },
    {
      "id": "note-1111",
      "midi": 72,
      "start": 393.5,
      "duration": 0.472917,
      "end": 393.972917,
      "velocity": 80,
      "hand": "right",
      "interactive": true,
      "label": "72"
    },
    {
      "id": "note-1112",
      "midi": 43,
      "start": 394.0,
      "duration": 2.0,
      "end": 396.0,
      "velocity": 80,
      "hand": "left",
      "interactive": false,
      "label": "43"
    },
    {
      "id": "note-1113",
      "midi": 62,
      "start": 394.0,
      "duration": 2.0,
      "end": 396.0,
      "velocity": 80,
      "hand": "left",
      "interactive": false,
      "label": "62"
    },
    {
      "id": "note-1114",
      "midi": 65,
      "start": 394.0,
      "duration": 2.0,
      "end": 396.0,
      "velocity": 80,
      "hand": "left",
      "interactive": false,
      "label": "65"
    },
    {
      "id": "note-1115",
      "midi": 67,
      "start": 394.0,
      "duration": 2.0,
      "end": 396.0,
      "velocity": 80,
      "hand": "left",
      "interactive": false,
      "label": "67"
    },
    {
      "id": "note-1116",
      "midi": 70,
      "start": 394.0,
      "duration": 2.0,
      "end": 396.0,
      "velocity": 80,
      "hand": "left",
      "interactive": false,
      "label": "70"
    },
    {
      "id": "note-1117",
      "midi": 81,
      "start": 394.0,
      "duration": 0.472917,
      "end": 394.472917,
      "velocity": 80,
      "hand": "right",
      "interactive": true,
      "label": "81"
    },
    {
      "id": "note-1118",
      "midi": 79,
      "start": 394.5,
      "duration": 0.947917,
      "end": 395.447917,
      "velocity": 80,
      "hand": "right",
      "interactive": true,
      "label": "79"
    },
    {
      "id": "note-1119",
      "midi": 77,
      "start": 395.5,
      "duration": 0.472917,
      "end": 395.972917,
      "velocity": 80,
      "hand": "right",
      "interactive": true,
      "label": "77"
    },
    {
      "id": "note-1120",
      "midi": 36,
      "start": 396.0,
      "duration": 2.0,
      "end": 398.0,
      "velocity": 80,
      "hand": "left",
      "interactive": false,
      "label": "36"
    },
    {
      "id": "note-1121",
      "midi": 60,
      "start": 396.0,
      "duration": 2.0,
      "end": 398.0,
      "velocity": 80,
      "hand": "left",
      "interactive": false,
      "label": "60"
    },
    {
      "id": "note-1122",
      "midi": 64,
      "start": 396.0,
      "duration": 2.0,
      "end": 398.0,
      "velocity": 80,
      "hand": "left",
      "interactive": false,
      "label": "64"
    },
    {
      "id": "note-1123",
      "midi": 67,
      "start": 396.0,
      "duration": 2.0,
      "end": 398.0,
      "velocity": 80,
      "hand": "left",
      "interactive": false,
      "label": "67"
    },
    {
      "id": "note-1124",
      "midi": 74,
      "start": 396.0,
      "duration": 0.472917,
      "end": 396.472917,
      "velocity": 80,
      "hand": "right",
      "interactive": true,
      "label": "74"
    },
    {
      "id": "note-1125",
      "midi": 77,
      "start": 396.5,
      "duration": 0.947917,
      "end": 397.447917,
      "velocity": 80,
      "hand": "right",
      "interactive": true,
      "label": "77"
    },
    {
      "id": "note-1126",
      "midi": 79,
      "start": 397.5,
      "duration": 0.472917,
      "end": 397.972917,
      "velocity": 80,
      "hand": "right",
      "interactive": true,
      "label": "79"
    },
    {
      "id": "note-1127",
      "midi": 41,
      "start": 398.0,
      "duration": 8.0,
      "end": 406.0,
      "velocity": 80,
      "hand": "left",
      "interactive": false,
      "label": "41"
    },
    {
      "id": "note-1128",
      "midi": 60,
      "start": 398.0,
      "duration": 8.0,
      "end": 406.0,
      "velocity": 80,
      "hand": "left",
      "interactive": false,
      "label": "60"
    },
    {
      "id": "note-1129",
      "midi": 65,
      "start": 398.0,
      "duration": 8.0,
      "end": 406.0,
      "velocity": 80,
      "hand": "left",
      "interactive": false,
      "label": "65"
    },
    {
      "id": "note-1130",
      "midi": 67,
      "start": 398.0,
      "duration": 8.0,
      "end": 406.0,
      "velocity": 80,
      "hand": "left",
      "interactive": false,
      "label": "67"
    },
    {
      "id": "note-1131",
      "midi": 76,
      "start": 398.0,
      "duration": 0.472917,
      "end": 398.472917,
      "velocity": 80,
      "hand": "right",
      "interactive": true,
      "label": "76"
    },
    {
      "id": "note-1132",
      "midi": 77,
      "start": 398.0,
      "duration": 2.0,
      "end": 400.0,
      "velocity": 80,
      "hand": "right",
      "interactive": true,
      "label": "77"
    },
    {
      "id": "note-1133",
      "midi": 81,
      "start": 398.0,
      "duration": 0.472917,
      "end": 398.472917,
      "velocity": 80,
      "hand": "right",
      "interactive": true,
      "label": "81"
    },
    {
      "id": "note-1134",
      "midi": 79,
      "start": 398.5,
      "duration": 0.472917,
      "end": 398.972917,
      "velocity": 80,
      "hand": "right",
      "interactive": true,
      "label": "79"
    },
    {
      "id": "note-1135",
      "midi": 84,
      "start": 398.5,
      "duration": 0.472917,
      "end": 398.972917,
      "velocity": 80,
      "hand": "right",
      "interactive": true,
      "label": "84"
    },
    {
      "id": "note-1136",
      "midi": 76,
      "start": 399.0,
      "duration": 0.472917,
      "end": 399.472917,
      "velocity": 80,
      "hand": "right",
      "interactive": true,
      "label": "76"
    },
    {
      "id": "note-1137",
      "midi": 81,
      "start": 399.0,
      "duration": 0.472917,
      "end": 399.472917,
      "velocity": 80,
      "hand": "right",
      "interactive": true,
      "label": "81"
    },
    {
      "id": "note-1138",
      "midi": 74,
      "start": 399.5,
      "duration": 0.472917,
      "end": 399.972917,
      "velocity": 80,
      "hand": "right",
      "interactive": true,
      "label": "74"
    },
    {
      "id": "note-1139",
      "midi": 79,
      "start": 399.5,
      "duration": 0.472917,
      "end": 399.972917,
      "velocity": 80,
      "hand": "right",
      "interactive": true,
      "label": "79"
    },
    {
      "id": "note-1140",
      "midi": 72,
      "start": 400.0,
      "duration": 0.472917,
      "end": 400.472917,
      "velocity": 80,
      "hand": "right",
      "interactive": true,
      "label": "72"
    },
    {
      "id": "note-1141",
      "midi": 77,
      "start": 400.0,
      "duration": 1.797917,
      "end": 401.797917,
      "velocity": 80,
      "hand": "right",
      "interactive": true,
      "label": "77"
    },
    {
      "id": "note-1142",
      "midi": 69,
      "start": 400.5,
      "duration": 0.472917,
      "end": 400.972917,
      "velocity": 80,
      "hand": "right",
      "interactive": true,
      "label": "69"
    },
    {
      "id": "note-1143",
      "midi": 76,
      "start": 400.5,
      "duration": 0.472917,
      "end": 400.972917,
      "velocity": 80,
      "hand": "right",
      "interactive": true,
      "label": "76"
    },
    {
      "id": "note-1144",
      "midi": 67,
      "start": 401.0,
      "duration": 0.472917,
      "end": 401.472917,
      "velocity": 80,
      "hand": "right",
      "interactive": true,
      "label": "67"
    },
    {
      "id": "note-1145",
      "midi": 72,
      "start": 401.0,
      "duration": 0.472917,
      "end": 401.472917,
      "velocity": 80,
      "hand": "right",
      "interactive": true,
      "label": "72"
    },
    {
      "id": "note-1146",
      "midi": 64,
      "start": 401.5,
      "duration": 0.472917,
      "end": 401.972917,
      "velocity": 80,
      "hand": "right",
      "interactive": true,
      "label": "64"
    },
    {
      "id": "note-1147",
      "midi": 69,
      "start": 401.5,
      "duration": 0.472917,
      "end": 401.972917,
      "velocity": 80,
      "hand": "right",
      "interactive": true,
      "label": "69"
    },
    {
      "id": "note-1148",
      "midi": 62,
      "start": 402.0,
      "duration": 3.797917,
      "end": 405.797917,
      "velocity": 80,
      "hand": "right",
      "interactive": true,
      "label": "62"
    },
    {
      "id": "note-1149",
      "midi": 67,
      "start": 402.0,
      "duration": 3.797917,
      "end": 405.797917,
      "velocity": 80,
      "hand": "right",
      "interactive": true,
      "label": "67"
    },
    {
      "id": "note-1150",
      "midi": 41,
      "start": 406.0,
      "duration": 4.0,
      "end": 410.0,
      "velocity": 80,
      "hand": "left",
      "interactive": false,
      "label": "41"
    },
    {
      "id": "note-1151",
      "midi": 60,
      "start": 406.0,
      "duration": 4.0,
      "end": 410.0,
      "velocity": 80,
      "hand": "left",
      "interactive": false,
      "label": "60"
    },
    {
      "id": "note-1152",
      "midi": 65,
      "start": 406.0,
      "duration": 3.997917,
      "end": 409.997917,
      "velocity": 80,
      "hand": "right",
      "interactive": true,
      "label": "65"
    },
    {
      "id": "note-1153",
      "midi": 65,
      "start": 406.0,
      "duration": 4.0,
      "end": 410.0,
      "velocity": 80,
      "hand": "left",
      "interactive": false,
      "label": "65"
    },
    {
      "id": "note-1154",
      "midi": 67,
      "start": 406.0,
      "duration": 4.0,
      "end": 410.0,
      "velocity": 80,
      "hand": "left",
      "interactive": false,
      "label": "67"
    },
    {
      "id": "note-1155",
      "midi": 69,
      "start": 406.0,
      "duration": 4.0,
      "end": 410.0,
      "velocity": 80,
      "hand": "left",
      "interactive": false,
      "label": "69"
    },
    {
      "id": "note-1156",
      "midi": 67,
      "start": 406.11875,
      "duration": 3.877083,
      "end": 409.995833,
      "velocity": 80,
      "hand": "right",
      "interactive": true,
      "label": "67"
    },
    {
      "id": "note-1157",
      "midi": 69,
      "start": 406.239583,
      "duration": 3.75625,
      "end": 409.995833,
      "velocity": 80,
      "hand": "right",
      "interactive": true,
      "label": "69"
    },
    {
      "id": "note-1158",
      "midi": 72,
      "start": 406.3625,
      "duration": 3.633333,
      "end": 409.995833,
      "velocity": 80,
      "hand": "right",
      "interactive": true,
      "label": "72"
    }
  ]
}