{
  "id": "hua-hai",
  "title": "花海",
  "subtitle": "周杰伦",
  "sourceFile": "D:\\Download\\midi\\hua-hai-zhou-jie-lun.mid",
  "bpm": 80.0,
  "ticksPerBeat": 480,
  "durationSeconds": 247.5,
  "minMidi": 31,
  "maxMidi": 97,
  "rightHandCount": 556,
  "leftHandCount": 0,
  "noteCount": 556,
  "notes": [
    {
      "id": "note-0",
      "midi": 69,
      "start": 2.0,
      "duration": 0.497917,
      "end": 2.497917,
      "velocity": 80,
      "hand": "right",
      "interactive": true,
      "label": "69"
    },
    {
      "id": "note-1",
      "midi": 71,
      "start": 2.5,
      "duration": 0.497917,
      "end": 2.997917,
      "velocity": 80,
      "hand": "right",
      "interactive": true,
      "label": "71"
    },
    {
      "id": "note-2",
      "midi": 73,
      "start": 3.0,
      "duration": 0.497917,
      "end": 3.497917,
      "velocity": 80,
      "hand": "right",
      "interactive": true,
      "label": "73"
    },
    {
      "id": "note-3",
      "midi": 76,
      "start": 3.5,
      "duration": 0.247917,
      "end": 3.747917,
      "velocity": 80,
      "hand": "right",
      "interactive": true,
      "label": "76"
    },
    {
      "id": "note-4",
      "midi": 76,
      "start": 3.75,
      "duration": 2.247917,
      "end": 5.997917,
      "velocity": 80,
      "hand": "right",
      "interactive": true,
      "label": "76"
    },
    {
      "id": "note-5",
      "midi": 73,
      "start": 6.0,
      "duration": 0.497917,
      "end": 6.497917,
      "velocity": 80,
      "hand": "right",
      "interactive": true,
      "label": "73"
    },
    {
      "id": "note-6",
      "midi": 71,
      "start": 6.5,
      "duration": 0.497917,
      "end": 6.997917,
      "velocity": 80,
      "hand": "right",
      "interactive": true,
      "label": "71"
    },
    {
      "id": "note-7",
      "midi": 69,
      "start": 7.0,
      "duration": 0.497917,
      "end": 7.497917,
      "velocity": 80,
      "hand": "right",
      "interactive": true,
      "label": "69"
    },
    {
      "id": "note-8",
      "midi": 71,
      "start": 7.5,
      "duration": 0.247917,
      "end": 7.747917,
      "velocity": 80,
      "hand": "right",
      "interactive": true,
      "label": "71"
    },
    {
      "id": "note-9",
      "midi": 73,
      "start": 7.75,
      "duration": 2.247917,
      "end": 9.997917,
      "velocity": 80,
      "hand": "right",
      "interactive": true,
      "label": "73"
    },
    {
      "id": "note-10",
      "midi": 69,
      "start": 10.0,
      "duration": 0.497917,
      "end": 10.497917,
      "velocity": 80,
      "hand": "right",
      "interactive": true,
      "label": "69"
    },
    {
      "id": "note-11",
      "midi": 71,
      "start": 10.5,
      "duration": 0.497917,
      "end": 10.997917,
      "velocity": 80,
      "hand": "right",
      "interactive": true,
      "label": "71"
    },
    {
      "id": "note-12",
      "midi": 73,
      "start": 11.0,
      "duration": 0.497917,
      "end": 11.497917,
      "velocity": 80,
      "hand": "right",
      "interactive": true,
      "label": "73"
    },
    {
      "id": "note-13",
      "midi": 81,
      "start": 11.5,
      "duration": 0.247917,
      "end": 11.747917,
      "velocity": 80,
      "hand": "right",
      "interactive": true,
      "label": "81"
    },
    {
      "id": "note-14",
      "midi": 81,
      "start": 11.75,
      "duration": 0.497917,
      "end": 12.247917,
      "velocity": 80,
      "hand": "right",
      "interactive": true,
      "label": "81"
    },
    {
      "id": "note-15",
      "midi": 80,
      "start": 12.25,
      "duration": 0.247917,
      "end": 12.497917,
      "velocity": 80,
      "hand": "right",
      "interactive": true,
      "label": "80"
    },
    {
      "id": "note-16",
      "midi": 81,
      "start": 12.5,
      "duration": 0.997917,
      "end": 13.497917,
      "velocity": 80,
      "hand": "right",
      "interactive": true,
      "label": "81"
    },
    {
      "id": "note-17",
      "midi": 81,
      "start": 13.5,
      "duration": 0.497917,
      "end": 13.997917,
      "velocity": 80,
      "hand": "right",
      "interactive": true,
      "label": "81"
    },
    {
      "id": "note-18",
      "midi": 80,
      "start": 14.0,
      "duration": 0.497917,
      "end": 14.497917,
      "velocity": 80,
      "hand": "right",
      "interactive": true,
      "label": "80"
    },
    {
      "id": "note-19",
      "midi": 81,
      "start": 14.5,
      "duration": 0.247917,
      "end": 14.747917,
      "velocity": 80,
      "hand": "right",
      "interactive": true,
      "label": "81"
    },
    {
      "id": "note-20",
      "midi": 80,
      "start": 14.75,
      "duration": 0.747917,
      "end": 15.497917,
      "velocity": 80,
      "hand": "right",
      "interactive": true,
      "label": "80"
    },
    {
      "id": "note-21",
      "midi": 76,
      "start": 15.5,
      "duration": 0.247917,
      "end": 15.747917,
      "velocity": 80,
      "hand": "right",
      "interactive": true,
      "label": "76"
    },
    {
      "id": "note-22",
      "midi": 78,
      "start": 15.75,
      "duration": 0.747917,
      "end": 16.497917,
      "velocity": 80,
      "hand": "right",
      "interactive": true,
      "label": "78"
    },
    {
      "id": "note-23",
      "midi": 76,
      "start": 16.5,
      "duration": 0.497917,
      "end": 16.997917,
      "velocity": 80,
      "hand": "right",
      "interactive": true,
      "label": "76"
    },
    {
      "id": "note-24",
      "midi": 69,
      "start": 17.0,
      "duration": 0.497917,
      "end": 17.497917,
      "velocity": 80,
      "hand": "right",
      "interactive": true,
      "label": "69"
    },
    {
      "id": "note-25",
      "midi": 73,
      "start": 17.0,
      "duration": 0.497917,
      "end": 17.497917,
      "velocity": 80,
      "hand": "right",
      "interactive": true,
      "label": "73"
    },
    {
      "id": "note-26",
      "midi": 73,
      "start": 17.5,
      "duration": 0.497917,
      "end": 17.997917,
      "velocity": 80,
      "hand": "right",
      "interactive": true,
      "label": "73"
    },
    {
      "id": "note-27",
      "midi": 78,
      "start": 17.5,
      "duration": 0.497917,
      "end": 17.997917,
      "velocity": 80,
      "hand": "right",
      "interactive": true,
      "label": "78"
    },
    {
      "id": "note-28",
      "midi": 69,
      "start": 18.0,
      "duration": 0.497917,
      "end": 18.497917,
      "velocity": 80,
      "hand": "right",
      "interactive": true,
      "label": "69"
    },
    {
      "id": "note-29",
      "midi": 81,
      "start": 18.0,
      "duration": 0.497917,
      "end": 18.497917,
      "velocity": 80,
      "hand": "right",
      "interactive": true,
      "label": "81"
    },
    {
      "id": "note-30",
      "midi": 71,
      "start": 18.5,
      "duration": 0.497917,
      "end": 18.997917,
      "velocity": 80,
      "hand": "right",
      "interactive": true,
      "label": "71"
    },
    {
      "id": "note-31",
      "midi": 83,
      "start": 18.5,
      "duration": 0.497917,
      "end": 18.997917,
      "velocity": 80,
      "hand": "right",
      "interactive": true,
      "label": "83"
    },
    {
      "id": "note-32",
      "midi": 73,
      "start": 19.0,
      "duration": 0.497917,
      "end": 19.497917,
      "velocity": 80,
      "hand": "right",
      "interactive": true,
      "label": "73"
    },
    {
      "id": "note-33",
      "midi": 85,
      "start": 19.0,
      "duration": 0.497917,
      "end": 19.497917,
      "velocity": 80,
      "hand": "right",
      "interactive": true,
      "label": "85"
    },
    {
      "id": "note-34",
      "midi": 76,
      "start": 19.5,
      "duration": 0.247917,
      "end": 19.747917,
      "velocity": 80,
      "hand": "right",
      "interactive": true,
      "label": "76"
    },
    {
      "id": "note-35",
      "midi": 88,
      "start": 19.5,
      "duration": 0.247917,
      "end": 19.747917,
      "velocity": 80,
      "hand": "right",
      "interactive": true,
      "label": "88"
    },
    {
      "id": "note-36",
      "midi": 76,
      "start": 19.75,
      "duration": 2.247917,
      "end": 21.997917,
      "velocity": 80,
      "hand": "right",
      "interactive": true,
      "label": "76"
    },
    {
      "id": "note-37",
      "midi": 81,
      "start": 19.75,
      "duration": 2.247917,
      "end": 21.997917,
      "velocity": 80,
      "hand": "right",
      "interactive": true,
      "label": "81"
    },
    {
      "id": "note-38",
      "midi": 88,
      "start": 19.75,
      "duration": 2.247917,
      "end": 21.997917,
      "velocity": 80,
      "hand": "right",
      "interactive": true,
      "label": "88"
    },
    {
      "id": "note-39",
      "midi": 73,
      "start": 22.0,
      "duration": 0.497917,
      "end": 22.497917,
      "velocity": 80,
      "hand": "right",
      "interactive": true,
      "label": "73"
    },
    {
      "id": "note-40",
      "midi": 85,
      "start": 22.0,
      "duration": 0.497917,
      "end": 22.497917,
      "velocity": 80,
      "hand": "right",
      "interactive": true,
      "label": "85"
    },
    {
      "id": "note-41",
      "midi": 71,
      "start": 22.5,
      "duration": 0.497917,
      "end": 22.997917,
      "velocity": 80,
      "hand": "right",
      "interactive": true,
      "label": "71"
    },
    {
      "id": "note-42",
      "midi": 83,
      "start": 22.5,
      "duration": 0.497917,
      "end": 22.997917,
      "velocity": 80,
      "hand": "right",
      "interactive": true,
      "label": "83"
    },
    {
      "id": "note-43",
      "midi": 69,
      "start": 23.0,
      "duration": 0.497917,
      "end": 23.497917,
      "velocity": 80,
      "hand": "right",
      "interactive": true,
      "label": "69"
    },
    {
      "id": "note-44",
      "midi": 81,
      "start": 23.0,
      "duration": 0.497917,
      "end": 23.497917,
      "velocity": 80,
      "hand": "right",
      "interactive": true,
      "label": "81"
    },
    {
      "id": "note-45",
      "midi": 71,
      "start": 23.5,
      "duration": 0.247917,
      "end": 23.747917,
      "velocity": 80,
      "hand": "right",
      "interactive": true,
      "label": "71"
    },
    {
      "id": "note-46",
      "midi": 83,
      "start": 23.5,
      "duration": 0.247917,
      "end": 23.747917,
      "velocity": 80,
      "hand": "right",
      "interactive": true,
      "label": "83"
    },
    {
      "id": "note-47",
      "midi": 69,
      "start": 23.75,
      "duration": 0.497917,
      "end": 24.247917,
      "velocity": 80,
      "hand": "right",
      "interactive": true,
      "label": "69"
    },
    {
      "id": "note-48",
      "midi": 76,
      "start": 23.75,
      "duration": 0.497917,
      "end": 24.247917,
      "velocity": 80,
      "hand": "right",
      "interactive": true,
      "label": "76"
    },
    {
      "id": "note-49",
      "midi": 81,
      "start": 23.75,
      "duration": 0.497917,
      "end": 24.247917,
      "velocity": 80,
      "hand": "right",
      "interactive": true,
      "label": "81"
    },
    {
      "id": "note-50",
      "midi": 61,
      "start": 24.25,
      "duration": 0.247917,
      "end": 24.497917,
      "velocity": 80,
      "hand": "right",
      "interactive": true,
      "label": "61"
    },
    {
      "id": "note-51",
      "midi": 66,
      "start": 24.5,
      "duration": 0.247917,
      "end": 24.747917,
      "velocity": 80,
      "hand": "right",
      "interactive": true,
      "label": "66"
    },
    {
      "id": "note-52",
      "midi": 68,
      "start": 24.75,
      "duration": 0.247917,
      "end": 24.997917,
      "velocity": 80,
      "hand": "right",
      "interactive": true,
      "label": "68"
    },
    {
      "id": "note-53",
      "midi": 69,
      "start": 25.0,
      "duration": 0.247917,
      "end": 25.247917,
      "velocity": 80,
      "hand": "right",
      "interactive": true,
      "label": "69"
    },
    {
      "id": "note-54",
      "midi": 61,
      "start": 25.25,
      "duration": 0.247917,
      "end": 25.497917,
      "velocity": 80,
      "hand": "right",
      "interactive": true,
      "label": "61"
    },
    {
      "id": "note-55",
      "midi": 66,
      "start": 25.5,
      "duration": 0.247917,
      "end": 25.747917,
      "velocity": 80,
      "hand": "right",
      "interactive": true,
      "label": "66"
    },
    {
      "id": "note-56",
      "midi": 68,
      "start": 25.75,
      "duration": 0.247917,
      "end": 25.997917,
      "velocity": 80,
      "hand": "right",
      "interactive": true,
      "label": "68"
    },
    {
      "id": "note-57",
      "midi": 69,
      "start": 26.0,
      "duration": 1.997917,
      "end": 27.997917,
      "velocity": 80,
      "hand": "right",
      "interactive": true,
      "label": "69"
    },
    {
      "id": "note-58",
      "midi": 71,
      "start": 28.5,
      "duration": 0.497917,
      "end": 28.997917,
      "velocity": 80,
      "hand": "right",
      "interactive": true,
      "label": "71"
    },
    {
      "id": "note-59",
      "midi": 73,
      "start": 29.0,
      "duration": 0.497917,
      "end": 29.497917,
      "velocity": 80,
      "hand": "right",
      "interactive": true,
      "label": "73"
    },
    {
      "id": "note-60",
      "midi": 76,
      "start": 29.5,
      "duration": 0.247917,
      "end": 29.747917,
      "velocity": 80,
      "hand": "right",
      "interactive": true,
      "label": "76"
    },
    {
      "id": "note-61",
      "midi": 69,
      "start": 29.75,
      "duration": 1.747917,
      "end": 31.497917,
      "velocity": 80,
      "hand": "right",
      "interactive": true,
      "label": "69"
    },
    {
      "id": "note-62",
      "midi": 69,
      "start": 31.5,
      "duration": 0.497917,
      "end": 31.997917,
      "velocity": 80,
      "hand": "right",
      "interactive": true,
      "label": "69"
    },
    {
      "id": "note-63",
      "midi": 69,
      "start": 32.0,
      "duration": 0.497917,
      "end": 32.497917,
      "velocity": 80,
      "hand": "right",
      "interactive": true,
      "label": "69"
    },
    {
      "id": "note-64",
      "midi": 68,
      "start": 32.5,
      "duration": 0.497917,
      "end": 32.997917,
      "velocity": 80,
      "hand": "right",
      "interactive": true,
      "label": "68"
    },
    {
      "id": "note-65",
      "midi": 66,
      "start": 33.0,
      "duration": 0.497917,
      "end": 33.497917,
      "velocity": 80,
      "hand": "right",
      "interactive": true,
      "label": "66"
    },
    {
      "id": "note-66",
      "midi": 68,
      "start": 33.5,
      "duration": 0.247917,
      "end": 33.747917,
      "velocity": 80,
      "hand": "right",
      "interactive": true,
      "label": "68"
    },
    {
      "id": "note-67",
      "midi": 69,
      "start": 33.75,
      "duration": 1.247917,
      "end": 34.997917,
      "velocity": 80,
      "hand": "right",
      "interactive": true,
      "label": "69"
    },
    {
      "id": "note-68",
      "midi": 62,
      "start": 35.0,
      "duration": 0.497917,
      "end": 35.497917,
      "velocity": 80,
      "hand": "right",
      "interactive": true,
      "label": "62"
    },
    {
      "id": "note-69",
      "midi": 65,
      "start": 35.0,
      "duration": 0.497917,
      "end": 35.497917,
      "velocity": 80,
      "hand": "right",
      "interactive": true,
      "label": "65"
    },
    {
      "id": "note-70",
      "midi": 59,
      "start": 35.5,
      "duration": 0.497917,
      "end": 35.997917,
      "velocity": 80,
      "hand": "right",
      "interactive": true,
      "label": "59"
    },
    {
      "id": "note-71",
      "midi": 61,
      "start": 36.0,
      "duration": 0.997917,
      "end": 36.997917,
      "velocity": 80,
      "hand": "right",
      "interactive": true,
      "label": "61"
    },
    {
      "id": "note-72",
      "midi": 64,
      "start": 36.0,
      "duration": 0.997917,
      "end": 36.997917,
      "velocity": 80,
      "hand": "right",
      "interactive": true,
      "label": "64"
    },
    {
      "id": "note-73",
      "midi": 69,
      "start": 37.0,
      "duration": 0.247917,
      "end": 37.247917,
      "velocity": 80,
      "hand": "right",
      "interactive": true,
      "label": "69"
    },
    {
      "id": "note-74",
      "midi": 73,
      "start": 37.25,
      "duration": 0.747917,
      "end": 37.997917,
      "velocity": 80,
      "hand": "right",
      "interactive": true,
      "label": "73"
    },
    {
      "id": "note-75",
      "midi": 73,
      "start": 38.0,
      "duration": 1.997917,
      "end": 39.997917,
      "velocity": 80,
      "hand": "right",
      "interactive": true,
      "label": "73"
    },
    {
      "id": "note-76",
      "midi": 73,
      "start": 40.0,
      "duration": 0.497917,
      "end": 40.497917,
      "velocity": 80,
      "hand": "right",
      "interactive": true,
      "label": "73"
    },
    {
      "id": "note-77",
      "midi": 71,
      "start": 40.5,
      "duration": 0.497917,
      "end": 40.997917,
      "velocity": 80,
      "hand": "right",
      "interactive": true,
      "label": "71"
    },
    {
      "id": "note-78",
      "midi": 69,
      "start": 41.0,
      "duration": 0.497917,
      "end": 41.497917,
      "velocity": 80,
      "hand": "right",
      "interactive": true,
      "label": "69"
    },
    {
      "id": "note-79",
      "midi": 71,
      "start": 41.5,
      "duration": 0.997917,
      "end": 42.497917,
      "velocity": 80,
      "hand": "right",
      "interactive": true,
      "label": "71"
    },
    {
      "id": "note-80",
      "midi": 73,
      "start": 42.5,
      "duration": 1.497917,
      "end": 43.997917,
      "velocity": 80,
      "hand": "right",
      "interactive": true,
      "label": "73"
    },
    {
      "id": "note-81",
      "midi": 69,
      "start": 45.0,
      "duration": 0.247917,
      "end": 45.247917,
      "velocity": 80,
      "hand": "right",
      "interactive": true,
      "label": "69"
    },
    {
      "id": "note-82",
      "midi": 73,
      "start": 45.25,
      "duration": 0.747917,
      "end": 45.997917,
      "velocity": 80,
      "hand": "right",
      "interactive": true,
      "label": "73"
    },
    {
      "id": "note-83",
      "midi": 73,
      "start": 46.0,
      "duration": 1.997917,
      "end": 47.997917,
      "velocity": 80,
      "hand": "right",
      "interactive": true,
      "label": "73"
    },
    {
      "id": "note-84",
      "midi": 74,
      "start": 48.0,
      "duration": 0.497917,
      "end": 48.497917,
      "velocity": 80,
      "hand": "right",
      "interactive": true,
      "label": "74"
    },
    {
      "id": "note-85",
      "midi": 73,
      "start": 48.5,
      "duration": 0.497917,
      "end": 48.997917,
      "velocity": 80,
      "hand": "right",
      "interactive": true,
      "label": "73"
    },
    {
      "id": "note-86",
      "midi": 76,
      "start": 49.0,
      "duration": 0.747917,
      "end": 49.747917,
      "velocity": 80,
      "hand": "right",
      "interactive": true,
      "label": "76"
    },
    {
      "id": "note-87",
      "midi": 69,
      "start": 49.75,
      "duration": 2.247917,
      "end": 51.997917,
      "velocity": 80,
      "hand": "right",
      "interactive": true,
      "label": "69"
    },
    {
      "id": "note-88",
      "midi": 69,
      "start": 53.0,
      "duration": 0.247917,
      "end": 53.247917,
      "velocity": 80,
      "hand": "right",
      "interactive": true,
      "label": "69"
    },
    {
      "id": "note-89",
      "midi": 74,
      "start": 53.25,
      "duration": 0.747917,
      "end": 53.997917,
      "velocity": 80,
      "hand": "right",
      "interactive": true,
      "label": "74"
    },
    {
      "id": "note-90",
      "midi": 74,
      "start": 54.0,
      "duration": 1.997917,
      "end": 55.997917,
      "velocity": 80,
      "hand": "right",
      "interactive": true,
      "label": "74"
    },
    {
      "id": "note-91",
      "midi": 74,
      "start": 56.0,
      "duration": 0.497917,
      "end": 56.497917,
      "velocity": 80,
      "hand": "right",
      "interactive": true,
      "label": "74"
    },
    {
      "id": "note-92",
      "midi": 73,
      "start": 56.5,
      "duration": 0.497917,
      "end": 56.997917,
      "velocity": 80,
      "hand": "right",
      "interactive": true,
      "label": "73"
    },
    {
      "id": "note-93",
      "midi": 69,
      "start": 57.0,
      "duration": 0.497917,
      "end": 57.497917,
      "velocity": 80,
      "hand": "right",
      "interactive": true,
      "label": "69"
    },
    {
      "id": "note-94",
      "midi": 64,
      "start": 57.5,
      "duration": 0.997917,
      "end": 58.497917,
      "velocity": 80,
      "hand": "right",
      "interactive": true,
      "label": "64"
    },
    {
      "id": "note-95",
      "midi": 73,
      "start": 58.5,
      "duration": 1.497917,
      "end": 59.997917,
      "velocity": 80,
      "hand": "right",
      "interactive": true,
      "label": "73"
    },
    {
      "id": "note-96",
      "midi": 69,
      "start": 61.0,
      "duration": 0.247917,
      "end": 61.247917,
      "velocity": 80,
      "hand": "right",
      "interactive": true,
      "label": "69"
    },
    {
      "id": "note-97",
      "midi": 73,
      "start": 61.25,
      "duration": 0.497917,
      "end": 61.747917,
      "velocity": 80,
      "hand": "right",
      "interactive": true,
      "label": "73"
    },
    {
      "id": "note-98",
      "midi": 71,
      "start": 61.75,
      "duration": 1.247917,
      "end": 62.997917,
      "velocity": 80,
      "hand": "right",
      "interactive": true,
      "label": "71"
    },
    {
      "id": "note-99",
      "midi": 69,
      "start": 63.0,
      "duration": 0.247917,
      "end": 63.247917,
      "velocity": 80,
      "hand": "right",
      "interactive": true,
      "label": "69"
    },
    {
      "id": "note-100",
      "midi": 73,
      "start": 63.25,
      "duration": 0.497917,
      "end": 63.747917,
      "velocity": 80,
      "hand": "right",
      "interactive": true,
      "label": "73"
    },
    {
      "id": "note-101",
      "midi": 71,
      "start": 63.75,
      "duration": 1.247917,
      "end": 64.997917,
      "velocity": 80,
      "hand": "right",
      "interactive": true,
      "label": "71"
    },
    {
      "id": "note-102",
      "midi": 69,
      "start": 65.0,
      "duration": 0.247917,
      "end": 65.247917,
      "velocity": 80,
      "hand": "right",
      "interactive": true,
      "label": "69"
    },
    {
      "id": "note-103",
      "midi": 73,
      "start": 65.25,
      "duration": 0.497917,
      "end": 65.747917,
      "velocity": 80,
      "hand": "right",
      "interactive": true,
      "label": "73"
    },
    {
      "id": "note-104",
      "midi": 71,
      "start": 65.75,
      "duration": 1.247917,
      "end": 66.997917,
      "velocity": 80,
      "hand": "right",
      "interactive": true,
      "label": "71"
    },
    {
      "id": "note-105",
      "midi": 69,
      "start": 67.0,
      "duration": 0.997917,
      "end": 67.997917,
      "velocity": 80,
      "hand": "right",
      "interactive": true,
      "label": "69"
    },
    {
      "id": "note-106",
      "midi": 68,
      "start": 68.0,
      "duration": 0.997917,
      "end": 68.997917,
      "velocity": 80,
      "hand": "right",
      "interactive": true,
      "label": "68"
    },
    {
      "id": "note-107",
      "midi": 69,
      "start": 69.0,
      "duration": 0.247917,
      "end": 69.247917,
      "velocity": 80,
      "hand": "right",
      "interactive": true,
      "label": "69"
    },
    {
      "id": "note-108",
      "midi": 73,
      "start": 69.25,
      "duration": 0.747917,
      "end": 69.997917,
      "velocity": 80,
      "hand": "right",
      "interactive": true,
      "label": "73"
    },
    {
      "id": "note-109",
      "midi": 64,
      "start": 70.0,
      "duration": 1.997917,
      "end": 71.997917,
      "velocity": 80,
      "hand": "right",
      "interactive": true,
      "label": "64"
    },
    {
      "id": "note-110",
      "midi": 73,
      "start": 70.0,
      "duration": 1.997917,
      "end": 71.997917,
      "velocity": 80,
      "hand": "right",
      "interactive": true,
      "label": "73"
    },
    {
      "id": "note-111",
      "midi": 73,
      "start": 72.0,
      "duration": 0.497917,
      "end": 72.497917,
      "velocity": 80,
      "hand": "right",
      "interactive": true,
      "label": "73"
    },
    {
      "id": "note-112",
      "midi": 71,
      "start": 72.5,
      "duration": 0.497917,
      "end": 72.997917,
      "velocity": 80,
      "hand": "right",
      "interactive": true,
      "label": "71"
    },
    {
      "id": "note-113",
      "midi": 69,
      "start": 73.0,
      "duration": 0.497917,
      "end": 73.497917,
      "velocity": 80,
      "hand": "right",
      "interactive": true,
      "label": "69"
    },
    {
      "id": "note-114",
      "midi": 64,
      "start": 73.5,
      "duration": 0.997917,
      "end": 74.497917,
      "velocity": 80,
      "hand": "right",
      "interactive": true,
      "label": "64"
    },
    {
      "id": "note-115",
      "midi": 71,
      "start": 73.5,
      "duration": 0.997917,
      "end": 74.497917,
      "velocity": 80,
      "hand": "right",
      "interactive": true,
      "label": "71"
    },
    {
      "id": "note-116",
      "midi": 68,
      "start": 74.5,
      "duration": 1.497917,
      "end": 75.997917,
      "velocity": 80,
      "hand": "right",
      "interactive": true,
      "label": "68"
    },
    {
      "id": "note-117",
      "midi": 71,
      "start": 74.5,
      "duration": 1.497917,
      "end": 75.997917,
      "velocity": 80,
      "hand": "right",
      "interactive": true,
      "label": "71"
    },
    {
      "id": "note-118",
      "midi": 76,
      "start": 74.5,
      "duration": 1.497917,
      "end": 75.997917,
      "velocity": 80,
      "hand": "right",
      "interactive": true,
      "label": "76"
    },
    {
      "id": "note-119",
      "midi": 69,
      "start": 77.0,
      "duration": 0.247917,
      "end": 77.247917,
      "velocity": 80,
      "hand": "right",
      "interactive": true,
      "label": "69"
    },
    {
      "id": "note-120",
      "midi": 73,
      "start": 77.25,
      "duration": 0.747917,
      "end": 77.997917,
      "velocity": 80,
      "hand": "right",
      "interactive": true,
      "label": "73"
    },
    {
      "id": "note-121",
      "midi": 67,
      "start": 78.0,
      "duration": 1.997917,
      "end": 79.997917,
      "velocity": 80,
      "hand": "right",
      "interactive": true,
      "label": "67"
    },
    {
      "id": "note-122",
      "midi": 73,
      "start": 78.0,
      "duration": 1.997917,
      "end": 79.997917,
      "velocity": 80,
      "hand": "right",
      "interactive": true,
      "label": "73"
    },
    {
      "id": "note-123",
      "midi": 74,
      "start": 80.0,
      "duration": 0.497917,
      "end": 80.497917,
      "velocity": 80,
      "hand": "right",
      "interactive": true,
      "label": "74"
    },
    {
      "id": "note-124",
      "midi": 73,
      "start": 80.5,
      "duration": 0.497917,
      "end": 80.997917,
      "velocity": 80,
      "hand": "right",
      "interactive": true,
      "label": "73"
    },
    {
      "id": "note-125",
      "midi": 69,
      "start": 81.0,
      "duration": 0.997917,
      "end": 81.997917,
      "velocity": 80,
      "hand": "right",
      "interactive": true,
      "label": "69"
    },
    {
      "id": "note-126",
      "midi": 76,
      "start": 81.0,
      "duration": 0.997917,
      "end": 81.997917,
      "velocity": 80,
      "hand": "right",
      "interactive": true,
      "label": "76"
    },
    {
      "id": "note-127",
      "midi": 64,
      "start": 82.0,
      "duration": 1.75,
      "end": 83.75,
      "velocity": 80,
      "hand": "right",
      "interactive": true,
      "label": "64"
    },
    {
      "id": "note-128",
      "midi": 66,
      "start": 82.085417,
      "duration": 1.910417,
      "end": 83.995833,
      "velocity": 80,
      "hand": "right",
      "interactive": true,
      "label": "66"
    },
    {
      "id": "note-129",
      "midi": 69,
      "start": 82.175,
      "duration": 1.820833,
      "end": 83.995833,
      "velocity": 80,
      "hand": "right",
      "interactive": true,
      "label": "69"
    },
    {
      "id": "note-130",
      "midi": 69,
      "start": 85.0,
      "duration": 0.247917,
      "end": 85.247917,
      "velocity": 80,
      "hand": "right",
      "interactive": true,
      "label": "69"
    },
    {
      "id": "note-131",
      "midi": 74,
      "start": 85.25,
      "duration": 0.747917,
      "end": 85.997917,
      "velocity": 80,
      "hand": "right",
      "interactive": true,
      "label": "74"
    },
    {
      "id": "note-132",
      "midi": 69,
      "start": 86.0,
      "duration": 1.75,
      "end": 87.75,
      "velocity": 80,
      "hand": "right",
      "interactive": true,
      "label": "69"
    },
    {
      "id": "note-133",
      "midi": 74,
      "start": 86.0,
      "duration": 1.997917,
      "end": 87.997917,
      "velocity": 80,
      "hand": "right",
      "interactive": true,
      "label": "74"
    },
    {
      "id": "note-134",
      "midi": 74,
      "start": 88.0,
      "duration": 0.002083,
      "end": 88.002083,
      "velocity": 80,
      "hand": "right",
      "interactive": true,
      "label": "74"
    },
    {
      "id": "note-135",
      "midi": 73,
      "start": 88.5,
      "duration": 0.497917,
      "end": 88.997917,
      "velocity": 80,
      "hand": "right",
      "interactive": true,
      "label": "73"
    },
    {
      "id": "note-136",
      "midi": 69,
      "start": 89.0,
      "duration": 0.497917,
      "end": 89.497917,
      "velocity": 80,
      "hand": "right",
      "interactive": true,
      "label": "69"
    },
    {
      "id": "note-137",
      "midi": 73,
      "start": 89.5,
      "duration": 0.997917,
      "end": 90.497917,
      "velocity": 80,
      "hand": "right",
      "interactive": true,
      "label": "73"
    },
    {
      "id": "note-138",
      "midi": 76,
      "start": 89.5,
      "duration": 0.997917,
      "end": 90.497917,
      "velocity": 80,
      "hand": "right",
      "interactive": true,
      "label": "76"
    },
    {
      "id": "note-139",
      "midi": 69,
      "start": 90.5,
      "duration": 0.997917,
      "end": 91.497917,
      "velocity": 80,
      "hand": "right",
      "interactive": true,
      "label": "69"
    },
    {
      "id": "note-140",
      "midi": 73,
      "start": 90.5,
      "duration": 0.997917,
      "end": 91.497917,
      "velocity": 80,
      "hand": "right",
      "interactive": true,
      "label": "73"
    },
    {
      "id": "note-141",
      "midi": 73,
      "start": 91.5,
      "duration": 2.497917,
      "end": 93.997917,
      "velocity": 80,
      "hand": "right",
      "interactive": true,
      "label": "73"
    },
    {
      "id": "note-142",
      "midi": 78,
      "start": 91.5,
      "duration": 2.497917,
      "end": 93.997917,
      "velocity": 80,
      "hand": "right",
      "interactive": true,
      "label": "78"
    },
    {
      "id": "note-143",
      "midi": 81,
      "start": 91.5,
      "duration": 2.497917,
      "end": 93.997917,
      "velocity": 80,
      "hand": "right",
      "interactive": true,
      "label": "81"
    },
    {
      "id": "note-144",
      "midi": 71,
      "start": 94.0,
      "duration": 0.497917,
      "end": 94.497917,
      "velocity": 80,
      "hand": "right",
      "interactive": true,
      "label": "71"
    },
    {
      "id": "note-145",
      "midi": 76,
      "start": 94.0,
      "duration": 0.497917,
      "end": 94.497917,
      "velocity": 80,
      "hand": "right",
      "interactive": true,
      "label": "76"
    },
    {
      "id": "note-146",
      "midi": 74,
      "start": 94.5,
      "duration": 0.497917,
      "end": 94.997917,
      "velocity": 80,
      "hand": "right",
      "interactive": true,
      "label": "74"
    },
    {
      "id": "note-147",
      "midi": 73,
      "start": 95.0,
      "duration": 0.497917,
      "end": 95.497917,
      "velocity": 80,
      "hand": "right",
      "interactive": true,
      "label": "73"
    },
    {
      "id": "note-148",
      "midi": 69,
      "start": 95.5,
      "duration": 0.497917,
      "end": 95.997917,
      "velocity": 80,
      "hand": "right",
      "interactive": true,
      "label": "69"
    },
    {
      "id": "note-149",
      "midi": 64,
      "start": 96.0,
      "duration": 0.997917,
      "end": 96.997917,
      "velocity": 80,
      "hand": "right",
      "interactive": true,
      "label": "64"
    },
    {
      "id": "note-150",
      "midi": 69,
      "start": 96.0,
      "duration": 0.997917,
      "end": 96.997917,
      "velocity": 80,
      "hand": "right",
      "interactive": true,
      "label": "69"
    },
    {
      "id": "note-151",
      "midi": 64,
      "start": 97.0,
      "duration": 0.497917,
      "end": 97.497917,
      "velocity": 80,
      "hand": "right",
      "interactive": true,
      "label": "64"
    },
    {
      "id": "note-152",
      "midi": 68,
      "start": 97.0,
      "duration": 0.497917,
      "end": 97.497917,
      "velocity": 80,
      "hand": "right",
      "interactive": true,
      "label": "68"
    },
    {
      "id": "note-153",
      "midi": 64,
      "start": 97.5,
      "duration": 2.497917,
      "end": 99.997917,
      "velocity": 80,
      "hand": "right",
      "interactive": true,
      "label": "64"
    },
    {
      "id": "note-154",
      "midi": 69,
      "start": 97.5,
      "duration": 2.497917,
      "end": 99.997917,
      "velocity": 80,
      "hand": "right",
      "interactive": true,
      "label": "69"
    },
    {
      "id": "note-155",
      "midi": 69,
      "start": 100.0,
      "duration": 0.497917,
      "end": 100.497917,
      "velocity": 80,
      "hand": "right",
      "interactive": true,
      "label": "69"
    },
    {
      "id": "note-156",
      "midi": 71,
      "start": 100.5,
      "duration": 0.497917,
      "end": 100.997917,
      "velocity": 80,
      "hand": "right",
      "interactive": true,
      "label": "71"
    },
    {
      "id": "note-157",
      "midi": 73,
      "start": 101.0,
      "duration": 0.497917,
      "end": 101.497917,
      "velocity": 80,
      "hand": "right",
      "interactive": true,
      "label": "73"
    },
    {
      "id": "note-158",
      "midi": 76,
      "start": 101.5,
      "duration": 0.247917,
      "end": 101.747917,
      "velocity": 80,
      "hand": "right",
      "interactive": true,
      "label": "76"
    },
    {
      "id": "note-159",
      "midi": 69,
      "start": 101.75,
      "duration": 2.247917,
      "end": 103.997917,
      "velocity": 80,
      "hand": "right",
      "interactive": true,
      "label": "69"
    },
    {
      "id": "note-160",
      "midi": 76,
      "start": 101.75,
      "duration": 2.247917,
      "end": 103.997917,
      "velocity": 80,
      "hand": "right",
      "interactive": true,
      "label": "76"
    },
    {
      "id": "note-161",
      "midi": 64,
      "start": 104.0,
      "duration": 0.497917,
      "end": 104.497917,
      "velocity": 80,
      "hand": "right",
      "interactive": true,
      "label": "64"
    },
    {
      "id": "note-162",
      "midi": 73,
      "start": 104.0,
      "duration": 0.497917,
      "end": 104.497917,
      "velocity": 80,
      "hand": "right",
      "interactive": true,
      "label": "73"
    },
    {
      "id": "note-163",
      "midi": 71,
      "start": 104.5,
      "duration": 0.497917,
      "end": 104.997917,
      "velocity": 80,
      "hand": "right",
      "interactive": true,
      "label": "71"
    },
    {
      "id": "note-164",
      "midi": 69,
      "start": 105.0,
      "duration": 0.497917,
      "end": 105.497917,
      "velocity": 80,
      "hand": "right",
      "interactive": true,
      "label": "69"
    },
    {
      "id": "note-165",
      "midi": 71,
      "start": 105.5,
      "duration": 0.247917,
      "end": 105.747917,
      "velocity": 80,
      "hand": "right",
      "interactive": true,
      "label": "71"
    },
    {
      "id": "note-166",
      "midi": 69,
      "start": 105.75,
      "duration": 2.247917,
      "end": 107.997917,
      "velocity": 80,
      "hand": "right",
      "interactive": true,
      "label": "69"
    },
    {
      "id": "note-167",
      "midi": 73,
      "start": 105.75,
      "duration": 2.247917,
      "end": 107.997917,
      "velocity": 80,
      "hand": "right",
      "interactive": true,
      "label": "73"
    },
    {
      "id": "note-168",
      "midi": 69,
      "start": 108.0,
      "duration": 0.497917,
      "end": 108.497917,
      "velocity": 80,
      "hand": "right",
      "interactive": true,
      "label": "69"
    },
    {
      "id": "note-169",
      "midi": 71,
      "start": 108.5,
      "duration": 0.497917,
      "end": 108.997917,
      "velocity": 80,
      "hand": "right",
      "interactive": true,
      "label": "71"
    },
    {
      "id": "note-170",
      "midi": 73,
      "start": 109.0,
      "duration": 0.497917,
      "end": 109.497917,
      "velocity": 80,
      "hand": "right",
      "interactive": true,
      "label": "73"
    },
    {
      "id": "note-171",
      "midi": 81,
      "start": 109.5,
      "duration": 0.247917,
      "end": 109.747917,
      "velocity": 80,
      "hand": "right",
      "interactive": true,
      "label": "81"
    },
    {
      "id": "note-172",
      "midi": 76,
      "start": 109.75,
      "duration": 0.497917,
      "end": 110.247917,
      "velocity": 80,
      "hand": "right",
      "interactive": true,
      "label": "76"
    },
    {
      "id": "note-173",
      "midi": 81,
      "start": 109.75,
      "duration": 0.497917,
      "end": 110.247917,
      "velocity": 80,
      "hand": "right",
      "interactive": true,
      "label": "81"
    },
    {
      "id": "note-174",
      "midi": 80,
      "start": 110.25,
      "duration": 0.247917,
      "end": 110.497917,
      "velocity": 80,
      "hand": "right",
      "interactive": true,
      "label": "80"
    },
    {
      "id": "note-175",
      "midi": 74,
      "start": 110.5,
      "duration": 0.997917,
      "end": 111.497917,
      "velocity": 80,
      "hand": "right",
      "interactive": true,
      "label": "74"
    },
    {
      "id": "note-176",
      "midi": 81,
      "start": 110.5,
      "duration": 0.997917,
      "end": 111.497917,
      "velocity": 80,
      "hand": "right",
      "interactive": true,
      "label": "81"
    },
    {
      "id": "note-177",
      "midi": 81,
      "start": 111.5,
      "duration": 0.497917,
      "end": 111.997917,
      "velocity": 80,
      "hand": "right",
      "interactive": true,
      "label": "81"
    },
    {
      "id": "note-178",
      "midi": 76,
      "start": 112.0,
      "duration": 0.497917,
      "end": 112.497917,
      "velocity": 80,
      "hand": "right",
      "interactive": true,
      "label": "76"
    },
    {
      "id": "note-179",
      "midi": 80,
      "start": 112.0,
      "duration": 0.497917,
      "end": 112.497917,
      "velocity": 80,
      "hand": "right",
      "interactive": true,
      "label": "80"
    },
    {
      "id": "note-180",
      "midi": 78,
      "start": 112.5,
      "duration": 0.247917,
      "end": 112.747917,
      "velocity": 80,
      "hand": "right",
      "interactive": true,
      "label": "78"
    },
    {
      "id": "note-181",
      "midi": 76,
      "start": 112.75,
      "duration": 0.747917,
      "end": 113.497917,
      "velocity": 80,
      "hand": "right",
      "interactive": true,
      "label": "76"
    },
    {
      "id": "note-182",
      "midi": 78,
      "start": 113.5,
      "duration": 0.247917,
      "end": 113.747917,
      "velocity": 80,
      "hand": "right",
      "interactive": true,
      "label": "78"
    },
    {
      "id": "note-183",
      "midi": 69,
      "start": 113.75,
      "duration": 0.747917,
      "end": 114.497917,
      "velocity": 80,
      "hand": "right",
      "interactive": true,
      "label": "69"
    },
    {
      "id": "note-184",
      "midi": 78,
      "start": 113.75,
      "duration": 0.747917,
      "end": 114.497917,
      "velocity": 80,
      "hand": "right",
      "interactive": true,
      "label": "78"
    },
    {
      "id": "note-185",
      "midi": 69,
      "start": 114.5,
      "duration": 1.497917,
      "end": 115.997917,
      "velocity": 80,
      "hand": "right",
      "interactive": true,
      "label": "69"
    },
    {
      "id": "note-186",
      "midi": 76,
      "start": 114.5,
      "duration": 1.497917,
      "end": 115.997917,
      "velocity": 80,
      "hand": "right",
      "interactive": true,
      "label": "76"
    },
    {
      "id": "note-187",
      "midi": 69,
      "start": 116.0,
      "duration": 0.497917,
      "end": 116.497917,
      "velocity": 80,
      "hand": "right",
      "interactive": true,
      "label": "69"
    },
    {
      "id": "note-188",
      "midi": 71,
      "start": 116.5,
      "duration": 0.497917,
      "end": 116.997917,
      "velocity": 80,
      "hand": "right",
      "interactive": true,
      "label": "71"
    },
    {
      "id": "note-189",
      "midi": 73,
      "start": 117.0,
      "duration": 0.497917,
      "end": 117.497917,
      "velocity": 80,
      "hand": "right",
      "interactive": true,
      "label": "73"
    },
    {
      "id": "note-190",
      "midi": 76,
      "start": 117.5,
      "duration": 0.247917,
      "end": 117.747917,
      "velocity": 80,
      "hand": "right",
      "interactive": true,
      "label": "76"
    },
    {
      "id": "note-191",
      "midi": 69,
      "start": 117.75,
      "duration": 2.247917,
      "end": 119.997917,
      "velocity": 80,
      "hand": "right",
      "interactive": true,
      "label": "69"
    },
    {
      "id": "note-192",
      "midi": 76,
      "start": 117.75,
      "duration": 2.247917,
      "end": 119.997917,
      "velocity": 80,
      "hand": "right",
      "interactive": true,
      "label": "76"
    },
    {
      "id": "note-193",
      "midi": 68,
      "start": 120.0,
      "duration": 0.497917,
      "end": 120.497917,
      "velocity": 80,
      "hand": "right",
      "interactive": true,
      "label": "68"
    },
    {
      "id": "note-194",
      "midi": 73,
      "start": 120.0,
      "duration": 0.497917,
      "end": 120.497917,
      "velocity": 80,
      "hand": "right",
      "interactive": true,
      "label": "73"
    },
    {
      "id": "note-195",
      "midi": 71,
      "start": 120.5,
      "duration": 0.497917,
      "end": 120.997917,
      "velocity": 80,
      "hand": "right",
      "interactive": true,
      "label": "71"
    },
    {
      "id": "note-196",
      "midi": 69,
      "start": 121.0,
      "duration": 0.497917,
      "end": 121.497917,
      "velocity": 80,
      "hand": "right",
      "interactive": true,
      "label": "69"
    },
    {
      "id": "note-197",
      "midi": 71,
      "start": 121.5,
      "duration": 0.247917,
      "end": 121.747917,
      "velocity": 80,
      "hand": "right",
      "interactive": true,
      "label": "71"
    },
    {
      "id": "note-198",
      "midi": 69,
      "start": 121.75,
      "duration": 2.247917,
      "end": 123.997917,
      "velocity": 80,
      "hand": "right",
      "interactive": true,
      "label": "69"
    },
    {
      "id": "note-199",
      "midi": 69,
      "start": 124.0,
      "duration": 0.497917,
      "end": 124.497917,
      "velocity": 80,
      "hand": "right",
      "interactive": true,
      "label": "69"
    },
    {
      "id": "note-200",
      "midi": 71,
      "start": 124.5,
      "duration": 0.497917,
      "end": 124.997917,
      "velocity": 80,
      "hand": "right",
      "interactive": true,
      "label": "71"
    },
    {
      "id": "note-201",
      "midi": 73,
      "start": 125.0,
      "duration": 0.497917,
      "end": 125.497917,
      "velocity": 80,
      "hand": "right",
      "interactive": true,
      "label": "73"
    },
    {
      "id": "note-202",
      "midi": 76,
      "start": 125.5,
      "duration": 0.497917,
      "end": 125.997917,
      "velocity": 80,
      "hand": "right",
      "interactive": true,
      "label": "76"
    },
    {
      "id": "note-203",
      "midi": 71,
      "start": 126.0,
      "duration": 0.497917,
      "end": 126.497917,
      "velocity": 80,
      "hand": "right",
      "interactive": true,
      "label": "71"
    },
    {
      "id": "note-204",
      "midi": 76,
      "start": 126.0,
      "duration": 0.497917,
      "end": 126.497917,
      "velocity": 80,
      "hand": "right",
      "interactive": true,
      "label": "76"
    },
    {
      "id": "note-205",
      "midi": 71,
      "start": 126.5,
      "duration": 0.497917,
      "end": 126.997917,
      "velocity": 80,
      "hand": "right",
      "interactive": true,
      "label": "71"
    },
    {
      "id": "note-206",
      "midi": 74,
      "start": 126.5,
      "duration": 0.497917,
      "end": 126.997917,
      "velocity": 80,
      "hand": "right",
      "interactive": true,
      "label": "74"
    },
    {
      "id": "note-207",
      "midi": 71,
      "start": 127.0,
      "duration": 0.497917,
      "end": 127.497917,
      "velocity": 80,
      "hand": "right",
      "interactive": true,
      "label": "71"
    },
    {
      "id": "note-208",
      "midi": 74,
      "start": 127.0,
      "duration": 0.497917,
      "end": 127.497917,
      "velocity": 80,
      "hand": "right",
      "interactive": true,
      "label": "74"
    },
    {
      "id": "note-209",
      "midi": 73,
      "start": 127.5,
      "duration": 0.497917,
      "end": 127.997917,
      "velocity": 80,
      "hand": "right",
      "interactive": true,
      "label": "73"
    },
    {
      "id": "note-210",
      "midi": 71,
      "start": 128.0,
      "duration": 0.997917,
      "end": 128.997917,
      "velocity": 80,
      "hand": "right",
      "interactive": true,
      "label": "71"
    },
    {
      "id": "note-211",
      "midi": 78,
      "start": 128.0,
      "duration": 0.997917,
      "end": 128.997917,
      "velocity": 80,
      "hand": "right",
      "interactive": true,
      "label": "78"
    },
    {
      "id": "note-212",
      "midi": 81,
      "start": 128.0,
      "duration": 0.997917,
      "end": 128.997917,
      "velocity": 80,
      "hand": "right",
      "interactive": true,
      "label": "81"
    },
    {
      "id": "note-213",
      "midi": 73,
      "start": 129.0,
      "duration": 0.497917,
      "end": 129.497917,
      "velocity": 80,
      "hand": "right",
      "interactive": true,
      "label": "73"
    },
    {
      "id": "note-214",
      "midi": 73,
      "start": 129.5,
      "duration": 0.997917,
      "end": 130.497917,
      "velocity": 80,
      "hand": "right",
      "interactive": true,
      "label": "73"
    },
    {
      "id": "note-215",
      "midi": 71,
      "start": 130.5,
      "duration": 0.997917,
      "end": 131.497917,
      "velocity": 80,
      "hand": "right",
      "interactive": true,
      "label": "71"
    },
    {
      "id": "note-216",
      "midi": 69,
      "start": 132.0,
      "duration": 0.497917,
      "end": 132.497917,
      "velocity": 80,
      "hand": "right",
      "interactive": true,
      "label": "69"
    },
    {
      "id": "note-217",
      "midi": 71,
      "start": 132.5,
      "duration": 0.497917,
      "end": 132.997917,
      "velocity": 80,
      "hand": "right",
      "interactive": true,
      "label": "71"
    },
    {
      "id": "note-218",
      "midi": 73,
      "start": 133.0,
      "duration": 0.497917,
      "end": 133.497917,
      "velocity": 80,
      "hand": "right",
      "interactive": true,
      "label": "73"
    },
    {
      "id": "note-219",
      "midi": 76,
      "start": 133.5,
      "duration": 0.247917,
      "end": 133.747917,
      "velocity": 80,
      "hand": "right",
      "interactive": true,
      "label": "76"
    },
    {
      "id": "note-220",
      "midi": 69,
      "start": 133.75,
      "duration": 2.247917,
      "end": 135.997917,
      "velocity": 80,
      "hand": "right",
      "interactive": true,
      "label": "69"
    },
    {
      "id": "note-221",
      "midi": 76,
      "start": 133.75,
      "duration": 2.247917,
      "end": 135.997917,
      "velocity": 80,
      "hand": "right",
      "interactive": true,
      "label": "76"
    },
    {
      "id": "note-222",
      "midi": 64,
      "start": 136.0,
      "duration": 0.497917,
      "end": 136.497917,
      "velocity": 80,
      "hand": "right",
      "interactive": true,
      "label": "64"
    },
    {
      "id": "note-223",
      "midi": 73,
      "start": 136.0,
      "duration": 0.497917,
      "end": 136.497917,
      "velocity": 80,
      "hand": "right",
      "interactive": true,
      "label": "73"
    },
    {
      "id": "note-224",
      "midi": 71,
      "start": 136.5,
      "duration": 0.497917,
      "end": 136.997917,
      "velocity": 80,
      "hand": "right",
      "interactive": true,
      "label": "71"
    },
    {
      "id": "note-225",
      "midi": 69,
      "start": 137.0,
      "duration": 0.497917,
      "end": 137.497917,
      "velocity": 80,
      "hand": "right",
      "interactive": true,
      "label": "69"
    },
    {
      "id": "note-226",
      "midi": 71,
      "start": 137.5,
      "duration": 0.247917,
      "end": 137.747917,
      "velocity": 80,
      "hand": "right",
      "interactive": true,
      "label": "71"
    },
    {
      "id": "note-227",
      "midi": 69,
      "start": 137.75,
      "duration": 2.247917,
      "end": 139.997917,
      "velocity": 80,
      "hand": "right",
      "interactive": true,
      "label": "69"
    },
    {
      "id": "note-228",
      "midi": 73,
      "start": 137.75,
      "duration": 2.247917,
      "end": 139.997917,
      "velocity": 80,
      "hand": "right",
      "interactive": true,
      "label": "73"
    },
    {
      "id": "note-229",
      "midi": 69,
      "start": 140.0,
      "duration": 0.497917,
      "end": 140.497917,
      "velocity": 80,
      "hand": "right",
      "interactive": true,
      "label": "69"
    },
    {
      "id": "note-230",
      "midi": 71,
      "start": 140.5,
      "duration": 0.497917,
      "end": 140.997917,
      "velocity": 80,
      "hand": "right",
      "interactive": true,
      "label": "71"
    },
    {
      "id": "note-231",
      "midi": 73,
      "start": 141.0,
      "duration": 0.497917,
      "end": 141.497917,
      "velocity": 80,
      "hand": "right",
      "interactive": true,
      "label": "73"
    },
    {
      "id": "note-232",
      "midi": 81,
      "start": 141.5,
      "duration": 0.247917,
      "end": 141.747917,
      "velocity": 80,
      "hand": "right",
      "interactive": true,
      "label": "81"
    },
    {
      "id": "note-233",
      "midi": 76,
      "start": 141.75,
      "duration": 0.497917,
      "end": 142.247917,
      "velocity": 80,
      "hand": "right",
      "interactive": true,
      "label": "76"
    },
    {
      "id": "note-234",
      "midi": 81,
      "start": 141.75,
      "duration": 0.497917,
      "end": 142.247917,
      "velocity": 80,
      "hand": "right",
      "interactive": true,
      "label": "81"
    },
    {
      "id": "note-235",
      "midi": 80,
      "start": 142.25,
      "duration": 0.247917,
      "end": 142.497917,
      "velocity": 80,
      "hand": "right",
      "interactive": true,
      "label": "80"
    },
    {
      "id": "note-236",
      "midi": 74,
      "start": 142.5,
      "duration": 0.997917,
      "end": 143.497917,
      "velocity": 80,
      "hand": "right",
      "interactive": true,
      "label": "74"
    },
    {
      "id": "note-237",
      "midi": 81,
      "start": 142.5,
      "duration": 0.997917,
      "end": 143.497917,
      "velocity": 80,
      "hand": "right",
      "interactive": true,
      "label": "81"
    },
    {
      "id": "note-238",
      "midi": 81,
      "start": 143.5,
      "duration": 0.497917,
      "end": 143.997917,
      "velocity": 80,
      "hand": "right",
      "interactive": true,
      "label": "81"
    },
    {
      "id": "note-239",
      "midi": 76,
      "start": 144.0,
      "duration": 0.497917,
      "end": 144.497917,
      "velocity": 80,
      "hand": "right",
      "interactive": true,
      "label": "76"
    },
    {
      "id": "note-240",
      "midi": 80,
      "start": 144.0,
      "duration": 0.497917,
      "end": 144.497917,
      "velocity": 80,
      "hand": "right",
      "interactive": true,
      "label": "80"
    },
    {
      "id": "note-241",
      "midi": 81,
      "start": 144.5,
      "duration": 0.247917,
      "end": 144.747917,
      "velocity": 80,
      "hand": "right",
      "interactive": true,
      "label": "81"
    },
    {
      "id": "note-242",
      "midi": 76,
      "start": 144.75,
      "duration": 0.747917,
      "end": 145.497917,
      "velocity": 80,
      "hand": "right",
      "interactive": true,
      "label": "76"
    },
    {
      "id": "note-243",
      "midi": 80,
      "start": 144.75,
      "duration": 0.747917,
      "end": 145.497917,
      "velocity": 80,
      "hand": "right",
      "interactive": true,
      "label": "80"
    },
    {
      "id": "note-244",
      "midi": 71,
      "start": 145.5,
      "duration": 0.247917,
      "end": 145.747917,
      "velocity": 80,
      "hand": "right",
      "interactive": true,
      "label": "71"
    },
    {
      "id": "note-245",
      "midi": 76,
      "start": 145.5,
      "duration": 0.247917,
      "end": 145.747917,
      "velocity": 80,
      "hand": "right",
      "interactive": true,
      "label": "76"
    },
    {
      "id": "note-246",
      "midi": 78,
      "start": 145.75,
      "duration": 0.747917,
      "end": 146.497917,
      "velocity": 80,
      "hand": "right",
      "interactive": true,
      "label": "78"
    },
    {
      "id": "note-247",
      "midi": 69,
      "start": 146.5,
      "duration": 1.497917,
      "end": 147.997917,
      "velocity": 80,
      "hand": "right",
      "interactive": true,
      "label": "69"
    },
    {
      "id": "note-248",
      "midi": 76,
      "start": 146.5,
      "duration": 1.497917,
      "end": 147.997917,
      "velocity": 80,
      "hand": "right",
      "interactive": true,
      "label": "76"
    },
    {
      "id": "note-249",
      "midi": 69,
      "start": 148.0,
      "duration": 0.497917,
      "end": 148.497917,
      "velocity": 80,
      "hand": "right",
      "interactive": true,
      "label": "69"
    },
    {
      "id": "note-250",
      "midi": 71,
      "start": 148.5,
      "duration": 0.497917,
      "end": 148.997917,
      "velocity": 80,
      "hand": "right",
      "interactive": true,
      "label": "71"
    },
    {
      "id": "note-251",
      "midi": 73,
      "start": 149.0,
      "duration": 0.497917,
      "end": 149.497917,
      "velocity": 80,
      "hand": "right",
      "interactive": true,
      "label": "73"
    },
    {
      "id": "note-252",
      "midi": 76,
      "start": 149.5,
      "duration": 0.247917,
      "end": 149.747917,
      "velocity": 80,
      "hand": "right",
      "interactive": true,
      "label": "76"
    },
    {
      "id": "note-253",
      "midi": 69,
      "start": 149.75,
      "duration": 2.247917,
      "end": 151.997917,
      "velocity": 80,
      "hand": "right",
      "interactive": true,
      "label": "69"
    },
    {
      "id": "note-254",
      "midi": 76,
      "start": 149.75,
      "duration": 2.247917,
      "end": 151.997917,
      "velocity": 80,
      "hand": "right",
      "interactive": true,
      "label": "76"
    },
    {
      "id": "note-255",
      "midi": 68,
      "start": 152.0,
      "duration": 0.497917,
      "end": 152.497917,
      "velocity": 80,
      "hand": "right",
      "interactive": true,
      "label": "68"
    },
    {
      "id": "note-256",
      "midi": 73,
      "start": 152.0,
      "duration": 0.497917,
      "end": 152.497917,
      "velocity": 80,
      "hand": "right",
      "interactive": true,
      "label": "73"
    },
    {
      "id": "note-257",
      "midi": 71,
      "start": 152.5,
      "duration": 0.497917,
      "end": 152.997917,
      "velocity": 80,
      "hand": "right",
      "interactive": true,
      "label": "71"
    },
    {
      "id": "note-258",
      "midi": 69,
      "start": 153.0,
      "duration": 0.497917,
      "end": 153.497917,
      "velocity": 80,
      "hand": "right",
      "interactive": true,
      "label": "69"
    },
    {
      "id": "note-259",
      "midi": 71,
      "start": 153.5,
      "duration": 0.247917,
      "end": 153.747917,
      "velocity": 80,
      "hand": "right",
      "interactive": true,
      "label": "71"
    },
    {
      "id": "note-260",
      "midi": 66,
      "start": 153.75,
      "duration": 2.247917,
      "end": 155.997917,
      "velocity": 80,
      "hand": "right",
      "interactive": true,
      "label": "66"
    },
    {
      "id": "note-261",
      "midi": 69,
      "start": 153.75,
      "duration": 2.247917,
      "end": 155.997917,
      "velocity": 80,
      "hand": "right",
      "interactive": true,
      "label": "69"
    },
    {
      "id": "note-262",
      "midi": 69,
      "start": 156.0,
      "duration": 0.497917,
      "end": 156.497917,
      "velocity": 80,
      "hand": "right",
      "interactive": true,
      "label": "69"
    },
    {
      "id": "note-263",
      "midi": 71,
      "start": 156.5,
      "duration": 0.497917,
      "end": 156.997917,
      "velocity": 80,
      "hand": "right",
      "interactive": true,
      "label": "71"
    },
    {
      "id": "note-264",
      "midi": 73,
      "start": 157.0,
      "duration": 0.497917,
      "end": 157.497917,
      "velocity": 80,
      "hand": "right",
      "interactive": true,
      "label": "73"
    },
    {
      "id": "note-265",
      "midi": 76,
      "start": 157.5,
      "duration": 0.247917,
      "end": 157.747917,
      "velocity": 80,
      "hand": "right",
      "interactive": true,
      "label": "76"
    },
    {
      "id": "note-266",
      "midi": 69,
      "start": 157.75,
      "duration": 2.247917,
      "end": 159.997917,
      "velocity": 80,
      "hand": "right",
      "interactive": true,
      "label": "69"
    },
    {
      "id": "note-267",
      "midi": 69,
      "start": 160.0,
      "duration": 0.497917,
      "end": 160.497917,
      "velocity": 80,
      "hand": "right",
      "interactive": true,
      "label": "69"
    },
    {
      "id": "note-268",
      "midi": 68,
      "start": 160.5,
      "duration": 0.497917,
      "end": 160.997917,
      "velocity": 80,
      "hand": "right",
      "interactive": true,
      "label": "68"
    },
    {
      "id": "note-269",
      "midi": 66,
      "start": 161.0,
      "duration": 0.497917,
      "end": 161.497917,
      "velocity": 80,
      "hand": "right",
      "interactive": true,
      "label": "66"
    },
    {
      "id": "note-270",
      "midi": 68,
      "start": 161.5,
      "duration": 0.247917,
      "end": 161.747917,
      "velocity": 80,
      "hand": "right",
      "interactive": true,
      "label": "68"
    },
    {
      "id": "note-271",
      "midi": 69,
      "start": 161.75,
      "duration": 2.247917,
      "end": 163.997917,
      "velocity": 80,
      "hand": "right",
      "interactive": true,
      "label": "69"
    },
    {
      "id": "note-272",
      "midi": 69,
      "start": 164.0,
      "duration": 0.497917,
      "end": 164.497917,
      "velocity": 80,
      "hand": "right",
      "interactive": true,
      "label": "69"
    },
    {
      "id": "note-273",
      "midi": 71,
      "start": 164.5,
      "duration": 0.497917,
      "end": 164.997917,
      "velocity": 80,
      "hand": "right",
      "interactive": true,
      "label": "71"
    },
    {
      "id": "note-274",
      "midi": 73,
      "start": 165.0,
      "duration": 0.497917,
      "end": 165.497917,
      "velocity": 80,
      "hand": "right",
      "interactive": true,
      "label": "73"
    },
    {
      "id": "note-275",
      "midi": 76,
      "start": 165.5,
      "duration": 0.247917,
      "end": 165.747917,
      "velocity": 80,
      "hand": "right",
      "interactive": true,
      "label": "76"
    },
    {
      "id": "note-276",
      "midi": 69,
      "start": 165.75,
      "duration": 1.747917,
      "end": 167.497917,
      "velocity": 80,
      "hand": "right",
      "interactive": true,
      "label": "69"
    },
    {
      "id": "note-277",
      "midi": 76,
      "start": 165.75,
      "duration": 1.747917,
      "end": 167.497917,
      "velocity": 80,
      "hand": "right",
      "interactive": true,
      "label": "76"
    },
    {
      "id": "note-278",
      "midi": 73,
      "start": 167.5,
      "duration": 0.497917,
      "end": 167.997917,
      "velocity": 80,
      "hand": "right",
      "interactive": true,
      "label": "73"
    },
    {
      "id": "note-279",
      "midi": 68,
      "start": 168.0,
      "duration": 1.497917,
      "end": 169.497917,
      "velocity": 80,
      "hand": "right",
      "interactive": true,
      "label": "68"
    },
    {
      "id": "note-280",
      "midi": 71,
      "start": 168.0,
      "duration": 1.497917,
      "end": 169.497917,
      "velocity": 80,
      "hand": "right",
      "interactive": true,
      "label": "71"
    },
    {
      "id": "note-281",
      "midi": 74,
      "start": 169.5,
      "duration": 0.497917,
      "end": 169.997917,
      "velocity": 80,
      "hand": "right",
      "interactive": true,
      "label": "74"
    },
    {
      "id": "note-282",
      "midi": 69,
      "start": 170.0,
      "duration": 0.997917,
      "end": 170.997917,
      "velocity": 80,
      "hand": "right",
      "interactive": true,
      "label": "69"
    },
    {
      "id": "note-283",
      "midi": 74,
      "start": 170.0,
      "duration": 0.997917,
      "end": 170.997917,
      "velocity": 80,
      "hand": "right",
      "interactive": true,
      "label": "74"
    },
    {
      "id": "note-284",
      "midi": 69,
      "start": 171.0,
      "duration": 0.997917,
      "end": 171.997917,
      "velocity": 80,
      "hand": "right",
      "interactive": true,
      "label": "69"
    },
    {
      "id": "note-285",
      "midi": 73,
      "start": 171.0,
      "duration": 0.997917,
      "end": 171.997917,
      "velocity": 80,
      "hand": "right",
      "interactive": true,
      "label": "73"
    },
    {
      "id": "note-286",
      "midi": 69,
      "start": 172.0,
      "duration": 0.497917,
      "end": 172.497917,
      "velocity": 80,
      "hand": "right",
      "interactive": true,
      "label": "69"
    },
    {
      "id": "note-287",
      "midi": 71,
      "start": 172.5,
      "duration": 0.497917,
      "end": 172.997917,
      "velocity": 80,
      "hand": "right",
      "interactive": true,
      "label": "71"
    },
    {
      "id": "note-288",
      "midi": 73,
      "start": 173.0,
      "duration": 0.497917,
      "end": 173.497917,
      "velocity": 80,
      "hand": "right",
      "interactive": true,
      "label": "73"
    },
    {
      "id": "note-289",
      "midi": 76,
      "start": 173.5,
      "duration": 0.247917,
      "end": 173.747917,
      "velocity": 80,
      "hand": "right",
      "interactive": true,
      "label": "76"
    },
    {
      "id": "note-290",
      "midi": 69,
      "start": 173.75,
      "duration": 1.747917,
      "end": 175.497917,
      "velocity": 80,
      "hand": "right",
      "interactive": true,
      "label": "69"
    },
    {
      "id": "note-291",
      "midi": 76,
      "start": 173.75,
      "duration": 1.747917,
      "end": 175.497917,
      "velocity": 80,
      "hand": "right",
      "interactive": true,
      "label": "76"
    },
    {
      "id": "note-292",
      "midi": 73,
      "start": 175.5,
      "duration": 0.497917,
      "end": 175.997917,
      "velocity": 80,
      "hand": "right",
      "interactive": true,
      "label": "73"
    },
    {
      "id": "note-293",
      "midi": 68,
      "start": 176.0,
      "duration": 1.497917,
      "end": 177.497917,
      "velocity": 80,
      "hand": "right",
      "interactive": true,
      "label": "68"
    },
    {
      "id": "note-294",
      "midi": 71,
      "start": 176.0,
      "duration": 1.497917,
      "end": 177.497917,
      "velocity": 80,
      "hand": "right",
      "interactive": true,
      "label": "71"
    },
    {
      "id": "note-295",
      "midi": 69,
      "start": 177.5,
      "duration": 0.497917,
      "end": 177.997917,
      "velocity": 80,
      "hand": "right",
      "interactive": true,
      "label": "69"
    },
    {
      "id": "note-296",
      "midi": 64,
      "start": 178.0,
      "duration": 1.997917,
      "end": 179.997917,
      "velocity": 80,
      "hand": "right",
      "interactive": true,
      "label": "64"
    },
    {
      "id": "note-297",
      "midi": 69,
      "start": 178.0,
      "duration": 1.997917,
      "end": 179.997917,
      "velocity": 80,
      "hand": "right",
      "interactive": true,
      "label": "69"
    },
    {
      "id": "note-298",
      "midi": 73,
      "start": 178.0,
      "duration": 1.997917,
      "end": 179.997917,
      "velocity": 80,
      "hand": "right",
      "interactive": true,
      "label": "73"
    },
    {
      "id": "note-299",
      "midi": 69,
      "start": 180.0,
      "duration": 0.497917,
      "end": 180.497917,
      "velocity": 80,
      "hand": "right",
      "interactive": true,
      "label": "69"
    },
    {
      "id": "note-300",
      "midi": 71,
      "start": 180.5,
      "duration": 0.497917,
      "end": 180.997917,
      "velocity": 80,
      "hand": "right",
      "interactive": true,
      "label": "71"
    },
    {
      "id": "note-301",
      "midi": 73,
      "start": 181.0,
      "duration": 0.497917,
      "end": 181.497917,
      "velocity": 80,
      "hand": "right",
      "interactive": true,
      "label": "73"
    },
    {
      "id": "note-302",
      "midi": 78,
      "start": 181.5,
      "duration": 0.247917,
      "end": 181.747917,
      "velocity": 80,
      "hand": "right",
      "interactive": true,
      "label": "78"
    },
    {
      "id": "note-303",
      "midi": 69,
      "start": 181.75,
      "duration": 1.747917,
      "end": 183.497917,
      "velocity": 80,
      "hand": "right",
      "interactive": true,
      "label": "69"
    },
    {
      "id": "note-304",
      "midi": 75,
      "start": 181.75,
      "duration": 1.747917,
      "end": 183.497917,
      "velocity": 80,
      "hand": "right",
      "interactive": true,
      "label": "75"
    },
    {
      "id": "note-305",
      "midi": 78,
      "start": 181.75,
      "duration": 1.747917,
      "end": 183.497917,
      "velocity": 80,
      "hand": "right",
      "interactive": true,
      "label": "78"
    },
    {
      "id": "note-306",
      "midi": 73,
      "start": 183.5,
      "duration": 0.497917,
      "end": 183.997917,
      "velocity": 80,
      "hand": "right",
      "interactive": true,
      "label": "73"
    },
    {
      "id": "note-307",
      "midi": 71,
      "start": 184.0,
      "duration": 0.497917,
      "end": 184.497917,
      "velocity": 80,
      "hand": "right",
      "interactive": true,
      "label": "71"
    },
    {
      "id": "note-308",
      "midi": 73,
      "start": 184.5,
      "duration": 0.497917,
      "end": 184.997917,
      "velocity": 80,
      "hand": "right",
      "interactive": true,
      "label": "73"
    },
    {
      "id": "note-309",
      "midi": 74,
      "start": 185.0,
      "duration": 0.497917,
      "end": 185.497917,
      "velocity": 80,
      "hand": "right",
      "interactive": true,
      "label": "74"
    },
    {
      "id": "note-310",
      "midi": 76,
      "start": 185.5,
      "duration": 0.247917,
      "end": 185.747917,
      "velocity": 80,
      "hand": "right",
      "interactive": true,
      "label": "76"
    },
    {
      "id": "note-311",
      "midi": 69,
      "start": 185.75,
      "duration": 1.747917,
      "end": 187.497917,
      "velocity": 80,
      "hand": "right",
      "interactive": true,
      "label": "69"
    },
    {
      "id": "note-312",
      "midi": 76,
      "start": 185.75,
      "duration": 1.747917,
      "end": 187.497917,
      "velocity": 80,
      "hand": "right",
      "interactive": true,
      "label": "76"
    },
    {
      "id": "note-313",
      "midi": 81,
      "start": 187.5,
      "duration": 0.497917,
      "end": 187.997917,
      "velocity": 80,
      "hand": "right",
      "interactive": true,
      "label": "81"
    },
    {
      "id": "note-314",
      "midi": 73,
      "start": 188.0,
      "duration": 0.497917,
      "end": 188.497917,
      "velocity": 80,
      "hand": "right",
      "interactive": true,
      "label": "73"
    },
    {
      "id": "note-315",
      "midi": 80,
      "start": 188.0,
      "duration": 0.497917,
      "end": 188.497917,
      "velocity": 80,
      "hand": "right",
      "interactive": true,
      "label": "80"
    },
    {
      "id": "note-316",
      "midi": 81,
      "start": 188.5,
      "duration": 0.247917,
      "end": 188.747917,
      "velocity": 80,
      "hand": "right",
      "interactive": true,
      "label": "81"
    },
    {
      "id": "note-317",
      "midi": 80,
      "start": 188.75,
      "duration": 0.747917,
      "end": 189.497917,
      "velocity": 80,
      "hand": "right",
      "interactive": true,
      "label": "80"
    },
    {
      "id": "note-318",
      "midi": 76,
      "start": 189.5,
      "duration": 0.497917,
      "end": 189.997917,
      "velocity": 80,
      "hand": "right",
      "interactive": true,
      "label": "76"
    },
    {
      "id": "note-319",
      "midi": 71,
      "start": 190.0,
      "duration": 1.497917,
      "end": 191.497917,
      "velocity": 80,
      "hand": "right",
      "interactive": true,
      "label": "71"
    },
    {
      "id": "note-320",
      "midi": 76,
      "start": 190.0,
      "duration": 1.497917,
      "end": 191.497917,
      "velocity": 80,
      "hand": "right",
      "interactive": true,
      "label": "76"
    },
    {
      "id": "note-321",
      "midi": 74,
      "start": 191.5,
      "duration": 0.247917,
      "end": 191.747917,
      "velocity": 80,
      "hand": "right",
      "interactive": true,
      "label": "74"
    },
    {
      "id": "note-322",
      "midi": 73,
      "start": 191.75,
      "duration": 0.247917,
      "end": 191.997917,
      "velocity": 80,
      "hand": "right",
      "interactive": true,
      "label": "73"
    },
    {
      "id": "note-323",
      "midi": 64,
      "start": 192.0,
      "duration": 1.497917,
      "end": 193.497917,
      "velocity": 80,
      "hand": "right",
      "interactive": true,
      "label": "64"
    },
    {
      "id": "note-324",
      "midi": 71,
      "start": 192.0,
      "duration": 1.497917,
      "end": 193.497917,
      "velocity": 80,
      "hand": "right",
      "interactive": true,
      "label": "71"
    },
    {
      "id": "note-325",
      "midi": 69,
      "start": 193.5,
      "duration": 0.497917,
      "end": 193.997917,
      "velocity": 80,
      "hand": "right",
      "interactive": true,
      "label": "69"
    },
    {
      "id": "note-326",
      "midi": 61,
      "start": 194.0,
      "duration": 0.997917,
      "end": 194.997917,
      "velocity": 80,
      "hand": "right",
      "interactive": true,
      "label": "61"
    },
    {
      "id": "note-327",
      "midi": 64,
      "start": 194.0,
      "duration": 0.997917,
      "end": 194.997917,
      "velocity": 80,
      "hand": "right",
      "interactive": true,
      "label": "64"
    },
    {
      "id": "note-328",
      "midi": 69,
      "start": 194.0,
      "duration": 0.997917,
      "end": 194.997917,
      "velocity": 80,
      "hand": "right",
      "interactive": true,
      "label": "69"
    },
    {
      "id": "note-329",
      "midi": 62,
      "start": 195.0,
      "duration": 0.497917,
      "end": 195.497917,
      "velocity": 80,
      "hand": "right",
      "interactive": true,
      "label": "62"
    },
    {
      "id": "note-330",
      "midi": 65,
      "start": 195.0,
      "duration": 0.497917,
      "end": 195.497917,
      "velocity": 80,
      "hand": "right",
      "interactive": true,
      "label": "65"
    },
    {
      "id": "note-331",
      "midi": 59,
      "start": 195.5,
      "duration": 0.497917,
      "end": 195.997917,
      "velocity": 80,
      "hand": "right",
      "interactive": true,
      "label": "59"
    },
    {
      "id": "note-332",
      "midi": 61,
      "start": 196.0,
      "duration": 0.997917,
      "end": 196.997917,
      "velocity": 80,
      "hand": "right",
      "interactive": true,
      "label": "61"
    },
    {
      "id": "note-333",
      "midi": 64,
      "start": 196.0,
      "duration": 0.997917,
      "end": 196.997917,
      "velocity": 80,
      "hand": "right",
      "interactive": true,
      "label": "64"
    },
    {
      "id": "note-334",
      "midi": 69,
      "start": 197.0,
      "duration": 0.247917,
      "end": 197.247917,
      "velocity": 80,
      "hand": "right",
      "interactive": true,
      "label": "69"
    },
    {
      "id": "note-335",
      "midi": 73,
      "start": 197.25,
      "duration": 0.747917,
      "end": 197.997917,
      "velocity": 80,
      "hand": "right",
      "interactive": true,
      "label": "73"
    },
    {
      "id": "note-336",
      "midi": 64,
      "start": 198.0,
      "duration": 1.997917,
      "end": 199.997917,
      "velocity": 80,
      "hand": "right",
      "interactive": true,
      "label": "64"
    },
    {
      "id": "note-337",
      "midi": 73,
      "start": 198.0,
      "duration": 1.997917,
      "end": 199.997917,
      "velocity": 80,
      "hand": "right",
      "interactive": true,
      "label": "73"
    },
    {
      "id": "note-338",
      "midi": 73,
      "start": 200.0,
      "duration": 0.497917,
      "end": 200.497917,
      "velocity": 80,
      "hand": "right",
      "interactive": true,
      "label": "73"
    },
    {
      "id": "note-339",
      "midi": 71,
      "start": 200.5,
      "duration": 0.497917,
      "end": 200.997917,
      "velocity": 80,
      "hand": "right",
      "interactive": true,
      "label": "71"
    },
    {
      "id": "note-340",
      "midi": 69,
      "start": 201.0,
      "duration": 0.497917,
      "end": 201.497917,
      "velocity": 80,
      "hand": "right",
      "interactive": true,
      "label": "69"
    },
    {
      "id": "note-341",
      "midi": 64,
      "start": 201.5,
      "duration": 0.997917,
      "end": 202.497917,
      "velocity": 80,
      "hand": "right",
      "interactive": true,
      "label": "64"
    },
    {
      "id": "note-342",
      "midi": 71,
      "start": 201.5,
      "duration": 0.997917,
      "end": 202.497917,
      "velocity": 80,
      "hand": "right",
      "interactive": true,
      "label": "71"
    },
    {
      "id": "note-343",
      "midi": 68,
      "start": 202.5,
      "duration": 1.497917,
      "end": 203.997917,
      "velocity": 80,
      "hand": "right",
      "interactive": true,
      "label": "68"
    },
    {
      "id": "note-344",
      "midi": 71,
      "start": 202.5,
      "duration": 1.497917,
      "end": 203.997917,
      "velocity": 80,
      "hand": "right",
      "interactive": true,
      "label": "71"
    },
    {
      "id": "note-345",
      "midi": 76,
      "start": 202.5,
      "duration": 1.497917,
      "end": 203.997917,
      "velocity": 80,
      "hand": "right",
      "interactive": true,
      "label": "76"
    },
    {
      "id": "note-346",
      "midi": 69,
      "start": 205.0,
      "duration": 0.247917,
      "end": 205.247917,
      "velocity": 80,
      "hand": "right",
      "interactive": true,
      "label": "69"
    },
    {
      "id": "note-347",
      "midi": 73,
      "start": 205.25,
      "duration": 0.747917,
      "end": 205.997917,
      "velocity": 80,
      "hand": "right",
      "interactive": true,
      "label": "73"
    },
    {
      "id": "note-348",
      "midi": 67,
      "start": 206.0,
      "duration": 1.997917,
      "end": 207.997917,
      "velocity": 80,
      "hand": "right",
      "interactive": true,
      "label": "67"
    },
    {
      "id": "note-349",
      "midi": 73,
      "start": 206.0,
      "duration": 1.997917,
      "end": 207.997917,
      "velocity": 80,
      "hand": "right",
      "interactive": true,
      "label": "73"
    },
    {
      "id": "note-350",
      "midi": 74,
      "start": 208.0,
      "duration": 0.497917,
      "end": 208.497917,
      "velocity": 80,
      "hand": "right",
      "interactive": true,
      "label": "74"
    },
    {
      "id": "note-351",
      "midi": 73,
      "start": 208.5,
      "duration": 0.497917,
      "end": 208.997917,
      "velocity": 80,
      "hand": "right",
      "interactive": true,
      "label": "73"
    },
    {
      "id": "note-352",
      "midi": 69,
      "start": 209.0,
      "duration": 0.997917,
      "end": 209.997917,
      "velocity": 80,
      "hand": "right",
      "interactive": true,
      "label": "69"
    },
    {
      "id": "note-353",
      "midi": 76,
      "start": 209.0,
      "duration": 0.997917,
      "end": 209.997917,
      "velocity": 80,
      "hand": "right",
      "interactive": true,
      "label": "76"
    },
    {
      "id": "note-354",
      "midi": 64,
      "start": 210.0,
      "duration": 1.75,
      "end": 211.75,
      "velocity": 80,
      "hand": "right",
      "interactive": true,
      "label": "64"
    },
    {
      "id": "note-355",
      "midi": 66,
      "start": 210.085417,
      "duration": 1.910417,
      "end": 211.995833,
      "velocity": 80,
      "hand": "right",
      "interactive": true,
      "label": "66"
    },
    {
      "id": "note-356",
      "midi": 69,
      "start": 210.175,
      "duration": 1.820833,
      "end": 211.995833,
      "velocity": 80,
      "hand": "right",
      "interactive": true,
      "label": "69"
    },
    {
      "id": "note-357",
      "midi": 69,
      "start": 213.0,
      "duration": 0.247917,
      "end": 213.247917,
      "velocity": 80,
      "hand": "right",
      "interactive": true,
      "label": "69"
    },
    {
      "id": "note-358",
      "midi": 74,
      "start": 213.25,
      "duration": 0.747917,
      "end": 213.997917,
      "velocity": 80,
      "hand": "right",
      "interactive": true,
      "label": "74"
    },
    {
      "id": "note-359",
      "midi": 69,
      "start": 214.0,
      "duration": 1.75,
      "end": 215.75,
      "velocity": 80,
      "hand": "right",
      "interactive": true,
      "label": "69"
    },
    {
      "id": "note-360",
      "midi": 74,
      "start": 214.0,
      "duration": 1.997917,
      "end": 215.997917,
      "velocity": 80,
      "hand": "right",
      "interactive": true,
      "label": "74"
    },
    {
      "id": "note-361",
      "midi": 74,
      "start": 216.0,
      "duration": 0.002083,
      "end": 216.002083,
      "velocity": 80,
      "hand": "right",
      "interactive": true,
      "label": "74"
    },
    {
      "id": "note-362",
      "midi": 73,
      "start": 216.5,
      "duration": 0.497917,
      "end": 216.997917,
      "velocity": 80,
      "hand": "right",
      "interactive": true,
      "label": "73"
    },
    {
      "id": "note-363",
      "midi": 69,
      "start": 217.0,
      "duration": 0.497917,
      "end": 217.497917,
      "velocity": 80,
      "hand": "right",
      "interactive": true,
      "label": "69"
    },
    {
      "id": "note-364",
      "midi": 73,
      "start": 217.5,
      "duration": 0.997917,
      "end": 218.497917,
      "velocity": 80,
      "hand": "right",
      "interactive": true,
      "label": "73"
    },
    {
      "id": "note-365",
      "midi": 76,
      "start": 217.5,
      "duration": 0.997917,
      "end": 218.497917,
      "velocity": 80,
      "hand": "right",
      "interactive": true,
      "label": "76"
    },
    {
      "id": "note-366",
      "midi": 69,
      "start": 218.5,
      "duration": 0.997917,
      "end": 219.497917,
      "velocity": 80,
      "hand": "right",
      "interactive": true,
      "label": "69"
    },
    {
      "id": "note-367",
      "midi": 73,
      "start": 218.5,
      "duration": 0.997917,
      "end": 219.497917,
      "velocity": 80,
      "hand": "right",
      "interactive": true,
      "label": "73"
    },
    {
      "id": "note-368",
      "midi": 73,
      "start": 219.5,
      "duration": 2.497917,
      "end": 221.997917,
      "velocity": 80,
      "hand": "right",
      "interactive": true,
      "label": "73"
    },
    {
      "id": "note-369",
      "midi": 78,
      "start": 219.5,
      "duration": 2.497917,
      "end": 221.997917,
      "velocity": 80,
      "hand": "right",
      "interactive": true,
      "label": "78"
    },
    {
      "id": "note-370",
      "midi": 81,
      "start": 219.5,
      "duration": 2.497917,
      "end": 221.997917,
      "velocity": 80,
      "hand": "right",
      "interactive": true,
      "label": "81"
    },
    {
      "id": "note-371",
      "midi": 71,
      "start": 222.0,
      "duration": 0.497917,
      "end": 222.497917,
      "velocity": 80,
      "hand": "right",
      "interactive": true,
      "label": "71"
    },
    {
      "id": "note-372",
      "midi": 76,
      "start": 222.0,
      "duration": 0.497917,
      "end": 222.497917,
      "velocity": 80,
      "hand": "right",
      "interactive": true,
      "label": "76"
    },
    {
      "id": "note-373",
      "midi": 74,
      "start": 222.5,
      "duration": 0.497917,
      "end": 222.997917,
      "velocity": 80,
      "hand": "right",
      "interactive": true,
      "label": "74"
    },
    {
      "id": "note-374",
      "midi": 73,
      "start": 223.0,
      "duration": 0.497917,
      "end": 223.497917,
      "velocity": 80,
      "hand": "right",
      "interactive": true,
      "label": "73"
    },
    {
      "id": "note-375",
      "midi": 69,
      "start": 223.5,
      "duration": 0.497917,
      "end": 223.997917,
      "velocity": 80,
      "hand": "right",
      "interactive": true,
      "label": "69"
    },
    {
      "id": "note-376",
      "midi": 64,
      "start": 224.0,
      "duration": 0.997917,
      "end": 224.997917,
      "velocity": 80,
      "hand": "right",
      "interactive": true,
      "label": "64"
    },
    {
      "id": "note-377",
      "midi": 69,
      "start": 224.0,
      "duration": 0.997917,
      "end": 224.997917,
      "velocity": 80,
      "hand": "right",
      "interactive": true,
      "label": "69"
    },
    {
      "id": "note-378",
      "midi": 64,
      "start": 225.0,
      "duration": 0.497917,
      "end": 225.497917,
      "velocity": 80,
      "hand": "right",
      "interactive": true,
      "label": "64"
    },
    {
      "id": "note-379",
      "midi": 68,
      "start": 225.0,
      "duration": 0.497917,
      "end": 225.497917,
      "velocity": 80,
      "hand": "right",
      "interactive": true,
      "label": "68"
    },
    {
      "id": "note-380",
      "midi": 64,
      "start": 225.5,
      "duration": 2.497917,
      "end": 227.997917,
      "velocity": 80,
      "hand": "right",
      "interactive": true,
      "label": "64"
    },
    {
      "id": "note-381",
      "midi": 69,
      "start": 225.5,
      "duration": 2.497917,
      "end": 227.997917,
      "velocity": 80,
      "hand": "right",
      "interactive": true,
      "label": "69"
    },
    {
      "id": "note-382",
      "midi": 69,
      "start": 228.0,
      "duration": 0.497917,
      "end": 228.497917,
      "velocity": 80,
      "hand": "right",
      "interactive": true,
      "label": "69"
    },
    {
      "id": "note-383",
      "midi": 71,
      "start": 228.5,
      "duration": 0.497917,
      "end": 228.997917,
      "velocity": 80,
      "hand": "right",
      "interactive": true,
      "label": "71"
    },
    {
      "id": "note-384",
      "midi": 73,
      "start": 229.0,
      "duration": 0.497917,
      "end": 229.497917,
      "velocity": 80,
      "hand": "right",
      "interactive": true,
      "label": "73"
    },
    {
      "id": "note-385",
      "midi": 76,
      "start": 229.5,
      "duration": 0.247917,
      "end": 229.747917,
      "velocity": 80,
      "hand": "right",
      "interactive": true,
      "label": "76"
    },
    {
      "id": "note-386",
      "midi": 69,
      "start": 229.75,
      "duration": 2.247917,
      "end": 231.997917,
      "velocity": 80,
      "hand": "right",
      "interactive": true,
      "label": "69"
    },
    {
      "id": "note-387",
      "midi": 76,
      "start": 229.75,
      "duration": 2.247917,
      "end": 231.997917,
      "velocity": 80,
      "hand": "right",
      "interactive": true,
      "label": "76"
    },
    {
      "id": "note-388",
      "midi": 64,
      "start": 232.0,
      "duration": 0.497917,
      "end": 232.497917,
      "velocity": 80,
      "hand": "right",
      "interactive": true,
      "label": "64"
    },
    {
      "id": "note-389",
      "midi": 73,
      "start": 232.0,
      "duration": 0.497917,
      "end": 232.497917,
      "velocity": 80,
      "hand": "right",
      "interactive": true,
      "label": "73"
    },
    {
      "id": "note-390",
      "midi": 71,
      "start": 232.5,
      "duration": 0.497917,
      "end": 232.997917,
      "velocity": 80,
      "hand": "right",
      "interactive": true,
      "label": "71"
    },
    {
      "id": "note-391",
      "midi": 69,
      "start": 233.0,
      "duration": 0.497917,
      "end": 233.497917,
      "velocity": 80,
      "hand": "right",
      "interactive": true,
      "label": "69"
    },
    {
      "id": "note-392",
      "midi": 71,
      "start": 233.5,
      "duration": 0.247917,
      "end": 233.747917,
      "velocity": 80,
      "hand": "right",
      "interactive": true,
      "label": "71"
    },
    {
      "id": "note-393",
      "midi": 69,
      "start": 233.75,
      "duration": 2.247917,
      "end": 235.997917,
      "velocity": 80,
      "hand": "right",
      "interactive": true,
      "label": "69"
    },
    {
      "id": "note-394",
      "midi": 73,
      "start": 233.75,
      "duration": 2.247917,
      "end": 235.997917,
      "velocity": 80,
      "hand": "right",
      "interactive": true,
      "label": "73"
    },
    {
      "id": "note-395",
      "midi": 69,
      "start": 236.0,
      "duration": 0.497917,
      "end": 236.497917,
      "velocity": 80,
      "hand": "right",
      "interactive": true,
      "label": "69"
    },
    {
      "id": "note-396",
      "midi": 71,
      "start": 236.5,
      "duration": 0.497917,
      "end": 236.997917,
      "velocity": 80,
      "hand": "right",
      "interactive": true,
      "label": "71"
    },
    {
      "id": "note-397",
      "midi": 73,
      "start": 237.0,
      "duration": 0.497917,
      "end": 237.497917,
      "velocity": 80,
      "hand": "right",
      "interactive": true,
      "label": "73"
    },
    {
      "id": "note-398",
      "midi": 81,
      "start": 237.5,
      "duration": 0.247917,
      "end": 237.747917,
      "velocity": 80,
      "hand": "right",
      "interactive": true,
      "label": "81"
    },
    {
      "id": "note-399",
      "midi": 76,
      "start": 237.75,
      "duration": 0.497917,
      "end": 238.247917,
      "velocity": 80,
      "hand": "right",
      "interactive": true,
      "label": "76"
    },
    {
      "id": "note-400",
      "midi": 81,
      "start": 237.75,
      "duration": 0.497917,
      "end": 238.247917,
      "velocity": 80,
      "hand": "right",
      "interactive": true,
      "label": "81"
    },
    {
      "id": "note-401",
      "midi": 80,
      "start": 238.25,
      "duration": 0.247917,
      "end": 238.497917,
      "velocity": 80,
      "hand": "right",
      "interactive": true,
      "label": "80"
    },
    {
      "id": "note-402",
      "midi": 74,
      "start": 238.5,
      "duration": 0.997917,
      "end": 239.497917,
      "velocity": 80,
      "hand": "right",
      "interactive": true,
      "label": "74"
    },
    {
      "id": "note-403",
      "midi": 81,
      "start": 238.5,
      "duration": 0.997917,
      "end": 239.497917,
      "velocity": 80,
      "hand": "right",
      "interactive": true,
      "label": "81"
    },
    {
      "id": "note-404",
      "midi": 81,
      "start": 239.5,
      "duration": 0.497917,
      "end": 239.997917,
      "velocity": 80,
      "hand": "right",
      "interactive": true,
      "label": "81"
    },
    {
      "id": "note-405",
      "midi": 76,
      "start": 240.0,
      "duration": 0.497917,
      "end": 240.497917,
      "velocity": 80,
      "hand": "right",
      "interactive": true,
      "label": "76"
    },
    {
      "id": "note-406",
      "midi": 80,
      "start": 240.0,
      "duration": 0.497917,
      "end": 240.497917,
      "velocity": 80,
      "hand": "right",
      "interactive": true,
      "label": "80"
    },
    {
      "id": "note-407",
      "midi": 78,
      "start": 240.5,
      "duration": 0.247917,
      "end": 240.747917,
      "velocity": 80,
      "hand": "right",
      "interactive": true,
      "label": "78"
    },
    {
      "id": "note-408",
      "midi": 76,
      "start": 240.75,
      "duration": 0.747917,
      "end": 241.497917,
      "velocity": 80,
      "hand": "right",
      "interactive": true,
      "label": "76"
    },
    {
      "id": "note-409",
      "midi": 78,
      "start": 241.5,
      "duration": 0.247917,
      "end": 241.747917,
      "velocity": 80,
      "hand": "right",
      "interactive": true,
      "label": "78"
    },
    {
      "id": "note-410",
      "midi": 69,
      "start": 241.75,
      "duration": 0.747917,
      "end": 242.497917,
      "velocity": 80,
      "hand": "right",
      "interactive": true,
      "label": "69"
    },
    {
      "id": "note-411",
      "midi": 78,
      "start": 241.75,
      "duration": 0.747917,
      "end": 242.497917,
      "velocity": 80,
      "hand": "right",
      "interactive": true,
      "label": "78"
    },
    {
      "id": "note-412",
      "midi": 69,
      "start": 242.5,
      "duration": 1.497917,
      "end": 243.997917,
      "velocity": 80,
      "hand": "right",
      "interactive": true,
      "label": "69"
    },
    {
      "id": "note-413",
      "midi": 76,
      "start": 242.5,
      "duration": 1.497917,
      "end": 243.997917,
      "velocity": 80,
      "hand": "right",
      "interactive": true,
      "label": "76"
    },
    {
      "id": "note-414",
      "midi": 69,
      "start": 244.0,
      "duration": 0.497917,
      "end": 244.497917,
      "velocity": 80,
      "hand": "right",
      "interactive": true,
      "label": "69"
    },
    {
      "id": "note-415",
      "midi": 71,
      "start": 244.5,
      "duration": 0.497917,
      "end": 244.997917,
      "velocity": 80,
      "hand": "right",
      "interactive": true,
      "label": "71"
    },
    {
      "id": "note-416",
      "midi": 73,
      "start": 245.0,
      "duration": 0.497917,
      "end": 245.497917,
      "velocity": 80,
      "hand": "right",
      "interactive": true,
      "label": "73"
    },
    {
      "id": "note-417",
      "midi": 76,
      "start": 245.5,
      "duration": 0.247917,
      "end": 245.747917,
      "velocity": 80,
      "hand": "right",
      "interactive": true,
      "label": "76"
    },
    {
      "id": "note-418",
      "midi": 69,
      "start": 245.75,
      "duration": 2.247917,
      "end": 247.997917,
      "velocity": 80,
      "hand": "right",
      "interactive": true,
      "label": "69"
    },
    {
      "id": "note-419",
      "midi": 76,
      "start": 245.75,
      "duration": 2.247917,
      "end": 247.997917,
      "velocity": 80,
      "hand": "right",
      "interactive": true,
      "label": "76"
    },
    {
      "id": "note-420",
      "midi": 68,
      "start": 248.0,
      "duration": 0.497917,
      "end": 248.497917,
      "velocity": 80,
      "hand": "right",
      "interactive": true,
      "label": "68"
    },
    {
      "id": "note-421",
      "midi": 73,
      "start": 248.0,
      "duration": 0.497917,
      "end": 248.497917,
      "velocity": 80,
      "hand": "right",
      "interactive": true,
      "label": "73"
    },
    {
      "id": "note-422",
      "midi": 71,
      "start": 248.5,
      "duration": 0.497917,
      "end": 248.997917,
      "velocity": 80,
      "hand": "right",
      "interactive": true,
      "label": "71"
    },
    {
      "id": "note-423",
      "midi": 69,
      "start": 249.0,
      "duration": 0.497917,
      "end": 249.497917,
      "velocity": 80,
      "hand": "right",
      "interactive": true,
      "label": "69"
    },
    {
      "id": "note-424",
      "midi": 71,
      "start": 249.5,
      "duration": 0.247917,
      "end": 249.747917,
      "velocity": 80,
      "hand": "right",
      "interactive": true,
      "label": "71"
    },
    {
      "id": "note-425",
      "midi": 69,
      "start": 249.75,
      "duration": 2.247917,
      "end": 251.997917,
      "velocity": 80,
      "hand": "right",
      "interactive": true,
      "label": "69"
    },
    {
      "id": "note-426",
      "midi": 69,
      "start": 252.0,
      "duration": 0.497917,
      "end": 252.497917,
      "velocity": 80,
      "hand": "right",
      "interactive": true,
      "label": "69"
    },
    {
      "id": "note-427",
      "midi": 71,
      "start": 252.5,
      "duration": 0.497917,
      "end": 252.997917,
      "velocity": 80,
      "hand": "right",
      "interactive": true,
      "label": "71"
    },
    {
      "id": "note-428",
      "midi": 73,
      "start": 253.0,
      "duration": 0.497917,
      "end": 253.497917,
      "velocity": 80,
      "hand": "right",
      "interactive": true,
      "label": "73"
    },
    {
      "id": "note-429",
      "midi": 76,
      "start": 253.5,
      "duration": 0.497917,
      "end": 253.997917,
      "velocity": 80,
      "hand": "right",
      "interactive": true,
      "label": "76"
    },
    {
      "id": "note-430",
      "midi": 71,
      "start": 254.0,
      "duration": 0.497917,
      "end": 254.497917,
      "velocity": 80,
      "hand": "right",
      "interactive": true,
      "label": "71"
    },
    {
      "id": "note-431",
      "midi": 76,
      "start": 254.0,
      "duration": 0.497917,
      "end": 254.497917,
      "velocity": 80,
      "hand": "right",
      "interactive": true,
      "label": "76"
    },
    {
      "id": "note-432",
      "midi": 71,
      "start": 254.5,
      "duration": 0.497917,
      "end": 254.997917,
      "velocity": 80,
      "hand": "right",
      "interactive": true,
      "label": "71"
    },
    {
      "id": "note-433",
      "midi": 74,
      "start": 254.5,
      "duration": 0.497917,
      "end": 254.997917,
      "velocity": 80,
      "hand": "right",
      "interactive": true,
      "label": "74"
    },
    {
      "id": "note-434",
      "midi": 71,
      "start": 255.0,
      "duration": 0.497917,
      "end": 255.497917,
      "velocity": 80,
      "hand": "right",
      "interactive": true,
      "label": "71"
    },
    {
      "id": "note-435",
      "midi": 74,
      "start": 255.0,
      "duration": 0.497917,
      "end": 255.497917,
      "velocity": 80,
      "hand": "right",
      "interactive": true,
      "label": "74"
    },
    {
      "id": "note-436",
      "midi": 73,
      "start": 255.5,
      "duration": 0.497917,
      "end": 255.997917,
      "velocity": 80,
      "hand": "right",
      "interactive": true,
      "label": "73"
    },
    {
      "id": "note-437",
      "midi": 71,
      "start": 256.0,
      "duration": 0.997917,
      "end": 256.997917,
      "velocity": 80,
      "hand": "right",
      "interactive": true,
      "label": "71"
    },
    {
      "id": "note-438",
      "midi": 78,
      "start": 256.0,
      "duration": 0.997917,
      "end": 256.997917,
      "velocity": 80,
      "hand": "right",
      "interactive": true,
      "label": "78"
    },
    {
      "id": "note-439",
      "midi": 81,
      "start": 256.0,
      "duration": 0.997917,
      "end": 256.997917,
      "velocity": 80,
      "hand": "right",
      "interactive": true,
      "label": "81"
    },
    {
      "id": "note-440",
      "midi": 73,
      "start": 257.0,
      "duration": 0.497917,
      "end": 257.497917,
      "velocity": 80,
      "hand": "right",
      "interactive": true,
      "label": "73"
    },
    {
      "id": "note-441",
      "midi": 73,
      "start": 257.5,
      "duration": 0.997917,
      "end": 258.497917,
      "velocity": 80,
      "hand": "right",
      "interactive": true,
      "label": "73"
    },
    {
      "id": "note-442",
      "midi": 71,
      "start": 258.5,
      "duration": 0.997917,
      "end": 259.497917,
      "velocity": 80,
      "hand": "right",
      "interactive": true,
      "label": "71"
    },
    {
      "id": "note-443",
      "midi": 69,
      "start": 260.0,
      "duration": 0.497917,
      "end": 260.497917,
      "velocity": 80,
      "hand": "right",
      "interactive": true,
      "label": "69"
    },
    {
      "id": "note-444",
      "midi": 71,
      "start": 260.5,
      "duration": 0.497917,
      "end": 260.997917,
      "velocity": 80,
      "hand": "right",
      "interactive": true,
      "label": "71"
    },
    {
      "id": "note-445",
      "midi": 73,
      "start": 261.0,
      "duration": 0.497917,
      "end": 261.497917,
      "velocity": 80,
      "hand": "right",
      "interactive": true,
      "label": "73"
    },
    {
      "id": "note-446",
      "midi": 76,
      "start": 261.5,
      "duration": 0.247917,
      "end": 261.747917,
      "velocity": 80,
      "hand": "right",
      "interactive": true,
      "label": "76"
    },
    {
      "id": "note-447",
      "midi": 69,
      "start": 261.75,
      "duration": 2.247917,
      "end": 263.997917,
      "velocity": 80,
      "hand": "right",
      "interactive": true,
      "label": "69"
    },
    {
      "id": "note-448",
      "midi": 76,
      "start": 261.75,
      "duration": 2.247917,
      "end": 263.997917,
      "velocity": 80,
      "hand": "right",
      "interactive": true,
      "label": "76"
    },
    {
      "id": "note-449",
      "midi": 64,
      "start": 264.0,
      "duration": 0.497917,
      "end": 264.497917,
      "velocity": 80,
      "hand": "right",
      "interactive": true,
      "label": "64"
    },
    {
      "id": "note-450",
      "midi": 73,
      "start": 264.0,
      "duration": 0.497917,
      "end": 264.497917,
      "velocity": 80,
      "hand": "right",
      "interactive": true,
      "label": "73"
    },
    {
      "id": "note-451",
      "midi": 71,
      "start": 264.5,
      "duration": 0.497917,
      "end": 264.997917,
      "velocity": 80,
      "hand": "right",
      "interactive": true,
      "label": "71"
    },
    {
      "id": "note-452",
      "midi": 69,
      "start": 265.0,
      "duration": 0.497917,
      "end": 265.497917,
      "velocity": 80,
      "hand": "right",
      "interactive": true,
      "label": "69"
    },
    {
      "id": "note-453",
      "midi": 71,
      "start": 265.5,
      "duration": 0.247917,
      "end": 265.747917,
      "velocity": 80,
      "hand": "right",
      "interactive": true,
      "label": "71"
    },
    {
      "id": "note-454",
      "midi": 69,
      "start": 265.75,
      "duration": 2.247917,
      "end": 267.997917,
      "velocity": 80,
      "hand": "right",
      "interactive": true,
      "label": "69"
    },
    {
      "id": "note-455",
      "midi": 73,
      "start": 265.75,
      "duration": 2.247917,
      "end": 267.997917,
      "velocity": 80,
      "hand": "right",
      "interactive": true,
      "label": "73"
    },
    {
      "id": "note-456",
      "midi": 69,
      "start": 268.0,
      "duration": 0.497917,
      "end": 268.497917,
      "velocity": 80,
      "hand": "right",
      "interactive": true,
      "label": "69"
    },
    {
      "id": "note-457",
      "midi": 71,
      "start": 268.5,
      "duration": 0.497917,
      "end": 268.997917,
      "velocity": 80,
      "hand": "right",
      "interactive": true,
      "label": "71"
    },
    {
      "id": "note-458",
      "midi": 73,
      "start": 269.0,
      "duration": 0.497917,
      "end": 269.497917,
      "velocity": 80,
      "hand": "right",
      "interactive": true,
      "label": "73"
    },
    {
      "id": "note-459",
      "midi": 81,
      "start": 269.5,
      "duration": 0.247917,
      "end": 269.747917,
      "velocity": 80,
      "hand": "right",
      "interactive": true,
      "label": "81"
    },
    {
      "id": "note-460",
      "midi": 76,
      "start": 269.75,
      "duration": 0.497917,
      "end": 270.247917,
      "velocity": 80,
      "hand": "right",
      "interactive": true,
      "label": "76"
    },
    {
      "id": "note-461",
      "midi": 81,
      "start": 269.75,
      "duration": 0.497917,
      "end": 270.247917,
      "velocity": 80,
      "hand": "right",
      "interactive": true,
      "label": "81"
    },
    {
      "id": "note-462",
      "midi": 80,
      "start": 270.25,
      "duration": 0.247917,
      "end": 270.497917,
      "velocity": 80,
      "hand": "right",
      "interactive": true,
      "label": "80"
    },
    {
      "id": "note-463",
      "midi": 74,
      "start": 270.5,
      "duration": 0.997917,
      "end": 271.497917,
      "velocity": 80,
      "hand": "right",
      "interactive": true,
      "label": "74"
    },
    {
      "id": "note-464",
      "midi": 81,
      "start": 270.5,
      "duration": 0.997917,
      "end": 271.497917,
      "velocity": 80,
      "hand": "right",
      "interactive": true,
      "label": "81"
    },
    {
      "id": "note-465",
      "midi": 81,
      "start": 271.5,
      "duration": 0.497917,
      "end": 271.997917,
      "velocity": 80,
      "hand": "right",
      "interactive": true,
      "label": "81"
    },
    {
      "id": "note-466",
      "midi": 76,
      "start": 272.0,
      "duration": 0.497917,
      "end": 272.497917,
      "velocity": 80,
      "hand": "right",
      "interactive": true,
      "label": "76"
    },
    {
      "id": "note-467",
      "midi": 80,
      "start": 272.0,
      "duration": 0.497917,
      "end": 272.497917,
      "velocity": 80,
      "hand": "right",
      "interactive": true,
      "label": "80"
    },
    {
      "id": "note-468",
      "midi": 81,
      "start": 272.5,
      "duration": 0.247917,
      "end": 272.747917,
      "velocity": 80,
      "hand": "right",
      "interactive": true,
      "label": "81"
    },
    {
      "id": "note-469",
      "midi": 76,
      "start": 272.75,
      "duration": 0.747917,
      "end": 273.497917,
      "velocity": 80,
      "hand": "right",
      "interactive": true,
      "label": "76"
    },
    {
      "id": "note-470",
      "midi": 80,
      "start": 272.75,
      "duration": 0.747917,
      "end": 273.497917,
      "velocity": 80,
      "hand": "right",
      "interactive": true,
      "label": "80"
    },
    {
      "id": "note-471",
      "midi": 71,
      "start": 273.5,
      "duration": 0.247917,
      "end": 273.747917,
      "velocity": 80,
      "hand": "right",
      "interactive": true,
      "label": "71"
    },
    {
      "id": "note-472",
      "midi": 76,
      "start": 273.5,
      "duration": 0.247917,
      "end": 273.747917,
      "velocity": 80,
      "hand": "right",
      "interactive": true,
      "label": "76"
    },
    {
      "id": "note-473",
      "midi": 78,
      "start": 273.75,
      "duration": 0.747917,
      "end": 274.497917,
      "velocity": 80,
      "hand": "right",
      "interactive": true,
      "label": "78"
    },
    {
      "id": "note-474",
      "midi": 69,
      "start": 274.5,
      "duration": 1.497917,
      "end": 275.997917,
      "velocity": 80,
      "hand": "right",
      "interactive": true,
      "label": "69"
    },
    {
      "id": "note-475",
      "midi": 76,
      "start": 274.5,
      "duration": 1.497917,
      "end": 275.997917,
      "velocity": 80,
      "hand": "right",
      "interactive": true,
      "label": "76"
    },
    {
      "id": "note-476",
      "midi": 69,
      "start": 276.0,
      "duration": 0.497917,
      "end": 276.497917,
      "velocity": 80,
      "hand": "right",
      "interactive": true,
      "label": "69"
    },
    {
      "id": "note-477",
      "midi": 71,
      "start": 276.5,
      "duration": 0.497917,
      "end": 276.997917,
      "velocity": 80,
      "hand": "right",
      "interactive": true,
      "label": "71"
    },
    {
      "id": "note-478",
      "midi": 73,
      "start": 277.0,
      "duration": 0.497917,
      "end": 277.497917,
      "velocity": 80,
      "hand": "right",
      "interactive": true,
      "label": "73"
    },
    {
      "id": "note-479",
      "midi": 76,
      "start": 277.5,
      "duration": 0.247917,
      "end": 277.747917,
      "velocity": 80,
      "hand": "right",
      "interactive": true,
      "label": "76"
    },
    {
      "id": "note-480",
      "midi": 69,
      "start": 277.75,
      "duration": 2.247917,
      "end": 279.997917,
      "velocity": 80,
      "hand": "right",
      "interactive": true,
      "label": "69"
    },
    {
      "id": "note-481",
      "midi": 76,
      "start": 277.75,
      "duration": 2.247917,
      "end": 279.997917,
      "velocity": 80,
      "hand": "right",
      "interactive": true,
      "label": "76"
    },
    {
      "id": "note-482",
      "midi": 68,
      "start": 280.0,
      "duration": 0.497917,
      "end": 280.497917,
      "velocity": 80,
      "hand": "right",
      "interactive": true,
      "label": "68"
    },
    {
      "id": "note-483",
      "midi": 73,
      "start": 280.0,
      "duration": 0.497917,
      "end": 280.497917,
      "velocity": 80,
      "hand": "right",
      "interactive": true,
      "label": "73"
    },
    {
      "id": "note-484",
      "midi": 71,
      "start": 280.5,
      "duration": 0.497917,
      "end": 280.997917,
      "velocity": 80,
      "hand": "right",
      "interactive": true,
      "label": "71"
    },
    {
      "id": "note-485",
      "midi": 69,
      "start": 281.0,
      "duration": 0.497917,
      "end": 281.497917,
      "velocity": 80,
      "hand": "right",
      "interactive": true,
      "label": "69"
    },
    {
      "id": "note-486",
      "midi": 71,
      "start": 281.5,
      "duration": 0.247917,
      "end": 281.747917,
      "velocity": 80,
      "hand": "right",
      "interactive": true,
      "label": "71"
    },
    {
      "id": "note-487",
      "midi": 66,
      "start": 281.75,
      "duration": 2.247917,
      "end": 283.997917,
      "velocity": 80,
      "hand": "right",
      "interactive": true,
      "label": "66"
    },
    {
      "id": "note-488",
      "midi": 69,
      "start": 281.75,
      "duration": 2.247917,
      "end": 283.997917,
      "velocity": 80,
      "hand": "right",
      "interactive": true,
      "label": "69"
    },
    {
      "id": "note-489",
      "midi": 69,
      "start": 284.0,
      "duration": 0.497917,
      "end": 284.497917,
      "velocity": 80,
      "hand": "right",
      "interactive": true,
      "label": "69"
    },
    {
      "id": "note-490",
      "midi": 71,
      "start": 284.5,
      "duration": 0.497917,
      "end": 284.997917,
      "velocity": 80,
      "hand": "right",
      "interactive": true,
      "label": "71"
    },
    {
      "id": "note-491",
      "midi": 73,
      "start": 285.0,
      "duration": 0.497917,
      "end": 285.497917,
      "velocity": 80,
      "hand": "right",
      "interactive": true,
      "label": "73"
    },
    {
      "id": "note-492",
      "midi": 76,
      "start": 285.5,
      "duration": 0.247917,
      "end": 285.747917,
      "velocity": 80,
      "hand": "right",
      "interactive": true,
      "label": "76"
    },
    {
      "id": "note-493",
      "midi": 69,
      "start": 285.75,
      "duration": 0.247917,
      "end": 285.997917,
      "velocity": 80,
      "hand": "right",
      "interactive": true,
      "label": "69"
    },
    {
      "id": "note-494",
      "midi": 69,
      "start": 286.0,
      "duration": 1.997917,
      "end": 287.997917,
      "velocity": 80,
      "hand": "right",
      "interactive": true,
      "label": "69"
    },
    {
      "id": "note-495",
      "midi": 69,
      "start": 288.0,
      "duration": 0.497917,
      "end": 288.497917,
      "velocity": 80,
      "hand": "right",
      "interactive": true,
      "label": "69"
    },
    {
      "id": "note-496",
      "midi": 68,
      "start": 288.5,
      "duration": 0.497917,
      "end": 288.997917,
      "velocity": 80,
      "hand": "right",
      "interactive": true,
      "label": "68"
    },
    {
      "id": "note-497",
      "midi": 66,
      "start": 289.0,
      "duration": 1.997917,
      "end": 290.997917,
      "velocity": 80,
      "hand": "right",
      "interactive": true,
      "label": "66"
    },
    {
      "id": "note-498",
      "midi": 68,
      "start": 291.0,
      "duration": 0.997917,
      "end": 291.997917,
      "velocity": 80,
      "hand": "right",
      "interactive": true,
      "label": "68"
    },
    {
      "id": "note-499",
      "midi": 71,
      "start": 292.0,
      "duration": 0.747917,
      "end": 292.747917,
      "velocity": 80,
      "hand": "right",
      "interactive": true,
      "label": "71"
    },
    {
      "id": "note-500",
      "midi": 83,
      "start": 292.0,
      "duration": 0.747917,
      "end": 292.747917,
      "velocity": 80,
      "hand": "right",
      "interactive": true,
      "label": "83"
    },
    {
      "id": "note-501",
      "midi": 69,
      "start": 292.75,
      "duration": 2.25,
      "end": 295.0,
      "velocity": 80,
      "hand": "right",
      "interactive": true,
      "label": "69"
    },
    {
      "id": "note-502",
      "midi": 81,
      "start": 292.75,
      "duration": 3.247917,
      "end": 295.997917,
      "velocity": 80,
      "hand": "right",
      "interactive": true,
      "label": "81"
    },
    {
      "id": "note-503",
      "midi": 69,
      "start": 296.0,
      "duration": 0.747917,
      "end": 296.747917,
      "velocity": 80,
      "hand": "right",
      "interactive": true,
      "label": "69"
    },
    {
      "id": "note-504",
      "midi": 81,
      "start": 296.0,
      "duration": 0.747917,
      "end": 296.747917,
      "velocity": 80,
      "hand": "right",
      "interactive": true,
      "label": "81"
    },
    {
      "id": "note-505",
      "midi": 81,
      "start": 296.75,
      "duration": 3.247917,
      "end": 299.997917,
      "velocity": 80,
      "hand": "right",
      "interactive": true,
      "label": "81"
    },
    {
      "id": "note-506",
      "midi": 93,
      "start": 296.75,
      "duration": 0.247917,
      "end": 296.997917,
      "velocity": 80,
      "hand": "right",
      "interactive": true,
      "label": "93"
    },
    {
      "id": "note-507",
      "midi": 93,
      "start": 297.0,
      "duration": 2.997917,
      "end": 299.997917,
      "velocity": 80,
      "hand": "right",
      "interactive": true,
      "label": "93"
    },
    {
      "id": "note-508",
      "midi": 81,
      "start": 300.0,
      "duration": 0.497917,
      "end": 300.497917,
      "velocity": 80,
      "hand": "right",
      "interactive": true,
      "label": "81"
    },
    {
      "id": "note-509",
      "midi": 93,
      "start": 300.0,
      "duration": 0.497917,
      "end": 300.497917,
      "velocity": 80,
      "hand": "right",
      "interactive": true,
      "label": "93"
    },
    {
      "id": "note-510",
      "midi": 85,
      "start": 300.5,
      "duration": 0.997917,
      "end": 301.497917,
      "velocity": 80,
      "hand": "right",
      "interactive": true,
      "label": "85"
    },
    {
      "id": "note-511",
      "midi": 97,
      "start": 300.5,
      "duration": 0.997917,
      "end": 301.497917,
      "velocity": 80,
      "hand": "right",
      "interactive": true,
      "label": "97"
    },
    {
      "id": "note-512",
      "midi": 83,
      "start": 301.5,
      "duration": 0.997917,
      "end": 302.497917,
      "velocity": 80,
      "hand": "right",
      "interactive": true,
      "label": "83"
    },
    {
      "id": "note-513",
      "midi": 95,
      "start": 301.5,
      "duration": 0.997917,
      "end": 302.497917,
      "velocity": 80,
      "hand": "right",
      "interactive": true,
      "label": "95"
    },
    {
      "id": "note-514",
      "midi": 80,
      "start": 302.5,
      "duration": 0.997917,
      "end": 303.497917,
      "velocity": 80,
      "hand": "right",
      "interactive": true,
      "label": "80"
    },
    {
      "id": "note-515",
      "midi": 92,
      "start": 302.5,
      "duration": 0.997917,
      "end": 303.497917,
      "velocity": 80,
      "hand": "right",
      "interactive": true,
      "label": "92"
    },
    {
      "id": "note-516",
      "midi": 78,
      "start": 303.5,
      "duration": 0.497917,
      "end": 303.997917,
      "velocity": 80,
      "hand": "right",
      "interactive": true,
      "label": "78"
    },
    {
      "id": "note-517",
      "midi": 90,
      "start": 303.5,
      "duration": 0.497917,
      "end": 303.997917,
      "velocity": 80,
      "hand": "right",
      "interactive": true,
      "label": "90"
    },
    {
      "id": "note-518",
      "midi": 76,
      "start": 304.0,
      "duration": 1.997917,
      "end": 305.997917,
      "velocity": 80,
      "hand": "right",
      "interactive": true,
      "label": "76"
    },
    {
      "id": "note-519",
      "midi": 88,
      "start": 304.0,
      "duration": 1.997917,
      "end": 305.997917,
      "velocity": 80,
      "hand": "right",
      "interactive": true,
      "label": "88"
    },
    {
      "id": "note-520",
      "midi": 69,
      "start": 306.0,
      "duration": 0.497917,
      "end": 306.497917,
      "velocity": 80,
      "hand": "right",
      "interactive": true,
      "label": "69"
    },
    {
      "id": "note-521",
      "midi": 81,
      "start": 306.0,
      "duration": 0.497917,
      "end": 306.497917,
      "velocity": 80,
      "hand": "right",
      "interactive": true,
      "label": "81"
    },
    {
      "id": "note-522",
      "midi": 71,
      "start": 306.5,
      "duration": 0.497917,
      "end": 306.997917,
      "velocity": 80,
      "hand": "right",
      "interactive": true,
      "label": "71"
    },
    {
      "id": "note-523",
      "midi": 83,
      "start": 306.5,
      "duration": 0.497917,
      "end": 306.997917,
      "velocity": 80,
      "hand": "right",
      "interactive": true,
      "label": "83"
    },
    {
      "id": "note-524",
      "midi": 73,
      "start": 307.0,
      "duration": 0.497917,
      "end": 307.497917,
      "velocity": 80,
      "hand": "right",
      "interactive": true,
      "label": "73"
    },
    {
      "id": "note-525",
      "midi": 85,
      "start": 307.0,
      "duration": 0.497917,
      "end": 307.497917,
      "velocity": 80,
      "hand": "right",
      "interactive": true,
      "label": "85"
    },
    {
      "id": "note-526",
      "midi": 76,
      "start": 307.5,
      "duration": 0.247917,
      "end": 307.747917,
      "velocity": 80,
      "hand": "right",
      "interactive": true,
      "label": "76"
    },
    {
      "id": "note-527",
      "midi": 88,
      "start": 307.5,
      "duration": 0.247917,
      "end": 307.747917,
      "velocity": 80,
      "hand": "right",
      "interactive": true,
      "label": "88"
    },
    {
      "id": "note-528",
      "midi": 76,
      "start": 307.75,
      "duration": 2.247917,
      "end": 309.997917,
      "velocity": 80,
      "hand": "right",
      "interactive": true,
      "label": "76"
    },
    {
      "id": "note-529",
      "midi": 81,
      "start": 307.75,
      "duration": 2.247917,
      "end": 309.997917,
      "velocity": 80,
      "hand": "right",
      "interactive": true,
      "label": "81"
    },
    {
      "id": "note-530",
      "midi": 88,
      "start": 307.75,
      "duration": 2.247917,
      "end": 309.997917,
      "velocity": 80,
      "hand": "right",
      "interactive": true,
      "label": "88"
    },
    {
      "id": "note-531",
      "midi": 73,
      "start": 310.0,
      "duration": 0.497917,
      "end": 310.497917,
      "velocity": 80,
      "hand": "right",
      "interactive": true,
      "label": "73"
    },
    {
      "id": "note-532",
      "midi": 85,
      "start": 310.0,
      "duration": 0.497917,
      "end": 310.497917,
      "velocity": 80,
      "hand": "right",
      "interactive": true,
      "label": "85"
    },
    {
      "id": "note-533",
      "midi": 71,
      "start": 310.5,
      "duration": 0.497917,
      "end": 310.997917,
      "velocity": 80,
      "hand": "right",
      "interactive": true,
      "label": "71"
    },
    {
      "id": "note-534",
      "midi": 83,
      "start": 310.5,
      "duration": 0.497917,
      "end": 310.997917,
      "velocity": 80,
      "hand": "right",
      "interactive": true,
      "label": "83"
    },
    {
      "id": "note-535",
      "midi": 69,
      "start": 311.0,
      "duration": 0.497917,
      "end": 311.497917,
      "velocity": 80,
      "hand": "right",
      "interactive": true,
      "label": "69"
    },
    {
      "id": "note-536",
      "midi": 81,
      "start": 311.0,
      "duration": 0.497917,
      "end": 311.497917,
      "velocity": 80,
      "hand": "right",
      "interactive": true,
      "label": "81"
    },
    {
      "id": "note-537",
      "midi": 71,
      "start": 311.5,
      "duration": 0.247917,
      "end": 311.747917,
      "velocity": 80,
      "hand": "right",
      "interactive": true,
      "label": "71"
    },
    {
      "id": "note-538",
      "midi": 83,
      "start": 311.5,
      "duration": 0.247917,
      "end": 311.747917,
      "velocity": 80,
      "hand": "right",
      "interactive": true,
      "label": "83"
    },
    {
      "id": "note-539",
      "midi": 69,
      "start": 311.75,
      "duration": 2.247917,
      "end": 313.997917,
      "velocity": 80,
      "hand": "right",
      "interactive": true,
      "label": "69"
    },
    {
      "id": "note-540",
      "midi": 81,
      "start": 311.75,
      "duration": 2.247917,
      "end": 313.997917,
      "velocity": 80,
      "hand": "right",
      "interactive": true,
      "label": "81"
    },
    {
      "id": "note-541",
      "midi": 69,
      "start": 314.0,
      "duration": 0.497917,
      "end": 314.497917,
      "velocity": 80,
      "hand": "right",
      "interactive": true,
      "label": "69"
    },
    {
      "id": "note-542",
      "midi": 71,
      "start": 314.5,
      "duration": 0.497917,
      "end": 314.997917,
      "velocity": 80,
      "hand": "right",
      "interactive": true,
      "label": "71"
    },
    {
      "id": "note-543",
      "midi": 73,
      "start": 315.0,
      "duration": 0.497917,
      "end": 315.497917,
      "velocity": 80,
      "hand": "right",
      "interactive": true,
      "label": "73"
    },
    {
      "id": "note-544",
      "midi": 76,
      "start": 315.5,
      "duration": 0.247917,
      "end": 315.747917,
      "velocity": 80,
      "hand": "right",
      "interactive": true,
      "label": "76"
    },
    {
      "id": "note-545",
      "midi": 69,
      "start": 315.75,
      "duration": 1.747917,
      "end": 317.497917,
      "velocity": 80,
      "hand": "right",
      "interactive": true,
      "label": "69"
    },
    {
      "id": "note-546",
      "midi": 69,
      "start": 317.5,
      "duration": 0.497917,
      "end": 317.997917,
      "velocity": 80,
      "hand": "right",
      "interactive": true,
      "label": "69"
    },
    {
      "id": "note-547",
      "midi": 69,
      "start": 318.0,
      "duration": 0.497917,
      "end": 318.497917,
      "velocity": 80,
      "hand": "right",
      "interactive": true,
      "label": "69"
    },
    {
      "id": "note-548",
      "midi": 68,
      "start": 318.5,
      "duration": 0.497917,
      "end": 318.997917,
      "velocity": 80,
      "hand": "right",
      "interactive": true,
      "label": "68"
    },
    {
      "id": "note-549",
      "midi": 66,
      "start": 319.0,
      "duration": 1.997917,
      "end": 320.997917,
      "velocity": 80,
      "hand": "right",
      "interactive": true,
      "label": "66"
    },
    {
      "id": "note-550",
      "midi": 68,
      "start": 321.0,
      "duration": 0.997917,
      "end": 321.997917,
      "velocity": 80,
      "hand": "right",
      "interactive": true,
      "label": "68"
    },
    {
      "id": "note-551",
      "midi": 69,
      "start": 322.0,
      "duration": 2.997917,
      "end": 324.997917,
      "velocity": 80,
      "hand": "right",
      "interactive": true,
      "label": "69"
    },
    {
      "id": "note-552",
      "midi": 62,
      "start": 325.0,
      "duration": 0.997917,
      "end": 325.997917,
      "velocity": 80,
      "hand": "right",
      "interactive": true,
      "label": "62"
    },
    {
      "id": "note-553",
      "midi": 65,
      "start": 325.0,
      "duration": 0.997917,
      "end": 325.997917,
      "velocity": 80,
      "hand": "right",
      "interactive": true,
      "label": "65"
    },
    {
      "id": "note-554",
      "midi": 61,
      "start": 326.0,
      "duration": 3.997917,
      "end": 329.997917,
      "velocity": 80,
      "hand": "right",
      "interactive": true,
      "label": "61"
    },
    {
      "id": "note-555",
      "midi": 64,
      "start": 326.083333,
      "duration": 3.9125,
      "end": 329.995833,
      "velocity": 80,
      "hand": "right",
      "interactive": true,
      "label": "64"
    }
  ]
}
