{
  "id": "qing-tian",
  "title": "晴天",
  "subtitle": "Jay Chou",
  "sourceFile": "D:\\Download\\midi\\qing-tian-qing-tien-jay-chou-qing-tian.mid",
  "bpm": 120.0,
  "ticksPerBeat": 480,
  "durationSeconds": 141.9,
  "minMidi": 36,
  "maxMidi": 81,
  "rightHandCount": 223,
  "leftHandCount": 0,
  "noteCount": 223,
  "notes": [
    {
      "id": "note-0",
      "midi": 62,
      "start": 2.0,
      "duration": 0.947917,
      "end": 2.947917,
      "velocity": 80,
      "hand": "right",
      "interactive": true,
      "label": "62"
    },
    {
      "id": "note-1",
      "midi": 62,
      "start": 6.0,
      "duration": 0.947917,
      "end": 6.947917,
      "velocity": 80,
      "hand": "right",
      "interactive": true,
      "label": "62"
    },
    {
      "id": "note-2",
      "midi": 62,
      "start": 10.0,
      "duration": 0.947917,
      "end": 10.947917,
      "velocity": 80,
      "hand": "right",
      "interactive": true,
      "label": "62"
    },
    {
      "id": "note-3",
      "midi": 62,
      "start": 13.0,
      "duration": 0.947917,
      "end": 13.947917,
      "velocity": 80,
      "hand": "right",
      "interactive": true,
      "label": "62"
    },
    {
      "id": "note-4",
      "midi": 62,
      "start": 15.0,
      "duration": 0.947917,
      "end": 15.947917,
      "velocity": 80,
      "hand": "right",
      "interactive": true,
      "label": "62"
    },
    {
      "id": "note-5",
      "midi": 62,
      "start": 18.0,
      "duration": 0.947917,
      "end": 18.947917,
      "velocity": 80,
      "hand": "right",
      "interactive": true,
      "label": "62"
    },
    {
      "id": "note-6",
      "midi": 62,
      "start": 22.0,
      "duration": 0.947917,
      "end": 22.947917,
      "velocity": 80,
      "hand": "right",
      "interactive": true,
      "label": "62"
    },
    {
      "id": "note-7",
      "midi": 62,
      "start": 26.0,
      "duration": 0.947917,
      "end": 26.947917,
      "velocity": 80,
      "hand": "right",
      "interactive": true,
      "label": "62"
    },
    {
      "id": "note-8",
      "midi": 62,
      "start": 29.0,
      "duration": 0.947917,
      "end": 29.947917,
      "velocity": 80,
      "hand": "right",
      "interactive": true,
      "label": "62"
    },
    {
      "id": "note-9",
      "midi": 62,
      "start": 31.0,
      "duration": 0.947917,
      "end": 31.947917,
      "velocity": 80,
      "hand": "right",
      "interactive": true,
      "label": "62"
    },
    {
      "id": "note-10",
      "midi": 74,
      "start": 33.0,
      "duration": 0.947917,
      "end": 33.947917,
      "velocity": 80,
      "hand": "right",
      "interactive": true,
      "label": "74"
    },
    {
      "id": "note-11",
      "midi": 74,
      "start": 34.0,
      "duration": 0.947917,
      "end": 34.947917,
      "velocity": 80,
      "hand": "right",
      "interactive": true,
      "label": "74"
    },
    {
      "id": "note-12",
      "midi": 67,
      "start": 35.0,
      "duration": 0.947917,
      "end": 35.947917,
      "velocity": 80,
      "hand": "right",
      "interactive": true,
      "label": "67"
    },
    {
      "id": "note-13",
      "midi": 67,
      "start": 36.0,
      "duration": 1.897917,
      "end": 37.897917,
      "velocity": 80,
      "hand": "right",
      "interactive": true,
      "label": "67"
    },
    {
      "id": "note-14",
      "midi": 69,
      "start": 38.0,
      "duration": 0.947917,
      "end": 38.947917,
      "velocity": 80,
      "hand": "right",
      "interactive": true,
      "label": "69"
    },
    {
      "id": "note-15",
      "midi": 71,
      "start": 39.0,
      "duration": 0.947917,
      "end": 39.947917,
      "velocity": 80,
      "hand": "right",
      "interactive": true,
      "label": "71"
    },
    {
      "id": "note-16",
      "midi": 74,
      "start": 41.0,
      "duration": 0.947917,
      "end": 41.947917,
      "velocity": 80,
      "hand": "right",
      "interactive": true,
      "label": "74"
    },
    {
      "id": "note-17",
      "midi": 74,
      "start": 42.0,
      "duration": 0.947917,
      "end": 42.947917,
      "velocity": 80,
      "hand": "right",
      "interactive": true,
      "label": "74"
    },
    {
      "id": "note-18",
      "midi": 67,
      "start": 43.0,
      "duration": 0.947917,
      "end": 43.947917,
      "velocity": 80,
      "hand": "right",
      "interactive": true,
      "label": "67"
    },
    {
      "id": "note-19",
      "midi": 67,
      "start": 44.0,
      "duration": 0.947917,
      "end": 44.947917,
      "velocity": 80,
      "hand": "right",
      "interactive": true,
      "label": "67"
    },
    {
      "id": "note-20",
      "midi": 67,
      "start": 45.0,
      "duration": 0.472917,
      "end": 45.472917,
      "velocity": 80,
      "hand": "right",
      "interactive": true,
      "label": "67"
    },
    {
      "id": "note-21",
      "midi": 71,
      "start": 45.5,
      "duration": 0.472917,
      "end": 45.972917,
      "velocity": 80,
      "hand": "right",
      "interactive": true,
      "label": "71"
    },
    {
      "id": "note-22",
      "midi": 69,
      "start": 46.0,
      "duration": 0.472917,
      "end": 46.472917,
      "velocity": 80,
      "hand": "right",
      "interactive": true,
      "label": "69"
    },
    {
      "id": "note-23",
      "midi": 67,
      "start": 46.5,
      "duration": 0.472917,
      "end": 46.972917,
      "velocity": 80,
      "hand": "right",
      "interactive": true,
      "label": "67"
    },
    {
      "id": "note-24",
      "midi": 62,
      "start": 47.0,
      "duration": 0.947917,
      "end": 47.947917,
      "velocity": 80,
      "hand": "right",
      "interactive": true,
      "label": "62"
    },
    {
      "id": "note-25",
      "midi": 74,
      "start": 49.0,
      "duration": 0.947917,
      "end": 49.947917,
      "velocity": 80,
      "hand": "right",
      "interactive": true,
      "label": "74"
    },
    {
      "id": "note-26",
      "midi": 74,
      "start": 50.0,
      "duration": 0.947917,
      "end": 50.947917,
      "velocity": 80,
      "hand": "right",
      "interactive": true,
      "label": "74"
    },
    {
      "id": "note-27",
      "midi": 67,
      "start": 51.0,
      "duration": 0.947917,
      "end": 51.947917,
      "velocity": 80,
      "hand": "right",
      "interactive": true,
      "label": "67"
    },
    {
      "id": "note-28",
      "midi": 67,
      "start": 52.0,
      "duration": 0.947917,
      "end": 52.947917,
      "velocity": 80,
      "hand": "right",
      "interactive": true,
      "label": "67"
    },
    {
      "id": "note-29",
      "midi": 69,
      "start": 54.0,
      "duration": 0.947917,
      "end": 54.947917,
      "velocity": 80,
      "hand": "right",
      "interactive": true,
      "label": "69"
    },
    {
      "id": "note-30",
      "midi": 71,
      "start": 55.0,
      "duration": 1.897917,
      "end": 56.897917,
      "velocity": 80,
      "hand": "right",
      "interactive": true,
      "label": "71"
    },
    {
      "id": "note-31",
      "midi": 71,
      "start": 57.0,
      "duration": 1.897917,
      "end": 58.897917,
      "velocity": 80,
      "hand": "right",
      "interactive": true,
      "label": "71"
    },
    {
      "id": "note-32",
      "midi": 69,
      "start": 59.0,
      "duration": 0.472917,
      "end": 59.472917,
      "velocity": 80,
      "hand": "right",
      "interactive": true,
      "label": "69"
    },
    {
      "id": "note-33",
      "midi": 71,
      "start": 59.5,
      "duration": 0.472917,
      "end": 59.972917,
      "velocity": 80,
      "hand": "right",
      "interactive": true,
      "label": "71"
    },
    {
      "id": "note-34",
      "midi": 72,
      "start": 60.0,
      "duration": 0.472917,
      "end": 60.472917,
      "velocity": 80,
      "hand": "right",
      "interactive": true,
      "label": "72"
    },
    {
      "id": "note-35",
      "midi": 71,
      "start": 60.5,
      "duration": 0.472917,
      "end": 60.972917,
      "velocity": 80,
      "hand": "right",
      "interactive": true,
      "label": "71"
    },
    {
      "id": "note-36",
      "midi": 69,
      "start": 61.0,
      "duration": 0.472917,
      "end": 61.472917,
      "velocity": 80,
      "hand": "right",
      "interactive": true,
      "label": "69"
    },
    {
      "id": "note-37",
      "midi": 72,
      "start": 61.5,
      "duration": 0.472917,
      "end": 61.972917,
      "velocity": 80,
      "hand": "right",
      "interactive": true,
      "label": "72"
    },
    {
      "id": "note-38",
      "midi": 71,
      "start": 62.0,
      "duration": 0.947917,
      "end": 62.947917,
      "velocity": 80,
      "hand": "right",
      "interactive": true,
      "label": "71"
    },
    {
      "id": "note-39",
      "midi": 67,
      "start": 63.0,
      "duration": 0.947917,
      "end": 63.947917,
      "velocity": 80,
      "hand": "right",
      "interactive": true,
      "label": "67"
    },
    {
      "id": "note-40",
      "midi": 62,
      "start": 64.0,
      "duration": 0.947917,
      "end": 64.947917,
      "velocity": 80,
      "hand": "right",
      "interactive": true,
      "label": "62"
    },
    {
      "id": "note-41",
      "midi": 67,
      "start": 65.0,
      "duration": 0.947917,
      "end": 65.947917,
      "velocity": 80,
      "hand": "right",
      "interactive": true,
      "label": "67"
    },
    {
      "id": "note-42",
      "midi": 67,
      "start": 66.0,
      "duration": 0.947917,
      "end": 66.947917,
      "velocity": 80,
      "hand": "right",
      "interactive": true,
      "label": "67"
    },
    {
      "id": "note-43",
      "midi": 71,
      "start": 67.0,
      "duration": 0.947917,
      "end": 67.947917,
      "velocity": 80,
      "hand": "right",
      "interactive": true,
      "label": "71"
    },
    {
      "id": "note-44",
      "midi": 72,
      "start": 68.0,
      "duration": 0.947917,
      "end": 68.947917,
      "velocity": 80,
      "hand": "right",
      "interactive": true,
      "label": "72"
    },
    {
      "id": "note-45",
      "midi": 71,
      "start": 69.0,
      "duration": 0.947917,
      "end": 69.947917,
      "velocity": 80,
      "hand": "right",
      "interactive": true,
      "label": "71"
    },
    {
      "id": "note-46",
      "midi": 69,
      "start": 70.0,
      "duration": 0.947917,
      "end": 70.947917,
      "velocity": 80,
      "hand": "right",
      "interactive": true,
      "label": "69"
    },
    {
      "id": "note-47",
      "midi": 67,
      "start": 71.0,
      "duration": 0.472917,
      "end": 71.472917,
      "velocity": 80,
      "hand": "right",
      "interactive": true,
      "label": "67"
    },
    {
      "id": "note-48",
      "midi": 69,
      "start": 71.5,
      "duration": 0.472917,
      "end": 71.972917,
      "velocity": 80,
      "hand": "right",
      "interactive": true,
      "label": "69"
    },
    {
      "id": "note-49",
      "midi": 71,
      "start": 72.0,
      "duration": 0.947917,
      "end": 72.947917,
      "velocity": 80,
      "hand": "right",
      "interactive": true,
      "label": "71"
    },
    {
      "id": "note-50",
      "midi": 71,
      "start": 73.0,
      "duration": 0.947917,
      "end": 73.947917,
      "velocity": 80,
      "hand": "right",
      "interactive": true,
      "label": "71"
    },
    {
      "id": "note-51",
      "midi": 71,
      "start": 74.0,
      "duration": 0.947917,
      "end": 74.947917,
      "velocity": 80,
      "hand": "right",
      "interactive": true,
      "label": "71"
    },
    {
      "id": "note-52",
      "midi": 71,
      "start": 75.0,
      "duration": 0.947917,
      "end": 75.947917,
      "velocity": 80,
      "hand": "right",
      "interactive": true,
      "label": "71"
    },
    {
      "id": "note-53",
      "midi": 69,
      "start": 76.0,
      "duration": 0.472917,
      "end": 76.472917,
      "velocity": 80,
      "hand": "right",
      "interactive": true,
      "label": "69"
    },
    {
      "id": "note-54",
      "midi": 71,
      "start": 76.5,
      "duration": 0.472917,
      "end": 76.972917,
      "velocity": 80,
      "hand": "right",
      "interactive": true,
      "label": "71"
    },
    {
      "id": "note-55",
      "midi": 69,
      "start": 77.0,
      "duration": 0.947917,
      "end": 77.947917,
      "velocity": 80,
      "hand": "right",
      "interactive": true,
      "label": "69"
    },
    {
      "id": "note-56",
      "midi": 67,
      "start": 78.0,
      "duration": 1.422917,
      "end": 79.422917,
      "velocity": 80,
      "hand": "right",
      "interactive": true,
      "label": "67"
    },
    {
      "id": "note-57",
      "midi": 66,
      "start": 79.5,
      "duration": 0.472917,
      "end": 79.972917,
      "velocity": 80,
      "hand": "right",
      "interactive": true,
      "label": "66"
    },
    {
      "id": "note-58",
      "midi": 67,
      "start": 80.0,
      "duration": 0.472917,
      "end": 80.472917,
      "velocity": 80,
      "hand": "right",
      "interactive": true,
      "label": "67"
    },
    {
      "id": "note-59",
      "midi": 67,
      "start": 80.5,
      "duration": 0.472917,
      "end": 80.972917,
      "velocity": 80,
      "hand": "right",
      "interactive": true,
      "label": "67"
    },
    {
      "id": "note-60",
      "midi": 67,
      "start": 81.0,
      "duration": 0.472917,
      "end": 81.472917,
      "velocity": 80,
      "hand": "right",
      "interactive": true,
      "label": "67"
    },
    {
      "id": "note-61",
      "midi": 67,
      "start": 81.5,
      "duration": 0.472917,
      "end": 81.972917,
      "velocity": 80,
      "hand": "right",
      "interactive": true,
      "label": "67"
    },
    {
      "id": "note-62",
      "midi": 66,
      "start": 82.0,
      "duration": 0.472917,
      "end": 82.472917,
      "velocity": 80,
      "hand": "right",
      "interactive": true,
      "label": "66"
    },
    {
      "id": "note-63",
      "midi": 67,
      "start": 82.5,
      "duration": 0.947917,
      "end": 83.447917,
      "velocity": 80,
      "hand": "right",
      "interactive": true,
      "label": "67"
    },
    {
      "id": "note-64",
      "midi": 67,
      "start": 83.5,
      "duration": 0.947917,
      "end": 84.447917,
      "velocity": 80,
      "hand": "right",
      "interactive": true,
      "label": "67"
    },
    {
      "id": "note-65",
      "midi": 67,
      "start": 84.5,
      "duration": 0.472917,
      "end": 84.972917,
      "velocity": 80,
      "hand": "right",
      "interactive": true,
      "label": "67"
    },
    {
      "id": "note-66",
      "midi": 67,
      "start": 85.0,
      "duration": 0.472917,
      "end": 85.472917,
      "velocity": 80,
      "hand": "right",
      "interactive": true,
      "label": "67"
    },
    {
      "id": "note-67",
      "midi": 67,
      "start": 85.5,
      "duration": 0.472917,
      "end": 85.972917,
      "velocity": 80,
      "hand": "right",
      "interactive": true,
      "label": "67"
    },
    {
      "id": "note-68",
      "midi": 66,
      "start": 86.0,
      "duration": 0.472917,
      "end": 86.472917,
      "velocity": 80,
      "hand": "right",
      "interactive": true,
      "label": "66"
    },
    {
      "id": "note-69",
      "midi": 67,
      "start": 86.5,
      "duration": 0.947917,
      "end": 87.447917,
      "velocity": 80,
      "hand": "right",
      "interactive": true,
      "label": "67"
    },
    {
      "id": "note-70",
      "midi": 67,
      "start": 87.5,
      "duration": 0.947917,
      "end": 88.447917,
      "velocity": 80,
      "hand": "right",
      "interactive": true,
      "label": "67"
    },
    {
      "id": "note-71",
      "midi": 67,
      "start": 88.5,
      "duration": 0.472917,
      "end": 88.972917,
      "velocity": 80,
      "hand": "right",
      "interactive": true,
      "label": "67"
    },
    {
      "id": "note-72",
      "midi": 67,
      "start": 89.0,
      "duration": 0.472917,
      "end": 89.472917,
      "velocity": 80,
      "hand": "right",
      "interactive": true,
      "label": "67"
    },
    {
      "id": "note-73",
      "midi": 67,
      "start": 89.5,
      "duration": 0.472917,
      "end": 89.972917,
      "velocity": 80,
      "hand": "right",
      "interactive": true,
      "label": "67"
    },
    {
      "id": "note-74",
      "midi": 66,
      "start": 90.0,
      "duration": 0.472917,
      "end": 90.472917,
      "velocity": 80,
      "hand": "right",
      "interactive": true,
      "label": "66"
    },
    {
      "id": "note-75",
      "midi": 67,
      "start": 90.5,
      "duration": 0.947917,
      "end": 91.447917,
      "velocity": 80,
      "hand": "right",
      "interactive": true,
      "label": "67"
    },
    {
      "id": "note-76",
      "midi": 67,
      "start": 91.5,
      "duration": 0.947917,
      "end": 92.447917,
      "velocity": 80,
      "hand": "right",
      "interactive": true,
      "label": "67"
    },
    {
      "id": "note-77",
      "midi": 67,
      "start": 92.5,
      "duration": 0.472917,
      "end": 92.972917,
      "velocity": 80,
      "hand": "right",
      "interactive": true,
      "label": "67"
    },
    {
      "id": "note-78",
      "midi": 67,
      "start": 93.0,
      "duration": 0.472917,
      "end": 93.472917,
      "velocity": 80,
      "hand": "right",
      "interactive": true,
      "label": "67"
    },
    {
      "id": "note-79",
      "midi": 67,
      "start": 93.5,
      "duration": 0.472917,
      "end": 93.972917,
      "velocity": 80,
      "hand": "right",
      "interactive": true,
      "label": "67"
    },
    {
      "id": "note-80",
      "midi": 74,
      "start": 94.0,
      "duration": 0.472917,
      "end": 94.472917,
      "velocity": 80,
      "hand": "right",
      "interactive": true,
      "label": "74"
    },
    {
      "id": "note-81",
      "midi": 74,
      "start": 94.5,
      "duration": 0.947917,
      "end": 95.447917,
      "velocity": 80,
      "hand": "right",
      "interactive": true,
      "label": "74"
    },
    {
      "id": "note-82",
      "midi": 74,
      "start": 95.5,
      "duration": 0.947917,
      "end": 96.447917,
      "velocity": 80,
      "hand": "right",
      "interactive": true,
      "label": "74"
    },
    {
      "id": "note-83",
      "midi": 74,
      "start": 96.5,
      "duration": 0.472917,
      "end": 96.972917,
      "velocity": 80,
      "hand": "right",
      "interactive": true,
      "label": "74"
    },
    {
      "id": "note-84",
      "midi": 74,
      "start": 97.0,
      "duration": 0.472917,
      "end": 97.472917,
      "velocity": 80,
      "hand": "right",
      "interactive": true,
      "label": "74"
    },
    {
      "id": "note-85",
      "midi": 74,
      "start": 97.5,
      "duration": 0.472917,
      "end": 97.972917,
      "velocity": 80,
      "hand": "right",
      "interactive": true,
      "label": "74"
    },
    {
      "id": "note-86",
      "midi": 74,
      "start": 98.0,
      "duration": 0.472917,
      "end": 98.472917,
      "velocity": 80,
      "hand": "right",
      "interactive": true,
      "label": "74"
    },
    {
      "id": "note-87",
      "midi": 74,
      "start": 98.5,
      "duration": 0.947917,
      "end": 99.447917,
      "velocity": 80,
      "hand": "right",
      "interactive": true,
      "label": "74"
    },
    {
      "id": "note-88",
      "midi": 74,
      "start": 99.5,
      "duration": 0.947917,
      "end": 100.447917,
      "velocity": 80,
      "hand": "right",
      "interactive": true,
      "label": "74"
    },
    {
      "id": "note-89",
      "midi": 74,
      "start": 100.5,
      "duration": 0.472917,
      "end": 100.972917,
      "velocity": 80,
      "hand": "right",
      "interactive": true,
      "label": "74"
    },
    {
      "id": "note-90",
      "midi": 74,
      "start": 101.0,
      "duration": 0.472917,
      "end": 101.472917,
      "velocity": 80,
      "hand": "right",
      "interactive": true,
      "label": "74"
    },
    {
      "id": "note-91",
      "midi": 74,
      "start": 101.5,
      "duration": 0.472917,
      "end": 101.972917,
      "velocity": 80,
      "hand": "right",
      "interactive": true,
      "label": "74"
    },
    {
      "id": "note-92",
      "midi": 74,
      "start": 102.0,
      "duration": 0.472917,
      "end": 102.472917,
      "velocity": 80,
      "hand": "right",
      "interactive": true,
      "label": "74"
    },
    {
      "id": "note-93",
      "midi": 72,
      "start": 102.5,
      "duration": 0.472917,
      "end": 102.972917,
      "velocity": 80,
      "hand": "right",
      "interactive": true,
      "label": "72"
    },
    {
      "id": "note-94",
      "midi": 71,
      "start": 103.0,
      "duration": 0.472917,
      "end": 103.472917,
      "velocity": 80,
      "hand": "right",
      "interactive": true,
      "label": "71"
    },
    {
      "id": "note-95",
      "midi": 71,
      "start": 103.5,
      "duration": 6.172917,
      "end": 109.672917,
      "velocity": 80,
      "hand": "right",
      "interactive": true,
      "label": "71"
    },
    {
      "id": "note-96",
      "midi": 69,
      "start": 110.0,
      "duration": 0.472917,
      "end": 110.472917,
      "velocity": 80,
      "hand": "right",
      "interactive": true,
      "label": "69"
    },
    {
      "id": "note-97",
      "midi": 67,
      "start": 110.5,
      "duration": 0.472917,
      "end": 110.972917,
      "velocity": 80,
      "hand": "right",
      "interactive": true,
      "label": "67"
    },
    {
      "id": "note-98",
      "midi": 66,
      "start": 111.0,
      "duration": 0.472917,
      "end": 111.472917,
      "velocity": 80,
      "hand": "right",
      "interactive": true,
      "label": "66"
    },
    {
      "id": "note-99",
      "midi": 67,
      "start": 111.5,
      "duration": 0.472917,
      "end": 111.972917,
      "velocity": 80,
      "hand": "right",
      "interactive": true,
      "label": "67"
    },
    {
      "id": "note-100",
      "midi": 64,
      "start": 112.0,
      "duration": 0.947917,
      "end": 112.947917,
      "velocity": 80,
      "hand": "right",
      "interactive": true,
      "label": "64"
    },
    {
      "id": "note-101",
      "midi": 66,
      "start": 113.0,
      "duration": 0.947917,
      "end": 113.947917,
      "velocity": 80,
      "hand": "right",
      "interactive": true,
      "label": "66"
    },
    {
      "id": "note-102",
      "midi": 67,
      "start": 114.0,
      "duration": 0.947917,
      "end": 114.947917,
      "velocity": 80,
      "hand": "right",
      "interactive": true,
      "label": "67"
    },
    {
      "id": "note-103",
      "midi": 74,
      "start": 115.0,
      "duration": 0.947917,
      "end": 115.947917,
      "velocity": 80,
      "hand": "right",
      "interactive": true,
      "label": "74"
    },
    {
      "id": "note-104",
      "midi": 72,
      "start": 116.0,
      "duration": 0.947917,
      "end": 116.947917,
      "velocity": 80,
      "hand": "right",
      "interactive": true,
      "label": "72"
    },
    {
      "id": "note-105",
      "midi": 71,
      "start": 117.0,
      "duration": 0.947917,
      "end": 117.947917,
      "velocity": 80,
      "hand": "right",
      "interactive": true,
      "label": "71"
    },
    {
      "id": "note-106",
      "midi": 67,
      "start": 118.0,
      "duration": 0.947917,
      "end": 118.947917,
      "velocity": 80,
      "hand": "right",
      "interactive": true,
      "label": "67"
    },
    {
      "id": "note-107",
      "midi": 67,
      "start": 119.0,
      "duration": 4.272917,
      "end": 123.272917,
      "velocity": 80,
      "hand": "right",
      "interactive": true,
      "label": "67"
    },
    {
      "id": "note-108",
      "midi": 67,
      "start": 123.5,
      "duration": 0.947917,
      "end": 124.447917,
      "velocity": 80,
      "hand": "right",
      "interactive": true,
      "label": "67"
    },
    {
      "id": "note-109",
      "midi": 67,
      "start": 124.5,
      "duration": 0.472917,
      "end": 124.972917,
      "velocity": 80,
      "hand": "right",
      "interactive": true,
      "label": "67"
    },
    {
      "id": "note-110",
      "midi": 67,
      "start": 125.0,
      "duration": 0.472917,
      "end": 125.472917,
      "velocity": 80,
      "hand": "right",
      "interactive": true,
      "label": "67"
    },
    {
      "id": "note-111",
      "midi": 67,
      "start": 125.5,
      "duration": 0.472917,
      "end": 125.972917,
      "velocity": 80,
      "hand": "right",
      "interactive": true,
      "label": "67"
    },
    {
      "id": "note-112",
      "midi": 71,
      "start": 126.0,
      "duration": 0.947917,
      "end": 126.947917,
      "velocity": 80,
      "hand": "right",
      "interactive": true,
      "label": "71"
    },
    {
      "id": "note-113",
      "midi": 67,
      "start": 127.0,
      "duration": 0.947917,
      "end": 127.947917,
      "velocity": 80,
      "hand": "right",
      "interactive": true,
      "label": "67"
    },
    {
      "id": "note-114",
      "midi": 64,
      "start": 128.0,
      "duration": 0.947917,
      "end": 128.947917,
      "velocity": 80,
      "hand": "right",
      "interactive": true,
      "label": "64"
    },
    {
      "id": "note-115",
      "midi": 66,
      "start": 129.0,
      "duration": 0.947917,
      "end": 129.947917,
      "velocity": 80,
      "hand": "right",
      "interactive": true,
      "label": "66"
    },
    {
      "id": "note-116",
      "midi": 67,
      "start": 130.0,
      "duration": 0.947917,
      "end": 130.947917,
      "velocity": 80,
      "hand": "right",
      "interactive": true,
      "label": "67"
    },
    {
      "id": "note-117",
      "midi": 74,
      "start": 131.0,
      "duration": 0.947917,
      "end": 131.947917,
      "velocity": 80,
      "hand": "right",
      "interactive": true,
      "label": "74"
    },
    {
      "id": "note-118",
      "midi": 72,
      "start": 132.0,
      "duration": 0.947917,
      "end": 132.947917,
      "velocity": 80,
      "hand": "right",
      "interactive": true,
      "label": "72"
    },
    {
      "id": "note-119",
      "midi": 71,
      "start": 133.0,
      "duration": 0.947917,
      "end": 133.947917,
      "velocity": 80,
      "hand": "right",
      "interactive": true,
      "label": "71"
    },
    {
      "id": "note-120",
      "midi": 67,
      "start": 134.0,
      "duration": 0.947917,
      "end": 134.947917,
      "velocity": 80,
      "hand": "right",
      "interactive": true,
      "label": "67"
    },
    {
      "id": "note-121",
      "midi": 69,
      "start": 135.0,
      "duration": 8.547917,
      "end": 143.547917,
      "velocity": 80,
      "hand": "right",
      "interactive": true,
      "label": "69"
    },
    {
      "id": "note-122",
      "midi": 71,
      "start": 144.0,
      "duration": 0.947917,
      "end": 144.947917,
      "velocity": 80,
      "hand": "right",
      "interactive": true,
      "label": "71"
    },
    {
      "id": "note-123",
      "midi": 69,
      "start": 145.0,
      "duration": 0.947917,
      "end": 145.947917,
      "velocity": 80,
      "hand": "right",
      "interactive": true,
      "label": "69"
    },
    {
      "id": "note-124",
      "midi": 72,
      "start": 146.0,
      "duration": 0.947917,
      "end": 146.947917,
      "velocity": 80,
      "hand": "right",
      "interactive": true,
      "label": "72"
    },
    {
      "id": "note-125",
      "midi": 71,
      "start": 147.0,
      "duration": 1.897917,
      "end": 148.897917,
      "velocity": 80,
      "hand": "right",
      "interactive": true,
      "label": "71"
    },
    {
      "id": "note-126",
      "midi": 67,
      "start": 149.0,
      "duration": 0.947917,
      "end": 149.947917,
      "velocity": 80,
      "hand": "right",
      "interactive": true,
      "label": "67"
    },
    {
      "id": "note-127",
      "midi": 74,
      "start": 150.0,
      "duration": 0.947917,
      "end": 150.947917,
      "velocity": 80,
      "hand": "right",
      "interactive": true,
      "label": "74"
    },
    {
      "id": "note-128",
      "midi": 78,
      "start": 151.0,
      "duration": 0.947917,
      "end": 151.947917,
      "velocity": 80,
      "hand": "right",
      "interactive": true,
      "label": "78"
    },
    {
      "id": "note-129",
      "midi": 79,
      "start": 152.0,
      "duration": 0.947917,
      "end": 152.947917,
      "velocity": 80,
      "hand": "right",
      "interactive": true,
      "label": "79"
    },
    {
      "id": "note-130",
      "midi": 78,
      "start": 153.0,
      "duration": 0.947917,
      "end": 153.947917,
      "velocity": 80,
      "hand": "right",
      "interactive": true,
      "label": "78"
    },
    {
      "id": "note-131",
      "midi": 74,
      "start": 154.0,
      "duration": 0.947917,
      "end": 154.947917,
      "velocity": 80,
      "hand": "right",
      "interactive": true,
      "label": "74"
    },
    {
      "id": "note-132",
      "midi": 67,
      "start": 155.0,
      "duration": 1.897917,
      "end": 156.897917,
      "velocity": 80,
      "hand": "right",
      "interactive": true,
      "label": "67"
    },
    {
      "id": "note-133",
      "midi": 67,
      "start": 157.0,
      "duration": 0.947917,
      "end": 157.947917,
      "velocity": 80,
      "hand": "right",
      "interactive": true,
      "label": "67"
    },
    {
      "id": "note-134",
      "midi": 76,
      "start": 158.0,
      "duration": 0.947917,
      "end": 158.947917,
      "velocity": 80,
      "hand": "right",
      "interactive": true,
      "label": "76"
    },
    {
      "id": "note-135",
      "midi": 76,
      "start": 159.0,
      "duration": 1.897917,
      "end": 160.897917,
      "velocity": 80,
      "hand": "right",
      "interactive": true,
      "label": "76"
    },
    {
      "id": "note-136",
      "midi": 76,
      "start": 161.0,
      "duration": 0.947917,
      "end": 161.947917,
      "velocity": 80,
      "hand": "right",
      "interactive": true,
      "label": "76"
    },
    {
      "id": "note-137",
      "midi": 74,
      "start": 162.0,
      "duration": 0.947917,
      "end": 162.947917,
      "velocity": 80,
      "hand": "right",
      "interactive": true,
      "label": "74"
    },
    {
      "id": "note-138",
      "midi": 74,
      "start": 163.0,
      "duration": 1.897917,
      "end": 164.897917,
      "velocity": 80,
      "hand": "right",
      "interactive": true,
      "label": "74"
    },
    {
      "id": "note-139",
      "midi": 74,
      "start": 165.0,
      "duration": 0.947917,
      "end": 165.947917,
      "velocity": 80,
      "hand": "right",
      "interactive": true,
      "label": "74"
    },
    {
      "id": "note-140",
      "midi": 72,
      "start": 166.0,
      "duration": 0.947917,
      "end": 166.947917,
      "velocity": 80,
      "hand": "right",
      "interactive": true,
      "label": "72"
    },
    {
      "id": "note-141",
      "midi": 71,
      "start": 167.0,
      "duration": 0.947917,
      "end": 167.947917,
      "velocity": 80,
      "hand": "right",
      "interactive": true,
      "label": "71"
    },
    {
      "id": "note-142",
      "midi": 69,
      "start": 168.0,
      "duration": 0.947917,
      "end": 168.947917,
      "velocity": 80,
      "hand": "right",
      "interactive": true,
      "label": "69"
    },
    {
      "id": "note-143",
      "midi": 71,
      "start": 169.0,
      "duration": 0.947917,
      "end": 169.947917,
      "velocity": 80,
      "hand": "right",
      "interactive": true,
      "label": "71"
    },
    {
      "id": "note-144",
      "midi": 72,
      "start": 170.0,
      "duration": 0.947917,
      "end": 170.947917,
      "velocity": 80,
      "hand": "right",
      "interactive": true,
      "label": "72"
    },
    {
      "id": "note-145",
      "midi": 71,
      "start": 171.0,
      "duration": 4.747917,
      "end": 175.747917,
      "velocity": 80,
      "hand": "right",
      "interactive": true,
      "label": "71"
    },
    {
      "id": "note-146",
      "midi": 71,
      "start": 176.0,
      "duration": 0.947917,
      "end": 176.947917,
      "velocity": 80,
      "hand": "right",
      "interactive": true,
      "label": "71"
    },
    {
      "id": "note-147",
      "midi": 73,
      "start": 177.0,
      "duration": 0.947917,
      "end": 177.947917,
      "velocity": 80,
      "hand": "right",
      "interactive": true,
      "label": "73"
    },
    {
      "id": "note-148",
      "midi": 75,
      "start": 178.0,
      "duration": 0.947917,
      "end": 178.947917,
      "velocity": 80,
      "hand": "right",
      "interactive": true,
      "label": "75"
    },
    {
      "id": "note-149",
      "midi": 71,
      "start": 179.0,
      "duration": 1.897917,
      "end": 180.897917,
      "velocity": 80,
      "hand": "right",
      "interactive": true,
      "label": "71"
    },
    {
      "id": "note-150",
      "midi": 73,
      "start": 181.0,
      "duration": 0.947917,
      "end": 181.947917,
      "velocity": 80,
      "hand": "right",
      "interactive": true,
      "label": "73"
    },
    {
      "id": "note-151",
      "midi": 75,
      "start": 182.0,
      "duration": 0.947917,
      "end": 182.947917,
      "velocity": 80,
      "hand": "right",
      "interactive": true,
      "label": "75"
    },
    {
      "id": "note-152",
      "midi": 78,
      "start": 183.0,
      "duration": 0.947917,
      "end": 183.947917,
      "velocity": 80,
      "hand": "right",
      "interactive": true,
      "label": "78"
    },
    {
      "id": "note-153",
      "midi": 81,
      "start": 184.0,
      "duration": 0.947917,
      "end": 184.947917,
      "velocity": 80,
      "hand": "right",
      "interactive": true,
      "label": "81"
    },
    {
      "id": "note-154",
      "midi": 78,
      "start": 185.0,
      "duration": 0.947917,
      "end": 185.947917,
      "velocity": 80,
      "hand": "right",
      "interactive": true,
      "label": "78"
    },
    {
      "id": "note-155",
      "midi": 79,
      "start": 186.0,
      "duration": 0.947917,
      "end": 186.947917,
      "velocity": 80,
      "hand": "right",
      "interactive": true,
      "label": "79"
    },
    {
      "id": "note-156",
      "midi": 79,
      "start": 187.0,
      "duration": 3.797917,
      "end": 190.797917,
      "velocity": 80,
      "hand": "right",
      "interactive": true,
      "label": "79"
    },
    {
      "id": "note-157",
      "midi": 79,
      "start": 191.0,
      "duration": 0.947917,
      "end": 191.947917,
      "velocity": 80,
      "hand": "right",
      "interactive": true,
      "label": "79"
    },
    {
      "id": "note-158",
      "midi": 79,
      "start": 192.0,
      "duration": 0.947917,
      "end": 192.947917,
      "velocity": 80,
      "hand": "right",
      "interactive": true,
      "label": "79"
    },
    {
      "id": "note-159",
      "midi": 74,
      "start": 193.0,
      "duration": 0.947917,
      "end": 193.947917,
      "velocity": 80,
      "hand": "right",
      "interactive": true,
      "label": "74"
    },
    {
      "id": "note-160",
      "midi": 74,
      "start": 194.0,
      "duration": 0.947917,
      "end": 194.947917,
      "velocity": 80,
      "hand": "right",
      "interactive": true,
      "label": "74"
    },
    {
      "id": "note-161",
      "midi": 76,
      "start": 195.0,
      "duration": 0.947917,
      "end": 195.947917,
      "velocity": 80,
      "hand": "right",
      "interactive": true,
      "label": "76"
    },
    {
      "id": "note-162",
      "midi": 74,
      "start": 196.0,
      "duration": 0.947917,
      "end": 196.947917,
      "velocity": 80,
      "hand": "right",
      "interactive": true,
      "label": "74"
    },
    {
      "id": "note-163",
      "midi": 72,
      "start": 197.0,
      "duration": 0.947917,
      "end": 197.947917,
      "velocity": 80,
      "hand": "right",
      "interactive": true,
      "label": "72"
    },
    {
      "id": "note-164",
      "midi": 69,
      "start": 198.0,
      "duration": 0.947917,
      "end": 198.947917,
      "velocity": 80,
      "hand": "right",
      "interactive": true,
      "label": "69"
    },
    {
      "id": "note-165",
      "midi": 71,
      "start": 199.0,
      "duration": 0.947917,
      "end": 199.947917,
      "velocity": 80,
      "hand": "right",
      "interactive": true,
      "label": "71"
    },
    {
      "id": "note-166",
      "midi": 72,
      "start": 200.0,
      "duration": 0.947917,
      "end": 200.947917,
      "velocity": 80,
      "hand": "right",
      "interactive": true,
      "label": "72"
    },
    {
      "id": "note-167",
      "midi": 74,
      "start": 201.0,
      "duration": 0.947917,
      "end": 201.947917,
      "velocity": 80,
      "hand": "right",
      "interactive": true,
      "label": "74"
    },
    {
      "id": "note-168",
      "midi": 76,
      "start": 202.0,
      "duration": 0.947917,
      "end": 202.947917,
      "velocity": 80,
      "hand": "right",
      "interactive": true,
      "label": "76"
    },
    {
      "id": "note-169",
      "midi": 67,
      "start": 203.0,
      "duration": 0.947917,
      "end": 203.947917,
      "velocity": 80,
      "hand": "right",
      "interactive": true,
      "label": "67"
    },
    {
      "id": "note-170",
      "midi": 76,
      "start": 204.0,
      "duration": 1.422917,
      "end": 205.422917,
      "velocity": 80,
      "hand": "right",
      "interactive": true,
      "label": "76"
    },
    {
      "id": "note-171",
      "midi": 78,
      "start": 205.5,
      "duration": 0.472917,
      "end": 205.972917,
      "velocity": 80,
      "hand": "right",
      "interactive": true,
      "label": "78"
    },
    {
      "id": "note-172",
      "midi": 78,
      "start": 206.0,
      "duration": 1.897917,
      "end": 207.897917,
      "velocity": 80,
      "hand": "right",
      "interactive": true,
      "label": "78"
    },
    {
      "id": "note-173",
      "midi": 71,
      "start": 208.0,
      "duration": 0.947917,
      "end": 208.947917,
      "velocity": 80,
      "hand": "right",
      "interactive": true,
      "label": "71"
    },
    {
      "id": "note-174",
      "midi": 69,
      "start": 209.0,
      "duration": 0.947917,
      "end": 209.947917,
      "velocity": 80,
      "hand": "right",
      "interactive": true,
      "label": "69"
    },
    {
      "id": "note-175",
      "midi": 72,
      "start": 210.0,
      "duration": 0.947917,
      "end": 210.947917,
      "velocity": 80,
      "hand": "right",
      "interactive": true,
      "label": "72"
    },
    {
      "id": "note-176",
      "midi": 71,
      "start": 211.0,
      "duration": 1.897917,
      "end": 212.897917,
      "velocity": 80,
      "hand": "right",
      "interactive": true,
      "label": "71"
    },
    {
      "id": "note-177",
      "midi": 67,
      "start": 213.0,
      "duration": 0.947917,
      "end": 213.947917,
      "velocity": 80,
      "hand": "right",
      "interactive": true,
      "label": "67"
    },
    {
      "id": "note-178",
      "midi": 74,
      "start": 214.0,
      "duration": 0.947917,
      "end": 214.947917,
      "velocity": 80,
      "hand": "right",
      "interactive": true,
      "label": "74"
    },
    {
      "id": "note-179",
      "midi": 78,
      "start": 215.0,
      "duration": 0.947917,
      "end": 215.947917,
      "velocity": 80,
      "hand": "right",
      "interactive": true,
      "label": "78"
    },
    {
      "id": "note-180",
      "midi": 79,
      "start": 216.0,
      "duration": 0.947917,
      "end": 216.947917,
      "velocity": 80,
      "hand": "right",
      "interactive": true,
      "label": "79"
    },
    {
      "id": "note-181",
      "midi": 78,
      "start": 217.0,
      "duration": 0.947917,
      "end": 217.947917,
      "velocity": 80,
      "hand": "right",
      "interactive": true,
      "label": "78"
    },
    {
      "id": "note-182",
      "midi": 74,
      "start": 218.0,
      "duration": 0.947917,
      "end": 218.947917,
      "velocity": 80,
      "hand": "right",
      "interactive": true,
      "label": "74"
    },
    {
      "id": "note-183",
      "midi": 67,
      "start": 219.0,
      "duration": 1.897917,
      "end": 220.897917,
      "velocity": 80,
      "hand": "right",
      "interactive": true,
      "label": "67"
    },
    {
      "id": "note-184",
      "midi": 67,
      "start": 221.0,
      "duration": 0.947917,
      "end": 221.947917,
      "velocity": 80,
      "hand": "right",
      "interactive": true,
      "label": "67"
    },
    {
      "id": "note-185",
      "midi": 76,
      "start": 222.0,
      "duration": 0.947917,
      "end": 222.947917,
      "velocity": 80,
      "hand": "right",
      "interactive": true,
      "label": "76"
    },
    {
      "id": "note-186",
      "midi": 76,
      "start": 223.0,
      "duration": 1.897917,
      "end": 224.897917,
      "velocity": 80,
      "hand": "right",
      "interactive": true,
      "label": "76"
    },
    {
      "id": "note-187",
      "midi": 76,
      "start": 225.0,
      "duration": 0.947917,
      "end": 225.947917,
      "velocity": 80,
      "hand": "right",
      "interactive": true,
      "label": "76"
    },
    {
      "id": "note-188",
      "midi": 74,
      "start": 226.0,
      "duration": 0.947917,
      "end": 226.947917,
      "velocity": 80,
      "hand": "right",
      "interactive": true,
      "label": "74"
    },
    {
      "id": "note-189",
      "midi": 74,
      "start": 227.0,
      "duration": 1.897917,
      "end": 228.897917,
      "velocity": 80,
      "hand": "right",
      "interactive": true,
      "label": "74"
    },
    {
      "id": "note-190",
      "midi": 74,
      "start": 229.0,
      "duration": 0.947917,
      "end": 229.947917,
      "velocity": 80,
      "hand": "right",
      "interactive": true,
      "label": "74"
    },
    {
      "id": "note-191",
      "midi": 72,
      "start": 230.0,
      "duration": 0.947917,
      "end": 230.947917,
      "velocity": 80,
      "hand": "right",
      "interactive": true,
      "label": "72"
    },
    {
      "id": "note-192",
      "midi": 71,
      "start": 231.0,
      "duration": 0.947917,
      "end": 231.947917,
      "velocity": 80,
      "hand": "right",
      "interactive": true,
      "label": "71"
    },
    {
      "id": "note-193",
      "midi": 69,
      "start": 232.0,
      "duration": 0.947917,
      "end": 232.947917,
      "velocity": 80,
      "hand": "right",
      "interactive": true,
      "label": "69"
    },
    {
      "id": "note-194",
      "midi": 71,
      "start": 233.0,
      "duration": 0.947917,
      "end": 233.947917,
      "velocity": 80,
      "hand": "right",
      "interactive": true,
      "label": "71"
    },
    {
      "id": "note-195",
      "midi": 72,
      "start": 234.0,
      "duration": 0.947917,
      "end": 234.947917,
      "velocity": 80,
      "hand": "right",
      "interactive": true,
      "label": "72"
    },
    {
      "id": "note-196",
      "midi": 71,
      "start": 235.0,
      "duration": 4.747917,
      "end": 239.747917,
      "velocity": 80,
      "hand": "right",
      "interactive": true,
      "label": "71"
    },
    {
      "id": "note-197",
      "midi": 71,
      "start": 240.0,
      "duration": 0.947917,
      "end": 240.947917,
      "velocity": 80,
      "hand": "right",
      "interactive": true,
      "label": "71"
    },
    {
      "id": "note-198",
      "midi": 73,
      "start": 241.0,
      "duration": 0.947917,
      "end": 241.947917,
      "velocity": 80,
      "hand": "right",
      "interactive": true,
      "label": "73"
    },
    {
      "id": "note-199",
      "midi": 75,
      "start": 242.0,
      "duration": 0.947917,
      "end": 242.947917,
      "velocity": 80,
      "hand": "right",
      "interactive": true,
      "label": "75"
    },
    {
      "id": "note-200",
      "midi": 71,
      "start": 243.0,
      "duration": 1.897917,
      "end": 244.897917,
      "velocity": 80,
      "hand": "right",
      "interactive": true,
      "label": "71"
    },
    {
      "id": "note-201",
      "midi": 73,
      "start": 245.0,
      "duration": 0.947917,
      "end": 245.947917,
      "velocity": 80,
      "hand": "right",
      "interactive": true,
      "label": "73"
    },
    {
      "id": "note-202",
      "midi": 75,
      "start": 246.0,
      "duration": 0.947917,
      "end": 246.947917,
      "velocity": 80,
      "hand": "right",
      "interactive": true,
      "label": "75"
    },
    {
      "id": "note-203",
      "midi": 78,
      "start": 247.0,
      "duration": 0.947917,
      "end": 247.947917,
      "velocity": 80,
      "hand": "right",
      "interactive": true,
      "label": "78"
    },
    {
      "id": "note-204",
      "midi": 81,
      "start": 248.0,
      "duration": 0.947917,
      "end": 248.947917,
      "velocity": 80,
      "hand": "right",
      "interactive": true,
      "label": "81"
    },
    {
      "id": "note-205",
      "midi": 78,
      "start": 249.0,
      "duration": 0.947917,
      "end": 249.947917,
      "velocity": 80,
      "hand": "right",
      "interactive": true,
      "label": "78"
    },
    {
      "id": "note-206",
      "midi": 79,
      "start": 250.0,
      "duration": 0.947917,
      "end": 250.947917,
      "velocity": 80,
      "hand": "right",
      "interactive": true,
      "label": "79"
    },
    {
      "id": "note-207",
      "midi": 79,
      "start": 251.0,
      "duration": 3.797917,
      "end": 254.797917,
      "velocity": 80,
      "hand": "right",
      "interactive": true,
      "label": "79"
    },
    {
      "id": "note-208",
      "midi": 79,
      "start": 255.0,
      "duration": 0.947917,
      "end": 255.947917,
      "velocity": 80,
      "hand": "right",
      "interactive": true,
      "label": "79"
    },
    {
      "id": "note-209",
      "midi": 79,
      "start": 256.0,
      "duration": 0.947917,
      "end": 256.947917,
      "velocity": 80,
      "hand": "right",
      "interactive": true,
      "label": "79"
    },
    {
      "id": "note-210",
      "midi": 74,
      "start": 257.0,
      "duration": 0.947917,
      "end": 257.947917,
      "velocity": 80,
      "hand": "right",
      "interactive": true,
      "label": "74"
    },
    {
      "id": "note-211",
      "midi": 74,
      "start": 258.0,
      "duration": 0.947917,
      "end": 258.947917,
      "velocity": 80,
      "hand": "right",
      "interactive": true,
      "label": "74"
    },
    {
      "id": "note-212",
      "midi": 76,
      "start": 259.0,
      "duration": 0.947917,
      "end": 259.947917,
      "velocity": 80,
      "hand": "right",
      "interactive": true,
      "label": "76"
    },
    {
      "id": "note-213",
      "midi": 74,
      "start": 260.0,
      "duration": 0.947917,
      "end": 260.947917,
      "velocity": 80,
      "hand": "right",
      "interactive": true,
      "label": "74"
    },
    {
      "id": "note-214",
      "midi": 72,
      "start": 261.0,
      "duration": 0.947917,
      "end": 261.947917,
      "velocity": 80,
      "hand": "right",
      "interactive": true,
      "label": "72"
    },
    {
      "id": "note-215",
      "midi": 64,
      "start": 262.0,
      "duration": 0.947917,
      "end": 262.947917,
      "velocity": 80,
      "hand": "right",
      "interactive": true,
      "label": "64"
    },
    {
      "id": "note-216",
      "midi": 66,
      "start": 263.0,
      "duration": 0.947917,
      "end": 263.947917,
      "velocity": 80,
      "hand": "right",
      "interactive": true,
      "label": "66"
    },
    {
      "id": "note-217",
      "midi": 67,
      "start": 264.0,
      "duration": 0.947917,
      "end": 264.947917,
      "velocity": 80,
      "hand": "right",
      "interactive": true,
      "label": "67"
    },
    {
      "id": "note-218",
      "midi": 69,
      "start": 265.0,
      "duration": 0.947917,
      "end": 265.947917,
      "velocity": 80,
      "hand": "right",
      "interactive": true,
      "label": "69"
    },
    {
      "id": "note-219",
      "midi": 71,
      "start": 266.0,
      "duration": 0.947917,
      "end": 266.947917,
      "velocity": 80,
      "hand": "right",
      "interactive": true,
      "label": "71"
    },
    {
      "id": "note-220",
      "midi": 69,
      "start": 267.0,
      "duration": 2.847917,
      "end": 269.847917,
      "velocity": 80,
      "hand": "right",
      "interactive": true,
      "label": "69"
    },
    {
      "id": "note-221",
      "midi": 67,
      "start": 270.0,
      "duration": 0.947917,
      "end": 270.947917,
      "velocity": 80,
      "hand": "right",
      "interactive": true,
      "label": "67"
    },
    {
      "id": "note-222",
      "midi": 67,
      "start": 271.0,
      "duration": 8.547917,
      "end": 279.547917,
      "velocity": 80,
      "hand": "right",
      "interactive": true,
      "label": "67"
    }
  ]
}
