{
  "id": "qing-hua-ci",
  "title": "青花瓷",
  "subtitle": "周杰伦",
  "sourceFile": "D:\\Download\\midi\\qing-hua-ci.mid",
  "bpm": 120.0,
  "ticksPerBeat": 480,
  "durationSeconds": 167.975,
  "minMidi": 40,
  "maxMidi": 81,
  "rightHandCount": 446,
  "leftHandCount": 0,
  "noteCount": 446,
  "notes": [
    {
      "id": "note-0",
      "midi": 79,
      "start": 1.5,
      "duration": 0.235417,
      "end": 1.735417,
      "velocity": 80,
      "hand": "right",
      "interactive": true,
      "label": "79"
    },
    {
      "id": "note-1",
      "midi": 81,
      "start": 1.75,
      "duration": 0.235417,
      "end": 1.985417,
      "velocity": 80,
      "hand": "right",
      "interactive": true,
      "label": "81"
    },
    {
      "id": "note-2",
      "midi": 79,
      "start": 2.0,
      "duration": 0.472917,
      "end": 2.472917,
      "velocity": 80,
      "hand": "right",
      "interactive": true,
      "label": "79"
    },
    {
      "id": "note-3",
      "midi": 76,
      "start": 2.5,
      "duration": 0.472917,
      "end": 2.972917,
      "velocity": 80,
      "hand": "right",
      "interactive": true,
      "label": "76"
    },
    {
      "id": "note-4",
      "midi": 74,
      "start": 3.0,
      "duration": 0.472917,
      "end": 3.472917,
      "velocity": 80,
      "hand": "right",
      "interactive": true,
      "label": "74"
    },
    {
      "id": "note-5",
      "midi": 76,
      "start": 3.5,
      "duration": 0.472917,
      "end": 3.972917,
      "velocity": 80,
      "hand": "right",
      "interactive": true,
      "label": "76"
    },
    {
      "id": "note-6",
      "midi": 74,
      "start": 4.0,
      "duration": 0.472917,
      "end": 4.472917,
      "velocity": 80,
      "hand": "right",
      "interactive": true,
      "label": "74"
    },
    {
      "id": "note-7",
      "midi": 72,
      "start": 4.5,
      "duration": 0.472917,
      "end": 4.972917,
      "velocity": 80,
      "hand": "right",
      "interactive": true,
      "label": "72"
    },
    {
      "id": "note-8",
      "midi": 69,
      "start": 5.0,
      "duration": 1.897917,
      "end": 6.897917,
      "velocity": 80,
      "hand": "right",
      "interactive": true,
      "label": "69"
    },
    {
      "id": "note-9",
      "midi": 74,
      "start": 7.0,
      "duration": 0.472917,
      "end": 7.472917,
      "velocity": 80,
      "hand": "right",
      "interactive": true,
      "label": "74"
    },
    {
      "id": "note-10",
      "midi": 76,
      "start": 7.5,
      "duration": 0.472917,
      "end": 7.972917,
      "velocity": 80,
      "hand": "right",
      "interactive": true,
      "label": "76"
    },
    {
      "id": "note-11",
      "midi": 74,
      "start": 8.0,
      "duration": 0.472917,
      "end": 8.472917,
      "velocity": 80,
      "hand": "right",
      "interactive": true,
      "label": "74"
    },
    {
      "id": "note-12",
      "midi": 72,
      "start": 8.5,
      "duration": 0.472917,
      "end": 8.972917,
      "velocity": 80,
      "hand": "right",
      "interactive": true,
      "label": "72"
    },
    {
      "id": "note-13",
      "midi": 67,
      "start": 9.0,
      "duration": 1.897917,
      "end": 10.897917,
      "velocity": 80,
      "hand": "right",
      "interactive": true,
      "label": "67"
    },
    {
      "id": "note-14",
      "midi": 74,
      "start": 11.0,
      "duration": 0.472917,
      "end": 11.472917,
      "velocity": 80,
      "hand": "right",
      "interactive": true,
      "label": "74"
    },
    {
      "id": "note-15",
      "midi": 76,
      "start": 11.5,
      "duration": 0.472917,
      "end": 11.972917,
      "velocity": 80,
      "hand": "right",
      "interactive": true,
      "label": "76"
    },
    {
      "id": "note-16",
      "midi": 74,
      "start": 12.0,
      "duration": 0.472917,
      "end": 12.472917,
      "velocity": 80,
      "hand": "right",
      "interactive": true,
      "label": "74"
    },
    {
      "id": "note-17",
      "midi": 72,
      "start": 12.5,
      "duration": 0.472917,
      "end": 12.972917,
      "velocity": 80,
      "hand": "right",
      "interactive": true,
      "label": "72"
    },
    {
      "id": "note-18",
      "midi": 69,
      "start": 13.0,
      "duration": 0.947917,
      "end": 13.947917,
      "velocity": 80,
      "hand": "right",
      "interactive": true,
      "label": "69"
    },
    {
      "id": "note-19",
      "midi": 72,
      "start": 14.0,
      "duration": 0.472917,
      "end": 14.472917,
      "velocity": 80,
      "hand": "right",
      "interactive": true,
      "label": "72"
    },
    {
      "id": "note-20",
      "midi": 74,
      "start": 14.5,
      "duration": 0.472917,
      "end": 14.972917,
      "velocity": 80,
      "hand": "right",
      "interactive": true,
      "label": "74"
    },
    {
      "id": "note-21",
      "midi": 76,
      "start": 15.0,
      "duration": 0.472917,
      "end": 15.472917,
      "velocity": 80,
      "hand": "right",
      "interactive": true,
      "label": "76"
    },
    {
      "id": "note-22",
      "midi": 67,
      "start": 15.5,
      "duration": 0.472917,
      "end": 15.972917,
      "velocity": 80,
      "hand": "right",
      "interactive": true,
      "label": "67"
    },
    {
      "id": "note-23",
      "midi": 76,
      "start": 16.0,
      "duration": 1.897917,
      "end": 17.897917,
      "velocity": 80,
      "hand": "right",
      "interactive": true,
      "label": "76"
    },
    {
      "id": "note-24",
      "midi": 72,
      "start": 18.0,
      "duration": 0.472917,
      "end": 18.472917,
      "velocity": 80,
      "hand": "right",
      "interactive": true,
      "label": "72"
    },
    {
      "id": "note-25",
      "midi": 74,
      "start": 18.5,
      "duration": 0.472917,
      "end": 18.972917,
      "velocity": 80,
      "hand": "right",
      "interactive": true,
      "label": "74"
    },
    {
      "id": "note-26",
      "midi": 76,
      "start": 19.0,
      "duration": 0.472917,
      "end": 19.472917,
      "velocity": 80,
      "hand": "right",
      "interactive": true,
      "label": "76"
    },
    {
      "id": "note-27",
      "midi": 79,
      "start": 19.5,
      "duration": 0.472917,
      "end": 19.972917,
      "velocity": 80,
      "hand": "right",
      "interactive": true,
      "label": "79"
    },
    {
      "id": "note-28",
      "midi": 79,
      "start": 20.0,
      "duration": 0.947917,
      "end": 20.947917,
      "velocity": 80,
      "hand": "right",
      "interactive": true,
      "label": "79"
    },
    {
      "id": "note-29",
      "midi": 76,
      "start": 21.0,
      "duration": 0.947917,
      "end": 21.947917,
      "velocity": 80,
      "hand": "right",
      "interactive": true,
      "label": "76"
    },
    {
      "id": "note-30",
      "midi": 74,
      "start": 22.0,
      "duration": 0.947917,
      "end": 22.947917,
      "velocity": 80,
      "hand": "right",
      "interactive": true,
      "label": "74"
    },
    {
      "id": "note-31",
      "midi": 76,
      "start": 23.0,
      "duration": 0.947917,
      "end": 23.947917,
      "velocity": 80,
      "hand": "right",
      "interactive": true,
      "label": "76"
    },
    {
      "id": "note-32",
      "midi": 74,
      "start": 24.0,
      "duration": 0.472917,
      "end": 24.472917,
      "velocity": 80,
      "hand": "right",
      "interactive": true,
      "label": "74"
    },
    {
      "id": "note-33",
      "midi": 72,
      "start": 24.5,
      "duration": 0.472917,
      "end": 24.972917,
      "velocity": 80,
      "hand": "right",
      "interactive": true,
      "label": "72"
    },
    {
      "id": "note-34",
      "midi": 69,
      "start": 25.0,
      "duration": 0.947917,
      "end": 25.947917,
      "velocity": 80,
      "hand": "right",
      "interactive": true,
      "label": "69"
    },
    {
      "id": "note-35",
      "midi": 72,
      "start": 26.0,
      "duration": 0.472917,
      "end": 26.472917,
      "velocity": 80,
      "hand": "right",
      "interactive": true,
      "label": "72"
    },
    {
      "id": "note-36",
      "midi": 74,
      "start": 26.5,
      "duration": 0.472917,
      "end": 26.972917,
      "velocity": 80,
      "hand": "right",
      "interactive": true,
      "label": "74"
    },
    {
      "id": "note-37",
      "midi": 76,
      "start": 27.0,
      "duration": 0.472917,
      "end": 27.472917,
      "velocity": 80,
      "hand": "right",
      "interactive": true,
      "label": "76"
    },
    {
      "id": "note-38",
      "midi": 81,
      "start": 27.5,
      "duration": 0.472917,
      "end": 27.972917,
      "velocity": 80,
      "hand": "right",
      "interactive": true,
      "label": "81"
    },
    {
      "id": "note-39",
      "midi": 79,
      "start": 28.0,
      "duration": 3.797917,
      "end": 31.797917,
      "velocity": 80,
      "hand": "right",
      "interactive": true,
      "label": "79"
    },
    {
      "id": "note-40",
      "midi": 79,
      "start": 32.0,
      "duration": 2.372917,
      "end": 34.372917,
      "velocity": 80,
      "hand": "right",
      "interactive": true,
      "label": "79"
    },
    {
      "id": "note-41",
      "midi": 74,
      "start": 34.5,
      "duration": 0.472917,
      "end": 34.972917,
      "velocity": 80,
      "hand": "right",
      "interactive": true,
      "label": "74"
    },
    {
      "id": "note-42",
      "midi": 72,
      "start": 35.0,
      "duration": 0.472917,
      "end": 35.472917,
      "velocity": 80,
      "hand": "right",
      "interactive": true,
      "label": "72"
    },
    {
      "id": "note-43",
      "midi": 69,
      "start": 35.5,
      "duration": 0.472917,
      "end": 35.972917,
      "velocity": 80,
      "hand": "right",
      "interactive": true,
      "label": "69"
    },
    {
      "id": "note-44",
      "midi": 72,
      "start": 36.0,
      "duration": 0.947917,
      "end": 36.947917,
      "velocity": 80,
      "hand": "right",
      "interactive": true,
      "label": "72"
    },
    {
      "id": "note-45",
      "midi": 72,
      "start": 37.0,
      "duration": 0.472917,
      "end": 37.472917,
      "velocity": 80,
      "hand": "right",
      "interactive": true,
      "label": "72"
    },
    {
      "id": "note-46",
      "midi": 69,
      "start": 37.5,
      "duration": 0.472917,
      "end": 37.972917,
      "velocity": 80,
      "hand": "right",
      "interactive": true,
      "label": "69"
    },
    {
      "id": "note-47",
      "midi": 72,
      "start": 38.0,
      "duration": 0.947917,
      "end": 38.947917,
      "velocity": 80,
      "hand": "right",
      "interactive": true,
      "label": "72"
    },
    {
      "id": "note-48",
      "midi": 72,
      "start": 39.0,
      "duration": 0.472917,
      "end": 39.472917,
      "velocity": 80,
      "hand": "right",
      "interactive": true,
      "label": "72"
    },
    {
      "id": "note-49",
      "midi": 69,
      "start": 39.5,
      "duration": 0.472917,
      "end": 39.972917,
      "velocity": 80,
      "hand": "right",
      "interactive": true,
      "label": "69"
    },
    {
      "id": "note-50",
      "midi": 72,
      "start": 40.0,
      "duration": 0.472917,
      "end": 40.472917,
      "velocity": 80,
      "hand": "right",
      "interactive": true,
      "label": "72"
    },
    {
      "id": "note-51",
      "midi": 69,
      "start": 40.5,
      "duration": 0.472917,
      "end": 40.972917,
      "velocity": 80,
      "hand": "right",
      "interactive": true,
      "label": "69"
    },
    {
      "id": "note-52",
      "midi": 67,
      "start": 41.0,
      "duration": 1.422917,
      "end": 42.422917,
      "velocity": 80,
      "hand": "right",
      "interactive": true,
      "label": "67"
    },
    {
      "id": "note-53",
      "midi": 74,
      "start": 42.5,
      "duration": 0.472917,
      "end": 42.972917,
      "velocity": 80,
      "hand": "right",
      "interactive": true,
      "label": "74"
    },
    {
      "id": "note-54",
      "midi": 72,
      "start": 43.0,
      "duration": 0.472917,
      "end": 43.472917,
      "velocity": 80,
      "hand": "right",
      "interactive": true,
      "label": "72"
    },
    {
      "id": "note-55",
      "midi": 69,
      "start": 43.5,
      "duration": 0.472917,
      "end": 43.972917,
      "velocity": 80,
      "hand": "right",
      "interactive": true,
      "label": "69"
    },
    {
      "id": "note-56",
      "midi": 72,
      "start": 44.0,
      "duration": 0.947917,
      "end": 44.947917,
      "velocity": 80,
      "hand": "right",
      "interactive": true,
      "label": "72"
    },
    {
      "id": "note-57",
      "midi": 72,
      "start": 45.0,
      "duration": 0.472917,
      "end": 45.472917,
      "velocity": 80,
      "hand": "right",
      "interactive": true,
      "label": "72"
    },
    {
      "id": "note-58",
      "midi": 69,
      "start": 45.5,
      "duration": 0.472917,
      "end": 45.972917,
      "velocity": 80,
      "hand": "right",
      "interactive": true,
      "label": "69"
    },
    {
      "id": "note-59",
      "midi": 72,
      "start": 46.0,
      "duration": 0.947917,
      "end": 46.947917,
      "velocity": 80,
      "hand": "right",
      "interactive": true,
      "label": "72"
    },
    {
      "id": "note-60",
      "midi": 72,
      "start": 47.0,
      "duration": 0.472917,
      "end": 47.472917,
      "velocity": 80,
      "hand": "right",
      "interactive": true,
      "label": "72"
    },
    {
      "id": "note-61",
      "midi": 76,
      "start": 47.5,
      "duration": 0.472917,
      "end": 47.972917,
      "velocity": 80,
      "hand": "right",
      "interactive": true,
      "label": "76"
    },
    {
      "id": "note-62",
      "midi": 74,
      "start": 48.0,
      "duration": 0.472917,
      "end": 48.472917,
      "velocity": 80,
      "hand": "right",
      "interactive": true,
      "label": "74"
    },
    {
      "id": "note-63",
      "midi": 72,
      "start": 48.5,
      "duration": 0.472917,
      "end": 48.972917,
      "velocity": 80,
      "hand": "right",
      "interactive": true,
      "label": "72"
    },
    {
      "id": "note-64",
      "midi": 72,
      "start": 49.0,
      "duration": 1.422917,
      "end": 50.422917,
      "velocity": 80,
      "hand": "right",
      "interactive": true,
      "label": "72"
    },
    {
      "id": "note-65",
      "midi": 67,
      "start": 50.5,
      "duration": 0.472917,
      "end": 50.972917,
      "velocity": 80,
      "hand": "right",
      "interactive": true,
      "label": "67"
    },
    {
      "id": "note-66",
      "midi": 69,
      "start": 51.0,
      "duration": 0.472917,
      "end": 51.472917,
      "velocity": 80,
      "hand": "right",
      "interactive": true,
      "label": "69"
    },
    {
      "id": "note-67",
      "midi": 76,
      "start": 51.5,
      "duration": 0.472917,
      "end": 51.972917,
      "velocity": 80,
      "hand": "right",
      "interactive": true,
      "label": "76"
    },
    {
      "id": "note-68",
      "midi": 76,
      "start": 52.0,
      "duration": 0.947917,
      "end": 52.947917,
      "velocity": 80,
      "hand": "right",
      "interactive": true,
      "label": "76"
    },
    {
      "id": "note-69",
      "midi": 76,
      "start": 53.0,
      "duration": 0.472917,
      "end": 53.472917,
      "velocity": 80,
      "hand": "right",
      "interactive": true,
      "label": "76"
    },
    {
      "id": "note-70",
      "midi": 74,
      "start": 53.5,
      "duration": 0.472917,
      "end": 53.972917,
      "velocity": 80,
      "hand": "right",
      "interactive": true,
      "label": "74"
    },
    {
      "id": "note-71",
      "midi": 76,
      "start": 54.0,
      "duration": 0.947917,
      "end": 54.947917,
      "velocity": 80,
      "hand": "right",
      "interactive": true,
      "label": "76"
    },
    {
      "id": "note-72",
      "midi": 76,
      "start": 55.0,
      "duration": 0.472917,
      "end": 55.472917,
      "velocity": 80,
      "hand": "right",
      "interactive": true,
      "label": "76"
    },
    {
      "id": "note-73",
      "midi": 74,
      "start": 55.5,
      "duration": 0.472917,
      "end": 55.972917,
      "velocity": 80,
      "hand": "right",
      "interactive": true,
      "label": "74"
    },
    {
      "id": "note-74",
      "midi": 76,
      "start": 56.0,
      "duration": 0.472917,
      "end": 56.472917,
      "velocity": 80,
      "hand": "right",
      "interactive": true,
      "label": "76"
    },
    {
      "id": "note-75",
      "midi": 79,
      "start": 56.5,
      "duration": 0.947917,
      "end": 57.447917,
      "velocity": 80,
      "hand": "right",
      "interactive": true,
      "label": "79"
    },
    {
      "id": "note-76",
      "midi": 76,
      "start": 57.5,
      "duration": 0.472917,
      "end": 57.972917,
      "velocity": 80,
      "hand": "right",
      "interactive": true,
      "label": "76"
    },
    {
      "id": "note-77",
      "midi": 76,
      "start": 58.5,
      "duration": 0.472917,
      "end": 58.972917,
      "velocity": 80,
      "hand": "right",
      "interactive": true,
      "label": "76"
    },
    {
      "id": "note-78",
      "midi": 76,
      "start": 59.0,
      "duration": 0.472917,
      "end": 59.472917,
      "velocity": 80,
      "hand": "right",
      "interactive": true,
      "label": "76"
    },
    {
      "id": "note-79",
      "midi": 76,
      "start": 59.5,
      "duration": 0.472917,
      "end": 59.972917,
      "velocity": 80,
      "hand": "right",
      "interactive": true,
      "label": "76"
    },
    {
      "id": "note-80",
      "midi": 74,
      "start": 60.0,
      "duration": 0.472917,
      "end": 60.472917,
      "velocity": 80,
      "hand": "right",
      "interactive": true,
      "label": "74"
    },
    {
      "id": "note-81",
      "midi": 74,
      "start": 60.5,
      "duration": 0.472917,
      "end": 60.972917,
      "velocity": 80,
      "hand": "right",
      "interactive": true,
      "label": "74"
    },
    {
      "id": "note-82",
      "midi": 74,
      "start": 61.0,
      "duration": 0.472917,
      "end": 61.472917,
      "velocity": 80,
      "hand": "right",
      "interactive": true,
      "label": "74"
    },
    {
      "id": "note-83",
      "midi": 74,
      "start": 61.5,
      "duration": 0.472917,
      "end": 61.972917,
      "velocity": 80,
      "hand": "right",
      "interactive": true,
      "label": "74"
    },
    {
      "id": "note-84",
      "midi": 74,
      "start": 62.0,
      "duration": 0.947917,
      "end": 62.947917,
      "velocity": 80,
      "hand": "right",
      "interactive": true,
      "label": "74"
    },
    {
      "id": "note-85",
      "midi": 72,
      "start": 63.0,
      "duration": 0.472917,
      "end": 63.472917,
      "velocity": 80,
      "hand": "right",
      "interactive": true,
      "label": "72"
    },
    {
      "id": "note-86",
      "midi": 76,
      "start": 63.5,
      "duration": 1.422917,
      "end": 64.922917,
      "velocity": 80,
      "hand": "right",
      "interactive": true,
      "label": "76"
    },
    {
      "id": "note-87",
      "midi": 74,
      "start": 65.0,
      "duration": 1.422917,
      "end": 66.422917,
      "velocity": 80,
      "hand": "right",
      "interactive": true,
      "label": "74"
    },
    {
      "id": "note-88",
      "midi": 74,
      "start": 66.5,
      "duration": 0.472917,
      "end": 66.972917,
      "velocity": 80,
      "hand": "right",
      "interactive": true,
      "label": "74"
    },
    {
      "id": "note-89",
      "midi": 72,
      "start": 67.0,
      "duration": 0.472917,
      "end": 67.472917,
      "velocity": 80,
      "hand": "right",
      "interactive": true,
      "label": "72"
    },
    {
      "id": "note-90",
      "midi": 69,
      "start": 67.5,
      "duration": 0.472917,
      "end": 67.972917,
      "velocity": 80,
      "hand": "right",
      "interactive": true,
      "label": "69"
    },
    {
      "id": "note-91",
      "midi": 72,
      "start": 68.0,
      "duration": 0.947917,
      "end": 68.947917,
      "velocity": 80,
      "hand": "right",
      "interactive": true,
      "label": "72"
    },
    {
      "id": "note-92",
      "midi": 72,
      "start": 69.0,
      "duration": 0.472917,
      "end": 69.472917,
      "velocity": 80,
      "hand": "right",
      "interactive": true,
      "label": "72"
    },
    {
      "id": "note-93",
      "midi": 69,
      "start": 69.5,
      "duration": 0.472917,
      "end": 69.972917,
      "velocity": 80,
      "hand": "right",
      "interactive": true,
      "label": "69"
    },
    {
      "id": "note-94",
      "midi": 72,
      "start": 70.0,
      "duration": 0.947917,
      "end": 70.947917,
      "velocity": 80,
      "hand": "right",
      "interactive": true,
      "label": "72"
    },
    {
      "id": "note-95",
      "midi": 72,
      "start": 71.0,
      "duration": 0.472917,
      "end": 71.472917,
      "velocity": 80,
      "hand": "right",
      "interactive": true,
      "label": "72"
    },
    {
      "id": "note-96",
      "midi": 69,
      "start": 71.5,
      "duration": 0.472917,
      "end": 71.972917,
      "velocity": 80,
      "hand": "right",
      "interactive": true,
      "label": "69"
    },
    {
      "id": "note-97",
      "midi": 72,
      "start": 72.0,
      "duration": 0.472917,
      "end": 72.472917,
      "velocity": 80,
      "hand": "right",
      "interactive": true,
      "label": "72"
    },
    {
      "id": "note-98",
      "midi": 69,
      "start": 72.5,
      "duration": 0.472917,
      "end": 72.972917,
      "velocity": 80,
      "hand": "right",
      "interactive": true,
      "label": "69"
    },
    {
      "id": "note-99",
      "midi": 67,
      "start": 73.0,
      "duration": 1.422917,
      "end": 74.422917,
      "velocity": 80,
      "hand": "right",
      "interactive": true,
      "label": "67"
    },
    {
      "id": "note-100",
      "midi": 67,
      "start": 74.5,
      "duration": 0.472917,
      "end": 74.972917,
      "velocity": 80,
      "hand": "right",
      "interactive": true,
      "label": "67"
    },
    {
      "id": "note-101",
      "midi": 69,
      "start": 75.0,
      "duration": 0.472917,
      "end": 75.472917,
      "velocity": 80,
      "hand": "right",
      "interactive": true,
      "label": "69"
    },
    {
      "id": "note-102",
      "midi": 76,
      "start": 75.5,
      "duration": 0.472917,
      "end": 75.972917,
      "velocity": 80,
      "hand": "right",
      "interactive": true,
      "label": "76"
    },
    {
      "id": "note-103",
      "midi": 79,
      "start": 76.0,
      "duration": 0.947917,
      "end": 76.947917,
      "velocity": 80,
      "hand": "right",
      "interactive": true,
      "label": "79"
    },
    {
      "id": "note-104",
      "midi": 79,
      "start": 77.0,
      "duration": 0.472917,
      "end": 77.472917,
      "velocity": 80,
      "hand": "right",
      "interactive": true,
      "label": "79"
    },
    {
      "id": "note-105",
      "midi": 76,
      "start": 77.5,
      "duration": 0.472917,
      "end": 77.972917,
      "velocity": 80,
      "hand": "right",
      "interactive": true,
      "label": "76"
    },
    {
      "id": "note-106",
      "midi": 79,
      "start": 78.0,
      "duration": 0.947917,
      "end": 78.947917,
      "velocity": 80,
      "hand": "right",
      "interactive": true,
      "label": "79"
    },
    {
      "id": "note-107",
      "midi": 79,
      "start": 79.0,
      "duration": 0.472917,
      "end": 79.472917,
      "velocity": 80,
      "hand": "right",
      "interactive": true,
      "label": "79"
    },
    {
      "id": "note-108",
      "midi": 76,
      "start": 79.5,
      "duration": 0.472917,
      "end": 79.972917,
      "velocity": 80,
      "hand": "right",
      "interactive": true,
      "label": "76"
    },
    {
      "id": "note-109",
      "midi": 74,
      "start": 80.0,
      "duration": 0.472917,
      "end": 80.472917,
      "velocity": 80,
      "hand": "right",
      "interactive": true,
      "label": "74"
    },
    {
      "id": "note-110",
      "midi": 72,
      "start": 80.5,
      "duration": 0.472917,
      "end": 80.972917,
      "velocity": 80,
      "hand": "right",
      "interactive": true,
      "label": "72"
    },
    {
      "id": "note-111",
      "midi": 72,
      "start": 81.0,
      "duration": 1.422917,
      "end": 82.422917,
      "velocity": 80,
      "hand": "right",
      "interactive": true,
      "label": "72"
    },
    {
      "id": "note-112",
      "midi": 74,
      "start": 82.5,
      "duration": 0.472917,
      "end": 82.972917,
      "velocity": 80,
      "hand": "right",
      "interactive": true,
      "label": "74"
    },
    {
      "id": "note-113",
      "midi": 72,
      "start": 83.0,
      "duration": 0.472917,
      "end": 83.472917,
      "velocity": 80,
      "hand": "right",
      "interactive": true,
      "label": "72"
    },
    {
      "id": "note-114",
      "midi": 74,
      "start": 83.5,
      "duration": 0.472917,
      "end": 83.972917,
      "velocity": 80,
      "hand": "right",
      "interactive": true,
      "label": "74"
    },
    {
      "id": "note-115",
      "midi": 76,
      "start": 84.0,
      "duration": 0.472917,
      "end": 84.472917,
      "velocity": 80,
      "hand": "right",
      "interactive": true,
      "label": "76"
    },
    {
      "id": "note-116",
      "midi": 74,
      "start": 84.5,
      "duration": 0.472917,
      "end": 84.972917,
      "velocity": 80,
      "hand": "right",
      "interactive": true,
      "label": "74"
    },
    {
      "id": "note-117",
      "midi": 74,
      "start": 85.0,
      "duration": 0.472917,
      "end": 85.472917,
      "velocity": 80,
      "hand": "right",
      "interactive": true,
      "label": "74"
    },
    {
      "id": "note-118",
      "midi": 72,
      "start": 85.5,
      "duration": 0.472917,
      "end": 85.972917,
      "velocity": 80,
      "hand": "right",
      "interactive": true,
      "label": "72"
    },
    {
      "id": "note-119",
      "midi": 74,
      "start": 86.0,
      "duration": 0.947917,
      "end": 86.947917,
      "velocity": 80,
      "hand": "right",
      "interactive": true,
      "label": "74"
    },
    {
      "id": "note-120",
      "midi": 72,
      "start": 87.0,
      "duration": 0.472917,
      "end": 87.472917,
      "velocity": 80,
      "hand": "right",
      "interactive": true,
      "label": "72"
    },
    {
      "id": "note-121",
      "midi": 69,
      "start": 87.5,
      "duration": 0.472917,
      "end": 87.972917,
      "velocity": 80,
      "hand": "right",
      "interactive": true,
      "label": "69"
    },
    {
      "id": "note-122",
      "midi": 74,
      "start": 88.0,
      "duration": 0.472917,
      "end": 88.472917,
      "velocity": 80,
      "hand": "right",
      "interactive": true,
      "label": "74"
    },
    {
      "id": "note-123",
      "midi": 72,
      "start": 88.5,
      "duration": 0.472917,
      "end": 88.972917,
      "velocity": 80,
      "hand": "right",
      "interactive": true,
      "label": "72"
    },
    {
      "id": "note-124",
      "midi": 72,
      "start": 89.0,
      "duration": 0.472917,
      "end": 89.472917,
      "velocity": 80,
      "hand": "right",
      "interactive": true,
      "label": "72"
    },
    {
      "id": "note-125",
      "midi": 69,
      "start": 89.5,
      "duration": 0.472917,
      "end": 89.972917,
      "velocity": 80,
      "hand": "right",
      "interactive": true,
      "label": "69"
    },
    {
      "id": "note-126",
      "midi": 72,
      "start": 90.0,
      "duration": 0.947917,
      "end": 90.947917,
      "velocity": 80,
      "hand": "right",
      "interactive": true,
      "label": "72"
    },
    {
      "id": "note-127",
      "midi": 72,
      "start": 91.0,
      "duration": 0.472917,
      "end": 91.472917,
      "velocity": 80,
      "hand": "right",
      "interactive": true,
      "label": "72"
    },
    {
      "id": "note-128",
      "midi": 72,
      "start": 91.5,
      "duration": 0.472917,
      "end": 91.972917,
      "velocity": 80,
      "hand": "right",
      "interactive": true,
      "label": "72"
    },
    {
      "id": "note-129",
      "midi": 72,
      "start": 92.0,
      "duration": 3.797917,
      "end": 95.797917,
      "velocity": 80,
      "hand": "right",
      "interactive": true,
      "label": "72"
    },
    {
      "id": "note-130",
      "midi": 72,
      "start": 96.0,
      "duration": 2.372917,
      "end": 98.372917,
      "velocity": 80,
      "hand": "right",
      "interactive": true,
      "label": "72"
    },
    {
      "id": "note-131",
      "midi": 79,
      "start": 98.5,
      "duration": 0.472917,
      "end": 98.972917,
      "velocity": 80,
      "hand": "right",
      "interactive": true,
      "label": "79"
    },
    {
      "id": "note-132",
      "midi": 79,
      "start": 99.0,
      "duration": 0.472917,
      "end": 99.472917,
      "velocity": 80,
      "hand": "right",
      "interactive": true,
      "label": "79"
    },
    {
      "id": "note-133",
      "midi": 76,
      "start": 99.5,
      "duration": 0.472917,
      "end": 99.972917,
      "velocity": 80,
      "hand": "right",
      "interactive": true,
      "label": "76"
    },
    {
      "id": "note-134",
      "midi": 74,
      "start": 100.0,
      "duration": 0.472917,
      "end": 100.472917,
      "velocity": 80,
      "hand": "right",
      "interactive": true,
      "label": "74"
    },
    {
      "id": "note-135",
      "midi": 76,
      "start": 100.5,
      "duration": 0.472917,
      "end": 100.972917,
      "velocity": 80,
      "hand": "right",
      "interactive": true,
      "label": "76"
    },
    {
      "id": "note-136",
      "midi": 69,
      "start": 101.0,
      "duration": 0.947917,
      "end": 101.947917,
      "velocity": 80,
      "hand": "right",
      "interactive": true,
      "label": "69"
    },
    {
      "id": "note-137",
      "midi": 74,
      "start": 102.0,
      "duration": 0.472917,
      "end": 102.472917,
      "velocity": 80,
      "hand": "right",
      "interactive": true,
      "label": "74"
    },
    {
      "id": "note-138",
      "midi": 76,
      "start": 102.5,
      "duration": 0.472917,
      "end": 102.972917,
      "velocity": 80,
      "hand": "right",
      "interactive": true,
      "label": "76"
    },
    {
      "id": "note-139",
      "midi": 79,
      "start": 103.0,
      "duration": 0.472917,
      "end": 103.472917,
      "velocity": 80,
      "hand": "right",
      "interactive": true,
      "label": "79"
    },
    {
      "id": "note-140",
      "midi": 76,
      "start": 103.5,
      "duration": 0.472917,
      "end": 103.972917,
      "velocity": 80,
      "hand": "right",
      "interactive": true,
      "label": "76"
    },
    {
      "id": "note-141",
      "midi": 74,
      "start": 104.0,
      "duration": 2.372917,
      "end": 106.372917,
      "velocity": 80,
      "hand": "right",
      "interactive": true,
      "label": "74"
    },
    {
      "id": "note-142",
      "midi": 79,
      "start": 106.5,
      "duration": 0.472917,
      "end": 106.972917,
      "velocity": 80,
      "hand": "right",
      "interactive": true,
      "label": "79"
    },
    {
      "id": "note-143",
      "midi": 79,
      "start": 107.0,
      "duration": 0.472917,
      "end": 107.472917,
      "velocity": 80,
      "hand": "right",
      "interactive": true,
      "label": "79"
    },
    {
      "id": "note-144",
      "midi": 76,
      "start": 107.5,
      "duration": 0.472917,
      "end": 107.972917,
      "velocity": 80,
      "hand": "right",
      "interactive": true,
      "label": "76"
    },
    {
      "id": "note-145",
      "midi": 74,
      "start": 108.0,
      "duration": 0.472917,
      "end": 108.472917,
      "velocity": 80,
      "hand": "right",
      "interactive": true,
      "label": "74"
    },
    {
      "id": "note-146",
      "midi": 76,
      "start": 108.5,
      "duration": 0.472917,
      "end": 108.972917,
      "velocity": 80,
      "hand": "right",
      "interactive": true,
      "label": "76"
    },
    {
      "id": "note-147",
      "midi": 67,
      "start": 109.0,
      "duration": 0.947917,
      "end": 109.947917,
      "velocity": 80,
      "hand": "right",
      "interactive": true,
      "label": "67"
    },
    {
      "id": "note-148",
      "midi": 74,
      "start": 110.0,
      "duration": 0.472917,
      "end": 110.472917,
      "velocity": 80,
      "hand": "right",
      "interactive": true,
      "label": "74"
    },
    {
      "id": "note-149",
      "midi": 76,
      "start": 110.5,
      "duration": 0.472917,
      "end": 110.972917,
      "velocity": 80,
      "hand": "right",
      "interactive": true,
      "label": "76"
    },
    {
      "id": "note-150",
      "midi": 79,
      "start": 111.0,
      "duration": 0.472917,
      "end": 111.472917,
      "velocity": 80,
      "hand": "right",
      "interactive": true,
      "label": "79"
    },
    {
      "id": "note-151",
      "midi": 74,
      "start": 111.5,
      "duration": 0.472917,
      "end": 111.972917,
      "velocity": 80,
      "hand": "right",
      "interactive": true,
      "label": "74"
    },
    {
      "id": "note-152",
      "midi": 72,
      "start": 112.0,
      "duration": 2.372917,
      "end": 114.372917,
      "velocity": 80,
      "hand": "right",
      "interactive": true,
      "label": "72"
    },
    {
      "id": "note-153",
      "midi": 72,
      "start": 114.5,
      "duration": 0.472917,
      "end": 114.972917,
      "velocity": 80,
      "hand": "right",
      "interactive": true,
      "label": "72"
    },
    {
      "id": "note-154",
      "midi": 74,
      "start": 115.0,
      "duration": 0.472917,
      "end": 115.472917,
      "velocity": 80,
      "hand": "right",
      "interactive": true,
      "label": "74"
    },
    {
      "id": "note-155",
      "midi": 76,
      "start": 115.5,
      "duration": 0.472917,
      "end": 115.972917,
      "velocity": 80,
      "hand": "right",
      "interactive": true,
      "label": "76"
    },
    {
      "id": "note-156",
      "midi": 79,
      "start": 116.0,
      "duration": 0.472917,
      "end": 116.472917,
      "velocity": 80,
      "hand": "right",
      "interactive": true,
      "label": "79"
    },
    {
      "id": "note-157",
      "midi": 81,
      "start": 116.5,
      "duration": 0.472917,
      "end": 116.972917,
      "velocity": 80,
      "hand": "right",
      "interactive": true,
      "label": "81"
    },
    {
      "id": "note-158",
      "midi": 79,
      "start": 117.0,
      "duration": 0.472917,
      "end": 117.472917,
      "velocity": 80,
      "hand": "right",
      "interactive": true,
      "label": "79"
    },
    {
      "id": "note-159",
      "midi": 76,
      "start": 117.5,
      "duration": 0.472917,
      "end": 117.972917,
      "velocity": 80,
      "hand": "right",
      "interactive": true,
      "label": "76"
    },
    {
      "id": "note-160",
      "midi": 79,
      "start": 118.0,
      "duration": 0.472917,
      "end": 118.472917,
      "velocity": 80,
      "hand": "right",
      "interactive": true,
      "label": "79"
    },
    {
      "id": "note-161",
      "midi": 76,
      "start": 118.5,
      "duration": 0.472917,
      "end": 118.972917,
      "velocity": 80,
      "hand": "right",
      "interactive": true,
      "label": "76"
    },
    {
      "id": "note-162",
      "midi": 76,
      "start": 119.0,
      "duration": 0.472917,
      "end": 119.472917,
      "velocity": 80,
      "hand": "right",
      "interactive": true,
      "label": "76"
    },
    {
      "id": "note-163",
      "midi": 74,
      "start": 119.5,
      "duration": 0.472917,
      "end": 119.972917,
      "velocity": 80,
      "hand": "right",
      "interactive": true,
      "label": "74"
    },
    {
      "id": "note-164",
      "midi": 74,
      "start": 120.0,
      "duration": 2.372917,
      "end": 122.372917,
      "velocity": 80,
      "hand": "right",
      "interactive": true,
      "label": "74"
    },
    {
      "id": "note-165",
      "midi": 72,
      "start": 122.5,
      "duration": 0.472917,
      "end": 122.972917,
      "velocity": 80,
      "hand": "right",
      "interactive": true,
      "label": "72"
    },
    {
      "id": "note-166",
      "midi": 74,
      "start": 123.0,
      "duration": 0.472917,
      "end": 123.472917,
      "velocity": 80,
      "hand": "right",
      "interactive": true,
      "label": "74"
    },
    {
      "id": "note-167",
      "midi": 72,
      "start": 123.5,
      "duration": 0.472917,
      "end": 123.972917,
      "velocity": 80,
      "hand": "right",
      "interactive": true,
      "label": "72"
    },
    {
      "id": "note-168",
      "midi": 74,
      "start": 124.0,
      "duration": 0.947917,
      "end": 124.947917,
      "velocity": 80,
      "hand": "right",
      "interactive": true,
      "label": "74"
    },
    {
      "id": "note-169",
      "midi": 72,
      "start": 125.0,
      "duration": 0.472917,
      "end": 125.472917,
      "velocity": 80,
      "hand": "right",
      "interactive": true,
      "label": "72"
    },
    {
      "id": "note-170",
      "midi": 74,
      "start": 125.5,
      "duration": 1.422917,
      "end": 126.922917,
      "velocity": 80,
      "hand": "right",
      "interactive": true,
      "label": "74"
    },
    {
      "id": "note-171",
      "midi": 76,
      "start": 127.0,
      "duration": 0.947917,
      "end": 127.947917,
      "velocity": 80,
      "hand": "right",
      "interactive": true,
      "label": "76"
    },
    {
      "id": "note-172",
      "midi": 79,
      "start": 128.0,
      "duration": 0.947917,
      "end": 128.947917,
      "velocity": 80,
      "hand": "right",
      "interactive": true,
      "label": "79"
    },
    {
      "id": "note-173",
      "midi": 76,
      "start": 129.0,
      "duration": 1.422917,
      "end": 130.422917,
      "velocity": 80,
      "hand": "right",
      "interactive": true,
      "label": "76"
    },
    {
      "id": "note-174",
      "midi": 79,
      "start": 130.5,
      "duration": 0.472917,
      "end": 130.972917,
      "velocity": 80,
      "hand": "right",
      "interactive": true,
      "label": "79"
    },
    {
      "id": "note-175",
      "midi": 79,
      "start": 131.0,
      "duration": 0.472917,
      "end": 131.472917,
      "velocity": 80,
      "hand": "right",
      "interactive": true,
      "label": "79"
    },
    {
      "id": "note-176",
      "midi": 76,
      "start": 131.5,
      "duration": 0.472917,
      "end": 131.972917,
      "velocity": 80,
      "hand": "right",
      "interactive": true,
      "label": "76"
    },
    {
      "id": "note-177",
      "midi": 74,
      "start": 132.0,
      "duration": 0.472917,
      "end": 132.472917,
      "velocity": 80,
      "hand": "right",
      "interactive": true,
      "label": "74"
    },
    {
      "id": "note-178",
      "midi": 76,
      "start": 132.5,
      "duration": 0.472917,
      "end": 132.972917,
      "velocity": 80,
      "hand": "right",
      "interactive": true,
      "label": "76"
    },
    {
      "id": "note-179",
      "midi": 69,
      "start": 133.0,
      "duration": 0.947917,
      "end": 133.947917,
      "velocity": 80,
      "hand": "right",
      "interactive": true,
      "label": "69"
    },
    {
      "id": "note-180",
      "midi": 74,
      "start": 134.0,
      "duration": 0.472917,
      "end": 134.472917,
      "velocity": 80,
      "hand": "right",
      "interactive": true,
      "label": "74"
    },
    {
      "id": "note-181",
      "midi": 76,
      "start": 134.5,
      "duration": 0.472917,
      "end": 134.972917,
      "velocity": 80,
      "hand": "right",
      "interactive": true,
      "label": "76"
    },
    {
      "id": "note-182",
      "midi": 79,
      "start": 135.0,
      "duration": 0.472917,
      "end": 135.472917,
      "velocity": 80,
      "hand": "right",
      "interactive": true,
      "label": "79"
    },
    {
      "id": "note-183",
      "midi": 76,
      "start": 135.5,
      "duration": 0.472917,
      "end": 135.972917,
      "velocity": 80,
      "hand": "right",
      "interactive": true,
      "label": "76"
    },
    {
      "id": "note-184",
      "midi": 74,
      "start": 136.0,
      "duration": 0.947917,
      "end": 136.947917,
      "velocity": 80,
      "hand": "right",
      "interactive": true,
      "label": "74"
    },
    {
      "id": "note-185",
      "midi": 74,
      "start": 138.0,
      "duration": 0.472917,
      "end": 138.472917,
      "velocity": 80,
      "hand": "right",
      "interactive": true,
      "label": "74"
    },
    {
      "id": "note-186",
      "midi": 79,
      "start": 138.5,
      "duration": 0.472917,
      "end": 138.972917,
      "velocity": 80,
      "hand": "right",
      "interactive": true,
      "label": "79"
    },
    {
      "id": "note-187",
      "midi": 79,
      "start": 139.0,
      "duration": 0.472917,
      "end": 139.472917,
      "velocity": 80,
      "hand": "right",
      "interactive": true,
      "label": "79"
    },
    {
      "id": "note-188",
      "midi": 76,
      "start": 139.5,
      "duration": 0.472917,
      "end": 139.972917,
      "velocity": 80,
      "hand": "right",
      "interactive": true,
      "label": "76"
    },
    {
      "id": "note-189",
      "midi": 74,
      "start": 140.0,
      "duration": 0.472917,
      "end": 140.472917,
      "velocity": 80,
      "hand": "right",
      "interactive": true,
      "label": "74"
    },
    {
      "id": "note-190",
      "midi": 76,
      "start": 140.5,
      "duration": 0.472917,
      "end": 140.972917,
      "velocity": 80,
      "hand": "right",
      "interactive": true,
      "label": "76"
    },
    {
      "id": "note-191",
      "midi": 67,
      "start": 141.0,
      "duration": 0.947917,
      "end": 141.947917,
      "velocity": 80,
      "hand": "right",
      "interactive": true,
      "label": "67"
    },
    {
      "id": "note-192",
      "midi": 74,
      "start": 142.0,
      "duration": 0.472917,
      "end": 142.472917,
      "velocity": 80,
      "hand": "right",
      "interactive": true,
      "label": "74"
    },
    {
      "id": "note-193",
      "midi": 76,
      "start": 142.5,
      "duration": 0.472917,
      "end": 142.972917,
      "velocity": 80,
      "hand": "right",
      "interactive": true,
      "label": "76"
    },
    {
      "id": "note-194",
      "midi": 79,
      "start": 143.0,
      "duration": 0.472917,
      "end": 143.472917,
      "velocity": 80,
      "hand": "right",
      "interactive": true,
      "label": "79"
    },
    {
      "id": "note-195",
      "midi": 74,
      "start": 143.5,
      "duration": 0.472917,
      "end": 143.972917,
      "velocity": 80,
      "hand": "right",
      "interactive": true,
      "label": "74"
    },
    {
      "id": "note-196",
      "midi": 72,
      "start": 144.0,
      "duration": 2.372917,
      "end": 146.372917,
      "velocity": 80,
      "hand": "right",
      "interactive": true,
      "label": "72"
    },
    {
      "id": "note-197",
      "midi": 72,
      "start": 146.5,
      "duration": 0.472917,
      "end": 146.972917,
      "velocity": 80,
      "hand": "right",
      "interactive": true,
      "label": "72"
    },
    {
      "id": "note-198",
      "midi": 74,
      "start": 147.0,
      "duration": 0.472917,
      "end": 147.472917,
      "velocity": 80,
      "hand": "right",
      "interactive": true,
      "label": "74"
    },
    {
      "id": "note-199",
      "midi": 76,
      "start": 147.5,
      "duration": 0.472917,
      "end": 147.972917,
      "velocity": 80,
      "hand": "right",
      "interactive": true,
      "label": "76"
    },
    {
      "id": "note-200",
      "midi": 79,
      "start": 148.0,
      "duration": 0.472917,
      "end": 148.472917,
      "velocity": 80,
      "hand": "right",
      "interactive": true,
      "label": "79"
    },
    {
      "id": "note-201",
      "midi": 81,
      "start": 148.5,
      "duration": 0.472917,
      "end": 148.972917,
      "velocity": 80,
      "hand": "right",
      "interactive": true,
      "label": "81"
    },
    {
      "id": "note-202",
      "midi": 79,
      "start": 149.0,
      "duration": 0.472917,
      "end": 149.472917,
      "velocity": 80,
      "hand": "right",
      "interactive": true,
      "label": "79"
    },
    {
      "id": "note-203",
      "midi": 76,
      "start": 149.5,
      "duration": 0.472917,
      "end": 149.972917,
      "velocity": 80,
      "hand": "right",
      "interactive": true,
      "label": "76"
    },
    {
      "id": "note-204",
      "midi": 79,
      "start": 150.0,
      "duration": 0.472917,
      "end": 150.472917,
      "velocity": 80,
      "hand": "right",
      "interactive": true,
      "label": "79"
    },
    {
      "id": "note-205",
      "midi": 76,
      "start": 150.5,
      "duration": 0.472917,
      "end": 150.972917,
      "velocity": 80,
      "hand": "right",
      "interactive": true,
      "label": "76"
    },
    {
      "id": "note-206",
      "midi": 76,
      "start": 151.0,
      "duration": 0.472917,
      "end": 151.472917,
      "velocity": 80,
      "hand": "right",
      "interactive": true,
      "label": "76"
    },
    {
      "id": "note-207",
      "midi": 74,
      "start": 151.5,
      "duration": 0.472917,
      "end": 151.972917,
      "velocity": 80,
      "hand": "right",
      "interactive": true,
      "label": "74"
    },
    {
      "id": "note-208",
      "midi": 74,
      "start": 152.0,
      "duration": 1.422917,
      "end": 153.422917,
      "velocity": 80,
      "hand": "right",
      "interactive": true,
      "label": "74"
    },
    {
      "id": "note-209",
      "midi": 67,
      "start": 153.5,
      "duration": 0.472917,
      "end": 153.972917,
      "velocity": 80,
      "hand": "right",
      "interactive": true,
      "label": "67"
    },
    {
      "id": "note-210",
      "midi": 76,
      "start": 154.0,
      "duration": 0.947917,
      "end": 154.947917,
      "velocity": 80,
      "hand": "right",
      "interactive": true,
      "label": "76"
    },
    {
      "id": "note-211",
      "midi": 74,
      "start": 155.0,
      "duration": 0.472917,
      "end": 155.472917,
      "velocity": 80,
      "hand": "right",
      "interactive": true,
      "label": "74"
    },
    {
      "id": "note-212",
      "midi": 74,
      "start": 155.5,
      "duration": 1.422917,
      "end": 156.922917,
      "velocity": 80,
      "hand": "right",
      "interactive": true,
      "label": "74"
    },
    {
      "id": "note-213",
      "midi": 72,
      "start": 157.0,
      "duration": 2.847917,
      "end": 159.847917,
      "velocity": 80,
      "hand": "right",
      "interactive": true,
      "label": "72"
    },
    {
      "id": "note-214",
      "midi": 79,
      "start": 161.5,
      "duration": 0.235417,
      "end": 161.735417,
      "velocity": 80,
      "hand": "right",
      "interactive": true,
      "label": "79"
    },
    {
      "id": "note-215",
      "midi": 81,
      "start": 161.75,
      "duration": 0.235417,
      "end": 161.985417,
      "velocity": 80,
      "hand": "right",
      "interactive": true,
      "label": "81"
    },
    {
      "id": "note-216",
      "midi": 79,
      "start": 162.0,
      "duration": 0.472917,
      "end": 162.472917,
      "velocity": 80,
      "hand": "right",
      "interactive": true,
      "label": "79"
    },
    {
      "id": "note-217",
      "midi": 76,
      "start": 162.5,
      "duration": 0.472917,
      "end": 162.972917,
      "velocity": 80,
      "hand": "right",
      "interactive": true,
      "label": "76"
    },
    {
      "id": "note-218",
      "midi": 74,
      "start": 163.0,
      "duration": 0.472917,
      "end": 163.472917,
      "velocity": 80,
      "hand": "right",
      "interactive": true,
      "label": "74"
    },
    {
      "id": "note-219",
      "midi": 76,
      "start": 163.5,
      "duration": 0.472917,
      "end": 163.972917,
      "velocity": 80,
      "hand": "right",
      "interactive": true,
      "label": "76"
    },
    {
      "id": "note-220",
      "midi": 74,
      "start": 164.0,
      "duration": 0.472917,
      "end": 164.472917,
      "velocity": 80,
      "hand": "right",
      "interactive": true,
      "label": "74"
    },
    {
      "id": "note-221",
      "midi": 72,
      "start": 164.5,
      "duration": 0.472917,
      "end": 164.972917,
      "velocity": 80,
      "hand": "right",
      "interactive": true,
      "label": "72"
    },
    {
      "id": "note-222",
      "midi": 69,
      "start": 165.0,
      "duration": 1.897917,
      "end": 166.897917,
      "velocity": 80,
      "hand": "right",
      "interactive": true,
      "label": "69"
    },
    {
      "id": "note-223",
      "midi": 74,
      "start": 167.0,
      "duration": 0.472917,
      "end": 167.472917,
      "velocity": 80,
      "hand": "right",
      "interactive": true,
      "label": "74"
    },
    {
      "id": "note-224",
      "midi": 76,
      "start": 167.5,
      "duration": 0.472917,
      "end": 167.972917,
      "velocity": 80,
      "hand": "right",
      "interactive": true,
      "label": "76"
    },
    {
      "id": "note-225",
      "midi": 74,
      "start": 168.0,
      "duration": 0.472917,
      "end": 168.472917,
      "velocity": 80,
      "hand": "right",
      "interactive": true,
      "label": "74"
    },
    {
      "id": "note-226",
      "midi": 72,
      "start": 168.5,
      "duration": 0.472917,
      "end": 168.972917,
      "velocity": 80,
      "hand": "right",
      "interactive": true,
      "label": "72"
    },
    {
      "id": "note-227",
      "midi": 67,
      "start": 169.0,
      "duration": 1.897917,
      "end": 170.897917,
      "velocity": 80,
      "hand": "right",
      "interactive": true,
      "label": "67"
    },
    {
      "id": "note-228",
      "midi": 74,
      "start": 171.0,
      "duration": 0.472917,
      "end": 171.472917,
      "velocity": 80,
      "hand": "right",
      "interactive": true,
      "label": "74"
    },
    {
      "id": "note-229",
      "midi": 76,
      "start": 171.5,
      "duration": 0.472917,
      "end": 171.972917,
      "velocity": 80,
      "hand": "right",
      "interactive": true,
      "label": "76"
    },
    {
      "id": "note-230",
      "midi": 74,
      "start": 172.0,
      "duration": 0.472917,
      "end": 172.472917,
      "velocity": 80,
      "hand": "right",
      "interactive": true,
      "label": "74"
    },
    {
      "id": "note-231",
      "midi": 72,
      "start": 172.5,
      "duration": 0.472917,
      "end": 172.972917,
      "velocity": 80,
      "hand": "right",
      "interactive": true,
      "label": "72"
    },
    {
      "id": "note-232",
      "midi": 69,
      "start": 173.0,
      "duration": 0.947917,
      "end": 173.947917,
      "velocity": 80,
      "hand": "right",
      "interactive": true,
      "label": "69"
    },
    {
      "id": "note-233",
      "midi": 72,
      "start": 174.0,
      "duration": 0.472917,
      "end": 174.472917,
      "velocity": 80,
      "hand": "right",
      "interactive": true,
      "label": "72"
    },
    {
      "id": "note-234",
      "midi": 74,
      "start": 174.5,
      "duration": 0.472917,
      "end": 174.972917,
      "velocity": 80,
      "hand": "right",
      "interactive": true,
      "label": "74"
    },
    {
      "id": "note-235",
      "midi": 76,
      "start": 175.0,
      "duration": 0.472917,
      "end": 175.472917,
      "velocity": 80,
      "hand": "right",
      "interactive": true,
      "label": "76"
    },
    {
      "id": "note-236",
      "midi": 67,
      "start": 175.5,
      "duration": 0.472917,
      "end": 175.972917,
      "velocity": 80,
      "hand": "right",
      "interactive": true,
      "label": "67"
    },
    {
      "id": "note-237",
      "midi": 76,
      "start": 176.0,
      "duration": 1.897917,
      "end": 177.897917,
      "velocity": 80,
      "hand": "right",
      "interactive": true,
      "label": "76"
    },
    {
      "id": "note-238",
      "midi": 72,
      "start": 178.0,
      "duration": 0.472917,
      "end": 178.472917,
      "velocity": 80,
      "hand": "right",
      "interactive": true,
      "label": "72"
    },
    {
      "id": "note-239",
      "midi": 74,
      "start": 178.5,
      "duration": 0.472917,
      "end": 178.972917,
      "velocity": 80,
      "hand": "right",
      "interactive": true,
      "label": "74"
    },
    {
      "id": "note-240",
      "midi": 76,
      "start": 179.0,
      "duration": 0.472917,
      "end": 179.472917,
      "velocity": 80,
      "hand": "right",
      "interactive": true,
      "label": "76"
    },
    {
      "id": "note-241",
      "midi": 79,
      "start": 179.5,
      "duration": 0.472917,
      "end": 179.972917,
      "velocity": 80,
      "hand": "right",
      "interactive": true,
      "label": "79"
    },
    {
      "id": "note-242",
      "midi": 79,
      "start": 180.0,
      "duration": 0.947917,
      "end": 180.947917,
      "velocity": 80,
      "hand": "right",
      "interactive": true,
      "label": "79"
    },
    {
      "id": "note-243",
      "midi": 76,
      "start": 181.0,
      "duration": 0.947917,
      "end": 181.947917,
      "velocity": 80,
      "hand": "right",
      "interactive": true,
      "label": "76"
    },
    {
      "id": "note-244",
      "midi": 74,
      "start": 182.0,
      "duration": 0.947917,
      "end": 182.947917,
      "velocity": 80,
      "hand": "right",
      "interactive": true,
      "label": "74"
    },
    {
      "id": "note-245",
      "midi": 76,
      "start": 183.0,
      "duration": 0.947917,
      "end": 183.947917,
      "velocity": 80,
      "hand": "right",
      "interactive": true,
      "label": "76"
    },
    {
      "id": "note-246",
      "midi": 74,
      "start": 184.0,
      "duration": 0.472917,
      "end": 184.472917,
      "velocity": 80,
      "hand": "right",
      "interactive": true,
      "label": "74"
    },
    {
      "id": "note-247",
      "midi": 72,
      "start": 184.5,
      "duration": 0.472917,
      "end": 184.972917,
      "velocity": 80,
      "hand": "right",
      "interactive": true,
      "label": "72"
    },
    {
      "id": "note-248",
      "midi": 69,
      "start": 185.0,
      "duration": 0.947917,
      "end": 185.947917,
      "velocity": 80,
      "hand": "right",
      "interactive": true,
      "label": "69"
    },
    {
      "id": "note-249",
      "midi": 72,
      "start": 186.0,
      "duration": 0.472917,
      "end": 186.472917,
      "velocity": 80,
      "hand": "right",
      "interactive": true,
      "label": "72"
    },
    {
      "id": "note-250",
      "midi": 74,
      "start": 186.5,
      "duration": 0.472917,
      "end": 186.972917,
      "velocity": 80,
      "hand": "right",
      "interactive": true,
      "label": "74"
    },
    {
      "id": "note-251",
      "midi": 76,
      "start": 187.0,
      "duration": 0.472917,
      "end": 187.472917,
      "velocity": 80,
      "hand": "right",
      "interactive": true,
      "label": "76"
    },
    {
      "id": "note-252",
      "midi": 81,
      "start": 187.5,
      "duration": 0.472917,
      "end": 187.972917,
      "velocity": 80,
      "hand": "right",
      "interactive": true,
      "label": "81"
    },
    {
      "id": "note-253",
      "midi": 79,
      "start": 188.0,
      "duration": 3.797917,
      "end": 191.797917,
      "velocity": 80,
      "hand": "right",
      "interactive": true,
      "label": "79"
    },
    {
      "id": "note-254",
      "midi": 79,
      "start": 192.0,
      "duration": 2.372917,
      "end": 194.372917,
      "velocity": 80,
      "hand": "right",
      "interactive": true,
      "label": "79"
    },
    {
      "id": "note-255",
      "midi": 74,
      "start": 194.5,
      "duration": 0.472917,
      "end": 194.972917,
      "velocity": 80,
      "hand": "right",
      "interactive": true,
      "label": "74"
    },
    {
      "id": "note-256",
      "midi": 72,
      "start": 195.0,
      "duration": 0.472917,
      "end": 195.472917,
      "velocity": 80,
      "hand": "right",
      "interactive": true,
      "label": "72"
    },
    {
      "id": "note-257",
      "midi": 69,
      "start": 195.5,
      "duration": 0.472917,
      "end": 195.972917,
      "velocity": 80,
      "hand": "right",
      "interactive": true,
      "label": "69"
    },
    {
      "id": "note-258",
      "midi": 72,
      "start": 196.0,
      "duration": 0.947917,
      "end": 196.947917,
      "velocity": 80,
      "hand": "right",
      "interactive": true,
      "label": "72"
    },
    {
      "id": "note-259",
      "midi": 72,
      "start": 197.0,
      "duration": 0.472917,
      "end": 197.472917,
      "velocity": 80,
      "hand": "right",
      "interactive": true,
      "label": "72"
    },
    {
      "id": "note-260",
      "midi": 69,
      "start": 197.5,
      "duration": 0.472917,
      "end": 197.972917,
      "velocity": 80,
      "hand": "right",
      "interactive": true,
      "label": "69"
    },
    {
      "id": "note-261",
      "midi": 72,
      "start": 198.0,
      "duration": 0.947917,
      "end": 198.947917,
      "velocity": 80,
      "hand": "right",
      "interactive": true,
      "label": "72"
    },
    {
      "id": "note-262",
      "midi": 72,
      "start": 199.0,
      "duration": 0.472917,
      "end": 199.472917,
      "velocity": 80,
      "hand": "right",
      "interactive": true,
      "label": "72"
    },
    {
      "id": "note-263",
      "midi": 69,
      "start": 199.5,
      "duration": 0.472917,
      "end": 199.972917,
      "velocity": 80,
      "hand": "right",
      "interactive": true,
      "label": "69"
    },
    {
      "id": "note-264",
      "midi": 72,
      "start": 200.0,
      "duration": 0.472917,
      "end": 200.472917,
      "velocity": 80,
      "hand": "right",
      "interactive": true,
      "label": "72"
    },
    {
      "id": "note-265",
      "midi": 69,
      "start": 200.5,
      "duration": 0.472917,
      "end": 200.972917,
      "velocity": 80,
      "hand": "right",
      "interactive": true,
      "label": "69"
    },
    {
      "id": "note-266",
      "midi": 67,
      "start": 201.0,
      "duration": 1.422917,
      "end": 202.422917,
      "velocity": 80,
      "hand": "right",
      "interactive": true,
      "label": "67"
    },
    {
      "id": "note-267",
      "midi": 74,
      "start": 202.5,
      "duration": 0.472917,
      "end": 202.972917,
      "velocity": 80,
      "hand": "right",
      "interactive": true,
      "label": "74"
    },
    {
      "id": "note-268",
      "midi": 72,
      "start": 203.0,
      "duration": 0.472917,
      "end": 203.472917,
      "velocity": 80,
      "hand": "right",
      "interactive": true,
      "label": "72"
    },
    {
      "id": "note-269",
      "midi": 69,
      "start": 203.5,
      "duration": 0.472917,
      "end": 203.972917,
      "velocity": 80,
      "hand": "right",
      "interactive": true,
      "label": "69"
    },
    {
      "id": "note-270",
      "midi": 72,
      "start": 204.0,
      "duration": 0.947917,
      "end": 204.947917,
      "velocity": 80,
      "hand": "right",
      "interactive": true,
      "label": "72"
    },
    {
      "id": "note-271",
      "midi": 72,
      "start": 205.0,
      "duration": 0.472917,
      "end": 205.472917,
      "velocity": 80,
      "hand": "right",
      "interactive": true,
      "label": "72"
    },
    {
      "id": "note-272",
      "midi": 69,
      "start": 205.5,
      "duration": 0.472917,
      "end": 205.972917,
      "velocity": 80,
      "hand": "right",
      "interactive": true,
      "label": "69"
    },
    {
      "id": "note-273",
      "midi": 72,
      "start": 206.0,
      "duration": 0.947917,
      "end": 206.947917,
      "velocity": 80,
      "hand": "right",
      "interactive": true,
      "label": "72"
    },
    {
      "id": "note-274",
      "midi": 72,
      "start": 207.0,
      "duration": 0.472917,
      "end": 207.472917,
      "velocity": 80,
      "hand": "right",
      "interactive": true,
      "label": "72"
    },
    {
      "id": "note-275",
      "midi": 76,
      "start": 207.5,
      "duration": 0.472917,
      "end": 207.972917,
      "velocity": 80,
      "hand": "right",
      "interactive": true,
      "label": "76"
    },
    {
      "id": "note-276",
      "midi": 74,
      "start": 208.0,
      "duration": 0.472917,
      "end": 208.472917,
      "velocity": 80,
      "hand": "right",
      "interactive": true,
      "label": "74"
    },
    {
      "id": "note-277",
      "midi": 72,
      "start": 208.5,
      "duration": 0.472917,
      "end": 208.972917,
      "velocity": 80,
      "hand": "right",
      "interactive": true,
      "label": "72"
    },
    {
      "id": "note-278",
      "midi": 72,
      "start": 209.0,
      "duration": 1.422917,
      "end": 210.422917,
      "velocity": 80,
      "hand": "right",
      "interactive": true,
      "label": "72"
    },
    {
      "id": "note-279",
      "midi": 67,
      "start": 210.5,
      "duration": 0.472917,
      "end": 210.972917,
      "velocity": 80,
      "hand": "right",
      "interactive": true,
      "label": "67"
    },
    {
      "id": "note-280",
      "midi": 69,
      "start": 211.0,
      "duration": 0.472917,
      "end": 211.472917,
      "velocity": 80,
      "hand": "right",
      "interactive": true,
      "label": "69"
    },
    {
      "id": "note-281",
      "midi": 76,
      "start": 211.5,
      "duration": 0.472917,
      "end": 211.972917,
      "velocity": 80,
      "hand": "right",
      "interactive": true,
      "label": "76"
    },
    {
      "id": "note-282",
      "midi": 76,
      "start": 212.0,
      "duration": 0.947917,
      "end": 212.947917,
      "velocity": 80,
      "hand": "right",
      "interactive": true,
      "label": "76"
    },
    {
      "id": "note-283",
      "midi": 76,
      "start": 213.0,
      "duration": 0.472917,
      "end": 213.472917,
      "velocity": 80,
      "hand": "right",
      "interactive": true,
      "label": "76"
    },
    {
      "id": "note-284",
      "midi": 74,
      "start": 213.5,
      "duration": 0.472917,
      "end": 213.972917,
      "velocity": 80,
      "hand": "right",
      "interactive": true,
      "label": "74"
    },
    {
      "id": "note-285",
      "midi": 76,
      "start": 214.0,
      "duration": 0.947917,
      "end": 214.947917,
      "velocity": 80,
      "hand": "right",
      "interactive": true,
      "label": "76"
    },
    {
      "id": "note-286",
      "midi": 76,
      "start": 215.0,
      "duration": 0.472917,
      "end": 215.472917,
      "velocity": 80,
      "hand": "right",
      "interactive": true,
      "label": "76"
    },
    {
      "id": "note-287",
      "midi": 74,
      "start": 215.5,
      "duration": 0.472917,
      "end": 215.972917,
      "velocity": 80,
      "hand": "right",
      "interactive": true,
      "label": "74"
    },
    {
      "id": "note-288",
      "midi": 76,
      "start": 216.0,
      "duration": 0.472917,
      "end": 216.472917,
      "velocity": 80,
      "hand": "right",
      "interactive": true,
      "label": "76"
    },
    {
      "id": "note-289",
      "midi": 79,
      "start": 216.5,
      "duration": 0.947917,
      "end": 217.447917,
      "velocity": 80,
      "hand": "right",
      "interactive": true,
      "label": "79"
    },
    {
      "id": "note-290",
      "midi": 76,
      "start": 217.5,
      "duration": 0.472917,
      "end": 217.972917,
      "velocity": 80,
      "hand": "right",
      "interactive": true,
      "label": "76"
    },
    {
      "id": "note-291",
      "midi": 76,
      "start": 218.5,
      "duration": 0.472917,
      "end": 218.972917,
      "velocity": 80,
      "hand": "right",
      "interactive": true,
      "label": "76"
    },
    {
      "id": "note-292",
      "midi": 76,
      "start": 219.0,
      "duration": 0.472917,
      "end": 219.472917,
      "velocity": 80,
      "hand": "right",
      "interactive": true,
      "label": "76"
    },
    {
      "id": "note-293",
      "midi": 76,
      "start": 219.5,
      "duration": 0.472917,
      "end": 219.972917,
      "velocity": 80,
      "hand": "right",
      "interactive": true,
      "label": "76"
    },
    {
      "id": "note-294",
      "midi": 74,
      "start": 220.0,
      "duration": 0.472917,
      "end": 220.472917,
      "velocity": 80,
      "hand": "right",
      "interactive": true,
      "label": "74"
    },
    {
      "id": "note-295",
      "midi": 74,
      "start": 220.5,
      "duration": 0.472917,
      "end": 220.972917,
      "velocity": 80,
      "hand": "right",
      "interactive": true,
      "label": "74"
    },
    {
      "id": "note-296",
      "midi": 74,
      "start": 221.0,
      "duration": 0.472917,
      "end": 221.472917,
      "velocity": 80,
      "hand": "right",
      "interactive": true,
      "label": "74"
    },
    {
      "id": "note-297",
      "midi": 74,
      "start": 221.5,
      "duration": 0.472917,
      "end": 221.972917,
      "velocity": 80,
      "hand": "right",
      "interactive": true,
      "label": "74"
    },
    {
      "id": "note-298",
      "midi": 74,
      "start": 222.0,
      "duration": 0.947917,
      "end": 222.947917,
      "velocity": 80,
      "hand": "right",
      "interactive": true,
      "label": "74"
    },
    {
      "id": "note-299",
      "midi": 72,
      "start": 223.0,
      "duration": 0.472917,
      "end": 223.472917,
      "velocity": 80,
      "hand": "right",
      "interactive": true,
      "label": "72"
    },
    {
      "id": "note-300",
      "midi": 76,
      "start": 223.5,
      "duration": 1.422917,
      "end": 224.922917,
      "velocity": 80,
      "hand": "right",
      "interactive": true,
      "label": "76"
    },
    {
      "id": "note-301",
      "midi": 74,
      "start": 225.0,
      "duration": 1.422917,
      "end": 226.422917,
      "velocity": 80,
      "hand": "right",
      "interactive": true,
      "label": "74"
    },
    {
      "id": "note-302",
      "midi": 74,
      "start": 226.5,
      "duration": 0.472917,
      "end": 226.972917,
      "velocity": 80,
      "hand": "right",
      "interactive": true,
      "label": "74"
    },
    {
      "id": "note-303",
      "midi": 72,
      "start": 227.0,
      "duration": 0.472917,
      "end": 227.472917,
      "velocity": 80,
      "hand": "right",
      "interactive": true,
      "label": "72"
    },
    {
      "id": "note-304",
      "midi": 69,
      "start": 227.5,
      "duration": 0.472917,
      "end": 227.972917,
      "velocity": 80,
      "hand": "right",
      "interactive": true,
      "label": "69"
    },
    {
      "id": "note-305",
      "midi": 72,
      "start": 228.0,
      "duration": 0.947917,
      "end": 228.947917,
      "velocity": 80,
      "hand": "right",
      "interactive": true,
      "label": "72"
    },
    {
      "id": "note-306",
      "midi": 72,
      "start": 229.0,
      "duration": 0.472917,
      "end": 229.472917,
      "velocity": 80,
      "hand": "right",
      "interactive": true,
      "label": "72"
    },
    {
      "id": "note-307",
      "midi": 69,
      "start": 229.5,
      "duration": 0.472917,
      "end": 229.972917,
      "velocity": 80,
      "hand": "right",
      "interactive": true,
      "label": "69"
    },
    {
      "id": "note-308",
      "midi": 72,
      "start": 230.0,
      "duration": 0.947917,
      "end": 230.947917,
      "velocity": 80,
      "hand": "right",
      "interactive": true,
      "label": "72"
    },
    {
      "id": "note-309",
      "midi": 72,
      "start": 231.0,
      "duration": 0.472917,
      "end": 231.472917,
      "velocity": 80,
      "hand": "right",
      "interactive": true,
      "label": "72"
    },
    {
      "id": "note-310",
      "midi": 69,
      "start": 231.5,
      "duration": 0.472917,
      "end": 231.972917,
      "velocity": 80,
      "hand": "right",
      "interactive": true,
      "label": "69"
    },
    {
      "id": "note-311",
      "midi": 72,
      "start": 232.0,
      "duration": 0.472917,
      "end": 232.472917,
      "velocity": 80,
      "hand": "right",
      "interactive": true,
      "label": "72"
    },
    {
      "id": "note-312",
      "midi": 69,
      "start": 232.5,
      "duration": 0.472917,
      "end": 232.972917,
      "velocity": 80,
      "hand": "right",
      "interactive": true,
      "label": "69"
    },
    {
      "id": "note-313",
      "midi": 67,
      "start": 233.0,
      "duration": 1.422917,
      "end": 234.422917,
      "velocity": 80,
      "hand": "right",
      "interactive": true,
      "label": "67"
    },
    {
      "id": "note-314",
      "midi": 67,
      "start": 234.5,
      "duration": 0.472917,
      "end": 234.972917,
      "velocity": 80,
      "hand": "right",
      "interactive": true,
      "label": "67"
    },
    {
      "id": "note-315",
      "midi": 69,
      "start": 235.0,
      "duration": 0.472917,
      "end": 235.472917,
      "velocity": 80,
      "hand": "right",
      "interactive": true,
      "label": "69"
    },
    {
      "id": "note-316",
      "midi": 76,
      "start": 235.5,
      "duration": 0.472917,
      "end": 235.972917,
      "velocity": 80,
      "hand": "right",
      "interactive": true,
      "label": "76"
    },
    {
      "id": "note-317",
      "midi": 79,
      "start": 236.0,
      "duration": 0.947917,
      "end": 236.947917,
      "velocity": 80,
      "hand": "right",
      "interactive": true,
      "label": "79"
    },
    {
      "id": "note-318",
      "midi": 79,
      "start": 237.0,
      "duration": 0.472917,
      "end": 237.472917,
      "velocity": 80,
      "hand": "right",
      "interactive": true,
      "label": "79"
    },
    {
      "id": "note-319",
      "midi": 76,
      "start": 237.5,
      "duration": 0.472917,
      "end": 237.972917,
      "velocity": 80,
      "hand": "right",
      "interactive": true,
      "label": "76"
    },
    {
      "id": "note-320",
      "midi": 79,
      "start": 238.0,
      "duration": 0.947917,
      "end": 238.947917,
      "velocity": 80,
      "hand": "right",
      "interactive": true,
      "label": "79"
    },
    {
      "id": "note-321",
      "midi": 79,
      "start": 239.0,
      "duration": 0.472917,
      "end": 239.472917,
      "velocity": 80,
      "hand": "right",
      "interactive": true,
      "label": "79"
    },
    {
      "id": "note-322",
      "midi": 76,
      "start": 239.5,
      "duration": 0.472917,
      "end": 239.972917,
      "velocity": 80,
      "hand": "right",
      "interactive": true,
      "label": "76"
    },
    {
      "id": "note-323",
      "midi": 74,
      "start": 240.0,
      "duration": 0.472917,
      "end": 240.472917,
      "velocity": 80,
      "hand": "right",
      "interactive": true,
      "label": "74"
    },
    {
      "id": "note-324",
      "midi": 72,
      "start": 240.5,
      "duration": 0.472917,
      "end": 240.972917,
      "velocity": 80,
      "hand": "right",
      "interactive": true,
      "label": "72"
    },
    {
      "id": "note-325",
      "midi": 72,
      "start": 241.0,
      "duration": 1.422917,
      "end": 242.422917,
      "velocity": 80,
      "hand": "right",
      "interactive": true,
      "label": "72"
    },
    {
      "id": "note-326",
      "midi": 74,
      "start": 242.5,
      "duration": 0.472917,
      "end": 242.972917,
      "velocity": 80,
      "hand": "right",
      "interactive": true,
      "label": "74"
    },
    {
      "id": "note-327",
      "midi": 72,
      "start": 243.0,
      "duration": 0.472917,
      "end": 243.472917,
      "velocity": 80,
      "hand": "right",
      "interactive": true,
      "label": "72"
    },
    {
      "id": "note-328",
      "midi": 74,
      "start": 243.5,
      "duration": 0.472917,
      "end": 243.972917,
      "velocity": 80,
      "hand": "right",
      "interactive": true,
      "label": "74"
    },
    {
      "id": "note-329",
      "midi": 76,
      "start": 244.0,
      "duration": 0.472917,
      "end": 244.472917,
      "velocity": 80,
      "hand": "right",
      "interactive": true,
      "label": "76"
    },
    {
      "id": "note-330",
      "midi": 74,
      "start": 244.5,
      "duration": 0.472917,
      "end": 244.972917,
      "velocity": 80,
      "hand": "right",
      "interactive": true,
      "label": "74"
    },
    {
      "id": "note-331",
      "midi": 74,
      "start": 245.0,
      "duration": 0.472917,
      "end": 245.472917,
      "velocity": 80,
      "hand": "right",
      "interactive": true,
      "label": "74"
    },
    {
      "id": "note-332",
      "midi": 72,
      "start": 245.5,
      "duration": 0.472917,
      "end": 245.972917,
      "velocity": 80,
      "hand": "right",
      "interactive": true,
      "label": "72"
    },
    {
      "id": "note-333",
      "midi": 74,
      "start": 246.0,
      "duration": 0.947917,
      "end": 246.947917,
      "velocity": 80,
      "hand": "right",
      "interactive": true,
      "label": "74"
    },
    {
      "id": "note-334",
      "midi": 72,
      "start": 247.0,
      "duration": 0.472917,
      "end": 247.472917,
      "velocity": 80,
      "hand": "right",
      "interactive": true,
      "label": "72"
    },
    {
      "id": "note-335",
      "midi": 69,
      "start": 247.5,
      "duration": 0.472917,
      "end": 247.972917,
      "velocity": 80,
      "hand": "right",
      "interactive": true,
      "label": "69"
    },
    {
      "id": "note-336",
      "midi": 74,
      "start": 248.0,
      "duration": 0.472917,
      "end": 248.472917,
      "velocity": 80,
      "hand": "right",
      "interactive": true,
      "label": "74"
    },
    {
      "id": "note-337",
      "midi": 72,
      "start": 248.5,
      "duration": 0.472917,
      "end": 248.972917,
      "velocity": 80,
      "hand": "right",
      "interactive": true,
      "label": "72"
    },
    {
      "id": "note-338",
      "midi": 72,
      "start": 249.0,
      "duration": 0.472917,
      "end": 249.472917,
      "velocity": 80,
      "hand": "right",
      "interactive": true,
      "label": "72"
    },
    {
      "id": "note-339",
      "midi": 69,
      "start": 249.5,
      "duration": 0.472917,
      "end": 249.972917,
      "velocity": 80,
      "hand": "right",
      "interactive": true,
      "label": "69"
    },
    {
      "id": "note-340",
      "midi": 72,
      "start": 250.0,
      "duration": 0.947917,
      "end": 250.947917,
      "velocity": 80,
      "hand": "right",
      "interactive": true,
      "label": "72"
    },
    {
      "id": "note-341",
      "midi": 72,
      "start": 251.0,
      "duration": 0.472917,
      "end": 251.472917,
      "velocity": 80,
      "hand": "right",
      "interactive": true,
      "label": "72"
    },
    {
      "id": "note-342",
      "midi": 72,
      "start": 251.5,
      "duration": 0.472917,
      "end": 251.972917,
      "velocity": 80,
      "hand": "right",
      "interactive": true,
      "label": "72"
    },
    {
      "id": "note-343",
      "midi": 72,
      "start": 252.0,
      "duration": 3.797917,
      "end": 255.797917,
      "velocity": 80,
      "hand": "right",
      "interactive": true,
      "label": "72"
    },
    {
      "id": "note-344",
      "midi": 72,
      "start": 256.0,
      "duration": 2.372917,
      "end": 258.372917,
      "velocity": 80,
      "hand": "right",
      "interactive": true,
      "label": "72"
    },
    {
      "id": "note-345",
      "midi": 79,
      "start": 258.5,
      "duration": 0.472917,
      "end": 258.972917,
      "velocity": 80,
      "hand": "right",
      "interactive": true,
      "label": "79"
    },
    {
      "id": "note-346",
      "midi": 79,
      "start": 259.0,
      "duration": 0.472917,
      "end": 259.472917,
      "velocity": 80,
      "hand": "right",
      "interactive": true,
      "label": "79"
    },
    {
      "id": "note-347",
      "midi": 76,
      "start": 259.5,
      "duration": 0.472917,
      "end": 259.972917,
      "velocity": 80,
      "hand": "right",
      "interactive": true,
      "label": "76"
    },
    {
      "id": "note-348",
      "midi": 74,
      "start": 260.0,
      "duration": 0.472917,
      "end": 260.472917,
      "velocity": 80,
      "hand": "right",
      "interactive": true,
      "label": "74"
    },
    {
      "id": "note-349",
      "midi": 76,
      "start": 260.5,
      "duration": 0.472917,
      "end": 260.972917,
      "velocity": 80,
      "hand": "right",
      "interactive": true,
      "label": "76"
    },
    {
      "id": "note-350",
      "midi": 69,
      "start": 261.0,
      "duration": 0.947917,
      "end": 261.947917,
      "velocity": 80,
      "hand": "right",
      "interactive": true,
      "label": "69"
    },
    {
      "id": "note-351",
      "midi": 74,
      "start": 262.0,
      "duration": 0.472917,
      "end": 262.472917,
      "velocity": 80,
      "hand": "right",
      "interactive": true,
      "label": "74"
    },
    {
      "id": "note-352",
      "midi": 76,
      "start": 262.5,
      "duration": 0.472917,
      "end": 262.972917,
      "velocity": 80,
      "hand": "right",
      "interactive": true,
      "label": "76"
    },
    {
      "id": "note-353",
      "midi": 79,
      "start": 263.0,
      "duration": 0.472917,
      "end": 263.472917,
      "velocity": 80,
      "hand": "right",
      "interactive": true,
      "label": "79"
    },
    {
      "id": "note-354",
      "midi": 76,
      "start": 263.5,
      "duration": 0.472917,
      "end": 263.972917,
      "velocity": 80,
      "hand": "right",
      "interactive": true,
      "label": "76"
    },
    {
      "id": "note-355",
      "midi": 74,
      "start": 264.0,
      "duration": 2.372917,
      "end": 266.372917,
      "velocity": 80,
      "hand": "right",
      "interactive": true,
      "label": "74"
    },
    {
      "id": "note-356",
      "midi": 79,
      "start": 266.5,
      "duration": 0.472917,
      "end": 266.972917,
      "velocity": 80,
      "hand": "right",
      "interactive": true,
      "label": "79"
    },
    {
      "id": "note-357",
      "midi": 79,
      "start": 267.0,
      "duration": 0.472917,
      "end": 267.472917,
      "velocity": 80,
      "hand": "right",
      "interactive": true,
      "label": "79"
    },
    {
      "id": "note-358",
      "midi": 76,
      "start": 267.5,
      "duration": 0.472917,
      "end": 267.972917,
      "velocity": 80,
      "hand": "right",
      "interactive": true,
      "label": "76"
    },
    {
      "id": "note-359",
      "midi": 74,
      "start": 268.0,
      "duration": 0.472917,
      "end": 268.472917,
      "velocity": 80,
      "hand": "right",
      "interactive": true,
      "label": "74"
    },
    {
      "id": "note-360",
      "midi": 76,
      "start": 268.5,
      "duration": 0.472917,
      "end": 268.972917,
      "velocity": 80,
      "hand": "right",
      "interactive": true,
      "label": "76"
    },
    {
      "id": "note-361",
      "midi": 67,
      "start": 269.0,
      "duration": 0.947917,
      "end": 269.947917,
      "velocity": 80,
      "hand": "right",
      "interactive": true,
      "label": "67"
    },
    {
      "id": "note-362",
      "midi": 74,
      "start": 270.0,
      "duration": 0.472917,
      "end": 270.472917,
      "velocity": 80,
      "hand": "right",
      "interactive": true,
      "label": "74"
    },
    {
      "id": "note-363",
      "midi": 76,
      "start": 270.5,
      "duration": 0.472917,
      "end": 270.972917,
      "velocity": 80,
      "hand": "right",
      "interactive": true,
      "label": "76"
    },
    {
      "id": "note-364",
      "midi": 79,
      "start": 271.0,
      "duration": 0.472917,
      "end": 271.472917,
      "velocity": 80,
      "hand": "right",
      "interactive": true,
      "label": "79"
    },
    {
      "id": "note-365",
      "midi": 74,
      "start": 271.5,
      "duration": 0.472917,
      "end": 271.972917,
      "velocity": 80,
      "hand": "right",
      "interactive": true,
      "label": "74"
    },
    {
      "id": "note-366",
      "midi": 72,
      "start": 272.0,
      "duration": 2.372917,
      "end": 274.372917,
      "velocity": 80,
      "hand": "right",
      "interactive": true,
      "label": "72"
    },
    {
      "id": "note-367",
      "midi": 72,
      "start": 274.5,
      "duration": 0.472917,
      "end": 274.972917,
      "velocity": 80,
      "hand": "right",
      "interactive": true,
      "label": "72"
    },
    {
      "id": "note-368",
      "midi": 74,
      "start": 275.0,
      "duration": 0.472917,
      "end": 275.472917,
      "velocity": 80,
      "hand": "right",
      "interactive": true,
      "label": "74"
    },
    {
      "id": "note-369",
      "midi": 76,
      "start": 275.5,
      "duration": 0.472917,
      "end": 275.972917,
      "velocity": 80,
      "hand": "right",
      "interactive": true,
      "label": "76"
    },
    {
      "id": "note-370",
      "midi": 79,
      "start": 276.0,
      "duration": 0.472917,
      "end": 276.472917,
      "velocity": 80,
      "hand": "right",
      "interactive": true,
      "label": "79"
    },
    {
      "id": "note-371",
      "midi": 81,
      "start": 276.5,
      "duration": 0.472917,
      "end": 276.972917,
      "velocity": 80,
      "hand": "right",
      "interactive": true,
      "label": "81"
    },
    {
      "id": "note-372",
      "midi": 79,
      "start": 277.0,
      "duration": 0.472917,
      "end": 277.472917,
      "velocity": 80,
      "hand": "right",
      "interactive": true,
      "label": "79"
    },
    {
      "id": "note-373",
      "midi": 76,
      "start": 277.5,
      "duration": 0.472917,
      "end": 277.972917,
      "velocity": 80,
      "hand": "right",
      "interactive": true,
      "label": "76"
    },
    {
      "id": "note-374",
      "midi": 79,
      "start": 278.0,
      "duration": 0.472917,
      "end": 278.472917,
      "velocity": 80,
      "hand": "right",
      "interactive": true,
      "label": "79"
    },
    {
      "id": "note-375",
      "midi": 76,
      "start": 278.5,
      "duration": 0.472917,
      "end": 278.972917,
      "velocity": 80,
      "hand": "right",
      "interactive": true,
      "label": "76"
    },
    {
      "id": "note-376",
      "midi": 76,
      "start": 279.0,
      "duration": 0.472917,
      "end": 279.472917,
      "velocity": 80,
      "hand": "right",
      "interactive": true,
      "label": "76"
    },
    {
      "id": "note-377",
      "midi": 74,
      "start": 279.5,
      "duration": 0.472917,
      "end": 279.972917,
      "velocity": 80,
      "hand": "right",
      "interactive": true,
      "label": "74"
    },
    {
      "id": "note-378",
      "midi": 74,
      "start": 280.0,
      "duration": 2.372917,
      "end": 282.372917,
      "velocity": 80,
      "hand": "right",
      "interactive": true,
      "label": "74"
    },
    {
      "id": "note-379",
      "midi": 72,
      "start": 282.5,
      "duration": 0.472917,
      "end": 282.972917,
      "velocity": 80,
      "hand": "right",
      "interactive": true,
      "label": "72"
    },
    {
      "id": "note-380",
      "midi": 74,
      "start": 283.0,
      "duration": 0.472917,
      "end": 283.472917,
      "velocity": 80,
      "hand": "right",
      "interactive": true,
      "label": "74"
    },
    {
      "id": "note-381",
      "midi": 72,
      "start": 283.5,
      "duration": 0.472917,
      "end": 283.972917,
      "velocity": 80,
      "hand": "right",
      "interactive": true,
      "label": "72"
    },
    {
      "id": "note-382",
      "midi": 74,
      "start": 284.0,
      "duration": 0.947917,
      "end": 284.947917,
      "velocity": 80,
      "hand": "right",
      "interactive": true,
      "label": "74"
    },
    {
      "id": "note-383",
      "midi": 72,
      "start": 285.0,
      "duration": 0.472917,
      "end": 285.472917,
      "velocity": 80,
      "hand": "right",
      "interactive": true,
      "label": "72"
    },
    {
      "id": "note-384",
      "midi": 74,
      "start": 285.5,
      "duration": 1.422917,
      "end": 286.922917,
      "velocity": 80,
      "hand": "right",
      "interactive": true,
      "label": "74"
    },
    {
      "id": "note-385",
      "midi": 76,
      "start": 287.0,
      "duration": 0.947917,
      "end": 287.947917,
      "velocity": 80,
      "hand": "right",
      "interactive": true,
      "label": "76"
    },
    {
      "id": "note-386",
      "midi": 79,
      "start": 288.0,
      "duration": 0.947917,
      "end": 288.947917,
      "velocity": 80,
      "hand": "right",
      "interactive": true,
      "label": "79"
    },
    {
      "id": "note-387",
      "midi": 76,
      "start": 289.0,
      "duration": 1.422917,
      "end": 290.422917,
      "velocity": 80,
      "hand": "right",
      "interactive": true,
      "label": "76"
    },
    {
      "id": "note-388",
      "midi": 79,
      "start": 290.5,
      "duration": 0.472917,
      "end": 290.972917,
      "velocity": 80,
      "hand": "right",
      "interactive": true,
      "label": "79"
    },
    {
      "id": "note-389",
      "midi": 79,
      "start": 291.0,
      "duration": 0.472917,
      "end": 291.472917,
      "velocity": 80,
      "hand": "right",
      "interactive": true,
      "label": "79"
    },
    {
      "id": "note-390",
      "midi": 76,
      "start": 291.5,
      "duration": 0.472917,
      "end": 291.972917,
      "velocity": 80,
      "hand": "right",
      "interactive": true,
      "label": "76"
    },
    {
      "id": "note-391",
      "midi": 74,
      "start": 292.0,
      "duration": 0.472917,
      "end": 292.472917,
      "velocity": 80,
      "hand": "right",
      "interactive": true,
      "label": "74"
    },
    {
      "id": "note-392",
      "midi": 76,
      "start": 292.5,
      "duration": 0.472917,
      "end": 292.972917,
      "velocity": 80,
      "hand": "right",
      "interactive": true,
      "label": "76"
    },
    {
      "id": "note-393",
      "midi": 69,
      "start": 293.0,
      "duration": 0.947917,
      "end": 293.947917,
      "velocity": 80,
      "hand": "right",
      "interactive": true,
      "label": "69"
    },
    {
      "id": "note-394",
      "midi": 74,
      "start": 294.0,
      "duration": 0.472917,
      "end": 294.472917,
      "velocity": 80,
      "hand": "right",
      "interactive": true,
      "label": "74"
    },
    {
      "id": "note-395",
      "midi": 76,
      "start": 294.5,
      "duration": 0.472917,
      "end": 294.972917,
      "velocity": 80,
      "hand": "right",
      "interactive": true,
      "label": "76"
    },
    {
      "id": "note-396",
      "midi": 79,
      "start": 295.0,
      "duration": 0.472917,
      "end": 295.472917,
      "velocity": 80,
      "hand": "right",
      "interactive": true,
      "label": "79"
    },
    {
      "id": "note-397",
      "midi": 76,
      "start": 295.5,
      "duration": 0.472917,
      "end": 295.972917,
      "velocity": 80,
      "hand": "right",
      "interactive": true,
      "label": "76"
    },
    {
      "id": "note-398",
      "midi": 74,
      "start": 296.0,
      "duration": 0.947917,
      "end": 296.947917,
      "velocity": 80,
      "hand": "right",
      "interactive": true,
      "label": "74"
    },
    {
      "id": "note-399",
      "midi": 74,
      "start": 298.0,
      "duration": 0.472917,
      "end": 298.472917,
      "velocity": 80,
      "hand": "right",
      "interactive": true,
      "label": "74"
    },
    {
      "id": "note-400",
      "midi": 79,
      "start": 298.5,
      "duration": 0.472917,
      "end": 298.972917,
      "velocity": 80,
      "hand": "right",
      "interactive": true,
      "label": "79"
    },
    {
      "id": "note-401",
      "midi": 79,
      "start": 299.0,
      "duration": 0.472917,
      "end": 299.472917,
      "velocity": 80,
      "hand": "right",
      "interactive": true,
      "label": "79"
    },
    {
      "id": "note-402",
      "midi": 76,
      "start": 299.5,
      "duration": 0.472917,
      "end": 299.972917,
      "velocity": 80,
      "hand": "right",
      "interactive": true,
      "label": "76"
    },
    {
      "id": "note-403",
      "midi": 74,
      "start": 300.0,
      "duration": 0.472917,
      "end": 300.472917,
      "velocity": 80,
      "hand": "right",
      "interactive": true,
      "label": "74"
    },
    {
      "id": "note-404",
      "midi": 76,
      "start": 300.5,
      "duration": 0.472917,
      "end": 300.972917,
      "velocity": 80,
      "hand": "right",
      "interactive": true,
      "label": "76"
    },
    {
      "id": "note-405",
      "midi": 67,
      "start": 301.0,
      "duration": 0.947917,
      "end": 301.947917,
      "velocity": 80,
      "hand": "right",
      "interactive": true,
      "label": "67"
    },
    {
      "id": "note-406",
      "midi": 74,
      "start": 302.0,
      "duration": 0.472917,
      "end": 302.472917,
      "velocity": 80,
      "hand": "right",
      "interactive": true,
      "label": "74"
    },
    {
      "id": "note-407",
      "midi": 76,
      "start": 302.5,
      "duration": 0.472917,
      "end": 302.972917,
      "velocity": 80,
      "hand": "right",
      "interactive": true,
      "label": "76"
    },
    {
      "id": "note-408",
      "midi": 79,
      "start": 303.0,
      "duration": 0.472917,
      "end": 303.472917,
      "velocity": 80,
      "hand": "right",
      "interactive": true,
      "label": "79"
    },
    {
      "id": "note-409",
      "midi": 74,
      "start": 303.5,
      "duration": 0.472917,
      "end": 303.972917,
      "velocity": 80,
      "hand": "right",
      "interactive": true,
      "label": "74"
    },
    {
      "id": "note-410",
      "midi": 72,
      "start": 304.0,
      "duration": 2.372917,
      "end": 306.372917,
      "velocity": 80,
      "hand": "right",
      "interactive": true,
      "label": "72"
    },
    {
      "id": "note-411",
      "midi": 72,
      "start": 306.5,
      "duration": 0.472917,
      "end": 306.972917,
      "velocity": 80,
      "hand": "right",
      "interactive": true,
      "label": "72"
    },
    {
      "id": "note-412",
      "midi": 74,
      "start": 307.0,
      "duration": 0.472917,
      "end": 307.472917,
      "velocity": 80,
      "hand": "right",
      "interactive": true,
      "label": "74"
    },
    {
      "id": "note-413",
      "midi": 76,
      "start": 307.5,
      "duration": 0.472917,
      "end": 307.972917,
      "velocity": 80,
      "hand": "right",
      "interactive": true,
      "label": "76"
    },
    {
      "id": "note-414",
      "midi": 79,
      "start": 308.0,
      "duration": 0.472917,
      "end": 308.472917,
      "velocity": 80,
      "hand": "right",
      "interactive": true,
      "label": "79"
    },
    {
      "id": "note-415",
      "midi": 81,
      "start": 308.5,
      "duration": 0.472917,
      "end": 308.972917,
      "velocity": 80,
      "hand": "right",
      "interactive": true,
      "label": "81"
    },
    {
      "id": "note-416",
      "midi": 79,
      "start": 309.0,
      "duration": 0.472917,
      "end": 309.472917,
      "velocity": 80,
      "hand": "right",
      "interactive": true,
      "label": "79"
    },
    {
      "id": "note-417",
      "midi": 76,
      "start": 309.5,
      "duration": 0.472917,
      "end": 309.972917,
      "velocity": 80,
      "hand": "right",
      "interactive": true,
      "label": "76"
    },
    {
      "id": "note-418",
      "midi": 79,
      "start": 310.0,
      "duration": 0.472917,
      "end": 310.472917,
      "velocity": 80,
      "hand": "right",
      "interactive": true,
      "label": "79"
    },
    {
      "id": "note-419",
      "midi": 76,
      "start": 310.5,
      "duration": 0.472917,
      "end": 310.972917,
      "velocity": 80,
      "hand": "right",
      "interactive": true,
      "label": "76"
    },
    {
      "id": "note-420",
      "midi": 76,
      "start": 311.0,
      "duration": 0.472917,
      "end": 311.472917,
      "velocity": 80,
      "hand": "right",
      "interactive": true,
      "label": "76"
    },
    {
      "id": "note-421",
      "midi": 74,
      "start": 311.5,
      "duration": 0.472917,
      "end": 311.972917,
      "velocity": 80,
      "hand": "right",
      "interactive": true,
      "label": "74"
    },
    {
      "id": "note-422",
      "midi": 74,
      "start": 312.0,
      "duration": 1.422917,
      "end": 313.422917,
      "velocity": 80,
      "hand": "right",
      "interactive": true,
      "label": "74"
    },
    {
      "id": "note-423",
      "midi": 67,
      "start": 313.5,
      "duration": 0.472917,
      "end": 313.972917,
      "velocity": 80,
      "hand": "right",
      "interactive": true,
      "label": "67"
    },
    {
      "id": "note-424",
      "midi": 76,
      "start": 314.0,
      "duration": 0.947917,
      "end": 314.947917,
      "velocity": 80,
      "hand": "right",
      "interactive": true,
      "label": "76"
    },
    {
      "id": "note-425",
      "midi": 74,
      "start": 315.0,
      "duration": 0.472917,
      "end": 315.472917,
      "velocity": 80,
      "hand": "right",
      "interactive": true,
      "label": "74"
    },
    {
      "id": "note-426",
      "midi": 74,
      "start": 315.5,
      "duration": 0.5,
      "end": 316.0,
      "velocity": 80,
      "hand": "right",
      "interactive": true,
      "label": "74"
    },
    {
      "id": "note-427",
      "midi": 74,
      "start": 316.0,
      "duration": 0.947917,
      "end": 316.947917,
      "velocity": 80,
      "hand": "right",
      "interactive": true,
      "label": "74"
    },
    {
      "id": "note-428",
      "midi": 72,
      "start": 317.0,
      "duration": 2.847917,
      "end": 319.847917,
      "velocity": 80,
      "hand": "right",
      "interactive": true,
      "label": "72"
    },
    {
      "id": "note-429",
      "midi": 72,
      "start": 322.5,
      "duration": 0.472917,
      "end": 322.972917,
      "velocity": 80,
      "hand": "right",
      "interactive": true,
      "label": "72"
    },
    {
      "id": "note-430",
      "midi": 74,
      "start": 323.0,
      "duration": 0.472917,
      "end": 323.472917,
      "velocity": 80,
      "hand": "right",
      "interactive": true,
      "label": "74"
    },
    {
      "id": "note-431",
      "midi": 76,
      "start": 323.5,
      "duration": 0.472917,
      "end": 323.972917,
      "velocity": 80,
      "hand": "right",
      "interactive": true,
      "label": "76"
    },
    {
      "id": "note-432",
      "midi": 79,
      "start": 324.0,
      "duration": 0.472917,
      "end": 324.472917,
      "velocity": 80,
      "hand": "right",
      "interactive": true,
      "label": "79"
    },
    {
      "id": "note-433",
      "midi": 81,
      "start": 324.5,
      "duration": 0.472917,
      "end": 324.972917,
      "velocity": 80,
      "hand": "right",
      "interactive": true,
      "label": "81"
    },
    {
      "id": "note-434",
      "midi": 79,
      "start": 325.0,
      "duration": 0.472917,
      "end": 325.472917,
      "velocity": 80,
      "hand": "right",
      "interactive": true,
      "label": "79"
    },
    {
      "id": "note-435",
      "midi": 76,
      "start": 325.5,
      "duration": 0.472917,
      "end": 325.972917,
      "velocity": 80,
      "hand": "right",
      "interactive": true,
      "label": "76"
    },
    {
      "id": "note-436",
      "midi": 79,
      "start": 326.0,
      "duration": 0.472917,
      "end": 326.472917,
      "velocity": 80,
      "hand": "right",
      "interactive": true,
      "label": "79"
    },
    {
      "id": "note-437",
      "midi": 76,
      "start": 326.5,
      "duration": 0.472917,
      "end": 326.972917,
      "velocity": 80,
      "hand": "right",
      "interactive": true,
      "label": "76"
    },
    {
      "id": "note-438",
      "midi": 76,
      "start": 327.0,
      "duration": 0.472917,
      "end": 327.472917,
      "velocity": 80,
      "hand": "right",
      "interactive": true,
      "label": "76"
    },
    {
      "id": "note-439",
      "midi": 74,
      "start": 327.5,
      "duration": 0.472917,
      "end": 327.972917,
      "velocity": 80,
      "hand": "right",
      "interactive": true,
      "label": "74"
    },
    {
      "id": "note-440",
      "midi": 74,
      "start": 328.0,
      "duration": 1.422917,
      "end": 329.422917,
      "velocity": 80,
      "hand": "right",
      "interactive": true,
      "label": "74"
    },
    {
      "id": "note-441",
      "midi": 67,
      "start": 329.5,
      "duration": 0.472917,
      "end": 329.972917,
      "velocity": 80,
      "hand": "right",
      "interactive": true,
      "label": "67"
    },
    {
      "id": "note-442",
      "midi": 76,
      "start": 330.0,
      "duration": 0.947917,
      "end": 330.947917,
      "velocity": 80,
      "hand": "right",
      "interactive": true,
      "label": "76"
    },
    {
      "id": "note-443",
      "midi": 74,
      "start": 331.0,
      "duration": 0.472917,
      "end": 331.472917,
      "velocity": 80,
      "hand": "right",
      "interactive": true,
      "label": "74"
    },
    {
      "id": "note-444",
      "midi": 74,
      "start": 331.5,
      "duration": 1.422917,
      "end": 332.922917,
      "velocity": 80,
      "hand": "right",
      "interactive": true,
      "label": "74"
    },
    {
      "id": "note-445",
      "midi": 72,
      "start": 333.0,
      "duration": 2.847917,
      "end": 335.847917,
      "velocity": 80,
      "hand": "right",
      "interactive": true,
      "label": "72"
    }
  ]
}
